<svg version="1" xmlns="http://www.w3.org/2000/svg" width="1024pt" height="1024pt" viewBox="0 0 1024.000000 1024.000000"><path d="M363.6 204c-9.6 3.1-14.4 16.6-11.2 32 3 14.3 9.5 24.6 30.2 47.5 19.7 21.9 21.6 26.1 14.7 32.6-4.3 4.1-22.4 16.6-32.8 22.7-8.7 5-17.3 7.6-22.3 6.7-2.1-.4-11.3-4-20.7-8-22.4-9.6-35.3-13.7-41.9-13.3l-5.1.3.2 3.5c.2 1.9.4 9.8.5 17.5.3 11.4 0 15-1.5 19.2-2.8 7.9-6.8 12.7-13.4 15.9-17.9 8.9-52.9-2.1-104.1-32.6-29.3-17.5-57.8-37.3-109.6-76.2C28.4 258.1 12.9 247 12 247c-7 0-5.1 11.6 5.4 33.5 25.4 52.7 104 171 231.1 347.5 16.1 22.3 29.8 41.6 30.5 43 .7 1.4 3 4.9 5.2 7.8 4.8 6.5 10 9.1 17.9 9.2 5 0 7.4-.9 23.9-9 37.8-18.5 65.6-28.3 95-33.6 13.1-2.4 37.7-2.4 48.5 0 35.8 7.9 59.6 34.3 69.1 76.6 3.8 17 4.6 26.8 4.2 53-.3 23.9-.2 24.6 2.1 29.7 4.5 10.1 15.4 16.4 25.7 14.8 9.7-1.4 14-6.1 30.4-33 10.4-17 21.4-31.1 34.4-44.1 18.1-18 32.6-27.9 52.7-36.1 16.7-6.8 29.3-9.3 49.4-10 33.1-1 63.8 6.1 103.8 24.2 32.6 14.7 61.4 32.8 123.8 77.7 21.4 15.4 32.2 21.8 36.5 21.8 3.5 0 8.1-4.6 10.3-10.3 11.7-31.5 4.7-118.4-16.6-203.2-40.2-160.8-115.6-283.7-209.9-342.1-90.9-56.3-201-53.3-322.4 8.7-12.1 6.2-15.7 7.6-16.6 6.6-.7-.6-3.1-5.7-5.4-11.2-10.1-24-18.5-35.2-36.9-49.1-16.4-12.4-31.7-18.2-40.5-15.4z"/></svg>