<svg id="Layer_1" data-name="Layer 1" xmlns="http://www.w3.org/2000/svg" viewBox="0 0 251.67 189.47"><defs><style>.cls-1{fill:#fff;}.cls-2{opacity:0.9;}</style></defs><title>agnular.svg</title><polygon class="cls-1" points="130.9 116.18 108.26 116.18 97.54 142.94 97.54 142.94 77.65 142.94 77.56 142.94 130.9 23.34 130.9 23.43 130.9 23.43 130.9 3.09 130.9 3.09 45.57 33.51 58.59 146.33 130.9 186.38 130.9 186.38 130.9 116.18"/><polygon class="cls-1" points="115.32 99.68 130.9 99.68 130.9 99.68 130.9 62.2 115.32 99.68"/><g class="cls-2"><polygon class="cls-1" points="130.9 116.18 153.53 116.18 164.26 142.94 164.26 142.94 184.14 142.94 184.24 142.94 130.9 23.34 130.9 23.43 130.9 23.43 130.9 3.09 130.9 3.09 216.22 33.51 203.21 146.33 130.9 186.38 130.9 186.38 130.9 116.18"/><polygon class="cls-1" points="146.48 99.68 130.9 99.68 130.9 99.68 130.9 62.2 146.48 99.68"/></g></svg>