<?xml version="1.0" encoding="utf-8"?>
<!-- Generator: Adobe Illustrator 20.1.0, SVG Export Plug-In . SVG Version: 6.00 Build 0)  -->
<svg version="1.1" id="Layer_1" xmlns="http://www.w3.org/2000/svg" xmlns:xlink="http://www.w3.org/1999/xlink" x="0px" y="0px"
	 viewBox="0 0 251.7 189.5" style="enable-background:new 0 0 251.7 189.5;" xml:space="preserve">
<style type="text/css">
	.st0{fill:#FFFFFF;}
	.st1{fill:#FFFFFF;stroke:#FFFFFF;stroke-width:0.97;stroke-miterlimit:10;}
	.st2{fill:#FFFFFF;stroke:#FFFFFF;stroke-width:0.97;}
</style>
<title>aws.svg</title>
<path class="st0" d="M34.5,146.2L19.9,141v-21.3l14.6,5L34.5,146.2"/>
<path class="st0" d="M37.2,146.2l14.6-5.2v-21.3l-14.6,5L37.2,146.2"/>
<path class="st0" d="M21.4,118.1l14.8-4.2l13.7,4.4L36.2,123L21.4,118.1"/>
<path class="st0" d="M17.1,116.4l-14.6-5.2V89.8l14.6,5L17.1,116.4"/>
<path class="st0" d="M19.8,116.4l14.6-5.2V89.8l-14.6,5L19.8,116.4"/>
<path class="st0" d="M4.1,88.2l14.8-4.2l13.7,4.4l-13.7,4.6L4.1,88.2"/>
<path class="st0" d="M51.2,116.4l-14.6-5.2V89.8l14.6,5L51.2,116.4"/>
<path class="st0" d="M53.8,116.4l14.6-5.2V89.8l-14.6,5V116.4"/>
<path class="st0" d="M38.1,88.2l14.8-4.2l13.7,4.4l-13.7,4.6L38.1,88.2"/>
<path class="st0" d="M68.5,86.6l-14.6-5.2V60l14.6,5L68.5,86.6"/>
<path class="st0" d="M71.2,86.6l14.6-5.2V60l-14.6,5V86.6"/>
<path class="st0" d="M55.4,58.4l14.8-4.2l13.7,4.4l-13.7,4.6L55.4,58.4"/>
<path class="st0" d="M102.5,86.6l-14.6-5.2V60l14.6,5V86.6"/>
<path class="st0" d="M105.2,86.6l14.6-5.2V60l-14.6,5V86.6"/>
<path class="st0" d="M89.4,58.4l14.8-4.2l13.7,4.4l-13.7,4.6L89.4,58.4"/>
<path class="st1" d="M95.1,132.3l-4.9,17h-2.1l-3.8-12.6l-3.5,12.6h-2.2l-5.1-17h2.6l3.7,12.7l3.5-12.7h1.9l3.8,12.7l3.8-12.7H95.1z
	"/>
<path class="st2" d="M95.1,132.3l-4.9,17h-2.1l-3.8-12.6l-3.5,12.6h-2.2l-5.1-17h2.6l3.7,12.7l3.5-12.7h1.9l3.8,12.7l3.8-12.7H95.1z
	"/>
<path class="st1" d="M108.7,144.3l2.5,0.5c-0.5,1.5-1.4,2.7-2.6,3.6c-1.3,1-2.9,1.5-4.6,1.4c-2.2,0.1-4.2-0.8-5.6-2.4
	c-2.9-3.9-2.9-9.2,0.1-13c1.4-1.6,3.5-2.5,5.6-2.5c2-0.1,4,0.8,5.4,2.3c1.3,1.5,2,3.8,2.1,6.9H99.1c0,2.6,0.5,4.3,1.6,5.2
	c0.9,0.8,2.1,1.3,3.4,1.4C106.2,147.7,108.1,146.3,108.7,144.3L108.7,144.3z M108.5,139.1c0-0.9-0.2-1.7-0.5-2.5
	c-0.3-0.8-0.8-1.4-1.5-1.9c-0.7-0.5-1.6-0.8-2.5-0.8c-1.3,0-2.5,0.5-3.3,1.4c-1,1-1.5,2.4-1.5,3.8L108.5,139.1z"/>
<path class="st2" d="M108.7,144.3l2.5,0.5c-0.5,1.5-1.4,2.7-2.6,3.6c-1.3,1-2.9,1.5-4.6,1.4c-2.2,0.1-4.2-0.8-5.6-2.4
	c-2.9-3.9-2.9-9.2,0.1-13c1.4-1.6,3.5-2.5,5.6-2.5c2-0.1,4,0.8,5.4,2.3c1.3,1.5,2,3.8,2.1,6.9H99.1c0,2.6,0.5,4.3,1.6,5.2
	c0.9,0.8,2.1,1.3,3.4,1.4C106.2,147.7,108.1,146.3,108.7,144.3L108.7,144.3z M108.5,139.1c0-0.9-0.2-1.7-0.5-2.5
	c-0.3-0.8-0.8-1.4-1.5-1.9c-0.7-0.5-1.6-0.8-2.5-0.8c-1.3,0-2.5,0.5-3.3,1.4c-1,1-1.5,2.4-1.5,3.8L108.5,139.1z"/>
<path class="st1" d="M116.2,149.3h-1.3v-23h2.7v8.8c1.2-2.2,2.9-3.3,5-3.3c1.9,0,3.7,0.8,4.9,2.3c1.3,1.5,2,3.8,2,6.7
	c0.1,2.3-0.6,4.5-1.9,6.4c-1.1,1.6-3,2.6-5.1,2.6c-2.3,0-4.3-1.3-5.3-3.3L116.2,149.3L116.2,149.3z M117.5,142.7
	c0,1.4,0.6,2.8,1.6,3.8c0.8,0.7,1.9,1.2,3,1.2c1.3,0,2.5-0.6,3.3-1.8c0.9-1.4,1.3-3.1,1.2-4.8c0.1-1.8-0.3-3.6-1.2-5.2
	c-0.7-1.2-1.9-1.9-3.3-1.9c-1.1,0-2.2,0.5-3,1.3c-0.9,0.9-1.5,2.2-1.6,3.5L117.5,142.7L117.5,142.7z"/>
<path class="st2" d="M116.2,149.3h-1.3v-23h2.7v8.8c1.2-2.2,2.9-3.3,5-3.3c1.9,0,3.7,0.8,4.9,2.3c1.3,1.5,2,3.8,2,6.7
	c0.1,2.3-0.6,4.5-1.9,6.4c-1.1,1.6-3,2.6-5.1,2.6c-2.3,0-4.3-1.3-5.3-3.3L116.2,149.3L116.2,149.3z M117.5,142.7
	c0,1.4,0.6,2.8,1.6,3.8c0.8,0.7,1.9,1.2,3,1.2c1.3,0,2.5-0.6,3.3-1.8c0.9-1.4,1.3-3.1,1.2-4.8c0.1-1.8-0.3-3.6-1.2-5.2
	c-0.7-1.2-1.9-1.9-3.3-1.9c-1.1,0-2.2,0.5-3,1.3c-0.9,0.9-1.5,2.2-1.6,3.5L117.5,142.7L117.5,142.7z"/>
<path class="st1" d="M136.2,144.9l2.5-0.5c0.6,2.1,2.3,3.2,5.3,3.2c1,0,2-0.2,2.8-0.7c0.7-0.4,1.2-1.2,1.1-2.1c0-1.3-1-2.2-2.9-2.5
	l-3.6-0.7c-1.2-0.2-2.4-0.7-3.4-1.6c-0.8-0.8-1.3-2-1.2-3.1c0-1.4,0.6-2.7,1.7-3.6c1.3-1,2.9-1.5,4.6-1.4c3.7,0,6,1.4,6.8,4.3
	l-2.4,0.5c-0.7-1.8-2.4-2.8-4.3-2.6c-0.9,0-1.8,0.2-2.6,0.7c-0.6,0.4-1,1.1-1,1.9c0,1.2,0.9,2,2.6,2.4l3.3,0.6
	c3.5,0.6,5.2,2.3,5.2,5c0,1.5-0.7,2.9-1.9,3.8c-1.5,1-3.3,1.5-5.1,1.4C139.7,149.8,137.2,148.1,136.2,144.9L136.2,144.9z"/>
<path class="st2" d="M136.2,144.9l2.5-0.5c0.6,2.1,2.3,3.2,5.3,3.2c1,0,2-0.2,2.8-0.7c0.7-0.4,1.2-1.2,1.1-2.1c0-1.3-1-2.2-2.9-2.5
	l-3.6-0.7c-1.2-0.2-2.4-0.7-3.4-1.6c-0.8-0.8-1.3-2-1.2-3.1c0-1.4,0.6-2.7,1.7-3.6c1.3-1,2.9-1.5,4.6-1.4c3.7,0,6,1.4,6.8,4.3
	l-2.4,0.5c-0.7-1.8-2.4-2.8-4.3-2.6c-0.9,0-1.8,0.2-2.6,0.7c-0.6,0.4-1,1.1-1,1.9c0,1.2,0.9,2,2.6,2.4l3.3,0.6
	c3.5,0.6,5.2,2.3,5.2,5c0,1.5-0.7,2.9-1.9,3.8c-1.5,1-3.3,1.5-5.1,1.4C139.7,149.8,137.2,148.1,136.2,144.9L136.2,144.9z"/>
<path class="st1" d="M164.8,144.3l2.5,0.5c-0.5,1.5-1.4,2.7-2.6,3.6c-1.3,1-2.9,1.5-4.6,1.4c-2.2,0.1-4.2-0.8-5.6-2.4
	c-2.9-3.9-2.9-9.2,0.1-13c1.4-1.6,3.5-2.5,5.6-2.5c2-0.1,4,0.8,5.4,2.3c1.3,1.5,2,3.8,2.1,6.9h-12.4c0,2.6,0.5,4.3,1.6,5.2
	c0.9,0.8,2.1,1.3,3.4,1.4C162.4,147.7,164.2,146.3,164.8,144.3L164.8,144.3z M164.7,139.1c0-0.9-0.2-1.7-0.5-2.5
	c-0.3-0.8-0.8-1.4-1.5-1.9c-0.7-0.5-1.6-0.8-2.5-0.8c-1.3,0-2.5,0.5-3.3,1.4c-1,1-1.5,2.4-1.5,3.8L164.7,139.1z"/>
<path class="st2" d="M164.8,144.3l2.5,0.5c-0.5,1.5-1.4,2.7-2.6,3.6c-1.3,1-2.9,1.5-4.6,1.4c-2.2,0.1-4.2-0.8-5.6-2.4
	c-2.9-3.9-2.9-9.2,0.1-13c1.4-1.6,3.5-2.5,5.6-2.5c2-0.1,4,0.8,5.4,2.3c1.3,1.5,2,3.8,2.1,6.9h-12.4c0,2.6,0.5,4.3,1.6,5.2
	c0.9,0.8,2.1,1.3,3.4,1.4C162.4,147.7,164.2,146.3,164.8,144.3L164.8,144.3z M164.7,139.1c0-0.9-0.2-1.7-0.5-2.5
	c-0.3-0.8-0.8-1.4-1.5-1.9c-0.7-0.5-1.6-0.8-2.5-0.8c-1.3,0-2.5,0.5-3.3,1.4c-1,1-1.5,2.4-1.5,3.8L164.7,139.1z"/>
<path class="st1" d="M173.1,149.3h-2.6v-17h2.3v4c0.5-1.4,1.3-2.6,2.5-3.6c0.7-0.5,1.6-0.8,2.5-0.8c0.3,0,0.6,0,1,0.1v2.5h-0.5
	c-1.4,0-2.7,0.6-3.6,1.6c-1,1.2-1.6,2.7-1.6,4.3L173.1,149.3L173.1,149.3z"/>
<path class="st2" d="M173.1,149.3h-2.6v-17h2.3v4c0.5-1.4,1.3-2.6,2.5-3.6c0.7-0.5,1.6-0.8,2.5-0.8c0.3,0,0.6,0,1,0.1v2.5h-0.5
	c-1.4,0-2.7,0.6-3.6,1.6c-1,1.2-1.6,2.7-1.6,4.3L173.1,149.3L173.1,149.3z"/>
<path class="st1" d="M195.2,132.3l-5.9,17h-2.8l-6.1-17h2.9l4.7,13.8l4.7-13.8H195.2z"/>
<path class="st2" d="M195.2,132.3l-5.9,17h-2.8l-6.1-17h2.9l4.7,13.8l4.7-13.8H195.2z"/>
<path class="st1" d="M197.4,126.4h2.8v2.9h-2.8V126.4z M197.5,132.4h2.6v17h-2.6V132.4z"/>
<path class="st2" d="M197.4,126.4h2.8v2.9h-2.8V126.4z M197.5,132.4h2.6v17h-2.6V132.4z"/>
<path class="st1" d="M214,143.4l2.4,0.4c-0.2,1.7-1,3.2-2.2,4.4c-2.8,2.4-7.1,2.1-9.5-0.8c-0.1-0.1-0.1-0.1-0.2-0.2
	c-1.3-1.9-1.9-4.1-1.8-6.3c-0.1-2.3,0.6-4.6,1.9-6.4c1.2-1.7,3.2-2.6,5.3-2.6c1.6-0.1,3.3,0.5,4.4,1.7c1.1,1.2,1.9,2.7,2.1,4.3
	l-2.4,0.4c-0.4-2.8-1.8-4.2-4.1-4.2c-1.4,0-2.7,0.7-3.4,1.9c-0.8,1.5-1.3,3.1-1.2,4.8c-0.1,1.8,0.3,3.5,1.2,5.1
	c0.7,1.2,1.9,1.8,3.3,1.8C212,147.6,213.4,146.2,214,143.4L214,143.4z"/>
<path class="st2" d="M214,143.4l2.4,0.4c-0.2,1.7-1,3.2-2.2,4.4c-2.8,2.4-7.1,2.1-9.5-0.8c-0.1-0.1-0.1-0.1-0.2-0.2
	c-1.3-1.9-1.9-4.1-1.8-6.3c-0.1-2.3,0.6-4.6,1.9-6.4c1.2-1.7,3.2-2.6,5.3-2.6c1.6-0.1,3.3,0.5,4.4,1.7c1.1,1.2,1.9,2.7,2.1,4.3
	l-2.4,0.4c-0.4-2.8-1.8-4.2-4.1-4.2c-1.4,0-2.7,0.7-3.4,1.9c-0.8,1.5-1.3,3.1-1.2,4.8c-0.1,1.8,0.3,3.5,1.2,5.1
	c0.7,1.2,1.9,1.8,3.3,1.8C212,147.6,213.4,146.2,214,143.4L214,143.4z"/>
<path class="st1" d="M231.3,144.3l2.5,0.5c-0.5,1.5-1.4,2.7-2.6,3.6c-1.3,1-2.9,1.5-4.6,1.4c-2.2,0.1-4.2-0.8-5.6-2.4
	c-2.9-3.9-2.9-9.2,0.1-13c1.4-1.6,3.5-2.5,5.6-2.5c2-0.1,4,0.8,5.4,2.3c1.3,1.5,2,3.8,2.1,6.9h-12.4c0,2.6,0.5,4.3,1.6,5.2
	c0.9,0.8,2.1,1.3,3.4,1.4C228.8,147.7,230.7,146.3,231.3,144.3L231.3,144.3z M231.2,139.1c0-0.9-0.2-1.7-0.5-2.5
	c-0.3-0.8-0.8-1.4-1.5-1.9c-0.7-0.5-1.6-0.8-2.5-0.8c-1.3,0-2.5,0.5-3.3,1.4c-1,1-1.5,2.4-1.5,3.8L231.2,139.1z"/>
<path class="st2" d="M231.3,144.3l2.5,0.5c-0.5,1.5-1.4,2.7-2.6,3.6c-1.3,1-2.9,1.5-4.6,1.4c-2.2,0.1-4.2-0.8-5.6-2.4
	c-2.9-3.9-2.9-9.2,0.1-13c1.4-1.6,3.5-2.5,5.6-2.5c2-0.1,4,0.8,5.4,2.3c1.3,1.5,2,3.8,2.1,6.9h-12.4c0,2.6,0.5,4.3,1.6,5.2
	c0.9,0.8,2.1,1.3,3.4,1.4C228.8,147.7,230.7,146.3,231.3,144.3L231.3,144.3z M231.2,139.1c0-0.9-0.2-1.7-0.5-2.5
	c-0.3-0.8-0.8-1.4-1.5-1.9c-0.7-0.5-1.6-0.8-2.5-0.8c-1.3,0-2.5,0.5-3.3,1.4c-1,1-1.5,2.4-1.5,3.8L231.2,139.1z"/>
<path class="st1" d="M235.6,144.9l2.5-0.5c0.6,2.1,2.3,3.2,5.3,3.2c1,0,2-0.2,2.8-0.7c0.7-0.4,1.2-1.2,1.1-2.1c0-1.3-1-2.2-2.9-2.5
	l-3.6-0.7c-1.2-0.2-2.4-0.7-3.4-1.6c-0.8-0.8-1.3-2-1.2-3.1c0-1.4,0.6-2.7,1.7-3.6c1.3-1,2.9-1.5,4.6-1.4c3.7,0,6,1.4,6.8,4.3
	l-2.4,0.5c-0.7-1.8-2.4-2.8-4.3-2.6c-0.9,0-1.8,0.2-2.6,0.7c-0.6,0.4-1,1.1-1,1.9c0,1.2,0.9,2,2.6,2.4l3.3,0.6
	c3.5,0.6,5.2,2.3,5.2,5c0,1.5-0.7,2.9-1.9,3.8c-1.5,1-3.3,1.5-5.1,1.4C239.1,149.8,236.6,148.1,235.6,144.9L235.6,144.9z"/>
<path class="st2" d="M235.6,144.9l2.5-0.5c0.6,2.1,2.3,3.2,5.3,3.2c1,0,2-0.2,2.8-0.7c0.7-0.4,1.2-1.2,1.1-2.1c0-1.3-1-2.2-2.9-2.5
	l-3.6-0.7c-1.2-0.2-2.4-0.7-3.4-1.6c-0.8-0.8-1.3-2-1.2-3.1c0-1.4,0.6-2.7,1.7-3.6c1.3-1,2.9-1.5,4.6-1.4c3.7,0,6,1.4,6.8,4.3
	l-2.4,0.5c-0.7-1.8-2.4-2.8-4.3-2.6c-0.9,0-1.8,0.2-2.6,0.7c-0.6,0.4-1,1.1-1,1.9c0,1.2,0.9,2,2.6,2.4l3.3,0.6
	c3.5,0.6,5.2,2.3,5.2,5c0,1.5-0.7,2.9-1.9,3.8c-1.5,1-3.3,1.5-5.1,1.4C239.1,149.8,236.6,148.1,235.6,144.9L235.6,144.9z"/>
<path class="st0" d="M175.8,96v-4.1c0-0.6,0.4-1,1-1h18.3c0.6,0,1,0.4,1.1,0.9c0,0,0,0,0,0.1v3.5c0,0.6-0.5,1.3-1.4,2.6l-9.5,13.5
	c3.6-0.2,7.2,0.6,10.4,2.2c0.6,0.3,1,0.9,1,1.6v4.4c0,0.6-0.7,1.3-1.4,0.9c-6.1-3.1-13.3-3.1-19.4,0c-0.6,0.3-1.3-0.3-1.3-0.9v-4.1
	c-0.1-1,0.2-2,0.7-2.8l11-15.8h-9.6C176.3,97,175.9,96.6,175.8,96C175.8,96,175.8,96,175.8,96"/>
<path class="st0" d="M110.3,121.5h-5.6c-0.5,0-0.9-0.4-1-0.9V92c0-0.6,0.5-1,1.1-1h5.2c0.6,0,1,0.4,1,1v3.7h0.1
	c1.3-3.6,3.9-5.3,7.3-5.3s5.7,1.7,7.2,5.3c1.6-4.2,6.4-6.4,10.6-4.7c1.4,0.5,2.6,1.4,3.5,2.6c1.8,2.4,1.4,5.9,1.4,9v18
	c0,0.6-0.5,1-1.1,1h-5.6c-0.6,0-1-0.4-1-1v-15.3c0.1-1.8,0-3.6-0.2-5.4c-0.4-1.9-1.7-2.5-3.3-2.5c-1.5,0-2.8,1-3.3,2.3
	c-0.6,1.4-0.5,3.8-0.5,5.5v15.2c0,0.6-0.5,1-1.1,1h-5.6c-0.6,0-1-0.4-1-1v-15.2c0-3.2,0.5-7.9-3.4-7.9s-3.8,4.6-3.8,7.9v15.2
	C111.3,121,110.9,121.5,110.3,121.5"/>
<path class="st0" d="M209.7,90.3c8.2,0,12.6,7.1,12.6,16.1c0,8.7-4.9,15.6-12.6,15.6c-8,0-12.4-7.1-12.4-15.9S201.7,90.3,209.7,90.3
	z M209.7,96.9c-4.1,0-4.3,5.6-4.3,9.1s-0.1,10.2,4.3,10.2s4.5-5.3,4.5-9c0.1-2.6-0.2-5.1-0.8-7.6C213,97.9,211.5,96.8,209.7,96.9
	L209.7,96.9z"/>
<path class="st0" d="M234.2,121.5h-5.6c-0.6,0-1-0.4-1-1V91.9c0.1-0.5,0.5-0.9,1.1-0.9h5.2c0.5,0,0.9,0.3,1,0.8v4.4h0.1
	c1.6-3.9,3.7-5.8,7.6-5.8c2.6-0.1,5.1,1.2,6.5,3.4c1.5,2.3,1.5,6.1,1.5,8.9v18c-0.1,0.5-0.5,0.9-1.1,0.9h-5.6c-0.5,0-0.9-0.4-1-0.9
	v-15.5c0-3.1,0.4-7.7-3.5-7.7c-1.4,0.1-2.7,1-3.2,2.3c-0.7,1.7-1,3.6-0.9,5.4v15.4C235.3,121.1,234.8,121.5,234.2,121.5"/>
<path class="st0" d="M171.7,116.3c-1-1.4-2.1-2.5-2.1-5.2v-8.7c0-3.7,0.3-7.1-2.5-9.6c-2.1-2-5.7-2.8-8.4-2.8
	c-5.3,0-11.2,2-12.5,8.5c0,0,0,0,0,0c-0.1,0.5,0.3,1.1,0.8,1.1l5.4,0.6c0.5-0.1,0.9-0.5,1-1c0.4-2.1,2.4-3.5,4.5-3.4
	c1.2-0.1,2.4,0.5,3.1,1.4c0.8,1.1,0.7,2.7,0.7,4v0.7c-3.2,0.4-7.5,0.6-10.5,1.9c-3.7,1.5-6.1,5.1-5.9,9.1c0,5.8,3.6,8.7,8.3,8.7
	c4,0,6.1-0.9,9.2-4c0.8,1.4,1.9,2.7,3.2,3.7c0.4,0.2,1,0.2,1.3-0.1l0,0c1.1-1,3.1-2.7,4.3-3.7c0,0,0,0,0.1-0.1
	C172.2,117.3,172.1,116.7,171.7,116.3z M161.9,107.9L161.9,107.9c0,2.1,0,4-1,5.9c-0.7,1.5-2.2,2.5-3.9,2.5c-2.1,0-3.4-1.6-3.4-4
	c0-4.7,4.3-5.6,8.3-5.6V107.9z"/>
<path class="st0" d="M99.4,116.2c-1-1.4-2.1-2.5-2.1-5.2v-8.7c0-3.7,0.3-7.1-2.5-9.6c-2.1-2-5.7-2.8-8.4-2.8c-5.3,0-11.2,2-12.5,8.5
	c0,0,0,0,0,0c-0.1,0.5,0.2,1.1,0.8,1.2l5.4,0.6c0.5-0.1,0.9-0.5,1-1c0.4-2.1,2.4-3.5,4.5-3.4c1.2-0.1,2.4,0.5,3.1,1.5
	c0.8,1.1,0.7,2.7,0.7,4v0.7c-3.2,0.4-7.5,0.6-10.5,1.9c-3.7,1.5-6.1,5.1-6,9.1c0,5.8,3.7,8.7,8.3,8.7c4,0,6.1-0.9,9.2-4
	c0.8,1.4,1.9,2.7,3.2,3.7c0.4,0.2,1,0.2,1.3-0.1l0,0c1.1-1,3.1-2.7,4.3-3.7c0,0,0,0,0.1-0.1C99.8,117.3,99.8,116.6,99.4,116.2z
	 M89.5,107.9L89.5,107.9c0,2.1,0,4-1,5.9c-0.7,1.5-2.2,2.5-3.9,2.5c-2.1,0-3.4-1.6-3.4-4c0-4.7,4.3-5.6,8.3-5.6V107.9z"/>
<path class="st0" d="M-103.6,69c-1-1.4-2.1-2.5-2.1-5.2v-8.7c0-3.7,0.3-7.1-2.5-9.6c-2.1-2-5.7-2.8-8.4-2.8c-5.3,0-11.2,2-12.5,8.5
	c0,0,0,0,0,0c-0.1,0.5,0.2,1.1,0.8,1.2l5.4,0.6c0.5-0.1,0.9-0.5,1-1c0.4-2.1,2.4-3.5,4.5-3.3c1.2-0.1,2.4,0.5,3.1,1.5
	c0.8,1.1,0.7,2.7,0.7,4V55c-3.2,0.4-7.5,0.6-10.5,1.9c-3.7,1.5-6.1,5.1-6,9.1c0,5.8,3.6,8.7,8.3,8.7c4,0,6.1-0.9,9.2-4
	c0.8,1.4,1.9,2.7,3.2,3.7c0.4,0.2,1,0.2,1.3-0.1l0,0c1.1-1,3.1-2.7,4.3-3.7c0,0,0,0,0.1-0.1C-103.2,70-103.2,69.4-103.6,69z
	 M-113.5,60.7L-113.5,60.7c0,2.1,0,4-1,5.9c-0.7,1.5-2.2,2.5-3.9,2.5c-2.1,0-3.4-1.6-3.4-4c0-4.7,4.3-5.6,8.3-5.6V60.7z"/>
</svg>
