<svg id="Layer_1" data-name="Layer 1" xmlns="http://www.w3.org/2000/svg" viewBox="0 0 251.67 189.47"><defs><style>.cls-1,.cls-2,.cls-3{fill:#fff;}.cls-2,.cls-3{stroke:#fff;stroke-width:0.97px;}.cls-2{stroke-miterlimit:10;}.cls-4{fill:#0f1b35;}</style></defs><title>aws.svg</title><path class="cls-1" d="M34.5,146.25,19.93,141V119.65l14.58,5v21.63"/><path class="cls-1" d="M37.18,146.25,51.75,141V119.65l-14.58,5v21.63"/><path class="cls-1" d="M21.43,118.06l14.75-4.15,13.68,4.41L36.18,123l-14.75-4.9"/><path class="cls-1" d="M17.15,116.4,2.58,111.17V89.81l14.58,5V116.4"/><path class="cls-1" d="M19.82,116.4l14.58-5.23V89.81l-14.58,5V116.4"/><path class="cls-1" d="M4.07,88.21l14.75-4.15L32.5,88.47,18.83,93.11,4.07,88.21"/><path class="cls-1" d="M51.16,116.4l-14.58-5.23V89.81l14.58,5V116.4"/><path class="cls-1" d="M53.83,116.4l14.58-5.23V89.81l-14.58,5V116.4"/><path class="cls-1" d="M38.08,88.21l14.75-4.15,13.68,4.41L52.84,93.11l-14.75-4.9"/><path class="cls-1" d="M68.51,86.55,53.94,81.33V60l14.58,5V86.55"/><path class="cls-1" d="M71.19,86.55l14.58-5.23V60l-14.58,5V86.55"/><path class="cls-1" d="M55.44,58.36l14.75-4.15,13.68,4.41L70.19,63.26l-14.75-4.9"/><path class="cls-1" d="M102.53,86.55,87.95,81.33V60l14.58,5V86.55"/><path class="cls-1" d="M105.2,86.55l14.58-5.23V60l-14.58,5V86.55"/><path class="cls-1" d="M89.45,58.36l14.75-4.15,13.68,4.41L104.2,63.26l-14.75-4.9"/><path class="cls-2" d="M95.11,132.33l-4.9,17H88.09L84.27,136.7l-3.5,12.63H78.61l-5.09-17h2.63L79.86,145l3.53-12.68h1.94L89.16,145,93,132.33Z"/><path class="cls-3" d="M95.11,132.33l-4.9,17H88.09L84.27,136.7l-3.5,12.63H78.61l-5.09-17h2.63L79.86,145l3.53-12.68h1.94L89.16,145,93,132.33Z"/><path class="cls-2" d="M108.65,144.26l2.47.51a6.93,6.93,0,0,1-2.62,3.61,7.55,7.55,0,0,1-4.59,1.43,7.13,7.13,0,0,1-5.63-2.45,10.72,10.72,0,0,1,.08-13,7.21,7.21,0,0,1,5.62-2.5,6.78,6.78,0,0,1,5.36,2.31q2,2.31,2.08,6.9H99.06q0,3.86,1.61,5.21a5.24,5.24,0,0,0,3.41,1.35,4.66,4.66,0,0,0,4.57-3.35Zm-.14-5.18a7.38,7.38,0,0,0-.47-2.54,4.34,4.34,0,0,0-1.48-1.89,4.05,4.05,0,0,0-2.5-.78,4.47,4.47,0,0,0-3.34,1.41,5.86,5.86,0,0,0-1.54,3.8Z"/><path class="cls-3" d="M108.65,144.26l2.47.51a6.93,6.93,0,0,1-2.62,3.61,7.55,7.55,0,0,1-4.59,1.43,7.13,7.13,0,0,1-5.63-2.45,10.72,10.72,0,0,1,.08-13,7.21,7.21,0,0,1,5.62-2.5,6.78,6.78,0,0,1,5.36,2.31q2,2.31,2.08,6.9H99.06q0,3.86,1.61,5.21a5.24,5.24,0,0,0,3.41,1.35,4.66,4.66,0,0,0,4.57-3.35Zm-.14-5.18a7.38,7.38,0,0,0-.47-2.54,4.34,4.34,0,0,0-1.48-1.89,4.05,4.05,0,0,0-2.5-.78,4.47,4.47,0,0,0-3.34,1.41,5.86,5.86,0,0,0-1.54,3.8Z"/><path class="cls-2" d="M116.16,149.34h-1.27v-23h2.65v8.79q1.81-3.31,5-3.31a6.18,6.18,0,0,1,4.9,2.31q2,2.31,2,6.71a10.26,10.26,0,0,1-1.94,6.36,6,6,0,0,1-5.05,2.57,5.81,5.81,0,0,1-5.31-3.29l-.94,2.81Zm1.38-6.67a5.18,5.18,0,0,0,1.61,3.8,4.63,4.63,0,0,0,3,1.18,3.81,3.81,0,0,0,3.26-1.75,8.2,8.2,0,0,0,1.24-4.8,9.58,9.58,0,0,0-1.19-5.16,3.73,3.73,0,0,0-3.31-1.88,4.15,4.15,0,0,0-3,1.34,5.68,5.68,0,0,0-1.59,3.46v3.82Z"/><path class="cls-3" d="M116.16,149.34h-1.27v-23h2.65v8.79q1.81-3.31,5-3.31a6.18,6.18,0,0,1,4.9,2.31q2,2.31,2,6.71a10.26,10.26,0,0,1-1.94,6.36,6,6,0,0,1-5.05,2.57,5.81,5.81,0,0,1-5.31-3.29l-.94,2.81Zm1.38-6.67a5.18,5.18,0,0,0,1.61,3.8,4.63,4.63,0,0,0,3,1.18,3.81,3.81,0,0,0,3.26-1.75,8.2,8.2,0,0,0,1.24-4.8,9.58,9.58,0,0,0-1.19-5.16,3.73,3.73,0,0,0-3.31-1.88,4.15,4.15,0,0,0-3,1.34,5.68,5.68,0,0,0-1.59,3.46v3.82Z"/><path class="cls-2" d="M136.17,144.93l2.53-.52q.84,3.2,5.32,3.2a5,5,0,0,0,2.8-.74,2.34,2.34,0,0,0,1.15-2.08q0-2-2.92-2.54l-3.58-.68a6.54,6.54,0,0,1-3.35-1.58,4.09,4.09,0,0,1-1.24-3.12,4.5,4.5,0,0,1,1.7-3.58,6.85,6.85,0,0,1,4.58-1.44q5.53,0,6.83,4.33l-2.42.52a4.14,4.14,0,0,0-4.29-2.65,4.84,4.84,0,0,0-2.65.66,2.08,2.08,0,0,0-1,1.85q0,1.87,2.64,2.36l3.31.61q5.2.94,5.2,5a4.5,4.5,0,0,1-1.94,3.79,8.42,8.42,0,0,1-5.15,1.44q-6,0-7.48-4.88Z"/><path class="cls-3" d="M136.17,144.93l2.53-.52q.84,3.2,5.32,3.2a5,5,0,0,0,2.8-.74,2.34,2.34,0,0,0,1.15-2.08q0-2-2.92-2.54l-3.58-.68a6.54,6.54,0,0,1-3.35-1.58,4.09,4.09,0,0,1-1.24-3.12,4.5,4.5,0,0,1,1.7-3.58,6.85,6.85,0,0,1,4.58-1.44q5.53,0,6.83,4.33l-2.42.52a4.14,4.14,0,0,0-4.29-2.65,4.84,4.84,0,0,0-2.65.66,2.08,2.08,0,0,0-1,1.85q0,1.87,2.64,2.36l3.31.61q5.2.94,5.2,5a4.5,4.5,0,0,1-1.94,3.79,8.42,8.42,0,0,1-5.15,1.44q-6,0-7.48-4.88Z"/><path class="cls-2" d="M164.82,144.26l2.46.51a6.92,6.92,0,0,1-2.62,3.61,7.55,7.55,0,0,1-4.59,1.43,7.13,7.13,0,0,1-5.63-2.45,10.72,10.72,0,0,1,.09-13,7.21,7.21,0,0,1,5.62-2.5,6.78,6.78,0,0,1,5.35,2.31q2,2.31,2.08,6.9H155.23q0,3.86,1.61,5.21a5.25,5.25,0,0,0,3.41,1.35,4.66,4.66,0,0,0,4.57-3.35Zm-.14-5.18a7.39,7.39,0,0,0-.47-2.54,4.34,4.34,0,0,0-1.48-1.89,4.05,4.05,0,0,0-2.5-.78,4.47,4.47,0,0,0-3.34,1.41,5.86,5.86,0,0,0-1.54,3.8Z"/><path class="cls-3" d="M164.82,144.26l2.46.51a6.92,6.92,0,0,1-2.62,3.61,7.55,7.55,0,0,1-4.59,1.43,7.13,7.13,0,0,1-5.63-2.45,10.72,10.72,0,0,1,.09-13,7.21,7.21,0,0,1,5.62-2.5,6.78,6.78,0,0,1,5.35,2.31q2,2.31,2.08,6.9H155.23q0,3.86,1.61,5.21a5.25,5.25,0,0,0,3.41,1.35,4.66,4.66,0,0,0,4.57-3.35Zm-.14-5.18a7.39,7.39,0,0,0-.47-2.54,4.34,4.34,0,0,0-1.48-1.89,4.05,4.05,0,0,0-2.5-.78,4.47,4.47,0,0,0-3.34,1.41,5.86,5.86,0,0,0-1.54,3.8Z"/><path class="cls-2" d="M173.07,149.34h-2.65v-17h2.32v4a8.45,8.45,0,0,1,2.46-3.61,4.51,4.51,0,0,1,2.53-.83c.27,0,.62,0,1,.06v2.53h-.54a4.65,4.65,0,0,0-3.63,1.62,6.57,6.57,0,0,0-1.55,4.27v9Z"/><path class="cls-3" d="M173.07,149.34h-2.65v-17h2.32v4a8.45,8.45,0,0,1,2.46-3.61,4.51,4.51,0,0,1,2.53-.83c.27,0,.62,0,1,.06v2.53h-.54a4.65,4.65,0,0,0-3.63,1.62,6.57,6.57,0,0,0-1.55,4.27v9Z"/><path class="cls-2" d="M195.24,132.33l-5.87,17h-2.75l-6.07-17h2.93l4.72,13.83,4.68-13.83Z"/><path class="cls-3" d="M195.24,132.33l-5.87,17h-2.75l-6.07-17h2.93l4.72,13.83,4.68-13.83Z"/><path class="cls-2" d="M197.36,126.37h2.83v2.94h-2.83Zm.12,6h2.65v17h-2.65Z"/><path class="cls-3" d="M197.36,126.37h2.83v2.94h-2.83Zm.12,6h2.65v17h-2.65Z"/><path class="cls-2" d="M214,143.38l2.38.42a7.61,7.61,0,0,1-2.24,4.41,6.75,6.75,0,0,1-9.68-1,10.67,10.67,0,0,1-1.84-6.34,10.39,10.39,0,0,1,1.94-6.45,6.28,6.28,0,0,1,5.29-2.57,6,6,0,0,1,4.45,1.66,7.45,7.45,0,0,1,2.08,4.29l-2.38.45q-.67-4.21-4.07-4.21a3.75,3.75,0,0,0-3.36,1.86,8.88,8.88,0,0,0-1.18,4.82,9.32,9.32,0,0,0,1.17,5.07,3.7,3.7,0,0,0,3.29,1.81q3.28,0,4.15-4.23Z"/><path class="cls-3" d="M214,143.38l2.38.42a7.61,7.61,0,0,1-2.24,4.41,6.75,6.75,0,0,1-9.68-1,10.67,10.67,0,0,1-1.84-6.34,10.39,10.39,0,0,1,1.94-6.45,6.28,6.28,0,0,1,5.29-2.57,6,6,0,0,1,4.45,1.66,7.45,7.45,0,0,1,2.08,4.29l-2.38.45q-.67-4.21-4.07-4.21a3.75,3.75,0,0,0-3.36,1.86,8.88,8.88,0,0,0-1.18,4.82,9.32,9.32,0,0,0,1.17,5.07,3.7,3.7,0,0,0,3.29,1.81q3.28,0,4.15-4.23Z"/><path class="cls-2" d="M231.31,144.26l2.46.51a6.92,6.92,0,0,1-2.62,3.61,7.55,7.55,0,0,1-4.59,1.43,7.13,7.13,0,0,1-5.63-2.45,10.72,10.72,0,0,1,.09-13,7.21,7.21,0,0,1,5.62-2.5,6.78,6.78,0,0,1,5.35,2.31q2,2.31,2.08,6.9H221.71q0,3.86,1.61,5.21a5.25,5.25,0,0,0,3.41,1.35,4.66,4.66,0,0,0,4.57-3.35Zm-.14-5.18a7.38,7.38,0,0,0-.47-2.54,4.34,4.34,0,0,0-1.48-1.89,4.05,4.05,0,0,0-2.5-.78,4.47,4.47,0,0,0-3.34,1.41,5.85,5.85,0,0,0-1.54,3.8Z"/><path class="cls-3" d="M231.31,144.26l2.46.51a6.92,6.92,0,0,1-2.62,3.61,7.55,7.55,0,0,1-4.59,1.43,7.13,7.13,0,0,1-5.63-2.45,10.72,10.72,0,0,1,.09-13,7.21,7.21,0,0,1,5.62-2.5,6.78,6.78,0,0,1,5.35,2.31q2,2.31,2.08,6.9H221.71q0,3.86,1.61,5.21a5.25,5.25,0,0,0,3.41,1.35,4.66,4.66,0,0,0,4.57-3.35Zm-.14-5.18a7.38,7.38,0,0,0-.47-2.54,4.34,4.34,0,0,0-1.48-1.89,4.05,4.05,0,0,0-2.5-.78,4.47,4.47,0,0,0-3.34,1.41,5.85,5.85,0,0,0-1.54,3.8Z"/><path class="cls-2" d="M235.55,144.93l2.53-.52q.84,3.2,5.32,3.2a5,5,0,0,0,2.8-.74,2.34,2.34,0,0,0,1.15-2.08q0-2-2.92-2.54l-3.58-.68A6.54,6.54,0,0,1,237.5,140a4.09,4.09,0,0,1-1.24-3.12,4.5,4.5,0,0,1,1.7-3.58,6.84,6.84,0,0,1,4.58-1.44q5.53,0,6.83,4.33l-2.42.52a4.14,4.14,0,0,0-4.29-2.65,4.83,4.83,0,0,0-2.65.66,2.08,2.08,0,0,0-1,1.85q0,1.87,2.64,2.36l3.31.61q5.2.94,5.2,5a4.5,4.5,0,0,1-1.94,3.79,8.42,8.42,0,0,1-5.15,1.44q-6,0-7.48-4.88Z"/><path class="cls-3" d="M235.55,144.93l2.53-.52q.84,3.2,5.32,3.2a5,5,0,0,0,2.8-.74,2.34,2.34,0,0,0,1.15-2.08q0-2-2.92-2.54l-3.58-.68A6.54,6.54,0,0,1,237.5,140a4.09,4.09,0,0,1-1.24-3.12,4.5,4.5,0,0,1,1.7-3.58,6.84,6.84,0,0,1,4.58-1.44q5.53,0,6.83,4.33l-2.42.52a4.14,4.14,0,0,0-4.29-2.65,4.83,4.83,0,0,0-2.65.66,2.08,2.08,0,0,0-1,1.85q0,1.87,2.64,2.36l3.31.61q5.2.94,5.2,5a4.5,4.5,0,0,1-1.94,3.79,8.42,8.42,0,0,1-5.15,1.44q-6,0-7.48-4.88Z"/><path class="cls-1" d="M175.83,96V91.89a1,1,0,0,1,1-1h18.31a1,1,0,0,1,1.06,1v3.5c0,.59-.5,1.35-1.38,2.57l-9.48,13.54a20.31,20.31,0,0,1,10.44,2.24,1.87,1.87,0,0,1,1,1.6v4.36c0,.6-.66,1.3-1.35.93a21.09,21.09,0,0,0-19.35,0c-.64.34-1.3-.35-1.3-.95v-4.14a4.93,4.93,0,0,1,.68-2.81l11-15.77h-9.57a1,1,0,0,1-1.06-1"/><path class="cls-1" d="M110.29,121.49h-5.57a1.05,1.05,0,0,1-1-.94V92a1.05,1.05,0,0,1,1.07-1H110a1,1,0,0,1,1,1v3.73h.1c1.35-3.61,3.9-5.3,7.33-5.3s5.67,1.68,7.23,5.3a8.23,8.23,0,0,1,14.14-2.17c1.77,2.41,1.4,5.9,1.4,9v18a1.05,1.05,0,0,1-1.07,1h-5.56a1,1,0,0,1-1-1V105.31a36.47,36.47,0,0,0-.16-5.36c-.42-1.93-1.66-2.47-3.28-2.47a3.69,3.69,0,0,0-3.33,2.35c-.57,1.44-.52,3.85-.52,5.48v15.16a1.05,1.05,0,0,1-1.07,1h-5.56a1,1,0,0,1-1-1V105.31c0-3.19.52-7.88-3.43-7.88s-3.85,4.57-3.85,7.88v15.16a1.05,1.05,0,0,1-1.07,1"/><path class="cls-1" d="M209.68,90.33c8.2,0,12.64,7.1,12.64,16.13,0,8.72-4.9,15.64-12.64,15.64-8,0-12.43-7.1-12.43-15.95s4.44-15.82,12.43-15.82Zm.05,6.57c-4.08,0-4.33,5.6-4.33,9.09s-.05,10.22,4.28,10.22,4.49-5.28,4.49-9a26.63,26.63,0,0,0-.83-7.58,3.47,3.47,0,0,0-3.61-2.77Z"/><path class="cls-1" d="M234.19,121.49h-5.55a1,1,0,0,1-1-1V91.86a1.06,1.06,0,0,1,1.07-.93h5.17a1.06,1.06,0,0,1,1,.8V96.1h.1c1.56-3.91,3.74-5.78,7.59-5.78a7.3,7.3,0,0,1,6.5,3.37c1.46,2.29,1.46,6.14,1.46,8.91v18a1.06,1.06,0,0,1-1.07.9h-5.59a1.05,1.05,0,0,1-1-.9V105.07c0-3.13.36-7.7-3.48-7.7a3.64,3.64,0,0,0-3.22,2.29,12.71,12.71,0,0,0-.88,5.42v15.4a1.07,1.07,0,0,1-1.09,1"/><path class="cls-1" d="M167.48,121.42a1.15,1.15,0,0,1-1.32.13,13.61,13.61,0,0,1-3.19-3.71c-3.06,3.12-5.22,4-9.19,4-4.69,0-8.34-2.89-8.34-8.68a9.46,9.46,0,0,1,5.94-9.11c3-1.33,7.24-1.57,10.48-1.93v-.72c0-1.33.1-2.89-.68-4A3.72,3.72,0,0,0,158.05,96a4.24,4.24,0,0,0-4.48,3.35,1.18,1.18,0,0,1-1,1l-5.4-.58a1,1,0,0,1-.83-1.16c1.24-6.55,7.16-8.53,12.46-8.53,2.71,0,6.25.72,8.39,2.77,2.71,2.53,2.45,5.91,2.45,9.59v8.68c0,2.61,1.09,3.76,2.1,5.16a1,1,0,0,1,0,1.48c-1.14,1-3.16,2.71-4.27,3.7Z"/><path class="cls-4" d="M161.86,107.84c0,2.17.05,4-1,5.91a4.52,4.52,0,0,1-3.86,2.53c-2.14,0-3.39-1.63-3.39-4,0-4.74,4.26-5.61,8.29-5.61v1.21Z"/><path class="cls-1" d="M89.46,107.84c0,2.17.05,4-1,5.91a4.52,4.52,0,0,1-3.86,2.53c-2.14,0-3.39-1.63-3.39-4,0-4.74,4.26-5.61,8.29-5.61v1.21Z"/><path class="cls-1" d="M95.08,121.42a1.15,1.15,0,0,1-1.32.13,13.59,13.59,0,0,1-3.19-3.71c-3.06,3.12-5.22,4-9.18,4-4.69,0-8.34-2.89-8.34-8.68A9.46,9.46,0,0,1,79,104.1c3-1.33,7.24-1.57,10.47-1.93v-.72c0-1.33.1-2.89-.68-4A3.72,3.72,0,0,0,85.65,96a4.24,4.24,0,0,0-4.48,3.35,1.18,1.18,0,0,1-1,1l-5.4-.58A1,1,0,0,1,74,98.58c1.24-6.55,7.16-8.53,12.46-8.53,2.71,0,6.25.72,8.39,2.77,2.71,2.53,2.45,5.91,2.45,9.59v8.68c0,2.61,1.08,3.76,2.1,5.16a1,1,0,0,1,0,1.48c-1.14,1-3.16,2.71-4.27,3.7Z"/><path class="cls-4" d="M89.46,107.84c0,2.17.05,4-1,5.91a4.52,4.52,0,0,1-3.86,2.53c-2.14,0-3.39-1.63-3.39-4,0-4.74,4.26-5.61,8.29-5.61v1.21Z"/></svg>