<?xml version="1.0" encoding="utf-8"?>
<!-- Generator: Adobe Illustrator 21.0.2, SVG Export Plug-In . SVG Version: 6.00 Build 0)  -->
<svg version="1.1" id="Layer_1" xmlns="http://www.w3.org/2000/svg" xmlns:xlink="http://www.w3.org/1999/xlink" x="0px" y="0px"
	 viewBox="0 0 650 580" style="enable-background:new 0 0 650 580;" xml:space="preserve">
<style type="text/css">
	.st0{display:none;fill-rule:evenodd;clip-rule:evenodd;fill:#E7E7E7;}
	.st1{fill-rule:evenodd;clip-rule:evenodd;fill:#E7E7E7;}
	.st2{fill-rule:evenodd;clip-rule:evenodd;fill:#253237;}
	.st3{display:none;}
	.st4{display:inline;fill-rule:evenodd;clip-rule:evenodd;fill:#394D54;}
	.st5{display:inline;fill-rule:evenodd;clip-rule:evenodd;fill:#00AADA;}
	.st6{display:inline;fill-rule:evenodd;clip-rule:evenodd;fill:#24B8EB;}
	.st7{display:inline;fill-rule:evenodd;clip-rule:evenodd;fill:#008BB8;}
	.st8{display:inline;fill-rule:evenodd;clip-rule:evenodd;fill:#039BC6;}
	.st9{display:inline;fill-rule:evenodd;clip-rule:evenodd;fill:#BFDBE0;}
	.st10{display:inline;fill-rule:evenodd;clip-rule:evenodd;fill:#D4EDF1;}
	.st11{display:inline;fill-rule:evenodd;clip-rule:evenodd;fill:#00ACD3;}
	.st12{display:inline;fill-rule:evenodd;clip-rule:evenodd;fill:#20C2EF;}
	
		.st13{display:inline;fill:none;stroke:#394D54;stroke-width:6.5739;stroke-linecap:round;stroke-linejoin:round;stroke-miterlimit:2.6131;}
	.st14{fill-rule:evenodd;clip-rule:evenodd;fill:#394D54;}
	.st15{fill:#00AADA;}
	.st16{fill:#24B8EB;}
	.st17{fill:#008BB8;}
	.st18{fill:#039BC6;}
	.st19{display:inline;fill:#394D54;}
	.st20{fill-rule:evenodd;clip-rule:evenodd;fill:#00ACD3;}
	.st21{fill-rule:evenodd;clip-rule:evenodd;fill:#20C2EF;}
	.st22{fill-rule:evenodd;clip-rule:evenodd;fill:#D4EDF1;}
	.st23{fill:#BFDBE0;}
	.st24{fill:#D4EDF1;}
	.st25{fill-rule:evenodd;clip-rule:evenodd;fill:#F9F9F9;}
	.st26{fill-rule:evenodd;clip-rule:evenodd;fill:#D1D1D1;}
	.st27{fill:#DEDEDE;}
	.st28{fill:#E3E3E3;}
	.st29{fill:#D9D9D9;}
	.st30{fill:#DCDCDC;}
	.st31{display:inline;fill:#D1D1D1;}
	.st32{fill-rule:evenodd;clip-rule:evenodd;fill:#DEDEDE;}
	.st33{fill-rule:evenodd;clip-rule:evenodd;fill:#E5E5E5;}
	.st34{fill:#F4F4F4;}
	.st35{fill:#F9F9F9;}
	.st36{display:none;fill-rule:evenodd;clip-rule:evenodd;fill:#394D54;}
	.st37{display:none;fill-rule:evenodd;clip-rule:evenodd;fill:#E7E7E8;}
	.st38{fill:#253237;}
</style>
<rect x="-1000" y="14.6" class="st0" width="792" height="612"/>
<rect x="-1000" y="-700" class="st1" width="650" height="580"/>
<rect y="-700" class="st2" width="650" height="580"/>
<g id="A" class="st3">
	<path class="st4" d="M-488.9-219.6c10.7-9.2,21.5-18.4,32.2-27.7c3.7-3.2,7.7-6.4,11.3-9.8c-2.9-3.7-7.8-6.3-11.9-7.9
		c-8.3-3.2-16.6-2.1-24.2,2.3c-10,5.8-14.3,15-13.9,26.5c0.1,4.5,1.4,8.9,3.8,12.7C-490.8-222.1-489.9-220.8-488.9-219.6
		 M-476.4-210.9c5.3,1.8,11.3,1.6,16.7,0.6c2.8-1.2,9.8-4.3,12.4-3.8l0.4,0.1l0.4,0.2c1.6,0.8,3.1,1.9,3.9,3.5
		c1.9,3.8,1,7.6-2.7,9.7l-1.2,0.7c-13.7,7.9-28.3,6.8-42-0.6c-6.5-3.5-11.5-8.8-15.2-15.2l-0.9-1.5c-8.8-15.3-7.6-31.3,2.3-45.8
		c3.4-5,7.9-8.9,13.2-11.9l2-1.1c12.9-7.5,26.8-7,40.1-0.4c7.1,3.5,12.9,8.8,16.9,15.7l0.7,1.2c2.9,5-0.9,9.4-4.7,12.4
		c-4.5,3.5-9,7.6-13.3,11.4C-457.3-227.5-466.8-219.2-476.4-210.9z M-373.6-280.3h1.4c4.3,0,7.2,2.9,7.2,7.2c0,6-5.7,7.5-10.7,7.5
		c-6.5,0-12.7,3.9-17.2,8.3c-5.6,5.5-8,12.6-8,20.3v35c0,4-2.5,7.2-6.7,7.2h-1.1c-4.2,0-6.7-3.2-6.7-7.2v-37
		c0-14.2,6.9-25.8,18.5-34C-389.9-277.7-382-280.3-373.6-280.3z M-553.9-255.4c5.6-5.6,11.3-11.2,17-16.8c1.6-1.5,7.6-8.1,10-8.1
		h2.6l0.3,0.1c3.3,0.7,5.8,2.8,5.8,6.3v1.4c0,2.4-2.8,5.2-4.4,6.9c-3.3,3.5-6.8,6.9-10.2,10.4l-17.5,17.7c7.5,7.5,15,15.1,22.5,22.7
		c2.1,2.1,4.1,4.2,6.2,6.3c0.7,0.8,1.8,1.7,2.4,2.7c0.6,1,1,2.1,1,3.3v1.5l-0.1,0.3c-0.8,3.3-2.9,6-6.6,6h-1.2
		c-2.4,0-5.1-2.7-6.7-4.3c-3.4-3.2-6.6-6.5-10-9.8l-11.1-10.9v17.4c0,4-2.5,7.2-6.7,7.2h-1.1c-4.2,0-6.7-3.2-6.7-7.2v-98.2
		c0-4,2.5-7.2,6.7-7.2h1.1c4.2,0,6.7,3.2,6.7,7.2V-255.4z M-600.9-265.2c-2.2-1-6.3-1.4-8.6-1.5c-12.1-0.5-20.8,6.4-26,17
		c-1.8,3.7-2.6,7.6-2.6,11.6c0,12.4,6.5,21.1,17.6,26.4c4,1.9,9.3,2.3,13.7,2.3c3.9,0,9.4-2.4,12.8-4l0.6-0.3h2.7l0.3,0.1
		c3.3,0.7,5.8,2.8,5.8,6.3v1.4c0,8.8-16.1,10.8-22.2,11.3c-21.7,1.5-37.9-10.4-44.1-31.1c-1.1-3.6-1.6-7.2-1.6-10.9v-2.9
		c0-15.7,7.8-28.1,21.2-36.1c6.3-3.7,13.2-5.6,20.4-5.6h2.9c7.7,0,14.8,2.2,21.2,6.5l0.5,0.4l0.3,0.5c0.7,1.1,1.3,2.5,1.3,3.8v1.4
		c0,3.7-2.8,5.7-6.1,6.3l-0.3,0h-0.9C-594-262.1-598.9-264.3-600.9-265.2z M-732.8-237.7c0,11,5.4,19.1,14.7,24.8
		c4.4,2.7,9.2,3.9,14.3,3.9c10.9,0,18.9-5.5,24.5-14.7c2.7-4.4,3.9-9.2,3.9-14.3c0-10.2-4.9-18-13.3-23.7c-4.6-3.1-9.8-4.7-15.3-4.7
		c-12.1,0-20.8,6.1-26.1,17C-732-245.7-732.8-241.8-732.8-237.7z M-705.6-280.9h2c16.8,0,29.5,8.1,37.6,22.8c3.2,5.9,5,12.2,5,18.9
		v2.9c0,15.7-7.7,28.2-21.3,36.1c-6.3,3.7-13.2,5.6-20.4,5.6h-2.9c-15.7,0-28.2-7.8-36.1-21.3c-3.7-6.3-5.6-13.2-5.6-20.4v-2.9
		c0-15.7,7.8-28.1,21.2-36.1C-719.8-279-712.8-280.9-705.6-280.9z M-827.5-237.7c0,11.3,5.5,19.8,15.4,25.3c4,2.2,8.4,3.4,13,3.4
		c11.1,0,19.4-5.2,25.1-14.7c2.6-4.4,3.9-9.2,3.9-14.3c0-9.8-4.7-17.5-12.6-23.2c-4.8-3.5-10.2-5.2-16.1-5.2
		c-12.1,0-20.8,6.1-26.1,17C-826.7-245.7-827.5-241.8-827.5-237.7z M-770.2-270.1v-30.6c0-4,2.5-7.2,6.7-7.2h1.2
		c4.2,0,6.7,3.2,6.7,7.2v64.3c0,15.7-7.7,28.2-21.3,36.1c-6.3,3.7-13.2,5.6-20.4,5.6h-2.9c-15.7,0-28.2-7.8-36.1-21.3
		c-3.7-6.3-5.6-13.2-5.6-20.4v-2.9c0-15.7,7.8-28.2,21.2-36.1c6.3-3.7,13.2-5.6,20.4-5.6h2.9C-786.8-280.9-777.8-276.8-770.2-270.1z
		"/>
	<path class="st4" d="M-567-509.5h42.7v43.6h21.6c10,0,20.2-1.8,29.7-5c4.6-1.6,9.8-3.8,14.4-6.5c-6-7.9-9.1-17.8-10-27.6
		c-1.2-13.3,1.5-30.7,10.5-41.1l4.5-5.2l5.3,4.3c13.5,10.8,24.8,25.9,26.8,43.2c16.2-4.8,35.2-3.6,49.5,4.6l5.9,3.4l-3.1,6
		c-12.1,23.6-37.4,30.9-62.1,29.6c-37,92.1-117.4,135.7-215,135.7c-50.4,0-96.7-18.8-123-63.6l-0.4-0.7l-3.8-7.8
		c-8.9-19.7-11.9-41.3-9.9-62.8l0.6-6.5h36.5v-43.6h42.7v-42.7h85.4v-42.7h51.2V-509.5z"/>
	<path class="st5" d="M-646.3-331.6c-53.7,0-94.8-22.6-115.6-57.9l-3.1-5.7c-9.4-18.5-13.5-40.1-11.3-63.6h273.6
		c22.5,0,44.4-8.4,54.8-17.6c-18.7-15.2-16.8-51.2-4.9-65c10.3,8.3,27,25.8,24.1,48c13-6.5,35.6-9.8,53.1,0.4
		c-11,21.5-35.2,27.9-60.4,25.3C-471.5-373.6-551.7-331.6-646.3-331.6"/>
	<path class="st6" d="M-760.1-458.8h257.4c22.5,0,44.4-8.4,54.8-17.6c-18.7-15.2-16.8-51.2-4.9-65c10.3,8.3,27,25.8,24.1,48
		c0.6-0.3,1.1-0.5,1.7-0.8c-39,50.2-94.8,94.1-154.8,117.2C-684.9-337.4-762.7-374-760.1-458.8"/>
	<path class="st7" d="M-646.3-331.6c-53.7,0-94.8-22.6-115.6-57.9l-3.1-5.7c-5.5-10.7-9.1-22.5-10.8-35.1H-454
		C-494.9-362.4-565.3-331.6-646.3-331.6"/>
	<path class="st8" d="M-757.6-430.3h267.4c-27.9,22.3-59.1,40.8-91.5,53.2C-672.5-342.2-743.6-366.3-757.6-430.3"/>
	<path class="st9" d="M-646.3-331.6c-52.9,0-81.3-17.9-104.2-40.5l42.5-1.2l26-5.7c7.6,18.2,21.6,35,47.3,47.2
		C-638.5-331.7-642.4-331.6-646.3-331.6"/>
	<path class="st10" d="M-708.4-370.3l0.3,0l26.2-8.8c2.5,6,5.7,11.9,9.9,17.5C-685.5-362.7-697.7-365.6-708.4-370.3"/>
	<path class="st11" d="M-708.2-499.3h2.9v30.8h-2.9V-499.3z M-713.8-499.3h3v30.8h-3V-499.3z M-719.4-499.3h3v30.8h-3V-499.3z
		 M-725-499.3h3v30.8h-3V-499.3z M-730.6-499.3h3v30.8h-3V-499.3z M-736.1-499.3h2.9v30.8h-2.9V-499.3z M-739.2-502.4h37v37h-37
		V-502.4z"/>
	<path class="st11" d="M-665.5-542h2.9v30.8h-2.9V-542z M-671.1-542h3v30.8h-3V-542z M-676.7-542h3v30.8h-3V-542z M-682.3-542h3
		v30.8h-3V-542z M-687.9-542h3v30.8h-3V-542z M-693.4-542h2.9v30.8h-2.9V-542z M-696.5-545.1h37v37h-37V-545.1z"/>
	<path class="st12" d="M-665.5-499.3h2.9v30.8h-2.9V-499.3z M-671.1-499.3h3v30.8h-3V-499.3z M-676.7-499.3h3v30.8h-3V-499.3z
		 M-682.3-499.3h3v30.8h-3V-499.3z M-687.9-499.3h3v30.8h-3V-499.3z M-693.4-499.3h2.9v30.8h-2.9V-499.3z M-696.5-502.4h37v37h-37
		V-502.4z"/>
	<path class="st11" d="M-622.8-499.3h2.9v30.8h-2.9V-499.3z M-628.4-499.3h3v30.8h-3V-499.3z M-634-499.3h3v30.8h-3V-499.3z
		 M-639.6-499.3h3v30.8h-3V-499.3z M-645.2-499.3h3v30.8h-3V-499.3z M-650.7-499.3h2.9v30.8h-2.9V-499.3z M-653.8-502.4h37v37h-37
		V-502.4z"/>
	<path class="st12" d="M-622.8-542h2.9v30.8h-2.9V-542z M-628.4-542h3v30.8h-3V-542z M-634-542h3v30.8h-3V-542z M-639.6-542h3v30.8
		h-3V-542z M-645.2-542h3v30.8h-3V-542z M-650.7-542h2.9v30.8h-2.9V-542z M-653.8-545.1h37v37h-37V-545.1z"/>
	<path class="st12" d="M-580.1-499.3h2.9v30.8h-2.9V-499.3z M-585.7-499.3h3v30.8h-3V-499.3z M-591.3-499.3h3v30.8h-3V-499.3z
		 M-596.9-499.3h3v30.8h-3V-499.3z M-602.5-499.3h3v30.8h-3V-499.3z M-608-499.3h2.9v30.8h-2.9V-499.3z M-611.1-502.4h37v37h-37
		V-502.4z"/>
	<path class="st11" d="M-580.1-542h2.9v30.8h-2.9V-542z M-585.7-542h3v30.8h-3V-542z M-591.3-542h3v30.8h-3V-542z M-596.9-542h3
		v30.8h-3V-542z M-602.5-542h3v30.8h-3V-542z M-608-542h2.9v30.8h-2.9V-542z M-611.1-545.1h37v37h-37V-545.1z"/>
	<path class="st12" d="M-580.1-584.7h2.9v30.8h-2.9V-584.7z M-585.7-584.7h3v30.8h-3V-584.7z M-591.3-584.7h3v30.8h-3V-584.7z
		 M-596.9-584.7h3v30.8h-3V-584.7z M-602.5-584.7h3v30.8h-3V-584.7z M-608-584.7h2.9v30.8h-2.9V-584.7z M-611.1-587.8h37v37h-37
		V-587.8z"/>
	<path class="st11" d="M-537.4-499.3h2.9v30.8h-2.9V-499.3z M-543-499.3h3v30.8h-3V-499.3z M-548.6-499.3h3v30.8h-3V-499.3z
		 M-554.2-499.3h3v30.8h-3V-499.3z M-559.8-499.3h3v30.8h-3V-499.3z M-565.3-499.3h2.9v30.8h-2.9V-499.3z M-568.4-502.4h37v37h-37
		V-502.4z"/>
	<path class="st10" d="M-661.8-405.4c5.6,0,10.2,4.6,10.2,10.2c0,5.6-4.6,10.2-10.2,10.2c-5.6,0-10.2-4.6-10.2-10.2
		C-672-400.9-667.4-405.4-661.8-405.4"/>
	<path class="st4" d="M-661.8-402.5c0.9,0,1.8,0.2,2.6,0.5c-0.9,0.5-1.5,1.5-1.5,2.6c0,1.6,1.3,3,3,3c1.1,0,2.1-0.6,2.6-1.6
		c0.4,0.9,0.6,1.8,0.6,2.8c0,4-3.3,7.3-7.3,7.3c-4,0-7.3-3.3-7.3-7.3C-669.1-399.3-665.8-402.5-661.8-402.5"/>
	<path class="st4" d="M-842.3-426.6h223.6h27.7h223.6c-10.3-2.6-32.7-6.2-29-19.7c-18.8,21.8-64.1,15.3-75.6,4.5
		c-12.7,18.5-86.9,11.5-92.1-2.9c-16,18.7-65.5,18.7-81.5,0c-5.2,14.4-79.4,21.4-92.1,2.9c-11.4,10.7-56.8,17.2-75.6-4.5
		C-809.6-432.7-832-429.2-842.3-426.6"/>
	<path class="st13" d="M-756.6-375.1c26.8,1.8,62.4,1.7,80.8-7.4"/>
</g>
<g>
	<path id="docker" class="st14" d="M-558.5-236.7c10.7-9.2,21.5-18.4,32.2-27.7c3.7-3.2,7.7-6.4,11.3-9.8c-2.9-3.7-7.8-6.3-11.9-7.9
		c-8.3-3.2-16.6-2.1-24.2,2.3c-10,5.8-14.3,15-13.9,26.5c0.1,4.5,1.4,8.9,3.8,12.7C-560.5-239.2-559.5-237.9-558.5-236.7
		 M-546.1-228c5.3,1.8,11.3,1.6,16.7,0.6c2.8-1.2,9.8-4.3,12.4-3.8l0.4,0.1l0.4,0.2c1.6,0.8,3.1,1.9,3.9,3.5c1.9,3.8,1,7.6-2.7,9.7
		l-1.2,0.7c-13.7,7.9-28.3,6.8-42-0.6c-6.5-3.5-11.5-8.8-15.2-15.2l-0.9-1.5c-8.8-15.3-7.6-31.3,2.3-45.8c3.4-5,7.9-8.9,13.2-11.9
		l2-1.1c12.9-7.5,26.8-7,40.1-0.4c7.1,3.5,12.9,8.8,16.9,15.7l0.7,1.2c2.9,5-0.9,9.4-4.7,12.4c-4.5,3.5-9,7.6-13.3,11.4
		C-526.9-244.6-536.5-236.2-546.1-228z M-443.3-297.4h1.4c4.3,0,7.2,2.9,7.2,7.2c0,6-5.7,7.5-10.7,7.5c-6.5,0-12.7,3.9-17.2,8.3
		c-5.6,5.5-8,12.6-8,20.3v35c0,4-2.5,7.2-6.7,7.2h-1.1c-4.2,0-6.7-3.2-6.7-7.2v-37c0-14.2,6.9-25.8,18.5-34
		C-459.6-294.8-451.7-297.4-443.3-297.4z M-623.6-272.5c5.6-5.6,11.3-11.2,17-16.8c1.6-1.5,7.6-8.1,10-8.1h2.6l0.3,0.1
		c3.3,0.7,5.8,2.8,5.8,6.3v1.4c0,2.4-2.8,5.2-4.4,6.9c-3.3,3.5-6.8,6.9-10.2,10.4l-17.5,17.7c7.5,7.5,15,15.1,22.5,22.7
		c2.1,2.1,4.1,4.2,6.2,6.3c0.7,0.8,1.8,1.7,2.4,2.7c0.6,1,1,2.1,1,3.3v1.5l-0.1,0.3c-0.8,3.3-2.9,6-6.6,6h-1.2
		c-2.4,0-5.1-2.7-6.7-4.3c-3.4-3.2-6.6-6.5-10-9.8l-11.1-10.9v17.4c0,4-2.5,7.2-6.7,7.2h-1.1c-4.2,0-6.7-3.2-6.7-7.2v-98.2
		c0-4,2.5-7.2,6.7-7.2h1.1c4.2,0,6.7,3.2,6.7,7.2V-272.5z M-670.5-282.3c-2.2-1-6.3-1.4-8.6-1.5c-12.1-0.5-20.8,6.4-26,17
		c-1.8,3.7-2.6,7.6-2.6,11.6c0,12.4,6.5,21.1,17.6,26.4c4,1.9,9.3,2.3,13.7,2.3c3.9,0,9.4-2.4,12.8-4l0.6-0.3h2.7l0.3,0.1
		c3.3,0.7,5.8,2.8,5.8,6.3v1.4c0,8.8-16.1,10.8-22.2,11.3c-21.7,1.5-37.9-10.4-44.1-31.1c-1.1-3.6-1.6-7.2-1.6-10.9v-2.9
		c0-15.7,7.8-28.1,21.2-36.1c6.3-3.7,13.2-5.6,20.4-5.6h2.9c7.7,0,14.8,2.2,21.2,6.5l0.5,0.4l0.3,0.5c0.7,1.1,1.3,2.5,1.3,3.8v1.4
		c0,3.7-2.8,5.7-6.1,6.3l-0.3,0h-0.9C-663.7-279.2-668.6-281.4-670.5-282.3z M-802.5-254.8c0,11,5.4,19.1,14.7,24.8
		c4.4,2.7,9.2,3.9,14.3,3.9c10.9,0,18.9-5.5,24.5-14.7c2.7-4.4,3.9-9.2,3.9-14.3c0-10.2-4.9-18-13.3-23.7c-4.6-3.1-9.8-4.7-15.3-4.7
		c-12.1,0-20.8,6.1-26.1,17C-801.7-262.8-802.5-258.9-802.5-254.8z M-775.2-297.9h2c16.8,0,29.5,8.1,37.6,22.8
		c3.2,5.9,5,12.2,5,18.9v2.9c0,15.7-7.7,28.2-21.3,36.1c-6.3,3.7-13.2,5.6-20.4,5.6h-2.9c-15.7,0-28.2-7.8-36.1-21.2
		c-3.7-6.3-5.6-13.2-5.6-20.4v-2.9c0-15.7,7.8-28.1,21.2-36.1C-789.4-296.1-782.5-297.9-775.2-297.9z M-897.2-254.8
		c0,11.3,5.5,19.8,15.4,25.3c4,2.2,8.4,3.4,13,3.4c11.1,0,19.4-5.2,25.1-14.7c2.6-4.4,3.9-9.2,3.9-14.3c0-9.8-4.7-17.5-12.6-23.2
		c-4.8-3.5-10.2-5.2-16.1-5.2c-12.1,0-20.8,6.1-26.1,17C-896.4-262.8-897.2-258.9-897.2-254.8z M-839.9-287.1v-30.6
		c0-4,2.5-7.2,6.7-7.2h1.2c4.2,0,6.7,3.2,6.7,7.2v64.3c0,15.7-7.8,28.2-21.3,36.1c-6.3,3.7-13.2,5.6-20.4,5.6h-2.9
		c-15.7,0-28.2-7.8-36.1-21.2c-3.7-6.3-5.6-13.2-5.6-20.4v-2.9c0-15.7,7.8-28.2,21.2-36.1c6.3-3.7,13.2-5.6,20.4-5.6h2.9
		C-856.5-297.9-847.5-293.8-839.9-287.1z"/>
	<path id="outline" class="st14" d="M-636.6-526.6h42.7v43.6h21.6c10,0,20.2-1.8,29.7-5c4.6-1.6,9.8-3.8,14.4-6.5
		c-6-7.9-9.1-17.8-10-27.6c-1.2-13.3,1.5-30.7,10.5-41.1l4.5-5.2l5.3,4.3c13.5,10.8,24.8,25.9,26.8,43.2c16.2-4.8,35.2-3.6,49.5,4.6
		l5.9,3.4l-3.1,6c-12.1,23.6-37.4,30.9-62.1,29.6c-37,92.1-117.4,135.7-215,135.7c-50.4,0-96.7-18.8-123-63.6l-0.4-0.7l-3.8-7.8
		c-8.9-19.7-11.9-41.3-9.9-62.8l0.6-6.5h36.5v-43.6h42.7v-42.7h85.4V-612h51.2V-526.6z"/>
	<g id="body_colors">
		<path class="st15" d="M-498.3-510.5c2.9-22.2-13.8-39.7-24.1-48c-11.9,13.8-13.7,49.8,4.9,65c-10.4,9.3-32.4,17.6-54.8,17.6H-846
			c-2.2,23.5,1.9,45.1,11.3,63.6l3.1,5.7c2,3.3,4.1,6.6,6.5,9.7c0,0,0,0,0,0c11.2,0.7,21.6,1,31.1,0.8c0,0,0,0,0,0
			c18.6-0.4,33.9-2.6,45.4-6.6c1.7-0.6,3.6,0.3,4.2,2c0.6,1.7-0.3,3.6-2,4.2c-1.5,0.5-3.1,1-4.8,1.5c0,0,0,0,0,0
			c-9.1,2.6-18.8,4.3-31.4,5.1c0.7,0-0.8,0.1-0.8,0.1c-0.4,0-1,0.1-1.4,0.1c-4.9,0.3-10.3,0.3-15.7,0.3c-6,0-11.8-0.1-18.4-0.4
			l-0.2,0.1c22.8,25.6,58.4,41,103.1,41c94.6,0,174.8-41.9,210.3-136c25.2,2.6,49.4-3.8,60.4-25.3
			C-462.7-520.2-485.3-517-498.3-510.5z"/>
		<path class="st16" d="M-498.3-510.5c2.9-22.2-13.8-39.7-24.1-48c-11.9,13.8-13.7,49.8,4.9,65c-10.4,9.3-32.4,17.6-54.8,17.6
			h-257.4c-1.1,35.9,12.2,63.2,35.8,79.7c0,0,0,0,0,0c18.6-0.4,33.9-2.6,45.4-6.6c1.7-0.6,3.6,0.3,4.2,2c0.6,1.7-0.3,3.6-2,4.2
			c-1.5,0.5-3.1,1-4.8,1.5c0,0,0,0,0,0c-9.1,2.6-19.7,4.6-32.2,5.3c0,0-0.3-0.3-0.3-0.3c32.2,16.5,78.9,16.5,132.4-4.1
			c60-23,115.8-67,154.8-117.2C-497.2-511-497.7-510.7-498.3-510.5z"/>
		<path class="st17" d="M-845.4-447.3c1.7,12.6,5.4,24.3,10.8,35.1l3.1,5.7c2,3.3,4.1,6.6,6.5,9.7c11.3,0.7,21.6,1,31.1,0.8
			c18.6-0.4,33.9-2.6,45.4-6.6c1.7-0.6,3.6,0.3,4.2,2c0.6,1.7-0.3,3.6-2,4.2c-1.5,0.5-3.1,1-4.8,1.5c0,0,0,0,0,0
			c-9.1,2.6-19.6,4.4-32.2,5.2c-0.4,0-1.2,0-1.6,0.1c-4.9,0.3-10.2,0.4-15.7,0.4c-6,0-12.1-0.1-18.6-0.4c22.8,25.6,58.7,41,103.4,41
			c81,0,151.4-30.7,192.3-98.6H-845.4z"/>
		<path class="st18" d="M-827.3-447.3c4.8,22.1,16.5,39.4,33.4,51.2c18.6-0.4,33.9-2.6,45.4-6.6c1.7-0.6,3.6,0.3,4.2,2
			c0.6,1.7-0.3,3.6-2,4.2c-1.5,0.5-3.1,1-4.8,1.5c0,0,0,0,0,0c-9.1,2.6-19.8,4.4-32.4,5.2c32.2,16.5,78.7,16.3,132.2-4.3
			c32.4-12.4,63.5-30.9,91.5-53.2H-827.3z"/>
	</g>
	<g class="st3">
		<path class="st19" d="M-800.6-389.5c5.5,0,10.7-0.1,15.6-0.4c0.4,0,0.8-0.1,1.3-0.1c0,0,0,0,0,0c12.6-0.8,23.4-2.5,32.5-5
			c0,0,0,0,0,0c1.7-0.5,3.2-1,4.8-1.5c1.7-0.6,2.6-2.5,2-4.2c-0.6-1.7-2.5-2.6-4.2-2c-11.5,4-26.7,6.2-45.4,6.6c0,0,0,0,0,0
			c-9.5,0.2-19.9,0-31.1-0.8c0,0,0,0,0,0c-0.6,0-1.1-0.1-1.7-0.1c-1.8-0.1-3.4,1.2-3.5,3.1c-0.1,1.8,1.2,3.4,3.1,3.5
			c2.3,0.2,4.6,0.3,6.8,0.4c0.4,0,0.7,0,1,0l0,0C-812.8-389.7-806.5-389.5-800.6-389.5z"/>
	</g>
	<g id="Containers">
		<path class="st20" d="M-777.8-516.4h2.9v30.8h-2.9V-516.4z M-783.4-516.4h3v30.8h-3V-516.4z M-789-516.4h3v30.8h-3V-516.4z
			 M-794.6-516.4h3v30.8h-3V-516.4z M-800.2-516.4h3v30.8h-3V-516.4z M-805.7-516.4h2.9v30.8h-2.9V-516.4z M-808.8-519.5h37v37h-37
			V-519.5z"/>
		<path class="st20" d="M-735.1-559.1h2.9v30.8h-2.9V-559.1z M-740.7-559.1h3v30.8h-3V-559.1z M-746.3-559.1h3v30.8h-3V-559.1z
			 M-751.9-559.1h3v30.8h-3V-559.1z M-757.5-559.1h3v30.8h-3V-559.1z M-763-559.1h2.9v30.8h-2.9V-559.1z M-766.1-562.2h37v37h-37
			V-562.2z"/>
		<path class="st21" d="M-735.1-516.4h2.9v30.8h-2.9V-516.4z M-740.7-516.4h3v30.8h-3V-516.4z M-746.3-516.4h3v30.8h-3V-516.4z
			 M-751.9-516.4h3v30.8h-3V-516.4z M-757.5-516.4h3v30.8h-3V-516.4z M-763-516.4h2.9v30.8h-2.9V-516.4z M-766.1-519.5h37v37h-37
			V-519.5z"/>
		<path class="st20" d="M-692.4-516.4h2.9v30.8h-2.9V-516.4z M-698-516.4h3v30.8h-3V-516.4z M-703.6-516.4h3v30.8h-3V-516.4z
			 M-709.2-516.4h3v30.8h-3V-516.4z M-714.9-516.4h3v30.8h-3V-516.4z M-720.3-516.4h2.9v30.8h-2.9V-516.4z M-723.4-519.5h37v37h-37
			V-519.5z"/>
		<path class="st21" d="M-692.4-559.1h2.9v30.8h-2.9V-559.1z M-698-559.1h3v30.8h-3V-559.1z M-703.6-559.1h3v30.8h-3V-559.1z
			 M-709.2-559.1h3v30.8h-3V-559.1z M-714.9-559.1h3v30.8h-3V-559.1z M-720.3-559.1h2.9v30.8h-2.9V-559.1z M-723.4-562.2h37v37h-37
			V-562.2z"/>
		<path class="st21" d="M-649.7-516.4h2.9v30.8h-2.9V-516.4z M-655.3-516.4h3v30.8h-3V-516.4z M-660.9-516.4h3v30.8h-3V-516.4z
			 M-666.6-516.4h3v30.8h-3V-516.4z M-672.2-516.4h3v30.8h-3V-516.4z M-677.6-516.4h2.9v30.8h-2.9V-516.4z M-680.7-519.5h37v37h-37
			V-519.5z"/>
		<path class="st20" d="M-649.7-559.1h2.9v30.8h-2.9V-559.1z M-655.3-559.1h3v30.8h-3V-559.1z M-660.9-559.1h3v30.8h-3V-559.1z
			 M-666.6-559.1h3v30.8h-3V-559.1z M-672.2-559.1h3v30.8h-3V-559.1z M-677.6-559.1h2.9v30.8h-2.9V-559.1z M-680.7-562.2h37v37h-37
			V-562.2z"/>
		<path class="st21" d="M-649.7-601.8h2.9v30.8h-2.9V-601.8z M-655.3-601.8h3v30.8h-3V-601.8z M-660.9-601.8h3v30.8h-3V-601.8z
			 M-666.6-601.8h3v30.8h-3V-601.8z M-672.2-601.8h3v30.8h-3V-601.8z M-677.6-601.8h2.9v30.8h-2.9V-601.8z M-680.7-604.9h37v37h-37
			V-604.9z"/>
		<path class="st20" d="M-607-516.4h2.9v30.8h-2.9V-516.4z M-612.6-516.4h3v30.8h-3V-516.4z M-618.3-516.4h3v30.8h-3V-516.4z
			 M-623.9-516.4h3v30.8h-3V-516.4z M-629.5-516.4h3v30.8h-3V-516.4z M-635-516.4h2.9v30.8h-2.9V-516.4z M-638-519.5h37v37h-37
			V-519.5z"/>
	</g>
	<path class="st22" d="M-731.4-422.5c5.6,0,10.2,4.6,10.2,10.2c0,5.6-4.6,10.2-10.2,10.2c-5.6,0-10.2-4.6-10.2-10.2
		C-741.6-417.9-737.1-422.5-731.4-422.5"/>
	<path class="st14" d="M-731.4-419.6c0.9,0,1.8,0.2,2.6,0.5c-0.9,0.5-1.5,1.5-1.5,2.6c0,1.6,1.3,3,3,3c1.1,0,2.1-0.6,2.6-1.6
		c0.4,0.9,0.6,1.8,0.6,2.8c0,4-3.3,7.3-7.3,7.3c-4,0-7.3-3.3-7.3-7.3C-738.7-416.3-735.5-419.6-731.4-419.6"/>
	<path class="st14" d="M-912-443.7h223.6h27.7h223.6c-10.3-2.6-32.7-6.2-29-19.7c-18.8,21.8-64.1,15.3-75.6,4.5
		c-12.7,18.5-86.9,11.5-92.1-2.9c-16,18.7-65.5,18.7-81.5,0c-5.2,14.4-79.4,21.4-92.1,2.9c-11.4,10.7-56.8,17.2-75.6-4.5
		C-879.3-449.8-901.7-446.3-912-443.7"/>
	<path class="st23" d="M-704.3-348.9c-25.3-12-39.2-28.3-46.9-46.1c-9.4,2.7-20.7,4.4-33.8,5.1c-4.9,0.3-10.1,0.4-15.6,0.4
		c-6.3,0-12.9-0.2-19.9-0.6c23.2,23.2,51.7,41,104.5,41.3C-712-348.7-708.2-348.8-704.3-348.9z"/>
	<path class="st24" d="M-741.8-378.6c-3.5-4.7-6.9-10.7-9.4-16.4c-9.4,2.7-20.7,4.4-33.8,5.1C-776-385-763.1-380.5-741.8-378.6z"/>
</g>
<g>
	<path id="docker_1_" class="st1" d="M441.5-236.7c10.7-9.2,21.5-18.4,32.2-27.7c3.7-3.2,7.7-6.4,11.3-9.8
		c-2.9-3.7-7.8-6.3-11.9-7.9c-8.3-3.2-16.6-2.1-24.2,2.3c-10,5.8-14.3,15-13.9,26.5c0.1,4.5,1.4,8.9,3.8,12.7
		C439.5-239.2,440.5-237.9,441.5-236.7 M453.9-228c5.3,1.8,11.3,1.6,16.7,0.6c2.8-1.2,9.8-4.3,12.4-3.8l0.4,0.1l0.4,0.2
		c1.6,0.8,3.1,1.9,3.9,3.5c1.9,3.8,1,7.6-2.7,9.7l-1.2,0.7c-13.7,7.9-28.3,6.8-42-0.6c-6.5-3.5-11.5-8.8-15.2-15.2l-0.9-1.5
		c-8.8-15.3-7.6-31.3,2.3-45.8c3.4-5,7.9-8.9,13.2-11.9l2-1.1c12.9-7.5,26.8-7,40.1-0.4c7.1,3.5,12.9,8.8,16.9,15.7l0.7,1.2
		c2.9,5-0.9,9.4-4.7,12.4c-4.5,3.5-9,7.6-13.3,11.4C473.1-244.6,463.5-236.2,453.9-228z M556.7-297.4h1.4c4.3,0,7.2,2.9,7.2,7.2
		c0,6-5.7,7.5-10.7,7.5c-6.5,0-12.7,3.9-17.2,8.3c-5.6,5.5-8,12.6-8,20.3v35c0,4-2.5,7.2-6.7,7.2h-1.1c-4.2,0-6.7-3.2-6.7-7.2v-37
		c0-14.2,6.9-25.8,18.5-34C540.4-294.8,548.3-297.4,556.7-297.4z M376.4-272.5c5.6-5.6,11.3-11.2,17-16.8c1.6-1.5,7.6-8.1,10-8.1
		h2.6l0.3,0.1c3.3,0.7,5.8,2.8,5.8,6.3v1.4c0,2.4-2.8,5.2-4.4,6.9c-3.3,3.5-6.8,6.9-10.2,10.4l-17.5,17.7c7.5,7.5,15,15.1,22.5,22.7
		c2.1,2.1,4.1,4.2,6.2,6.3c0.7,0.8,1.8,1.7,2.4,2.7c0.6,1,1,2.1,1,3.3v1.5l-0.1,0.3c-0.8,3.3-2.9,6-6.6,6h-1.2
		c-2.4,0-5.1-2.7-6.7-4.3c-3.4-3.2-6.6-6.5-10-9.8l-11.1-10.9v17.4c0,4-2.5,7.2-6.7,7.2h-1.1c-4.2,0-6.7-3.2-6.7-7.2v-98.2
		c0-4,2.5-7.2,6.7-7.2h1.1c4.2,0,6.7,3.2,6.7,7.2V-272.5z M329.5-282.3c-2.2-1-6.3-1.4-8.6-1.5c-12.1-0.5-20.8,6.4-26,17
		c-1.8,3.7-2.6,7.6-2.6,11.6c0,12.4,6.5,21.1,17.6,26.4c4,1.9,9.3,2.3,13.7,2.3c3.9,0,9.4-2.4,12.8-4l0.6-0.3h2.7l0.3,0.1
		c3.3,0.7,5.8,2.8,5.8,6.3v1.4c0,8.8-16.1,10.8-22.2,11.3c-21.7,1.5-37.9-10.4-44.1-31.1c-1.1-3.6-1.6-7.2-1.6-10.9v-2.9
		c0-15.7,7.8-28.1,21.2-36.1c6.3-3.7,13.2-5.6,20.4-5.6h2.9c7.7,0,14.8,2.2,21.2,6.5l0.5,0.4l0.3,0.5c0.7,1.1,1.3,2.5,1.3,3.8v1.4
		c0,3.7-2.8,5.7-6.1,6.3l-0.3,0h-0.9C336.3-279.2,331.4-281.4,329.5-282.3z M197.5-254.8c0,11,5.4,19.1,14.7,24.8
		c4.4,2.7,9.2,3.9,14.3,3.9c10.9,0,18.9-5.5,24.5-14.7c2.7-4.4,3.9-9.2,3.9-14.3c0-10.2-4.9-18-13.3-23.7c-4.6-3.1-9.8-4.7-15.3-4.7
		c-12.1,0-20.8,6.1-26.1,17C198.3-262.8,197.5-258.9,197.5-254.8z M224.8-297.9h2c16.8,0,29.5,8.1,37.6,22.8c3.2,5.9,5,12.2,5,18.9
		v2.9c0,15.7-7.7,28.2-21.3,36.1c-6.3,3.7-13.2,5.6-20.4,5.6h-2.9c-15.7,0-28.2-7.8-36.1-21.2c-3.7-6.3-5.6-13.2-5.6-20.4v-2.9
		c0-15.7,7.8-28.1,21.2-36.1C210.6-296.1,217.5-297.9,224.8-297.9z M102.8-254.8c0,11.3,5.5,19.8,15.4,25.3c4,2.2,8.4,3.4,13,3.4
		c11.1,0,19.4-5.2,25.1-14.7c2.6-4.4,3.9-9.2,3.9-14.3c0-9.8-4.7-17.5-12.6-23.2c-4.8-3.5-10.2-5.2-16.1-5.2
		c-12.1,0-20.8,6.1-26.1,17C103.6-262.8,102.8-258.9,102.8-254.8z M160.1-287.1v-30.6c0-4,2.5-7.2,6.7-7.2h1.2
		c4.2,0,6.7,3.2,6.7,7.2v64.3c0,15.7-7.8,28.2-21.3,36.1c-6.3,3.7-13.2,5.6-20.4,5.6H130c-15.7,0-28.2-7.8-36.1-21.2
		c-3.7-6.3-5.6-13.2-5.6-20.4v-2.9c0-15.7,7.8-28.2,21.2-36.1c6.3-3.7,13.2-5.6,20.4-5.6h2.9C143.5-297.9,152.5-293.8,160.1-287.1z"
		/>
	<path id="outline_1_" class="st14" d="M363.4-526.6h42.7v43.6h21.6c10,0,20.2-1.8,29.7-5c4.6-1.6,9.8-3.8,14.4-6.5
		c-6-7.9-9.1-17.8-10-27.6c-1.2-13.3,1.5-30.7,10.5-41.1l4.5-5.2l5.3,4.3c13.5,10.8,24.8,25.9,26.8,43.2c16.2-4.8,35.2-3.6,49.5,4.6
		l5.9,3.4l-3.1,6c-12.1,23.6-37.4,30.9-62.1,29.6c-37,92.1-117.4,135.7-215,135.7c-50.4,0-96.7-18.8-123-63.6l-0.4-0.7l-3.8-7.8
		c-8.9-19.7-11.9-41.3-9.9-62.8l0.6-6.5h36.5v-43.6h42.7v-42.7h85.4V-612h51.2V-526.6z"/>
	<g id="body_colors_1_">
		<path class="st15" d="M501.7-510.5c2.9-22.2-13.8-39.7-24.1-48c-11.9,13.8-13.7,49.8,4.9,65c-10.4,9.3-32.4,17.6-54.8,17.6H154
			c-2.2,23.5,1.9,45.1,11.3,63.6l3.1,5.7c2,3.3,4.1,6.6,6.5,9.7h0c11.2,0.7,21.6,1,31.1,0.8c0,0,0,0,0,0c18.6-0.4,33.9-2.6,45.4-6.6
			c1.7-0.6,3.6,0.3,4.2,2c0.6,1.7-0.3,3.6-2,4.2c-1.5,0.5-3.1,1-4.8,1.5c0,0,0,0,0,0c-9.1,2.6-18.8,4.3-31.4,5.1
			c0.7,0-0.8,0.1-0.8,0.1c-0.4,0-1,0.1-1.4,0.1c-4.9,0.3-10.3,0.3-15.7,0.3c-6,0-11.8-0.1-18.4-0.4l-0.2,0.1
			c22.8,25.6,58.4,41,103.1,41c94.6,0,174.8-41.9,210.3-136c25.2,2.6,49.4-3.8,60.4-25.3C537.3-520.2,514.7-517,501.7-510.5z"/>
		<path class="st16" d="M501.7-510.5c2.9-22.2-13.8-39.7-24.1-48c-11.9,13.8-13.7,49.8,4.9,65c-10.4,9.3-32.4,17.6-54.8,17.6H170.2
			c-1.1,35.9,12.2,63.2,35.8,79.7c0,0,0,0,0,0c18.6-0.4,33.9-2.6,45.4-6.6c1.7-0.6,3.6,0.3,4.2,2c0.6,1.7-0.3,3.6-2,4.2
			c-1.5,0.5-3.1,1-4.8,1.5c0,0,0,0,0,0c-9.1,2.6-19.7,4.6-32.2,5.3c0,0-0.3-0.3-0.3-0.3c32.2,16.5,78.9,16.4,132.4-4.1
			c60-23,115.8-67,154.8-117.2C502.8-511,502.3-510.7,501.7-510.5z"/>
		<path class="st17" d="M154.6-447.3c1.7,12.6,5.4,24.3,10.8,35.1l3.1,5.7c2,3.3,4.1,6.6,6.5,9.7c11.3,0.7,21.6,1,31.1,0.8
			c18.6-0.4,33.9-2.6,45.4-6.6c1.7-0.6,3.6,0.3,4.2,2c0.6,1.7-0.3,3.6-2,4.2c-1.5,0.5-3.1,1-4.8,1.5c0,0,0,0,0,0
			c-9.1,2.6-19.6,4.4-32.2,5.2c-0.4,0-1.2,0-1.6,0.1c-4.9,0.3-10.2,0.4-15.7,0.4c-6,0-12.1-0.1-18.6-0.4c22.8,25.6,58.7,41,103.4,41
			c81,0,151.4-30.7,192.3-98.6H154.6z"/>
		<path class="st18" d="M172.7-447.3c4.8,22.1,16.5,39.4,33.4,51.2c18.6-0.4,33.9-2.6,45.4-6.6c1.7-0.6,3.6,0.3,4.2,2
			c0.6,1.7-0.3,3.6-2,4.2c-1.5,0.5-3.1,1-4.8,1.5c0,0,0,0,0,0c-9.1,2.6-19.8,4.4-32.4,5.2c32.2,16.5,78.7,16.3,132.2-4.3
			c32.4-12.4,63.5-30.9,91.5-53.2H172.7z"/>
	</g>
	<g class="st3">
		<path class="st19" d="M199.4-389.5c5.5,0,10.7-0.1,15.6-0.4c0.4,0,0.8-0.1,1.3-0.1c0,0,0,0,0,0c12.6-0.8,23.4-2.5,32.5-5
			c0,0,0,0,0,0c1.7-0.5,3.2-1,4.8-1.5c1.7-0.6,2.6-2.5,2-4.2c-0.6-1.7-2.5-2.6-4.2-2c-11.5,4-26.7,6.2-45.4,6.6c0,0,0,0,0,0
			c-9.5,0.2-19.9,0-31.1-0.8h0c-0.6,0-1.1-0.1-1.7-0.1c-1.8-0.1-3.4,1.2-3.5,3.1c-0.1,1.8,1.2,3.4,3.1,3.5c2.3,0.2,4.6,0.3,6.8,0.4
			c0.4,0,0.7,0,1,0l0,0C187.2-389.7,193.5-389.5,199.4-389.5z"/>
	</g>
	<g id="Containers_1_">
		<path class="st20" d="M222.2-516.4h2.9v30.8h-2.9V-516.4z M216.6-516.4h3v30.8h-3V-516.4z M211-516.4h3v30.8h-3V-516.4z
			 M205.4-516.4h3v30.8h-3V-516.4z M199.8-516.4h3v30.8h-3V-516.4z M194.3-516.4h2.9v30.8h-2.9V-516.4z M191.2-519.5h37v37h-37
			V-519.5z"/>
		<path class="st20" d="M264.9-559.1h2.9v30.8h-2.9V-559.1z M259.3-559.1h3v30.8h-3V-559.1z M253.7-559.1h3v30.8h-3V-559.1z
			 M248.1-559.1h3v30.8h-3V-559.1z M242.5-559.1h3v30.8h-3V-559.1z M237-559.1h2.9v30.8H237V-559.1z M233.9-562.2h37v37h-37V-562.2z
			"/>
		<path class="st21" d="M264.9-516.4h2.9v30.8h-2.9V-516.4z M259.3-516.4h3v30.8h-3V-516.4z M253.7-516.4h3v30.8h-3V-516.4z
			 M248.1-516.4h3v30.8h-3V-516.4z M242.5-516.4h3v30.8h-3V-516.4z M237-516.4h2.9v30.8H237V-516.4z M233.9-519.5h37v37h-37V-519.5z
			"/>
		<path class="st20" d="M307.6-516.4h2.9v30.8h-2.9V-516.4z M302-516.4h3v30.8h-3V-516.4z M296.4-516.4h3v30.8h-3V-516.4z
			 M290.8-516.4h3v30.8h-3V-516.4z M285.1-516.4h3v30.8h-3V-516.4z M279.7-516.4h2.9v30.8h-2.9V-516.4z M276.6-519.5h37v37h-37
			V-519.5z"/>
		<path class="st21" d="M307.6-559.1h2.9v30.8h-2.9V-559.1z M302-559.1h3v30.8h-3V-559.1z M296.4-559.1h3v30.8h-3V-559.1z
			 M290.8-559.1h3v30.8h-3V-559.1z M285.1-559.1h3v30.8h-3V-559.1z M279.7-559.1h2.9v30.8h-2.9V-559.1z M276.6-562.2h37v37h-37
			V-562.2z"/>
		<path class="st21" d="M350.3-516.4h2.9v30.8h-2.9V-516.4z M344.7-516.4h3v30.8h-3V-516.4z M339.1-516.4h3v30.8h-3V-516.4z
			 M333.4-516.4h3v30.8h-3V-516.4z M327.8-516.4h3v30.8h-3V-516.4z M322.4-516.4h2.9v30.8h-2.9V-516.4z M319.3-519.5h37v37h-37
			V-519.5z"/>
		<path class="st20" d="M350.3-559.1h2.9v30.8h-2.9V-559.1z M344.7-559.1h3v30.8h-3V-559.1z M339.1-559.1h3v30.8h-3V-559.1z
			 M333.4-559.1h3v30.8h-3V-559.1z M327.8-559.1h3v30.8h-3V-559.1z M322.4-559.1h2.9v30.8h-2.9V-559.1z M319.3-562.2h37v37h-37
			V-562.2z"/>
		<path class="st21" d="M350.3-601.8h2.9v30.8h-2.9V-601.8z M344.7-601.8h3v30.8h-3V-601.8z M339.1-601.8h3v30.8h-3V-601.8z
			 M333.4-601.8h3v30.8h-3V-601.8z M327.8-601.8h3v30.8h-3V-601.8z M322.4-601.8h2.9v30.8h-2.9V-601.8z M319.3-604.9h37v37h-37
			V-604.9z"/>
		<path class="st20" d="M393-516.4h2.9v30.8H393V-516.4z M387.4-516.4h3v30.8h-3V-516.4z M381.7-516.4h3v30.8h-3V-516.4z
			 M376.1-516.4h3v30.8h-3V-516.4z M370.5-516.4h3v30.8h-3V-516.4z M365-516.4h2.9v30.8H365V-516.4z M362-519.5h37v37h-37V-519.5z"
			/>
	</g>
	<path class="st22" d="M268.6-422.5c5.6,0,10.2,4.6,10.2,10.2c0,5.6-4.6,10.2-10.2,10.2c-5.6,0-10.2-4.6-10.2-10.2
		C258.4-417.9,262.9-422.5,268.6-422.5"/>
	<path class="st14" d="M268.6-419.6c0.9,0,1.8,0.2,2.6,0.5c-0.9,0.5-1.5,1.5-1.5,2.6c0,1.6,1.3,3,3,3c1.1,0,2.1-0.6,2.6-1.6
		c0.4,0.9,0.6,1.8,0.6,2.8c0,4-3.3,7.3-7.3,7.3c-4,0-7.3-3.3-7.3-7.3C261.3-416.3,264.5-419.6,268.6-419.6"/>
	<path class="st14" d="M88-443.7h223.6h27.7h223.6c-10.3-2.6-32.7-6.2-29-19.7c-18.8,21.8-64.1,15.3-75.6,4.5
		c-12.7,18.5-86.9,11.5-92.1-2.9c-16,18.7-65.5,18.7-81.5,0c-5.2,14.4-79.4,21.4-92.1,2.9c-11.4,10.7-56.8,17.2-75.6-4.5
		C120.7-449.8,98.3-446.3,88-443.7"/>
	<path class="st23" d="M295.7-348.9c-25.3-12-39.2-28.3-46.9-46.1c-9.4,2.7-20.7,4.4-33.8,5.1c-4.9,0.3-10.1,0.4-15.6,0.4
		c-6.3,0-12.9-0.2-19.9-0.6c23.2,23.2,51.7,41,104.5,41.3C288-348.7,291.8-348.8,295.7-348.9z"/>
	<path class="st24" d="M258.2-378.6c-3.5-4.7-6.9-10.7-9.4-16.4c-9.4,2.7-20.7,4.4-33.8,5.1C224-385,236.9-380.5,258.2-378.6z"/>
</g>
<g>
	<path id="docker_2_" class="st25" d="M441.5,463.3c10.7-9.2,21.5-18.4,32.2-27.7c3.7-3.2,7.7-6.4,11.3-9.8
		c-2.9-3.7-7.8-6.3-11.9-7.9c-8.3-3.2-16.6-2.1-24.2,2.3c-10,5.8-14.3,15-13.9,26.5c0.1,4.5,1.4,8.9,3.8,12.7
		C439.5,460.8,440.5,462.1,441.5,463.3 M453.9,472c5.3,1.8,11.3,1.6,16.7,0.6c2.8-1.2,9.8-4.3,12.4-3.8l0.4,0.1l0.4,0.2
		c1.6,0.8,3.1,1.9,3.9,3.5c1.9,3.8,1,7.6-2.7,9.7l-1.2,0.7c-13.7,7.9-28.3,6.8-42-0.6c-6.5-3.5-11.5-8.8-15.2-15.2l-0.9-1.5
		c-8.8-15.3-7.6-31.3,2.3-45.8c3.4-5,7.9-8.9,13.2-11.9l2-1.1c12.9-7.5,26.8-7,40.1-0.4c7.1,3.5,12.9,8.8,16.9,15.7l0.7,1.2
		c2.9,5-0.9,9.4-4.7,12.4c-4.5,3.5-9,7.6-13.3,11.4C473.1,455.4,463.5,463.8,453.9,472z M556.7,402.6h1.4c4.3,0,7.2,2.9,7.2,7.2
		c0,6-5.7,7.5-10.7,7.5c-6.5,0-12.7,3.9-17.2,8.3c-5.6,5.5-8,12.6-8,20.3v35c0,4-2.5,7.2-6.7,7.2h-1.1c-4.2,0-6.7-3.2-6.7-7.2v-37
		c0-14.2,6.9-25.8,18.5-34C540.4,405.2,548.3,402.6,556.7,402.6z M376.4,427.5c5.6-5.6,11.3-11.2,17-16.8c1.6-1.5,7.6-8.1,10-8.1
		h2.6l0.3,0.1c3.3,0.7,5.8,2.8,5.8,6.3v1.4c0,2.4-2.8,5.2-4.4,6.9c-3.3,3.5-6.8,6.9-10.2,10.4l-17.5,17.7c7.5,7.5,15,15.1,22.5,22.7
		c2.1,2.1,4.1,4.2,6.2,6.3c0.7,0.8,1.8,1.7,2.4,2.7c0.6,1,1,2.1,1,3.3v1.5l-0.1,0.3c-0.8,3.3-2.9,6-6.6,6h-1.2
		c-2.4,0-5.1-2.7-6.7-4.3c-3.4-3.2-6.6-6.5-10-9.8l-11.1-10.9v17.4c0,4-2.5,7.2-6.7,7.2h-1.1c-4.2,0-6.7-3.2-6.7-7.2v-98.2
		c0-4,2.5-7.2,6.7-7.2h1.1c4.2,0,6.7,3.2,6.7,7.2V427.5z M329.5,417.7c-2.2-1-6.3-1.4-8.6-1.5c-12.1-0.5-20.8,6.4-26,17
		c-1.8,3.7-2.6,7.6-2.6,11.6c0,12.4,6.5,21.1,17.6,26.4c4,1.9,9.3,2.3,13.7,2.3c3.9,0,9.4-2.4,12.8-4l0.6-0.3h2.7l0.3,0.1
		c3.3,0.7,5.8,2.8,5.8,6.3v1.4c0,8.8-16.1,10.8-22.2,11.3c-21.7,1.5-37.9-10.4-44.1-31.1c-1.1-3.6-1.6-7.2-1.6-10.9v-2.9
		c0-15.7,7.8-28.1,21.2-36.1c6.3-3.7,13.2-5.6,20.4-5.6h2.9c7.7,0,14.8,2.2,21.2,6.5l0.5,0.4l0.3,0.5c0.7,1.1,1.3,2.5,1.3,3.8v1.4
		c0,3.7-2.8,5.7-6.1,6.3l-0.3,0h-0.9C336.3,420.8,331.4,418.6,329.5,417.7z M197.5,445.2c0,11,5.4,19.1,14.7,24.8
		c4.4,2.7,9.2,3.9,14.3,3.9c10.9,0,18.9-5.5,24.5-14.7c2.7-4.4,3.9-9.2,3.9-14.3c0-10.2-4.9-18-13.3-23.7c-4.6-3.1-9.8-4.7-15.3-4.7
		c-12.1,0-20.8,6.1-26.1,17C198.3,437.2,197.5,441.1,197.5,445.2z M224.8,402.1h2c16.8,0,29.5,8.1,37.6,22.8c3.2,5.9,5,12.2,5,18.9
		v2.9c0,15.7-7.7,28.2-21.3,36.1c-6.3,3.7-13.2,5.6-20.4,5.6h-2.9c-15.7,0-28.2-7.8-36.1-21.2c-3.7-6.3-5.6-13.2-5.6-20.4v-2.9
		c0-15.7,7.8-28.1,21.2-36.1C210.6,403.9,217.5,402.1,224.8,402.1z M102.8,445.2c0,11.3,5.5,19.8,15.4,25.3c4,2.2,8.4,3.4,13,3.4
		c11.1,0,19.4-5.2,25.1-14.7c2.6-4.4,3.9-9.2,3.9-14.3c0-9.8-4.7-17.5-12.6-23.2c-4.8-3.5-10.2-5.2-16.1-5.2
		c-12.1,0-20.8,6.1-26.1,17C103.6,437.2,102.8,441.1,102.8,445.2z M160.1,412.9v-30.6c0-4,2.5-7.2,6.7-7.2h1.2
		c4.2,0,6.7,3.2,6.7,7.2v64.3c0,15.7-7.8,28.2-21.3,36.1c-6.3,3.7-13.2,5.6-20.4,5.6H130c-15.7,0-28.2-7.8-36.1-21.2
		c-3.7-6.3-5.6-13.2-5.6-20.4v-2.9c0-15.7,7.8-28.2,21.2-36.1c6.3-3.7,13.2-5.6,20.4-5.6h2.9C143.5,402.1,152.5,406.2,160.1,412.9z"
		/>
	<path id="outline_4_" class="st26" d="M363.4,173.4h42.7V217h21.6c10,0,20.2-1.8,29.7-5c4.6-1.6,9.8-3.8,14.4-6.5
		c-6-7.9-9.1-17.8-10-27.6c-1.2-13.3,1.5-30.7,10.5-41.1l4.5-5.2l5.3,4.3c13.5,10.8,24.8,25.9,26.8,43.2c16.2-4.8,35.2-3.6,49.5,4.6
		l5.9,3.4l-3.1,6c-12.1,23.6-37.4,30.9-62.1,29.6c-37,92.1-117.4,135.7-215,135.7c-50.4,0-96.7-18.8-123-63.6l-0.4-0.7l-3.8-7.8
		c-8.9-19.7-11.9-41.3-9.9-62.8l0.6-6.5h36.5v-43.6h42.7v-42.7h85.4V88h51.2V173.4z"/>
	<g id="body_colors_4_">
		<path class="st27" d="M501.7,189.5c2.9-22.2-13.8-39.7-24.1-48c-11.9,13.8-13.7,49.8,4.9,65c-10.4,9.3-32.4,17.6-54.8,17.6H154
			c-2.2,23.5,1.9,45.1,11.3,63.6l3.1,5.7c2,3.3,4.1,6.6,6.5,9.7h0c11.2,0.7,21.6,1,31.1,0.8c0,0,0,0,0,0c18.6-0.4,33.9-2.6,45.4-6.6
			c1.7-0.6,3.6,0.3,4.2,2c0.6,1.7-0.3,3.6-2,4.2c-1.5,0.5-3.1,1-4.8,1.5c0,0,0,0,0,0c-9.1,2.6-18.8,4.3-31.4,5.1
			c0.7,0-0.8,0.1-0.8,0.1c-0.4,0-1,0.1-1.4,0.1c-4.9,0.3-10.3,0.3-15.7,0.3c-6,0-11.8-0.1-18.4-0.4l-0.2,0.1
			c22.8,25.6,58.4,41,103.1,41c94.6,0,174.8-41.9,210.3-136c25.2,2.6,49.4-3.8,60.4-25.3C537.3,179.8,514.7,183,501.7,189.5z"/>
		<path class="st28" d="M501.7,189.5c2.9-22.2-13.8-39.7-24.1-48c-11.9,13.8-13.7,49.8,4.9,65c-10.4,9.3-32.4,17.6-54.8,17.6H170.2
			c-1.1,35.9,12.2,63.2,35.8,79.7c0,0,0,0,0,0c18.6-0.4,33.9-2.6,45.4-6.6c1.7-0.6,3.6,0.3,4.2,2c0.6,1.7-0.3,3.6-2,4.2
			c-1.5,0.5-3.1,1-4.8,1.5c0,0,0,0,0,0c-9.1,2.6-19.7,4.6-32.2,5.3c0,0-0.3-0.3-0.3-0.3c32.2,16.5,78.9,16.4,132.4-4.1
			c60-23,115.8-67,154.8-117.2C502.8,189,502.3,189.3,501.7,189.5z"/>
		<path class="st29" d="M154.6,252.7c1.7,12.6,5.4,24.3,10.8,35.1l3.1,5.7c2,3.3,4.1,6.6,6.5,9.7c11.3,0.7,21.6,1,31.1,0.8
			c18.6-0.4,33.9-2.6,45.4-6.6c1.7-0.6,3.6,0.3,4.2,2c0.6,1.7-0.3,3.6-2,4.2c-1.5,0.5-3.1,1-4.8,1.5c0,0,0,0,0,0
			c-9.1,2.6-19.6,4.4-32.2,5.2c-0.4,0-1.2,0-1.6,0.1c-4.9,0.3-10.2,0.4-15.7,0.4c-6,0-12.1-0.1-18.6-0.4c22.8,25.6,58.7,41,103.4,41
			c81,0,151.4-30.7,192.3-98.6H154.6z"/>
		<path class="st30" d="M172.7,252.7c4.8,22.1,16.5,39.4,33.4,51.2c18.6-0.4,33.9-2.6,45.4-6.6c1.7-0.6,3.6,0.3,4.2,2
			c0.6,1.7-0.3,3.6-2,4.2c-1.5,0.5-3.1,1-4.8,1.5c0,0,0,0,0,0c-9.1,2.6-19.8,4.4-32.4,5.2c32.2,16.5,78.7,16.3,132.2-4.3
			c32.4-12.4,63.5-30.9,91.5-53.2H172.7z"/>
	</g>
	<g class="st3">
		<path class="st31" d="M199.4,310.5c5.5,0,10.7-0.1,15.6-0.4c0.4,0,0.8-0.1,1.3-0.1c0,0,0,0,0,0c12.6-0.8,23.4-2.5,32.5-5
			c0,0,0,0,0,0c1.7-0.5,3.2-1,4.8-1.5c1.7-0.6,2.6-2.5,2-4.2c-0.6-1.7-2.5-2.6-4.2-2c-11.5,4-26.7,6.2-45.4,6.6c0,0,0,0,0,0
			c-9.5,0.2-19.9,0-31.1-0.8h0c-0.6,0-1.1-0.1-1.7-0.1c-1.8-0.1-3.4,1.2-3.5,3.1c-0.1,1.8,1.2,3.4,3.1,3.5c2.3,0.2,4.6,0.3,6.8,0.4
			c0.4,0,0.7,0,1,0l0,0C187.2,310.3,193.5,310.5,199.4,310.5z"/>
	</g>
	<g id="Containers_4_">
		<path class="st32" d="M222.2,183.6h2.9v30.8h-2.9V183.6z M216.6,183.6h3v30.8h-3V183.6z M211,183.6h3v30.8h-3V183.6z M205.4,183.6
			h3v30.8h-3V183.6z M199.8,183.6h3v30.8h-3V183.6z M194.3,183.6h2.9v30.8h-2.9V183.6z M191.2,180.5h37v37h-37V180.5z"/>
		<path class="st32" d="M264.9,140.9h2.9v30.8h-2.9V140.9z M259.3,140.9h3v30.8h-3V140.9z M253.7,140.9h3v30.8h-3V140.9z
			 M248.1,140.9h3v30.8h-3V140.9z M242.5,140.9h3v30.8h-3V140.9z M237,140.9h2.9v30.8H237V140.9z M233.9,137.8h37v37h-37V137.8z"/>
		<path class="st33" d="M264.9,183.6h2.9v30.8h-2.9V183.6z M259.3,183.6h3v30.8h-3V183.6z M253.7,183.6h3v30.8h-3V183.6z
			 M248.1,183.6h3v30.8h-3V183.6z M242.5,183.6h3v30.8h-3V183.6z M237,183.6h2.9v30.8H237V183.6z M233.9,180.5h37v37h-37V180.5z"/>
		<path class="st32" d="M307.6,183.6h2.9v30.8h-2.9V183.6z M302,183.6h3v30.8h-3V183.6z M296.4,183.6h3v30.8h-3V183.6z M290.8,183.6
			h3v30.8h-3V183.6z M285.1,183.6h3v30.8h-3V183.6z M279.7,183.6h2.9v30.8h-2.9V183.6z M276.6,180.5h37v37h-37V180.5z"/>
		<path class="st33" d="M307.6,140.9h2.9v30.8h-2.9V140.9z M302,140.9h3v30.8h-3V140.9z M296.4,140.9h3v30.8h-3V140.9z M290.8,140.9
			h3v30.8h-3V140.9z M285.1,140.9h3v30.8h-3V140.9z M279.7,140.9h2.9v30.8h-2.9V140.9z M276.6,137.8h37v37h-37V137.8z"/>
		<path class="st33" d="M350.3,183.6h2.9v30.8h-2.9V183.6z M344.7,183.6h3v30.8h-3V183.6z M339.1,183.6h3v30.8h-3V183.6z
			 M333.4,183.6h3v30.8h-3V183.6z M327.8,183.6h3v30.8h-3V183.6z M322.4,183.6h2.9v30.8h-2.9V183.6z M319.3,180.5h37v37h-37V180.5z"
			/>
		<path class="st32" d="M350.3,140.9h2.9v30.8h-2.9V140.9z M344.7,140.9h3v30.8h-3V140.9z M339.1,140.9h3v30.8h-3V140.9z
			 M333.4,140.9h3v30.8h-3V140.9z M327.8,140.9h3v30.8h-3V140.9z M322.4,140.9h2.9v30.8h-2.9V140.9z M319.3,137.8h37v37h-37V137.8z"
			/>
		<path class="st33" d="M350.3,98.2h2.9V129h-2.9V98.2z M344.7,98.2h3V129h-3V98.2z M339.1,98.2h3V129h-3V98.2z M333.4,98.2h3V129
			h-3V98.2z M327.8,98.2h3V129h-3V98.2z M322.4,98.2h2.9V129h-2.9V98.2z M319.3,95.1h37v37h-37V95.1z"/>
		<path class="st32" d="M393,183.6h2.9v30.8H393V183.6z M387.4,183.6h3v30.8h-3V183.6z M381.7,183.6h3v30.8h-3V183.6z M376.1,183.6
			h3v30.8h-3V183.6z M370.5,183.6h3v30.8h-3V183.6z M365,183.6h2.9v30.8H365V183.6z M362,180.5h37v37h-37V180.5z"/>
	</g>
	<path class="st25" d="M268.6,277.5c5.6,0,10.2,4.6,10.2,10.2c0,5.6-4.6,10.2-10.2,10.2c-5.6,0-10.2-4.6-10.2-10.2
		C258.4,282.1,262.9,277.5,268.6,277.5"/>
	<path class="st26" d="M268.6,280.4c0.9,0,1.8,0.2,2.6,0.5c-0.9,0.5-1.5,1.5-1.5,2.6c0,1.6,1.3,3,3,3c1.1,0,2.1-0.6,2.6-1.6
		c0.4,0.9,0.6,1.8,0.6,2.8c0,4-3.3,7.3-7.3,7.3c-4,0-7.3-3.3-7.3-7.3C261.3,283.7,264.5,280.4,268.6,280.4"/>
	<path class="st26" d="M88,256.3h223.6h27.7h223.6c-10.3-2.6-32.7-6.2-29-19.7c-18.8,21.8-64.1,15.3-75.6,4.5
		c-12.7,18.5-86.9,11.5-92.1-2.9c-16,18.7-65.5,18.7-81.5,0c-5.2,14.4-79.4,21.4-92.1,2.9c-11.4,10.7-56.8,17.2-75.6-4.5
		C120.7,250.2,98.3,253.7,88,256.3"/>
	<path class="st34" d="M295.7,351.1c-25.3-12-39.2-28.3-46.9-46.1c-9.4,2.7-20.7,4.4-33.8,5.1c-4.9,0.3-10.1,0.4-15.6,0.4
		c-6.3,0-12.9-0.2-19.9-0.6c23.2,23.2,51.7,41,104.5,41.3C288,351.3,291.8,351.2,295.7,351.1z"/>
	<path class="st35" d="M258.2,321.4c-3.5-4.7-6.9-10.7-9.4-16.4c-9.4,2.7-20.7,4.4-33.8,5.1C224,315,236.9,319.5,258.2,321.4z"/>
</g>
<path id="outline_5_" class="st36" d="M234.1,1688.1h42.7v43.6h21.6c10,0,20.2-1.8,29.7-5c4.6-1.6,9.8-3.8,14.4-6.5
	c-6-7.9-9.1-17.8-10-27.6c-1.2-13.3,1.5-30.7,10.5-41.1l4.5-5.2l5.3,4.3c13.5,10.8,24.8,25.9,26.8,43.2c16.2-4.8,35.2-3.6,49.5,4.6
	l5.9,3.4l-3.1,6c-12.1,23.6-37.4,30.9-62.1,29.6c-37,92.1-117.4,135.7-215,135.7c-50.4,0-96.7-18.8-123-63.6l-0.4-0.7l-3.8-7.8
	c-8.9-19.7-11.9-41.3-9.9-62.8l0.6-6.5h36.5v-43.6h42.7v-42.7h85.4v-42.7h51.2V1688.1z"/>
<g class="st3">
	<path class="st19" d="M70.1,1825.2c5.5,0,10.7-0.1,15.6-0.4c0.4,0,0.8-0.1,1.3-0.1c0,0,0,0,0,0c12.6-0.8,23.4-2.5,32.5-5
		c0,0,0,0,0,0c1.7-0.5,3.2-1,4.8-1.5c1.7-0.6,2.6-2.5,2-4.2c-0.6-1.7-2.5-2.6-4.2-2c-11.5,4-26.7,6.2-45.4,6.6c0,0,0,0,0,0
		c-9.5,0.2-19.9,0-31.1-0.8h0c-0.6,0-1.1-0.1-1.7-0.1c-1.8-0.1-3.4,1.2-3.5,3.1c-0.1,1.8,1.2,3.4,3.1,3.5c2.3,0.2,4.6,0.3,6.8,0.4
		c0.4,0,0.7,0,1,0l0,0C57.9,1825,64.1,1825.2,70.1,1825.2z"/>
</g>
<rect x="-43" y="14.6" class="st37" width="792" height="612"/>
<text transform="matrix(1 0 0 1 -983.666 -720.332)" class="st38" style="font-family:'MyriadPro-Regular'; font-size:12px;">Final logo. The source for everything else</text>
<text transform="matrix(1 0 0 1 -983.666 -16.8677)" class="st38" style="font-family:'MyriadPro-Regular'; font-size:12px;">Logo with transparent background</text>
<text transform="matrix(1 0 0 1 -981.666 785.0273)" class="st38" style="font-family:'MyriadPro-Regular'; font-size:12px;">Horizontal, grey bg</text>
<text transform="matrix(1 0 0 1 -981.666 1181.5186)" class="st38" style="font-family:'MyriadPro-Regular'; font-size:12px;">Horizontal, transparent bg</text>
<text transform="matrix(1 0 0 1 8.4331 775.46)" class="st38" style="font-family:'MyriadPro-Regular'; font-size:12px;">Horizontal, dark bg, light text</text>
<text transform="matrix(1 0 0 1 8.4331 1182.0967)" class="st38" style="font-family:'MyriadPro-Regular'; font-size:12px;">Horizontal, transparent bg, for a dark background  </text>
<text transform="matrix(1 0 0 1 17.2861 -718.332)" class="st38" style="font-family:'MyriadPro-Regular'; font-size:12px;">Final logo, on a dark background</text>
<text transform="matrix(1 0 0 1 17.2861 -19.5293)" class="st38" style="font-family:'MyriadPro-Regular'; font-size:12px;">Final logo, transparent, for use on a dark background</text>
<g class="st3">
	<path class="st19" d="M-218.8,859c2.3,0,4.6-0.1,6.7-0.2c0.2,0,0.4,0,0.5,0c0,0,0,0,0,0c5.4-0.3,10.1-1.1,14-2.2c0,0,0,0,0,0
		c0.7-0.2,1.4-0.4,2.1-0.6c0.7-0.3,1.1-1.1,0.9-1.8c-0.3-0.7-1.1-1.1-1.8-0.9c-5,1.7-11.5,2.7-19.6,2.8h0c-4.1,0.1-8.6,0-13.4-0.3
		l0,0c-0.2,0-0.5,0-0.7,0c-0.8,0-1.5,0.5-1.5,1.3c-0.1,0.8,0.5,1.5,1.3,1.5c1,0.1,2,0.1,2.9,0.2c0.2,0,0.3,0,0.5,0l0,0
		C-224.1,858.9-221.4,859-218.8,859z"/>
</g>
<rect y="793.4" class="st2" width="800" height="275"/>
<g>
	<g>
		<path id="outline_2_" class="st14" d="M217.5,901.4H243v26h12.9c5.9,0,12.1-1.1,17.7-3c2.8-0.9,5.9-2.2,8.6-3.9
			c-3.6-4.7-5.4-10.6-6-16.5c-0.7-8,0.9-18.3,6.2-24.5l2.7-3.1l3.2,2.6c8,6.5,14.8,15.5,16,25.8c9.7-2.8,21-2.2,29.6,2.8l3.5,2
			l-1.8,3.6c-7.2,14.1-22.3,18.4-37,17.7c-22.1,54.9-70.1,81-128.3,81c-30.1,0-57.7-11.2-73.4-37.9l-0.3-0.4l-2.3-4.7
			c-5.3-11.8-7.1-24.6-5.9-37.5l0.4-3.9h21.8v-26h25.5v-25.5h51v-25.5h30.6V901.4z"/>
		<g id="body_colors_2_">
			<path class="st15" d="M300,911c1.7-13.3-8.2-23.7-14.4-28.7c-7.1,8.2-8.2,29.7,2.9,38.8c-6.2,5.5-19.3,10.5-32.7,10.5H92.5
				c-1.3,14,1.2,26.9,6.8,37.9l1.9,3.4c1.2,2,2.5,3.9,3.9,5.8l0,0c6.7,0.4,12.9,0.6,18.6,0.5c0,0,0,0,0,0
				c11.1-0.2,20.2-1.6,27.1-3.9c1-0.4,2.1,0.2,2.5,1.2c0.4,1-0.2,2.1-1.2,2.5c-0.9,0.3-1.9,0.6-2.9,0.9c0,0,0,0,0,0
				c-5.4,1.5-11.2,2.6-18.7,3c0.4,0-0.5,0.1-0.5,0.1c-0.3,0-0.6,0.1-0.8,0.1c-3,0.2-6.1,0.2-9.4,0.2c-3.6,0-7.1-0.1-11-0.3l-0.1,0.1
				c13.6,15.3,34.9,24.5,61.6,24.5c56.4,0,104.3-25,125.5-81.2c15,1.5,29.5-2.3,36.1-15.1C321.3,905.2,307.8,907.1,300,911z"/>
			<path class="st16" d="M300,911c1.7-13.3-8.2-23.7-14.4-28.7c-7.1,8.2-8.2,29.7,2.9,38.8c-6.2,5.5-19.3,10.5-32.7,10.5H102.2
				c-0.7,21.4,7.3,37.7,21.4,47.6c0,0,0,0,0,0c11.1-0.2,20.2-1.6,27.1-3.9c1-0.4,2.1,0.2,2.5,1.2c0.4,1-0.2,2.1-1.2,2.5
				c-0.9,0.3-1.9,0.6-2.9,0.9c0,0,0,0,0,0c-5.4,1.5-11.7,2.7-19.2,3.2c0,0-0.2-0.2-0.2-0.2c19.2,9.9,47.1,9.8,79-2.4
				c35.8-13.8,69.1-40,92.4-69.9C300.7,910.7,300.4,910.9,300,911z"/>
			<path class="st17" d="M92.9,948.7c1,7.5,3.2,14.5,6.5,20.9l1.9,3.4c1.2,2,2.5,3.9,3.9,5.8c6.7,0.4,12.9,0.6,18.6,0.5
				c11.1-0.2,20.2-1.6,27.1-3.9c1-0.4,2.1,0.2,2.5,1.2c0.4,1-0.2,2.1-1.2,2.5c-0.9,0.3-1.9,0.6-2.9,0.9c0,0,0,0,0,0
				c-5.4,1.5-11.7,2.7-19.2,3.1c-0.3,0-0.7,0-1,0c-2.9,0.2-6.1,0.3-9.4,0.3c-3.6,0-7.2-0.1-11.1-0.3c13.6,15.3,35,24.5,61.7,24.5
				c48.3,0,90.4-18.3,114.8-58.9H92.9z"/>
			<path class="st18" d="M103.7,948.7c2.9,13.2,9.8,23.5,19.9,30.6c11.1-0.2,20.2-1.6,27.1-3.9c1-0.4,2.1,0.2,2.5,1.2
				c0.4,1-0.2,2.1-1.2,2.5c-0.9,0.3-1.9,0.6-2.9,0.9c0,0,0,0,0,0c-5.4,1.5-11.8,2.7-19.3,3.1c19.2,9.9,47,9.7,78.9-2.6
				c19.3-7.4,37.9-18.5,54.6-31.8H103.7z"/>
		</g>
		<g id="Containers_2_">
			<path class="st20" d="M133.2,907.5h1.7v18.4h-1.7V907.5z M129.9,907.5h1.8v18.4h-1.8V907.5z M126.5,907.5h1.8v18.4h-1.8V907.5z
				 M123.2,907.5h1.8v18.4h-1.8V907.5z M119.8,907.5h1.8v18.4h-1.8V907.5z M116.6,907.5h1.7v18.4h-1.7V907.5z M114.7,905.7h22.1
				v22.1h-22.1V905.7z"/>
			<path class="st20" d="M158.7,882h1.7v18.4h-1.7V882z M155.3,882h1.8v18.4h-1.8V882z M152,882h1.8v18.4H152V882z M148.7,882h1.8
				v18.4h-1.8V882z M145.3,882h1.8v18.4h-1.8V882z M142,882h1.7v18.4H142V882z M140.2,880.2h22.1v22.1h-22.1V880.2z"/>
			<path class="st21" d="M158.7,907.5h1.7v18.4h-1.7V907.5z M155.3,907.5h1.8v18.4h-1.8V907.5z M152,907.5h1.8v18.4H152V907.5z
				 M148.7,907.5h1.8v18.4h-1.8V907.5z M145.3,907.5h1.8v18.4h-1.8V907.5z M142,907.5h1.7v18.4H142V907.5z M140.2,905.7h22.1v22.1
				h-22.1V905.7z"/>
			<path class="st20" d="M184.2,907.5h1.7v18.4h-1.7V907.5z M180.8,907.5h1.8v18.4h-1.8V907.5z M177.5,907.5h1.8v18.4h-1.8V907.5z
				 M174.1,907.5h1.8v18.4h-1.8V907.5z M170.8,907.5h1.8v18.4h-1.8V907.5z M167.5,907.5h1.7v18.4h-1.7V907.5z M165.7,905.7h22.1
				v22.1h-22.1V905.7z"/>
			<path class="st21" d="M184.2,882h1.7v18.4h-1.7V882z M180.8,882h1.8v18.4h-1.8V882z M177.5,882h1.8v18.4h-1.8V882z M174.1,882
				h1.8v18.4h-1.8V882z M170.8,882h1.8v18.4h-1.8V882z M167.5,882h1.7v18.4h-1.7V882z M165.7,880.2h22.1v22.1h-22.1V880.2z"/>
			<path class="st21" d="M209.7,907.5h1.7v18.4h-1.7V907.5z M206.3,907.5h1.8v18.4h-1.8V907.5z M203,907.5h1.8v18.4H203V907.5z
				 M199.6,907.5h1.8v18.4h-1.8V907.5z M196.3,907.5h1.8v18.4h-1.8V907.5z M193,907.5h1.7v18.4H193V907.5z M191.2,905.7h22.1v22.1
				h-22.1V905.7z"/>
			<path class="st20" d="M209.7,882h1.7v18.4h-1.7V882z M206.3,882h1.8v18.4h-1.8V882z M203,882h1.8v18.4H203V882z M199.6,882h1.8
				v18.4h-1.8V882z M196.3,882h1.8v18.4h-1.8V882z M193,882h1.7v18.4H193V882z M191.2,880.2h22.1v22.1h-22.1V880.2z"/>
			<path class="st21" d="M209.7,856.5h1.7v18.4h-1.7V856.5z M206.3,856.5h1.8v18.4h-1.8V856.5z M203,856.5h1.8v18.4H203V856.5z
				 M199.6,856.5h1.8v18.4h-1.8V856.5z M196.3,856.5h1.8v18.4h-1.8V856.5z M193,856.5h1.7v18.4H193V856.5z M191.2,854.7h22.1v22.1
				h-22.1V854.7z"/>
			<path class="st20" d="M235.1,907.5h1.7v18.4h-1.7V907.5z M231.8,907.5h1.8v18.4h-1.8V907.5z M228.4,907.5h1.8v18.4h-1.8V907.5z
				 M225.1,907.5h1.8v18.4h-1.8V907.5z M221.8,907.5h1.8v18.4h-1.8V907.5z M218.5,907.5h1.7v18.4h-1.7V907.5z M216.6,905.7h22.1
				v22.1h-22.1V905.7z"/>
		</g>
		<path class="st22" d="M160.9,963.5c3.4,0,6.1,2.7,6.1,6.1c0,3.4-2.7,6.1-6.1,6.1c-3.4,0-6.1-2.7-6.1-6.1
			C154.8,966.3,157.5,963.5,160.9,963.5"/>
		<path class="st14" d="M160.9,965.3c0.6,0,1.1,0.1,1.6,0.3c-0.5,0.3-0.9,0.9-0.9,1.5c0,1,0.8,1.8,1.8,1.8c0.7,0,1.3-0.4,1.6-0.9
			c0.2,0.5,0.3,1.1,0.3,1.7c0,2.4-2,4.4-4.4,4.4c-2.4,0-4.4-2-4.4-4.4C156.5,967.2,158.5,965.3,160.9,965.3"/>
		<path class="st14" d="M53.1,950.9h133.5h16.5h133.5c-6.2-1.6-19.5-3.7-17.3-11.8c-11.2,13-38.3,9.1-45.1,2.7
			c-7.6,11-51.9,6.8-55-1.8c-9.5,11.2-39.1,11.2-48.6,0c-3.1,8.6-47.4,12.8-55,1.8c-6.8,6.4-33.9,10.3-45.1-2.7
			C72.7,947.2,59.3,949.4,53.1,950.9"/>
		<path class="st23" d="M177.1,1007.4c-15.1-7.2-23.4-16.9-28-27.5c-5.6,1.6-12.3,2.6-20.2,3.1c-3,0.2-6.1,0.2-9.3,0.2
			c-3.8,0-7.7-0.1-11.9-0.3c13.8,13.8,30.9,24.5,62.4,24.7C172.5,1007.6,174.8,1007.5,177.1,1007.4z"/>
		<path class="st24" d="M154.7,989.7c-2.1-2.8-4.1-6.4-5.6-9.8c-5.6,1.6-12.3,2.6-20.2,3.1C134.3,985.9,142,988.6,154.7,989.7z"/>
	</g>
	<path class="st1" d="M634.3,962.7c8.7-7.5,17.4-15,26.1-22.5c3-2.6,6.2-5.2,9.2-7.9c-2.4-3-6.3-5.1-9.7-6.4
		c-6.8-2.6-13.5-1.7-19.7,1.9c-8.1,4.7-11.6,12.2-11.3,21.5c0.1,3.7,1.1,7.2,3.1,10.3C632.7,960.6,633.5,961.7,634.3,962.7
		 M644.4,969.7c4.3,1.5,9.1,1.3,13.5,0.5c2.2-1,8-3.5,10.1-3.1l0.3,0.1l0.3,0.1c1.3,0.6,2.5,1.5,3.2,2.8c1.5,3.1,0.8,6.2-2.2,7.9
		l-1,0.6c-11.1,6.4-23,5.5-34.1-0.5c-5.3-2.9-9.4-7.1-12.4-12.3l-0.7-1.2c-7.2-12.4-6.2-25.4,1.9-37.2c2.8-4.1,6.4-7.2,10.7-9.7
		l1.6-0.9c10.5-6.1,21.7-5.6,32.5-0.3c5.8,2.9,10.5,7.1,13.7,12.7l0.6,1c2.3,4.1-0.7,7.6-3.8,10.1c-3.6,2.8-7.3,6.2-10.8,9.2
		C660,956.3,652.2,963,644.4,969.7z M727.9,913.4h1.2c3.5,0,5.9,2.4,5.9,5.9c0,4.9-4.6,6.1-8.7,6.1c-5.3,0-10.3,3.2-14,6.8
		c-4.5,4.5-6.5,10.2-6.5,16.5v28.4c0,3.3-2,5.9-5.4,5.9h-0.9c-3.4,0-5.4-2.6-5.4-5.9V947c0-11.5,5.6-21,15-27.6
		C714.7,915.5,721.1,913.4,727.9,913.4z M581.5,933.6c4.6-4.6,9.1-9.1,13.8-13.6c1.3-1.3,6.2-6.6,8.1-6.6h2.1l0.2,0.1
		c2.7,0.6,4.7,2.3,4.7,5.1v1.2c0,2-2.3,4.2-3.6,5.6c-2.7,2.9-5.5,5.6-8.3,8.4l-14.2,14.4c6.1,6.1,12.2,12.3,18.3,18.4
		c1.7,1.7,3.4,3.4,5,5.1c0.6,0.6,1.4,1.4,1.9,2.2c0.5,0.8,0.8,1.7,0.8,2.7v1.2l-0.1,0.3c-0.7,2.7-2.4,4.8-5.3,4.8h-0.9
		c-1.9,0-4.1-2.2-5.5-3.5c-2.7-2.6-5.4-5.3-8.1-7.9l-9-8.9v14.2c0,3.3-2,5.9-5.4,5.9h-0.9c-3.4,0-5.4-2.6-5.4-5.9v-79.7
		c0-3.3,2-5.9,5.4-5.9h0.9c3.4,0,5.4,2.6,5.4,5.9V933.6z M543.4,925.6c-1.8-0.8-5.1-1.1-7-1.2c-9.8-0.4-16.9,5.2-21.1,13.8
		c-1.4,3-2.1,6.1-2.1,9.5c0,10.1,5.3,17.1,14.3,21.4c3.3,1.6,7.5,1.9,11.1,1.9c3.2,0,7.6-1.9,10.4-3.3l0.5-0.2h2.2l0.2,0
		c2.7,0.6,4.7,2.2,4.7,5.1v1.2c0,7.1-13.1,8.8-18.1,9.1c-17.6,1.2-30.8-8.4-35.8-25.2c-0.9-2.9-1.3-5.8-1.3-8.8v-2.3
		c0-12.7,6.3-22.8,17.2-29.3c5.1-3,10.7-4.5,16.6-4.5h2.3c6.3,0,12,1.8,17.2,5.3l0.4,0.3l0.3,0.4c0.6,0.9,1,2,1,3.1v1.2
		c0,3-2.2,4.6-5,5.1l-0.2,0h-0.7C549,928.2,545,926.3,543.4,925.6z M436.3,947.9c0,8.9,4.4,15.5,11.9,20.1c3.5,2.2,7.4,3.2,11.6,3.2
		c8.8,0,15.3-4.5,19.9-11.9c2.2-3.5,3.1-7.4,3.1-11.6c0-8.3-4-14.6-10.8-19.2c-3.7-2.5-7.9-3.8-12.4-3.8c-9.8,0-16.9,5-21.2,13.8
		C436.9,941.5,436.3,944.6,436.3,947.9z M458.4,912.9h1.6c13.6,0,24,6.6,30.5,18.5c2.6,4.8,4,9.9,4,15.4v2.3
		c0,12.7-6.3,22.9-17.3,29.3c-5.1,3-10.7,4.5-16.6,4.5h-2.3c-12.7,0-22.9-6.3-29.3-17.3c-3-5.1-4.5-10.7-4.5-16.6v-2.3
		c0-12.7,6.3-22.8,17.2-29.3C446.9,914.4,452.5,912.9,458.4,912.9z M359.4,947.9c0,9.2,4.5,16.1,12.5,20.5c3.3,1.8,6.8,2.7,10.5,2.7
		c9,0,15.7-4.3,20.3-11.9c2.1-3.6,3.2-7.5,3.2-11.6c0-8-3.8-14.2-10.2-18.8c-3.9-2.8-8.3-4.2-13.1-4.2c-9.8,0-16.9,5-21.2,13.8
		C360,941.5,359.4,944.6,359.4,947.9z M405.9,921.7v-24.8c0-3.3,2-5.9,5.4-5.9h0.9c3.4,0,5.4,2.6,5.4,5.9v52.2
		c0,12.7-6.3,22.9-17.3,29.3c-5.1,3-10.7,4.5-16.6,4.5h-2.3c-12.7,0-22.9-6.3-29.3-17.3c-3-5.1-4.5-10.7-4.5-16.6v-2.3
		c0-12.7,6.3-22.9,17.2-29.3c5.1-3,10.7-4.5,16.6-4.5h2.3C392.4,912.9,399.7,916.3,405.9,921.7z"/>
</g>
<g>
	<g>
		<path id="outline_6_" class="st14" d="M217.5,1308H243v26h12.9c5.9,0,12.1-1.1,17.7-3c2.8-0.9,5.9-2.2,8.6-3.9
			c-3.6-4.7-5.4-10.6-6-16.5c-0.7-8,0.9-18.3,6.2-24.5l2.7-3.1l3.2,2.6c8,6.5,14.8,15.5,16,25.8c9.7-2.8,21-2.2,29.6,2.8l3.5,2
			l-1.8,3.6c-7.2,14.1-22.3,18.4-37,17.7c-22.1,54.9-70.1,81-128.3,81c-30.1,0-57.7-11.2-73.4-37.9l-0.3-0.4l-2.3-4.7
			c-5.3-11.8-7.1-24.6-5.9-37.5l0.4-3.9h21.8v-26h25.5v-25.5h51V1257h30.6V1308z"/>
		<g id="body_colors_5_">
			<path class="st15" d="M300,1317.6c1.7-13.3-8.2-23.7-14.4-28.7c-7.1,8.2-8.2,29.7,2.9,38.8c-6.2,5.5-19.3,10.5-32.7,10.5H92.5
				c-1.3,14,1.2,26.9,6.8,37.9l1.9,3.4c1.2,2,2.5,3.9,3.9,5.8l0,0c6.7,0.4,12.9,0.6,18.6,0.5c0,0,0,0,0,0
				c11.1-0.2,20.2-1.6,27.1-3.9c1-0.4,2.1,0.2,2.5,1.2c0.4,1-0.2,2.1-1.2,2.5c-0.9,0.3-1.9,0.6-2.9,0.9c0,0,0,0,0,0
				c-5.4,1.5-11.2,2.6-18.7,3c0.4,0-0.5,0.1-0.5,0.1c-0.3,0-0.6,0.1-0.8,0.1c-3,0.2-6.1,0.2-9.4,0.2c-3.6,0-7.1-0.1-11-0.3l-0.1,0.1
				c13.6,15.3,34.9,24.5,61.6,24.5c56.4,0,104.3-25,125.5-81.2c15,1.5,29.5-2.3,36.1-15.1C321.3,1311.8,307.8,1313.7,300,1317.6z"/>
			<path class="st16" d="M300,1317.6c1.7-13.3-8.2-23.7-14.4-28.7c-7.1,8.2-8.2,29.7,2.9,38.8c-6.2,5.5-19.3,10.5-32.7,10.5H102.2
				c-0.7,21.4,7.3,37.7,21.4,47.6c0,0,0,0,0,0c11.1-0.2,20.2-1.6,27.1-3.9c1-0.4,2.1,0.2,2.5,1.2c0.4,1-0.2,2.1-1.2,2.5
				c-0.9,0.3-1.9,0.6-2.9,0.9c0,0,0,0,0,0c-5.4,1.5-11.7,2.7-19.2,3.2c0,0-0.2-0.2-0.2-0.2c19.2,9.9,47.1,9.8,79-2.4
				c35.8-13.8,69.1-40,92.4-69.9C300.7,1317.3,300.4,1317.4,300,1317.6z"/>
			<path class="st17" d="M92.9,1355.3c1,7.5,3.2,14.5,6.5,20.9l1.9,3.4c1.2,2,2.5,3.9,3.9,5.8c6.7,0.4,12.9,0.6,18.6,0.5
				c11.1-0.2,20.2-1.6,27.1-3.9c1-0.4,2.1,0.2,2.5,1.2c0.4,1-0.2,2.1-1.2,2.5c-0.9,0.3-1.9,0.6-2.9,0.9c0,0,0,0,0,0
				c-5.4,1.5-11.7,2.7-19.2,3.1c-0.3,0-0.7,0-1,0c-2.9,0.2-6.1,0.3-9.4,0.3c-3.6,0-7.2-0.1-11.1-0.3c13.6,15.3,35,24.5,61.7,24.5
				c48.3,0,90.4-18.3,114.8-58.9H92.9z"/>
			<path class="st18" d="M103.7,1355.3c2.9,13.2,9.8,23.5,19.9,30.6c11.1-0.2,20.2-1.6,27.1-3.9c1-0.4,2.1,0.2,2.5,1.2
				c0.4,1-0.2,2.1-1.2,2.5c-0.9,0.3-1.9,0.6-2.9,0.9c0,0,0,0,0,0c-5.4,1.5-11.8,2.7-19.3,3.1c19.2,9.9,47,9.7,78.9-2.6
				c19.3-7.4,37.9-18.5,54.6-31.8H103.7z"/>
		</g>
		<g id="Containers_5_">
			<path class="st20" d="M133.2,1314.1h1.7v18.4h-1.7V1314.1z M129.9,1314.1h1.8v18.4h-1.8V1314.1z M126.5,1314.1h1.8v18.4h-1.8
				V1314.1z M123.2,1314.1h1.8v18.4h-1.8V1314.1z M119.8,1314.1h1.8v18.4h-1.8V1314.1z M116.6,1314.1h1.7v18.4h-1.7V1314.1z
				 M114.7,1312.2h22.1v22.1h-22.1V1312.2z"/>
			<path class="st20" d="M158.7,1288.6h1.7v18.4h-1.7V1288.6z M155.3,1288.6h1.8v18.4h-1.8V1288.6z M152,1288.6h1.8v18.4H152V1288.6
				z M148.7,1288.6h1.8v18.4h-1.8V1288.6z M145.3,1288.6h1.8v18.4h-1.8V1288.6z M142,1288.6h1.7v18.4H142V1288.6z M140.2,1286.7
				h22.1v22.1h-22.1V1286.7z"/>
			<path class="st21" d="M158.7,1314.1h1.7v18.4h-1.7V1314.1z M155.3,1314.1h1.8v18.4h-1.8V1314.1z M152,1314.1h1.8v18.4H152V1314.1
				z M148.7,1314.1h1.8v18.4h-1.8V1314.1z M145.3,1314.1h1.8v18.4h-1.8V1314.1z M142,1314.1h1.7v18.4H142V1314.1z M140.2,1312.2
				h22.1v22.1h-22.1V1312.2z"/>
			<path class="st20" d="M184.2,1314.1h1.7v18.4h-1.7V1314.1z M180.8,1314.1h1.8v18.4h-1.8V1314.1z M177.5,1314.1h1.8v18.4h-1.8
				V1314.1z M174.1,1314.1h1.8v18.4h-1.8V1314.1z M170.8,1314.1h1.8v18.4h-1.8V1314.1z M167.5,1314.1h1.7v18.4h-1.7V1314.1z
				 M165.7,1312.2h22.1v22.1h-22.1V1312.2z"/>
			<path class="st21" d="M184.2,1288.6h1.7v18.4h-1.7V1288.6z M180.8,1288.6h1.8v18.4h-1.8V1288.6z M177.5,1288.6h1.8v18.4h-1.8
				V1288.6z M174.1,1288.6h1.8v18.4h-1.8V1288.6z M170.8,1288.6h1.8v18.4h-1.8V1288.6z M167.5,1288.6h1.7v18.4h-1.7V1288.6z
				 M165.7,1286.7h22.1v22.1h-22.1V1286.7z"/>
			<path class="st21" d="M209.7,1314.1h1.7v18.4h-1.7V1314.1z M206.3,1314.1h1.8v18.4h-1.8V1314.1z M203,1314.1h1.8v18.4H203V1314.1
				z M199.6,1314.1h1.8v18.4h-1.8V1314.1z M196.3,1314.1h1.8v18.4h-1.8V1314.1z M193,1314.1h1.7v18.4H193V1314.1z M191.2,1312.2
				h22.1v22.1h-22.1V1312.2z"/>
			<path class="st20" d="M209.7,1288.6h1.7v18.4h-1.7V1288.6z M206.3,1288.6h1.8v18.4h-1.8V1288.6z M203,1288.6h1.8v18.4H203V1288.6
				z M199.6,1288.6h1.8v18.4h-1.8V1288.6z M196.3,1288.6h1.8v18.4h-1.8V1288.6z M193,1288.6h1.7v18.4H193V1288.6z M191.2,1286.7
				h22.1v22.1h-22.1V1286.7z"/>
			<path class="st21" d="M209.7,1263.1h1.7v18.4h-1.7V1263.1z M206.3,1263.1h1.8v18.4h-1.8V1263.1z M203,1263.1h1.8v18.4H203V1263.1
				z M199.6,1263.1h1.8v18.4h-1.8V1263.1z M196.3,1263.1h1.8v18.4h-1.8V1263.1z M193,1263.1h1.7v18.4H193V1263.1z M191.2,1261.2
				h22.1v22.1h-22.1V1261.2z"/>
			<path class="st20" d="M235.1,1314.1h1.7v18.4h-1.7V1314.1z M231.8,1314.1h1.8v18.4h-1.8V1314.1z M228.4,1314.1h1.8v18.4h-1.8
				V1314.1z M225.1,1314.1h1.8v18.4h-1.8V1314.1z M221.8,1314.1h1.8v18.4h-1.8V1314.1z M218.5,1314.1h1.7v18.4h-1.7V1314.1z
				 M216.6,1312.2h22.1v22.1h-22.1V1312.2z"/>
		</g>
		<path class="st22" d="M160.9,1370.1c3.4,0,6.1,2.7,6.1,6.1c0,3.4-2.7,6.1-6.1,6.1c-3.4,0-6.1-2.7-6.1-6.1
			C154.8,1372.8,157.5,1370.1,160.9,1370.1"/>
		<path class="st14" d="M160.9,1371.8c0.6,0,1.1,0.1,1.6,0.3c-0.5,0.3-0.9,0.9-0.9,1.5c0,1,0.8,1.8,1.8,1.8c0.7,0,1.3-0.4,1.6-0.9
			c0.2,0.5,0.3,1.1,0.3,1.7c0,2.4-2,4.4-4.4,4.4c-2.4,0-4.4-2-4.4-4.4C156.5,1373.8,158.5,1371.8,160.9,1371.8"/>
		<path class="st14" d="M53.1,1357.5h133.5h16.5h133.5c-6.2-1.6-19.5-3.7-17.3-11.8c-11.2,13-38.3,9.1-45.1,2.7
			c-7.6,11-51.9,6.8-55-1.8c-9.5,11.2-39.1,11.2-48.6,0c-3.1,8.6-47.4,12.8-55,1.8c-6.8,6.4-33.9,10.3-45.1-2.7
			C72.7,1353.8,59.3,1355.9,53.1,1357.5"/>
		<path class="st23" d="M177.1,1414c-15.1-7.2-23.4-16.9-28-27.5c-5.6,1.6-12.3,2.6-20.2,3.1c-3,0.2-6.1,0.2-9.3,0.2
			c-3.8,0-7.7-0.1-11.9-0.3c13.8,13.8,30.9,24.5,62.4,24.7C172.5,1414.1,174.8,1414.1,177.1,1414z"/>
		<path class="st24" d="M154.7,1396.3c-2.1-2.8-4.1-6.4-5.6-9.8c-5.6,1.6-12.3,2.6-20.2,3.1C134.3,1392.5,142,1395.2,154.7,1396.3z"
			/>
	</g>
	<path class="st1" d="M634.3,1369.2c8.7-7.5,17.4-15,26.1-22.5c3-2.6,6.2-5.2,9.2-7.9c-2.4-3-6.3-5.1-9.7-6.4
		c-6.8-2.6-13.5-1.7-19.7,1.9c-8.1,4.7-11.6,12.2-11.3,21.5c0.1,3.7,1.1,7.2,3.1,10.3C632.7,1367.2,633.5,1368.2,634.3,1369.2
		 M644.4,1376.3c4.3,1.5,9.1,1.3,13.5,0.5c2.2-1,8-3.5,10.1-3.1l0.3,0.1l0.3,0.1c1.3,0.6,2.5,1.5,3.2,2.8c1.5,3.1,0.8,6.2-2.2,7.9
		l-1,0.6c-11.1,6.4-23,5.5-34.1-0.5c-5.3-2.9-9.4-7.1-12.4-12.3l-0.7-1.2c-7.2-12.4-6.2-25.4,1.9-37.2c2.8-4.1,6.4-7.2,10.7-9.7
		l1.6-0.9c10.5-6.1,21.7-5.6,32.5-0.3c5.8,2.9,10.5,7.1,13.7,12.7l0.6,1c2.3,4.1-0.7,7.6-3.8,10.1c-3.6,2.8-7.3,6.2-10.8,9.2
		C660,1362.8,652.2,1369.6,644.4,1376.3z M727.9,1319.9h1.2c3.5,0,5.9,2.4,5.9,5.9c0,4.9-4.6,6.1-8.7,6.1c-5.3,0-10.3,3.2-14,6.8
		c-4.5,4.5-6.5,10.2-6.5,16.5v28.4c0,3.3-2,5.9-5.4,5.9h-0.9c-3.4,0-5.4-2.6-5.4-5.9v-30.1c0-11.5,5.6-21,15-27.6
		C714.7,1322,721.1,1319.9,727.9,1319.9z M581.5,1340.1c4.6-4.6,9.1-9.1,13.8-13.6c1.3-1.3,6.2-6.6,8.1-6.6h2.1l0.2,0.1
		c2.7,0.6,4.7,2.3,4.7,5.1v1.2c0,2-2.3,4.2-3.6,5.6c-2.7,2.9-5.5,5.6-8.3,8.4l-14.2,14.4c6.1,6.1,12.2,12.3,18.3,18.4
		c1.7,1.7,3.4,3.4,5,5.1c0.6,0.6,1.4,1.4,1.9,2.2c0.5,0.8,0.8,1.7,0.8,2.7v1.2l-0.1,0.3c-0.7,2.7-2.4,4.8-5.3,4.8h-0.9
		c-1.9,0-4.1-2.2-5.5-3.5c-2.7-2.6-5.4-5.3-8.1-7.9l-9-8.9v14.2c0,3.3-2,5.9-5.4,5.9h-0.9c-3.4,0-5.4-2.6-5.4-5.9v-79.7
		c0-3.3,2-5.9,5.4-5.9h0.9c3.4,0,5.4,2.6,5.4,5.9V1340.1z M543.4,1332.2c-1.8-0.8-5.1-1.1-7-1.2c-9.8-0.4-16.9,5.2-21.1,13.8
		c-1.4,3-2.1,6.1-2.1,9.5c0,10.1,5.3,17.1,14.3,21.4c3.3,1.6,7.5,1.9,11.1,1.9c3.2,0,7.6-1.9,10.4-3.3l0.5-0.2h2.2l0.2,0
		c2.7,0.6,4.7,2.2,4.7,5.1v1.2c0,7.1-13.1,8.8-18.1,9.1c-17.6,1.2-30.8-8.4-35.8-25.2c-0.9-2.9-1.3-5.8-1.3-8.8v-2.3
		c0-12.7,6.3-22.8,17.2-29.3c5.1-3,10.7-4.5,16.6-4.5h2.3c6.3,0,12,1.8,17.2,5.3l0.4,0.3l0.3,0.4c0.6,0.9,1,2,1,3.1v1.2
		c0,3-2.2,4.6-5,5.1l-0.2,0h-0.7C549,1334.7,545,1332.9,543.4,1332.2z M436.3,1354.5c0,8.9,4.4,15.5,11.9,20.1
		c3.5,2.2,7.4,3.2,11.6,3.2c8.8,0,15.3-4.5,19.9-11.9c2.2-3.5,3.1-7.4,3.1-11.6c0-8.3-4-14.6-10.8-19.2c-3.7-2.5-7.9-3.8-12.4-3.8
		c-9.8,0-16.9,5-21.2,13.8C436.9,1348,436.3,1351.2,436.3,1354.5z M458.4,1319.5h1.6c13.6,0,24,6.6,30.5,18.5c2.6,4.8,4,9.9,4,15.4
		v2.3c0,12.7-6.3,22.9-17.3,29.3c-5.1,3-10.7,4.5-16.6,4.5h-2.3c-12.7,0-22.9-6.3-29.3-17.3c-3-5.1-4.5-10.7-4.5-16.6v-2.3
		c0-12.7,6.3-22.8,17.2-29.3C446.9,1321,452.5,1319.5,458.4,1319.5z M359.4,1354.5c0,9.2,4.5,16.1,12.5,20.5
		c3.3,1.8,6.8,2.7,10.5,2.7c9,0,15.7-4.3,20.3-11.9c2.1-3.6,3.2-7.5,3.2-11.6c0-8-3.8-14.2-10.2-18.8c-3.9-2.8-8.3-4.2-13.1-4.2
		c-9.8,0-16.9,5-21.2,13.8C360,1348,359.4,1351.2,359.4,1354.5z M405.9,1328.2v-24.8c0-3.3,2-5.9,5.4-5.9h0.9c3.4,0,5.4,2.6,5.4,5.9
		v52.2c0,12.7-6.3,22.9-17.3,29.3c-5.1,3-10.7,4.5-16.6,4.5h-2.3c-12.7,0-22.9-6.3-29.3-17.3c-3-5.1-4.5-10.7-4.5-16.6v-2.3
		c0-12.7,6.3-22.9,17.2-29.3c5.1-3,10.7-4.5,16.6-4.5h2.3C392.4,1319.5,399.7,1322.8,405.9,1328.2z"/>
</g>
<g>
	<path id="docker_4_" class="st14" d="M-558.5,463.3c10.7-9.2,21.5-18.4,32.2-27.7c3.7-3.2,7.7-6.4,11.3-9.8
		c-2.9-3.7-7.8-6.3-11.9-7.9c-8.3-3.2-16.6-2.1-24.2,2.3c-10,5.8-14.3,15-13.9,26.5c0.1,4.5,1.4,8.9,3.8,12.7
		C-560.5,460.8-559.5,462.1-558.5,463.3 M-546.1,472c5.3,1.8,11.3,1.6,16.7,0.6c2.8-1.2,9.8-4.3,12.4-3.8l0.4,0.1l0.4,0.2
		c1.6,0.8,3.1,1.9,3.9,3.5c1.9,3.8,1,7.6-2.7,9.7l-1.2,0.7c-13.7,7.9-28.3,6.8-42-0.6c-6.5-3.5-11.5-8.8-15.2-15.2l-0.9-1.5
		c-8.8-15.3-7.6-31.3,2.3-45.8c3.4-5,7.9-8.9,13.2-11.9l2-1.1c12.9-7.5,26.8-7,40.1-0.4c7.1,3.5,12.9,8.8,16.9,15.7l0.7,1.2
		c2.9,5-0.9,9.4-4.7,12.4c-4.5,3.5-9,7.6-13.3,11.4C-526.9,455.4-536.5,463.8-546.1,472z M-443.3,402.6h1.4c4.3,0,7.2,2.9,7.2,7.2
		c0,6-5.7,7.5-10.7,7.5c-6.5,0-12.7,3.9-17.2,8.3c-5.6,5.5-8,12.6-8,20.3v35c0,4-2.5,7.2-6.7,7.2h-1.1c-4.2,0-6.7-3.2-6.7-7.2v-37
		c0-14.2,6.9-25.8,18.5-34C-459.6,405.2-451.7,402.6-443.3,402.6z M-623.6,427.5c5.6-5.6,11.3-11.2,17-16.8c1.6-1.5,7.6-8.1,10-8.1
		h2.6l0.3,0.1c3.3,0.7,5.8,2.8,5.8,6.3v1.4c0,2.4-2.8,5.2-4.4,6.9c-3.3,3.5-6.8,6.9-10.2,10.4l-17.5,17.7c7.5,7.5,15,15.1,22.5,22.7
		c2.1,2.1,4.1,4.2,6.2,6.3c0.7,0.8,1.8,1.7,2.4,2.7c0.6,1,1,2.1,1,3.3v1.5l-0.1,0.3c-0.8,3.3-2.9,6-6.6,6h-1.2
		c-2.4,0-5.1-2.7-6.7-4.3c-3.4-3.2-6.6-6.5-10-9.8l-11.1-10.9v17.4c0,4-2.5,7.2-6.7,7.2h-1.1c-4.2,0-6.7-3.2-6.7-7.2v-98.2
		c0-4,2.5-7.2,6.7-7.2h1.1c4.2,0,6.7,3.2,6.7,7.2V427.5z M-670.5,417.7c-2.2-1-6.3-1.4-8.6-1.5c-12.1-0.5-20.8,6.4-26,17
		c-1.8,3.7-2.6,7.6-2.6,11.6c0,12.4,6.5,21.1,17.6,26.4c4,1.9,9.3,2.3,13.7,2.3c3.9,0,9.4-2.4,12.8-4l0.6-0.3h2.7l0.3,0.1
		c3.3,0.7,5.8,2.8,5.8,6.3v1.4c0,8.8-16.1,10.8-22.2,11.3c-21.7,1.5-37.9-10.4-44.1-31.1c-1.1-3.6-1.6-7.2-1.6-10.9v-2.9
		c0-15.7,7.8-28.1,21.2-36.1c6.3-3.7,13.2-5.6,20.4-5.6h2.9c7.7,0,14.8,2.2,21.2,6.5l0.5,0.4l0.3,0.5c0.7,1.1,1.3,2.5,1.3,3.8v1.4
		c0,3.7-2.8,5.7-6.1,6.3l-0.3,0h-0.9C-663.7,420.8-668.6,418.6-670.5,417.7z M-802.5,445.2c0,11,5.4,19.1,14.7,24.8
		c4.4,2.7,9.2,3.9,14.3,3.9c10.9,0,18.9-5.5,24.5-14.7c2.7-4.4,3.9-9.2,3.9-14.3c0-10.2-4.9-18-13.3-23.7c-4.6-3.1-9.8-4.7-15.3-4.7
		c-12.1,0-20.8,6.1-26.1,17C-801.7,437.2-802.5,441.1-802.5,445.2z M-775.2,402.1h2c16.8,0,29.5,8.1,37.6,22.8
		c3.2,5.9,5,12.2,5,18.9v2.9c0,15.7-7.7,28.2-21.3,36.1c-6.3,3.7-13.2,5.6-20.4,5.6h-2.9c-15.7,0-28.2-7.8-36.1-21.2
		c-3.7-6.3-5.6-13.2-5.6-20.4v-2.9c0-15.7,7.8-28.1,21.2-36.1C-789.4,403.9-782.5,402.1-775.2,402.1z M-897.2,445.2
		c0,11.3,5.5,19.8,15.4,25.3c4,2.2,8.4,3.4,13,3.4c11.1,0,19.4-5.2,25.1-14.7c2.6-4.4,3.9-9.2,3.9-14.3c0-9.8-4.7-17.5-12.6-23.2
		c-4.8-3.5-10.2-5.2-16.1-5.2c-12.1,0-20.8,6.1-26.1,17C-896.4,437.2-897.2,441.1-897.2,445.2z M-839.9,412.9v-30.6
		c0-4,2.5-7.2,6.7-7.2h1.2c4.2,0,6.7,3.2,6.7,7.2v64.3c0,15.7-7.8,28.2-21.3,36.1c-6.3,3.7-13.2,5.6-20.4,5.6h-2.9
		c-15.7,0-28.2-7.8-36.1-21.2c-3.7-6.3-5.6-13.2-5.6-20.4v-2.9c0-15.7,7.8-28.2,21.2-36.1c6.3-3.7,13.2-5.6,20.4-5.6h2.9
		C-856.5,402.1-847.5,406.2-839.9,412.9z"/>
	<path id="outline_7_" class="st14" d="M-636.6,173.4h42.7V217h21.6c10,0,20.2-1.8,29.7-5c4.6-1.6,9.8-3.8,14.4-6.5
		c-6-7.9-9.1-17.8-10-27.6c-1.2-13.3,1.5-30.7,10.5-41.1l4.5-5.2l5.3,4.3c13.5,10.8,24.8,25.9,26.8,43.2c16.2-4.8,35.2-3.6,49.5,4.6
		l5.9,3.4l-3.1,6c-12.1,23.6-37.4,30.9-62.1,29.6c-37,92.1-117.4,135.7-215,135.7c-50.4,0-96.7-18.8-123-63.6l-0.4-0.7l-3.8-7.8
		c-8.9-19.7-11.9-41.3-9.9-62.8l0.6-6.5h36.5v-43.6h42.7v-42.7h85.4V88h51.2V173.4z"/>
	<g id="body_colors_8_">
		<path class="st15" d="M-498.3,189.5c2.9-22.2-13.8-39.7-24.1-48c-11.9,13.8-13.7,49.8,4.9,65c-10.4,9.3-32.4,17.6-54.8,17.6H-846
			c-2.2,23.5,1.9,45.1,11.3,63.6l3.1,5.7c2,3.3,4.1,6.6,6.5,9.7c0,0,0,0,0,0c11.2,0.7,21.6,1,31.1,0.8c0,0,0,0,0,0
			c18.6-0.4,33.9-2.6,45.4-6.6c1.7-0.6,3.6,0.3,4.2,2c0.6,1.7-0.3,3.6-2,4.2c-1.5,0.5-3.1,1-4.8,1.5c0,0,0,0,0,0
			c-9.1,2.6-18.8,4.3-31.4,5.1c0.7,0-0.8,0.1-0.8,0.1c-0.4,0-1,0.1-1.4,0.1c-4.9,0.3-10.3,0.3-15.7,0.3c-6,0-11.8-0.1-18.4-0.4
			l-0.2,0.1c22.8,25.6,58.4,41,103.1,41c94.6,0,174.8-41.9,210.3-136c25.2,2.6,49.4-3.8,60.4-25.3
			C-462.7,179.8-485.3,183-498.3,189.5z"/>
		<path class="st16" d="M-498.3,189.5c2.9-22.2-13.8-39.7-24.1-48c-11.9,13.8-13.7,49.8,4.9,65c-10.4,9.3-32.4,17.6-54.8,17.6
			h-257.4c-1.1,35.9,12.2,63.2,35.8,79.7c0,0,0,0,0,0c18.6-0.4,33.9-2.6,45.4-6.6c1.7-0.6,3.6,0.3,4.2,2c0.6,1.7-0.3,3.6-2,4.2
			c-1.5,0.5-3.1,1-4.8,1.5c0,0,0,0,0,0c-9.1,2.6-19.7,4.6-32.2,5.3c0,0-0.3-0.3-0.3-0.3c32.2,16.5,78.9,16.5,132.4-4.1
			c60-23,115.8-67,154.8-117.2C-497.2,189-497.7,189.3-498.3,189.5z"/>
		<path class="st17" d="M-845.4,252.7c1.7,12.6,5.4,24.3,10.8,35.1l3.1,5.7c2,3.3,4.1,6.6,6.5,9.7c11.3,0.7,21.6,1,31.1,0.8
			c18.6-0.4,33.9-2.6,45.4-6.6c1.7-0.6,3.6,0.3,4.2,2c0.6,1.7-0.3,3.6-2,4.2c-1.5,0.5-3.1,1-4.8,1.5c0,0,0,0,0,0
			c-9.1,2.6-19.6,4.4-32.2,5.2c-0.4,0-1.2,0-1.6,0.1c-4.9,0.3-10.2,0.4-15.7,0.4c-6,0-12.1-0.1-18.6-0.4c22.8,25.6,58.7,41,103.4,41
			c81,0,151.4-30.7,192.3-98.6H-845.4z"/>
		<path class="st18" d="M-827.3,252.7c4.8,22.1,16.5,39.4,33.4,51.2c18.6-0.4,33.9-2.6,45.4-6.6c1.7-0.6,3.6,0.3,4.2,2
			c0.6,1.7-0.3,3.6-2,4.2c-1.5,0.5-3.1,1-4.8,1.5c0,0,0,0,0,0c-9.1,2.6-19.8,4.4-32.4,5.2c32.2,16.5,78.7,16.3,132.2-4.3
			c32.4-12.4,63.5-30.9,91.5-53.2H-827.3z"/>
	</g>
	<g class="st3">
		<path class="st19" d="M-800.6,310.5c5.5,0,10.7-0.1,15.6-0.4c0.4,0,0.8-0.1,1.3-0.1c0,0,0,0,0,0c12.6-0.8,23.4-2.5,32.5-5
			c0,0,0,0,0,0c1.7-0.5,3.2-1,4.8-1.5c1.7-0.6,2.6-2.5,2-4.2c-0.6-1.7-2.5-2.6-4.2-2c-11.5,4-26.7,6.2-45.4,6.6c0,0,0,0,0,0
			c-9.5,0.2-19.9,0-31.1-0.8c0,0,0,0,0,0c-0.6,0-1.1-0.1-1.7-0.1c-1.8-0.1-3.4,1.2-3.5,3.1c-0.1,1.8,1.2,3.4,3.1,3.5
			c2.3,0.2,4.6,0.3,6.8,0.4c0.4,0,0.7,0,1,0l0,0C-812.8,310.3-806.5,310.5-800.6,310.5z"/>
	</g>
	<g id="Containers_8_">
		<path class="st20" d="M-777.8,183.6h2.9v30.8h-2.9V183.6z M-783.4,183.6h3v30.8h-3V183.6z M-789,183.6h3v30.8h-3V183.6z
			 M-794.6,183.6h3v30.8h-3V183.6z M-800.2,183.6h3v30.8h-3V183.6z M-805.7,183.6h2.9v30.8h-2.9V183.6z M-808.8,180.5h37v37h-37
			V180.5z"/>
		<path class="st20" d="M-735.1,140.9h2.9v30.8h-2.9V140.9z M-740.7,140.9h3v30.8h-3V140.9z M-746.3,140.9h3v30.8h-3V140.9z
			 M-751.9,140.9h3v30.8h-3V140.9z M-757.5,140.9h3v30.8h-3V140.9z M-763,140.9h2.9v30.8h-2.9V140.9z M-766.1,137.8h37v37h-37V137.8
			z"/>
		<path class="st21" d="M-735.1,183.6h2.9v30.8h-2.9V183.6z M-740.7,183.6h3v30.8h-3V183.6z M-746.3,183.6h3v30.8h-3V183.6z
			 M-751.9,183.6h3v30.8h-3V183.6z M-757.5,183.6h3v30.8h-3V183.6z M-763,183.6h2.9v30.8h-2.9V183.6z M-766.1,180.5h37v37h-37V180.5
			z"/>
		<path class="st20" d="M-692.4,183.6h2.9v30.8h-2.9V183.6z M-698,183.6h3v30.8h-3V183.6z M-703.6,183.6h3v30.8h-3V183.6z
			 M-709.2,183.6h3v30.8h-3V183.6z M-714.9,183.6h3v30.8h-3V183.6z M-720.3,183.6h2.9v30.8h-2.9V183.6z M-723.4,180.5h37v37h-37
			V180.5z"/>
		<path class="st21" d="M-692.4,140.9h2.9v30.8h-2.9V140.9z M-698,140.9h3v30.8h-3V140.9z M-703.6,140.9h3v30.8h-3V140.9z
			 M-709.2,140.9h3v30.8h-3V140.9z M-714.9,140.9h3v30.8h-3V140.9z M-720.3,140.9h2.9v30.8h-2.9V140.9z M-723.4,137.8h37v37h-37
			V137.8z"/>
		<path class="st21" d="M-649.7,183.6h2.9v30.8h-2.9V183.6z M-655.3,183.6h3v30.8h-3V183.6z M-660.9,183.6h3v30.8h-3V183.6z
			 M-666.6,183.6h3v30.8h-3V183.6z M-672.2,183.6h3v30.8h-3V183.6z M-677.6,183.6h2.9v30.8h-2.9V183.6z M-680.7,180.5h37v37h-37
			V180.5z"/>
		<path class="st20" d="M-649.7,140.9h2.9v30.8h-2.9V140.9z M-655.3,140.9h3v30.8h-3V140.9z M-660.9,140.9h3v30.8h-3V140.9z
			 M-666.6,140.9h3v30.8h-3V140.9z M-672.2,140.9h3v30.8h-3V140.9z M-677.6,140.9h2.9v30.8h-2.9V140.9z M-680.7,137.8h37v37h-37
			V137.8z"/>
		<path class="st21" d="M-649.7,98.2h2.9V129h-2.9V98.2z M-655.3,98.2h3V129h-3V98.2z M-660.9,98.2h3V129h-3V98.2z M-666.6,98.2h3
			V129h-3V98.2z M-672.2,98.2h3V129h-3V98.2z M-677.6,98.2h2.9V129h-2.9V98.2z M-680.7,95.1h37v37h-37V95.1z"/>
		<path class="st20" d="M-607,183.6h2.9v30.8h-2.9V183.6z M-612.6,183.6h3v30.8h-3V183.6z M-618.3,183.6h3v30.8h-3V183.6z
			 M-623.9,183.6h3v30.8h-3V183.6z M-629.5,183.6h3v30.8h-3V183.6z M-635,183.6h2.9v30.8h-2.9V183.6z M-638,180.5h37v37h-37V180.5z"
			/>
	</g>
	<path class="st22" d="M-731.4,277.5c5.6,0,10.2,4.6,10.2,10.2c0,5.6-4.6,10.2-10.2,10.2c-5.6,0-10.2-4.6-10.2-10.2
		C-741.6,282.1-737.1,277.5-731.4,277.5"/>
	<path class="st14" d="M-731.4,280.4c0.9,0,1.8,0.2,2.6,0.5c-0.9,0.5-1.5,1.5-1.5,2.6c0,1.6,1.3,3,3,3c1.1,0,2.1-0.6,2.6-1.6
		c0.4,0.9,0.6,1.8,0.6,2.8c0,4-3.3,7.3-7.3,7.3c-4,0-7.3-3.3-7.3-7.3C-738.7,283.7-735.5,280.4-731.4,280.4"/>
	<path class="st14" d="M-912,256.3h223.6h27.7h223.6c-10.3-2.6-32.7-6.2-29-19.7c-18.8,21.8-64.1,15.3-75.6,4.5
		c-12.7,18.5-86.9,11.5-92.1-2.9c-16,18.7-65.5,18.7-81.5,0c-5.2,14.4-79.4,21.4-92.1,2.9c-11.4,10.7-56.8,17.2-75.6-4.5
		C-879.3,250.2-901.7,253.7-912,256.3"/>
	<path class="st23" d="M-704.3,351.1c-25.3-12-39.2-28.3-46.9-46.1c-9.4,2.7-20.7,4.4-33.8,5.1c-4.9,0.3-10.1,0.4-15.6,0.4
		c-6.3,0-12.9-0.2-19.9-0.6c23.2,23.2,51.7,41,104.5,41.3C-712,351.3-708.2,351.2-704.3,351.1z"/>
	<path class="st24" d="M-741.8,321.4c-3.5-4.7-6.9-10.7-9.4-16.4c-9.4,2.7-20.7,4.4-33.8,5.1C-776,315-763.1,319.5-741.8,321.4z"/>
</g>
<rect x="-1000" y="800" class="st1" width="800" height="275"/>
<g>
	<g>
		<path id="outline_3_" class="st14" d="M-777.2,907.8h25.6v26h12.9c6,0,12.1-1.1,17.8-3c2.8-0.9,5.9-2.2,8.6-3.9
			c-3.6-4.7-5.5-10.6-6-16.4c-0.7-7.9,0.9-18.2,6.3-24.4l2.7-3.1l3.2,2.6c8.1,6.4,14.9,15.4,16.1,25.7c9.7-2.8,21.1-2.2,29.7,2.7
			l3.5,2l-1.9,3.6c-7.2,14-22.4,18.4-37.2,17.6c-22.2,54.7-70.4,80.7-128.9,80.7c-30.2,0-58-11.2-73.7-37.8l-0.3-0.4l-2.3-4.6
			c-5.3-11.7-7.1-24.5-5.9-37.3l0.4-3.8h21.9v-26h25.6v-25.4h51.2V857h30.7V907.8z"/>
		<g id="body_colors_3_">
			<path class="st15" d="M-694.3,917.4c1.7-13.2-8.3-23.6-14.5-28.6c-7.1,8.2-8.2,29.6,2.9,38.6c-6.2,5.5-19.4,10.5-32.9,10.5
				h-164.1c-1.3,13.9,1.2,26.8,6.8,37.8l1.9,3.4c1.2,2,2.5,3.9,3.9,5.8l0,0c6.7,0.4,13,0.6,18.6,0.5c0,0,0,0,0,0
				c11.2-0.2,20.3-1.6,27.2-3.9c1-0.4,2.1,0.2,2.5,1.2c0.4,1-0.2,2.1-1.2,2.5c-0.9,0.3-1.9,0.6-2.9,0.9c0,0,0,0,0,0
				c-5.4,1.5-11.3,2.6-18.8,3c0.4,0-0.5,0.1-0.5,0.1c-0.3,0-0.6,0.1-0.8,0.1c-3,0.2-6.2,0.2-9.4,0.2c-3.6,0-7.1-0.1-11-0.3l-0.1,0.1
				c13.7,15.2,35,24.4,61.8,24.4c56.7,0,104.8-24.9,126.1-80.9c15.1,1.5,29.6-2.3,36.2-15.1C-672.9,911.6-686.5,913.5-694.3,917.4z"
				/>
			<path class="st16" d="M-694.3,917.4c1.7-13.2-8.3-23.6-14.5-28.6c-7.1,8.2-8.2,29.6,2.9,38.6c-6.2,5.5-19.4,10.5-32.9,10.5H-893
				c-0.7,21.4,7.3,37.6,21.5,47.4c0,0,0,0,0,0c11.2-0.2,20.3-1.6,27.2-3.9c1-0.4,2.1,0.2,2.5,1.2c0.4,1-0.2,2.1-1.2,2.5
				c-0.9,0.3-1.9,0.6-2.9,0.9c0,0,0,0,0,0c-5.4,1.5-11.8,2.7-19.3,3.2c0,0-0.2-0.2-0.2-0.2c19.3,9.8,47.3,9.8,79.4-2.4
				c36-13.7,69.4-39.8,92.8-69.7C-693.6,917-693.9,917.2-694.3,917.4z"/>
			<path class="st17" d="M-902.4,954.9c1,7.5,3.2,14.5,6.5,20.8l1.9,3.4c1.2,2,2.5,3.9,3.9,5.8c6.7,0.4,13,0.6,18.7,0.5
				c11.2-0.2,20.3-1.6,27.2-3.9c1-0.4,2.1,0.2,2.5,1.2c0.4,1-0.2,2.1-1.2,2.5c-0.9,0.3-1.9,0.6-2.9,0.9c0,0,0,0,0,0
				c-5.4,1.5-11.7,2.6-19.3,3.1c-0.3,0-0.7,0-1,0c-3,0.2-6.1,0.3-9.4,0.3c-3.6,0-7.2-0.1-11.2-0.3c13.7,15.2,35.2,24.4,62,24.4
				c48.5,0,90.8-18.3,115.3-58.6H-902.4z"/>
			<path class="st18" d="M-891.5,954.9c2.9,13.1,9.9,23.4,20,30.4c11.2-0.2,20.3-1.6,27.2-3.9c1-0.4,2.1,0.2,2.5,1.2
				c0.4,1-0.2,2.1-1.2,2.5c-0.9,0.3-1.9,0.6-2.9,0.9c0,0,0,0,0,0c-5.4,1.5-11.9,2.6-19.4,3.1c19.3,9.8,47.2,9.7,79.3-2.5
				c19.4-7.4,38.1-18.4,54.8-31.7H-891.5z"/>
		</g>
		<g id="Containers_3_">
			<path class="st20" d="M-861.8,913.8h1.8v18.3h-1.8V913.8z M-865.2,913.8h1.8v18.3h-1.8V913.8z M-868.6,913.8h1.8v18.3h-1.8V913.8
				z M-871.9,913.8h1.8v18.3h-1.8V913.8z M-875.3,913.8h1.8v18.3h-1.8V913.8z M-878.6,913.8h1.8v18.3h-1.8V913.8z M-880.4,912h22.2
				v22h-22.2V912z"/>
			<path class="st20" d="M-836.2,888.4h1.8v18.3h-1.8V888.4z M-839.6,888.4h1.8v18.3h-1.8V888.4z M-843,888.4h1.8v18.3h-1.8V888.4z
				 M-846.3,888.4h1.8v18.3h-1.8V888.4z M-849.7,888.4h1.8v18.3h-1.8V888.4z M-853,888.4h1.8v18.3h-1.8V888.4z M-854.8,886.6h22.2
				v22h-22.2V886.6z"/>
			<path class="st21" d="M-836.2,913.8h1.8v18.3h-1.8V913.8z M-839.6,913.8h1.8v18.3h-1.8V913.8z M-843,913.8h1.8v18.3h-1.8V913.8z
				 M-846.3,913.8h1.8v18.3h-1.8V913.8z M-849.7,913.8h1.8v18.3h-1.8V913.8z M-853,913.8h1.8v18.3h-1.8V913.8z M-854.8,912h22.2v22
				h-22.2V912z"/>
			<path class="st20" d="M-810.6,913.8h1.8v18.3h-1.8V913.8z M-814,913.8h1.8v18.3h-1.8V913.8z M-817.4,913.8h1.8v18.3h-1.8V913.8z
				 M-820.7,913.8h1.8v18.3h-1.8V913.8z M-824.1,913.8h1.8v18.3h-1.8V913.8z M-827.4,913.8h1.8v18.3h-1.8V913.8z M-829.2,912h22.2
				v22h-22.2V912z"/>
			<path class="st21" d="M-810.6,888.4h1.8v18.3h-1.8V888.4z M-814,888.4h1.8v18.3h-1.8V888.4z M-817.4,888.4h1.8v18.3h-1.8V888.4z
				 M-820.7,888.4h1.8v18.3h-1.8V888.4z M-824.1,888.4h1.8v18.3h-1.8V888.4z M-827.4,888.4h1.8v18.3h-1.8V888.4z M-829.2,886.6h22.2
				v22h-22.2V886.6z"/>
			<path class="st21" d="M-785.1,913.8h1.8v18.3h-1.8V913.8z M-788.4,913.8h1.8v18.3h-1.8V913.8z M-791.8,913.8h1.8v18.3h-1.8V913.8
				z M-795.1,913.8h1.8v18.3h-1.8V913.8z M-798.5,913.8h1.8v18.3h-1.8V913.8z M-801.8,913.8h1.8v18.3h-1.8V913.8z M-803.6,912h22.2
				v22h-22.2V912z"/>
			<path class="st20" d="M-785.1,888.4h1.8v18.3h-1.8V888.4z M-788.4,888.4h1.8v18.3h-1.8V888.4z M-791.8,888.4h1.8v18.3h-1.8V888.4
				z M-795.1,888.4h1.8v18.3h-1.8V888.4z M-798.5,888.4h1.8v18.3h-1.8V888.4z M-801.8,888.4h1.8v18.3h-1.8V888.4z M-803.6,886.6
				h22.2v22h-22.2V886.6z"/>
			<path class="st21" d="M-785.1,863.1h1.8v18.3h-1.8V863.1z M-788.4,863.1h1.8v18.3h-1.8V863.1z M-791.8,863.1h1.8v18.3h-1.8V863.1
				z M-795.1,863.1h1.8v18.3h-1.8V863.1z M-798.5,863.1h1.8v18.3h-1.8V863.1z M-801.8,863.1h1.8v18.3h-1.8V863.1z M-803.6,861.2
				h22.2v22h-22.2V861.2z"/>
			<path class="st20" d="M-759.5,913.8h1.8v18.3h-1.8V913.8z M-762.8,913.8h1.8v18.3h-1.8V913.8z M-766.2,913.8h1.8v18.3h-1.8V913.8
				z M-769.5,913.8h1.8v18.3h-1.8V913.8z M-772.9,913.8h1.8v18.3h-1.8V913.8z M-776.2,913.8h1.7v18.3h-1.7V913.8z M-778,912h22.2v22
				H-778V912z"/>
		</g>
		<path class="st22" d="M-834,969.7c3.4,0,6.1,2.7,6.1,6.1c0,3.4-2.7,6.1-6.1,6.1c-3.4,0-6.1-2.7-6.1-6.1
			C-840.2,972.4-837.4,969.7-834,969.7"/>
		<path class="st14" d="M-834,971.4c0.6,0,1.1,0.1,1.6,0.3c-0.5,0.3-0.9,0.9-0.9,1.5c0,1,0.8,1.8,1.8,1.8c0.7,0,1.3-0.4,1.6-0.9
			c0.2,0.5,0.3,1.1,0.3,1.7c0,2.4-2,4.3-4.4,4.3c-2.4,0-4.4-1.9-4.4-4.3C-838.4,973.3-836.5,971.4-834,971.4"/>
		<path class="st14" d="M-942.3,957.1h134.1h16.6h134.1c-6.2-1.6-19.6-3.7-17.4-11.7c-11.3,12.9-38.5,9.1-45.3,2.7
			c-7.6,11-52.1,6.8-55.2-1.8c-9.6,11.1-39.3,11.1-48.8,0c-3.1,8.6-47.6,12.7-55.2,1.8c-6.9,6.4-34,10.2-45.3-2.7
			C-922.7,953.4-936.1,955.5-942.3,957.1"/>
		<path class="st23" d="M-817.8,1013.4c-15.2-7.1-23.5-16.8-28.1-27.4c-5.6,1.6-12.4,2.6-20.3,3c-3,0.2-6.1,0.2-9.3,0.2
			c-3.8,0-7.7-0.1-11.9-0.3c13.9,13.8,31,24.4,62.7,24.6C-822.4,1013.5-820.1,1013.5-817.8,1013.4z"/>
		<path class="st24" d="M-840.2,995.8c-2.1-2.8-4.1-6.4-5.6-9.8c-5.6,1.6-12.4,2.6-20.3,3C-860.7,992-853,994.6-840.2,995.8z"/>
	</g>
	<path class="st14" d="M-358.4,968.8c8.8-7.4,17.5-14.9,26.3-22.4c3-2.6,6.3-5.2,9.2-7.9c-2.4-3-6.3-5.1-9.7-6.4
		c-6.8-2.6-13.5-1.7-19.8,1.9c-8.2,4.7-11.7,12.1-11.3,21.4c0.1,3.6,1.1,7.2,3.1,10.3C-360,966.8-359.3,967.8-358.4,968.8
		 M-348.3,975.8c4.3,1.5,9.2,1.3,13.6,0.5c2.3-1,8-3.4,10.1-3.1l0.3,0.1l0.3,0.1c1.3,0.6,2.5,1.5,3.2,2.8c1.5,3.1,0.8,6.1-2.2,7.9
		l-1,0.6c-11.2,6.4-23.1,5.5-34.3-0.5c-5.3-2.9-9.4-7.1-12.4-12.3l-0.7-1.2c-7.2-12.3-6.2-25.3,1.9-37.1c2.8-4.1,6.5-7.2,10.7-9.6
		l1.6-0.9c10.5-6,21.8-5.6,32.7-0.3c5.8,2.8,10.5,7.1,13.8,12.7l0.6,1c2.4,4.1-0.7,7.6-3.9,10c-3.7,2.8-7.4,6.2-10.9,9.2
		C-332.7,962.4-340.5,969.1-348.3,975.8z M-264.4,919.7h1.2c3.5,0,5.9,2.4,5.9,5.9c0,4.8-4.7,6.1-8.7,6.1c-5.3,0-10.4,3.2-14,6.7
		c-4.6,4.5-6.5,10.2-6.5,16.4v28.3c0,3.3-2,5.9-5.4,5.9h-0.9c-3.4,0-5.4-2.6-5.4-5.9v-30c0-11.5,5.6-20.9,15.1-27.5
		C-277.8,921.8-271.3,919.7-264.4,919.7z M-411.5,939.8c4.6-4.6,9.2-9.1,13.8-13.6c1.3-1.2,6.2-6.5,8.1-6.5h2.1l0.2,0.1
		c2.7,0.6,4.7,2.2,4.7,5.1v1.2c0,2-2.3,4.2-3.6,5.6c-2.7,2.8-5.6,5.6-8.3,8.4l-14.3,14.4c6.1,6.1,12.3,12.2,18.4,18.4
		c1.7,1.7,3.4,3.4,5,5.1c0.6,0.6,1.5,1.4,1.9,2.2c0.5,0.8,0.9,1.7,0.9,2.7v1.2l-0.1,0.3c-0.7,2.7-2.4,4.8-5.4,4.8h-0.9
		c-2,0-4.2-2.2-5.5-3.4c-2.8-2.6-5.4-5.3-8.1-7.9l-9.1-8.8v14.1c0,3.2-2.1,5.9-5.4,5.9h-0.9c-3.4,0-5.4-2.6-5.4-5.9v-79.4
		c0-3.2,2-5.8,5.4-5.8h0.9c3.4,0,5.4,2.6,5.4,5.8V939.8z M-449.8,931.9c-1.8-0.8-5.1-1.1-7-1.2c-9.9-0.4-17,5.1-21.2,13.8
		c-1.4,3-2.1,6.1-2.1,9.4c0,10,5.3,17,14.3,21.3c3.3,1.6,7.5,1.9,11.1,1.9c3.2,0,7.6-1.9,10.5-3.2l0.5-0.2h2.2l0.2,0
		c2.7,0.6,4.7,2.2,4.7,5.1v1.2c0,7.1-13.1,8.8-18.1,9.1c-17.7,1.2-30.9-8.4-35.9-25.1c-0.9-2.9-1.3-5.8-1.3-8.8v-2.3
		c0-12.7,6.3-22.7,17.3-29.2c5.1-3,10.8-4.5,16.7-4.5h2.3c6.3,0,12.1,1.8,17.3,5.3l0.4,0.3l0.3,0.4c0.6,0.9,1,2,1,3.1v1.2
		c0,3-2.3,4.6-5,5.1l-0.2,0h-0.7C-444.2,934.4-448.2,932.6-449.8,931.9z M-557.4,954.1c0,8.9,4.4,15.4,12,20
		c3.6,2.2,7.5,3.1,11.6,3.1c8.9,0,15.4-4.5,20-11.9c2.2-3.5,3.2-7.4,3.2-11.5c0-8.3-4-14.6-10.9-19.2c-3.8-2.5-8-3.8-12.5-3.8
		c-9.9,0-17,5-21.3,13.8C-556.7,947.7-557.4,950.8-557.4,954.1z M-535.2,919.2h1.6c13.7,0,24.1,6.6,30.7,18.4c2.6,4.7,4,9.9,4,15.3
		v2.3c0,12.7-6.3,22.8-17.3,29.2c-5.1,3-10.8,4.5-16.7,4.5h-2.3c-12.8,0-23-6.3-29.5-17.2c-3-5.1-4.5-10.7-4.5-16.5V953
		c0-12.7,6.3-22.7,17.3-29.2C-546.8,920.7-541.1,919.2-535.2,919.2z M-634.7,954.1c0,9.2,4.5,16.1,12.6,20.4
		c3.3,1.8,6.8,2.7,10.6,2.7c9.1,0,15.8-4.2,20.4-11.9c2.2-3.5,3.2-7.4,3.2-11.5c0-7.9-3.8-14.1-10.2-18.7c-3.9-2.8-8.3-4.2-13.1-4.2
		c-9.9,0-17,5-21.3,13.8C-634,947.7-634.7,950.8-634.7,954.1z M-587.9,928v-24.7c0-3.2,2-5.9,5.4-5.9h0.9c3.4,0,5.4,2.6,5.4,5.9v52
		c0,12.7-6.3,22.8-17.3,29.2c-5.1,3-10.8,4.5-16.7,4.5h-2.3c-12.8,0-23-6.3-29.5-17.2c-3-5.1-4.5-10.7-4.5-16.5V953
		c0-12.7,6.3-22.8,17.3-29.2c5.1-3,10.7-4.5,16.7-4.5h2.3C-601.5,919.2-594.1,922.6-587.9,928z"/>
</g>
<g>
	<g>
		<path id="outline_8_" class="st14" d="M-777.2,1307.8h25.6v26h12.9c6,0,12.1-1.1,17.8-3c2.8-0.9,5.9-2.2,8.6-3.9
			c-3.6-4.7-5.5-10.6-6-16.4c-0.7-7.9,0.9-18.2,6.3-24.4l2.7-3.1l3.2,2.6c8.1,6.4,14.9,15.4,16.1,25.7c9.7-2.8,21.1-2.2,29.7,2.7
			l3.5,2l-1.9,3.6c-7.2,14-22.4,18.4-37.2,17.6c-22.2,54.7-70.4,80.7-128.9,80.7c-30.2,0-58-11.2-73.7-37.8l-0.3-0.4l-2.3-4.6
			c-5.3-11.7-7.1-24.5-5.9-37.3l0.4-3.8h21.9v-26h25.6v-25.4h51.2V1257h30.7V1307.8z"/>
		<g id="body_colors_9_">
			<path class="st15" d="M-694.3,1317.4c1.7-13.2-8.3-23.6-14.5-28.6c-7.1,8.2-8.2,29.6,2.9,38.6c-6.2,5.5-19.4,10.5-32.9,10.5
				h-164.1c-1.3,13.9,1.2,26.8,6.8,37.8l1.9,3.4c1.2,2,2.5,3.9,3.9,5.8l0,0c6.7,0.4,13,0.6,18.6,0.5c0,0,0,0,0,0
				c11.2-0.2,20.3-1.6,27.2-3.9c1-0.4,2.1,0.2,2.5,1.2c0.4,1-0.2,2.1-1.2,2.5c-0.9,0.3-1.9,0.6-2.9,0.9c0,0,0,0,0,0
				c-5.4,1.5-11.3,2.6-18.8,3c0.4,0-0.5,0.1-0.5,0.1c-0.3,0-0.6,0.1-0.8,0.1c-3,0.2-6.2,0.2-9.4,0.2c-3.6,0-7.1-0.1-11-0.3l-0.1,0.1
				c13.7,15.2,35,24.4,61.8,24.4c56.7,0,104.8-24.9,126.1-80.9c15.1,1.5,29.6-2.3,36.2-15.1
				C-672.9,1311.6-686.5,1313.5-694.3,1317.4z"/>
			<path class="st16" d="M-694.3,1317.4c1.7-13.2-8.3-23.6-14.5-28.6c-7.1,8.2-8.2,29.6,2.9,38.6c-6.2,5.5-19.4,10.5-32.9,10.5H-893
				c-0.7,21.4,7.3,37.6,21.5,47.4c0,0,0,0,0,0c11.2-0.2,20.3-1.6,27.2-3.9c1-0.4,2.1,0.2,2.5,1.2c0.4,1-0.2,2.1-1.2,2.5
				c-0.9,0.3-1.9,0.6-2.9,0.9c0,0,0,0,0,0c-5.4,1.5-11.8,2.7-19.3,3.2c0,0-0.2-0.2-0.2-0.2c19.3,9.8,47.3,9.8,79.4-2.4
				c36-13.7,69.4-39.8,92.8-69.7C-693.6,1317-693.9,1317.2-694.3,1317.4z"/>
			<path class="st17" d="M-902.4,1354.9c1,7.5,3.2,14.5,6.5,20.8l1.9,3.4c1.2,2,2.5,3.9,3.9,5.8c6.7,0.4,13,0.6,18.7,0.5
				c11.2-0.2,20.3-1.6,27.2-3.9c1-0.4,2.1,0.2,2.5,1.2c0.4,1-0.2,2.1-1.2,2.5c-0.9,0.3-1.9,0.6-2.9,0.9c0,0,0,0,0,0
				c-5.4,1.5-11.7,2.6-19.3,3.1c-0.3,0-0.7,0-1,0c-3,0.2-6.1,0.3-9.4,0.3c-3.6,0-7.2-0.1-11.2-0.3c13.7,15.2,35.2,24.4,62,24.4
				c48.5,0,90.8-18.3,115.3-58.6H-902.4z"/>
			<path class="st18" d="M-891.5,1354.9c2.9,13.1,9.9,23.4,20,30.4c11.2-0.2,20.3-1.6,27.2-3.9c1-0.4,2.1,0.2,2.5,1.2
				c0.4,1-0.2,2.1-1.2,2.5c-0.9,0.3-1.9,0.6-2.9,0.9c0,0,0,0,0,0c-5.4,1.5-11.9,2.6-19.4,3.1c19.3,9.8,47.2,9.7,79.3-2.5
				c19.4-7.4,38.1-18.4,54.8-31.7H-891.5z"/>
		</g>
		<g id="Containers_9_">
			<path class="st20" d="M-861.8,1313.8h1.8v18.3h-1.8V1313.8z M-865.2,1313.8h1.8v18.3h-1.8V1313.8z M-868.6,1313.8h1.8v18.3h-1.8
				V1313.8z M-871.9,1313.8h1.8v18.3h-1.8V1313.8z M-875.3,1313.8h1.8v18.3h-1.8V1313.8z M-878.6,1313.8h1.8v18.3h-1.8V1313.8z
				 M-880.4,1312h22.2v22h-22.2V1312z"/>
			<path class="st20" d="M-836.2,1288.4h1.8v18.3h-1.8V1288.4z M-839.6,1288.4h1.8v18.3h-1.8V1288.4z M-843,1288.4h1.8v18.3h-1.8
				V1288.4z M-846.3,1288.4h1.8v18.3h-1.8V1288.4z M-849.7,1288.4h1.8v18.3h-1.8V1288.4z M-853,1288.4h1.8v18.3h-1.8V1288.4z
				 M-854.8,1286.6h22.2v22h-22.2V1286.6z"/>
			<path class="st21" d="M-836.2,1313.8h1.8v18.3h-1.8V1313.8z M-839.6,1313.8h1.8v18.3h-1.8V1313.8z M-843,1313.8h1.8v18.3h-1.8
				V1313.8z M-846.3,1313.8h1.8v18.3h-1.8V1313.8z M-849.7,1313.8h1.8v18.3h-1.8V1313.8z M-853,1313.8h1.8v18.3h-1.8V1313.8z
				 M-854.8,1312h22.2v22h-22.2V1312z"/>
			<path class="st20" d="M-810.6,1313.8h1.8v18.3h-1.8V1313.8z M-814,1313.8h1.8v18.3h-1.8V1313.8z M-817.4,1313.8h1.8v18.3h-1.8
				V1313.8z M-820.7,1313.8h1.8v18.3h-1.8V1313.8z M-824.1,1313.8h1.8v18.3h-1.8V1313.8z M-827.4,1313.8h1.8v18.3h-1.8V1313.8z
				 M-829.2,1312h22.2v22h-22.2V1312z"/>
			<path class="st21" d="M-810.6,1288.4h1.8v18.3h-1.8V1288.4z M-814,1288.4h1.8v18.3h-1.8V1288.4z M-817.4,1288.4h1.8v18.3h-1.8
				V1288.4z M-820.7,1288.4h1.8v18.3h-1.8V1288.4z M-824.1,1288.4h1.8v18.3h-1.8V1288.4z M-827.4,1288.4h1.8v18.3h-1.8V1288.4z
				 M-829.2,1286.6h22.2v22h-22.2V1286.6z"/>
			<path class="st21" d="M-785.1,1313.8h1.8v18.3h-1.8V1313.8z M-788.4,1313.8h1.8v18.3h-1.8V1313.8z M-791.8,1313.8h1.8v18.3h-1.8
				V1313.8z M-795.1,1313.8h1.8v18.3h-1.8V1313.8z M-798.5,1313.8h1.8v18.3h-1.8V1313.8z M-801.8,1313.8h1.8v18.3h-1.8V1313.8z
				 M-803.6,1312h22.2v22h-22.2V1312z"/>
			<path class="st20" d="M-785.1,1288.4h1.8v18.3h-1.8V1288.4z M-788.4,1288.4h1.8v18.3h-1.8V1288.4z M-791.8,1288.4h1.8v18.3h-1.8
				V1288.4z M-795.1,1288.4h1.8v18.3h-1.8V1288.4z M-798.5,1288.4h1.8v18.3h-1.8V1288.4z M-801.8,1288.4h1.8v18.3h-1.8V1288.4z
				 M-803.6,1286.6h22.2v22h-22.2V1286.6z"/>
			<path class="st21" d="M-785.1,1263.1h1.8v18.3h-1.8V1263.1z M-788.4,1263.1h1.8v18.3h-1.8V1263.1z M-791.8,1263.1h1.8v18.3h-1.8
				V1263.1z M-795.1,1263.1h1.8v18.3h-1.8V1263.1z M-798.5,1263.1h1.8v18.3h-1.8V1263.1z M-801.8,1263.1h1.8v18.3h-1.8V1263.1z
				 M-803.6,1261.2h22.2v22h-22.2V1261.2z"/>
			<path class="st20" d="M-759.5,1313.8h1.8v18.3h-1.8V1313.8z M-762.8,1313.8h1.8v18.3h-1.8V1313.8z M-766.2,1313.8h1.8v18.3h-1.8
				V1313.8z M-769.5,1313.8h1.8v18.3h-1.8V1313.8z M-772.9,1313.8h1.8v18.3h-1.8V1313.8z M-776.2,1313.8h1.7v18.3h-1.7V1313.8z
				 M-778,1312h22.2v22H-778V1312z"/>
		</g>
		<path class="st22" d="M-834,1369.7c3.4,0,6.1,2.7,6.1,6.1c0,3.4-2.7,6.1-6.1,6.1c-3.4,0-6.1-2.7-6.1-6.1
			C-840.2,1372.4-837.4,1369.7-834,1369.7"/>
		<path class="st14" d="M-834,1371.4c0.6,0,1.1,0.1,1.6,0.3c-0.5,0.3-0.9,0.9-0.9,1.5c0,1,0.8,1.8,1.8,1.8c0.7,0,1.3-0.4,1.6-0.9
			c0.2,0.5,0.3,1.1,0.3,1.7c0,2.4-2,4.3-4.4,4.3c-2.4,0-4.4-1.9-4.4-4.3C-838.4,1373.3-836.5,1371.4-834,1371.4"/>
		<path class="st14" d="M-942.3,1357.1h134.1h16.6h134.1c-6.2-1.6-19.6-3.7-17.4-11.7c-11.3,12.9-38.5,9.1-45.3,2.7
			c-7.6,11-52.1,6.8-55.2-1.8c-9.6,11.1-39.3,11.1-48.8,0c-3.1,8.6-47.6,12.7-55.2,1.8c-6.9,6.4-34,10.2-45.3-2.7
			C-922.7,1353.4-936.1,1355.5-942.3,1357.1"/>
		<path class="st23" d="M-817.8,1413.4c-15.2-7.1-23.5-16.8-28.1-27.4c-5.6,1.6-12.4,2.6-20.3,3c-3,0.2-6.1,0.2-9.3,0.2
			c-3.8,0-7.7-0.1-11.9-0.3c13.9,13.8,31,24.4,62.7,24.6C-822.4,1413.5-820.1,1413.5-817.8,1413.4z"/>
		<path class="st24" d="M-840.2,1395.8c-2.1-2.8-4.1-6.4-5.6-9.8c-5.6,1.6-12.4,2.6-20.3,3C-860.7,1392-853,1394.6-840.2,1395.8z"/>
	</g>
	<path class="st14" d="M-358.4,1368.8c8.8-7.4,17.5-14.9,26.3-22.4c3-2.6,6.3-5.2,9.2-7.9c-2.4-3-6.3-5.1-9.7-6.4
		c-6.8-2.6-13.5-1.7-19.8,1.9c-8.2,4.7-11.7,12.1-11.3,21.4c0.1,3.6,1.1,7.2,3.1,10.3C-360,1366.8-359.3,1367.8-358.4,1368.8
		 M-348.3,1375.8c4.3,1.5,9.2,1.3,13.6,0.5c2.3-1,8-3.4,10.1-3.1l0.3,0.1l0.3,0.1c1.3,0.6,2.5,1.5,3.2,2.8c1.5,3.1,0.8,6.1-2.2,7.9
		l-1,0.6c-11.2,6.4-23.1,5.5-34.3-0.5c-5.3-2.9-9.4-7.1-12.4-12.3l-0.7-1.2c-7.2-12.3-6.2-25.3,1.9-37.1c2.8-4.1,6.5-7.2,10.7-9.6
		l1.6-0.9c10.5-6,21.8-5.6,32.7-0.3c5.8,2.8,10.5,7.1,13.8,12.7l0.6,1c2.4,4.1-0.7,7.6-3.9,10c-3.7,2.8-7.4,6.2-10.9,9.2
		C-332.7,1362.4-340.5,1369.1-348.3,1375.8z M-264.4,1319.7h1.2c3.5,0,5.9,2.4,5.9,5.9c0,4.8-4.7,6.1-8.7,6.1
		c-5.3,0-10.4,3.2-14,6.7c-4.6,4.5-6.5,10.2-6.5,16.4v28.3c0,3.3-2,5.9-5.4,5.9h-0.9c-3.4,0-5.4-2.6-5.4-5.9v-30
		c0-11.5,5.6-20.9,15.1-27.5C-277.8,1321.8-271.3,1319.7-264.4,1319.7z M-411.5,1339.8c4.6-4.6,9.2-9.1,13.8-13.6
		c1.3-1.2,6.2-6.5,8.1-6.5h2.1l0.2,0.1c2.7,0.6,4.7,2.2,4.7,5.1v1.2c0,2-2.3,4.2-3.6,5.6c-2.7,2.8-5.6,5.6-8.3,8.4l-14.3,14.4
		c6.1,6.1,12.3,12.2,18.4,18.4c1.7,1.7,3.4,3.4,5,5.1c0.6,0.6,1.5,1.4,1.9,2.2c0.5,0.8,0.9,1.7,0.9,2.7v1.2l-0.1,0.3
		c-0.7,2.7-2.4,4.8-5.4,4.8h-0.9c-2,0-4.2-2.2-5.5-3.4c-2.8-2.6-5.4-5.3-8.1-7.9l-9.1-8.8v14.1c0,3.2-2.1,5.9-5.4,5.9h-0.9
		c-3.4,0-5.4-2.6-5.4-5.9v-79.4c0-3.2,2-5.8,5.4-5.8h0.9c3.4,0,5.4,2.6,5.4,5.8V1339.8z M-449.8,1331.9c-1.8-0.8-5.1-1.1-7-1.2
		c-9.9-0.4-17,5.1-21.2,13.8c-1.4,3-2.1,6.1-2.1,9.4c0,10,5.3,17,14.3,21.3c3.3,1.6,7.5,1.9,11.1,1.9c3.2,0,7.6-1.9,10.5-3.2
		l0.5-0.2h2.2l0.2,0c2.7,0.6,4.7,2.2,4.7,5.1v1.2c0,7.1-13.1,8.8-18.1,9.1c-17.7,1.2-30.9-8.4-35.9-25.1c-0.9-2.9-1.3-5.8-1.3-8.8
		v-2.3c0-12.7,6.3-22.7,17.3-29.2c5.1-3,10.8-4.5,16.7-4.5h2.3c6.3,0,12.1,1.8,17.3,5.3l0.4,0.3l0.3,0.4c0.6,0.9,1,2,1,3.1v1.2
		c0,3-2.3,4.6-5,5.1l-0.2,0h-0.7C-444.2,1334.4-448.2,1332.6-449.8,1331.9z M-557.4,1354.1c0,8.9,4.4,15.4,12,20
		c3.6,2.2,7.5,3.1,11.6,3.1c8.9,0,15.4-4.5,20-11.9c2.2-3.5,3.2-7.4,3.2-11.5c0-8.3-4-14.6-10.9-19.2c-3.8-2.5-8-3.8-12.5-3.8
		c-9.9,0-17,5-21.3,13.8C-556.7,1347.7-557.4,1350.8-557.4,1354.1z M-535.2,1319.2h1.6c13.7,0,24.1,6.6,30.7,18.4
		c2.6,4.7,4,9.9,4,15.3v2.3c0,12.7-6.3,22.8-17.3,29.2c-5.1,3-10.8,4.5-16.7,4.5h-2.3c-12.8,0-23-6.3-29.5-17.2
		c-3-5.1-4.5-10.7-4.5-16.5v-2.3c0-12.7,6.3-22.7,17.3-29.2C-546.8,1320.7-541.1,1319.2-535.2,1319.2z M-634.7,1354.1
		c0,9.2,4.5,16.1,12.6,20.4c3.3,1.8,6.8,2.7,10.6,2.7c9.1,0,15.8-4.2,20.4-11.9c2.2-3.5,3.2-7.4,3.2-11.5c0-7.9-3.8-14.1-10.2-18.7
		c-3.9-2.8-8.3-4.2-13.1-4.2c-9.9,0-17,5-21.3,13.8C-634,1347.7-634.7,1350.8-634.7,1354.1z M-587.9,1328v-24.7c0-3.2,2-5.9,5.4-5.9
		h0.9c3.4,0,5.4,2.6,5.4,5.9v52c0,12.7-6.3,22.8-17.3,29.2c-5.1,3-10.8,4.5-16.7,4.5h-2.3c-12.8,0-23-6.3-29.5-17.2
		c-3-5.1-4.5-10.7-4.5-16.5v-2.3c0-12.7,6.3-22.8,17.3-29.2c5.1-3,10.7-4.5,16.7-4.5h2.3C-601.5,1319.2-594.1,1322.6-587.9,1328z"/>
</g>
</svg>
