<?xml version="1.0" encoding="utf-8"?>
<!-- Generator: Adobe Illustrator 21.0.2, SVG Export Plug-In . SVG Version: 6.00 Build 0)  -->
<svg version="1.1" id="Layer_1" xmlns="http://www.w3.org/2000/svg" xmlns:xlink="http://www.w3.org/1999/xlink" x="0px" y="0px"
	 viewBox="0 0 256 289" enable-background="new 0 0 256 289" xml:space="preserve">
<path fill="#ADADAD" d="M165.3,288.5h3.5l57.3-28.6l1-1.3V30l-1-1.4L168.8,0h-3.6L165.3,288.5"/>
<path fill="#8B8B8B" d="M90.7,288.5h-3.6L30,259.9l-1.2-2L28.2,31.1l1.8-2.5L87.2,0h3.6L90.7,288.5"/>
<path fill="#9F9F9F" d="M87.3,0h81.4v288.5H87.3V0z"/>
<path fill="#C3C3C3" d="M256,137.8l-1.9-0.4l-27.6-2.6L226,135l-57.3-2.3H87.3L30,135V91.3l-0.1,0l0.1-0.1l57.3-13.3h81.4L226,91.2
	l21.1,11.2v-7.2l8.9-1l-0.9-1.8l-28.2-20.2l-0.9,0.3l-57.3-17.8H87.3L30,72.5V28.6L0,63.7v30.7l0.2-0.2l8.7,0.9v7.3L0,107.3v30.5
	l0.2,0l8.7,0.1v12.8l-7.5,0.1L0,150.7v30.5l8.9,4.8v7.4l-8.5,0.9L0,194.1v30.7l30,35.1V216l57.3,17.8h81.4l57.5-17.8l0.8,0.3
	l27.8-19.9l1.2-2l-8.9-1v-7.3l-1.2-0.5l-19,10.3l-0.7,1.4l-57.5,13.2v0H87.3v0L30,197.3v-43.9l57.3,2.3v0.1h81.4l57.3-2.3l1.3,0.6
	l26.8-2.3l1.9-0.9l-8.9-0.1v-12.8L256,137.8"/>
<path fill="#919191" d="M226,216v43.9l30-35.1v-30.5l-29.8,21.6L226,216"/>
<path fill="#919191" d="M226,197.4l0.2,0l29.8-16v-30.6l-30,2.8V197.4"/>
<path fill="#919191" d="M226.2,91.2l-0.2,0V135l30,2.8v-30.6L226.2,91.2"/>
<path fill="#919191" d="M226.2,72.7L256,94.2V63.7l-30-35.1v43.9l0.2,0.1V72.7"/>
</svg>
