<?xml version="1.0" encoding="utf-8"?>
<!-- Generator: Adobe Illustrator 20.1.0, SVG Export Plug-In . SVG Version: 6.00 Build 0)  -->
<svg version="1.1" id="Layer_1" xmlns="http://www.w3.org/2000/svg" xmlns:xlink="http://www.w3.org/1999/xlink" x="0px" y="0px"
	 viewBox="0 0 133.9 131.6" style="enable-background:new 0 0 133.9 131.6;" xml:space="preserve">
<style type="text/css">
	.st0{fill-rule:evenodd;clip-rule:evenodd;fill:#191717;}
	.st1{fill:#191717;}
	.st2{fill:none;stroke:#1981BC;stroke-linecap:round;stroke-miterlimit:10;}
	.st3{fill:none;stroke:#1981BC;stroke-linecap:round;stroke-miterlimit:10;stroke-dasharray:0.9999,1.9999;}
	.st4{fill:#0072BC;}
	.st5{fill-rule:evenodd;clip-rule:evenodd;fill:#FFFFFF;}
	.st6{fill:#FFFFFF;}
</style>
<g>
	<path class="st5" d="M65.7,6.1c-33.3,0-60.4,27-60.4,60.4c0,26.7,17.3,49.3,41.3,57.3c3,0.6,4.1-1.3,4.1-2.9
		c0-1.4-0.1-6.2-0.1-11.2c-16.8,3.7-20.3-7.1-20.3-7.1c-2.7-7-6.7-8.8-6.7-8.8C18.1,89.9,24,90,24,90c6.1,0.4,9.3,6.2,9.3,6.2
		c5.4,9.2,14.1,6.6,17.6,5c0.5-3.9,2.1-6.6,3.8-8.1c-13.4-1.5-27.5-6.7-27.5-29.8c0-6.6,2.4-12,6.2-16.2c-0.6-1.5-2.7-7.7,0.6-16
		c0,0,5.1-1.6,16.6,6.2c4.8-1.3,10-2,15.1-2c5.1,0,10.3,0.7,15.1,2c11.5-7.8,16.6-6.2,16.6-6.2c3.3,8.3,1.2,14.5,0.6,16
		c3.9,4.2,6.2,9.6,6.2,16.2c0,23.2-14.1,28.3-27.6,29.8c2.2,1.9,4.1,5.5,4.1,11.2c0,8.1-0.1,14.6-0.1,16.6c0,1.6,1.1,3.5,4.1,2.9
		c24-8,41.3-30.6,41.3-57.3C126,33.1,99,6.1,65.7,6.1z"/>
	<path class="st6" d="M28.1,92.8c-0.1,0.3-0.6,0.4-1,0.2c-0.4-0.2-0.7-0.6-0.5-0.9c0.1-0.3,0.6-0.4,1-0.2
		C28,92.1,28.3,92.5,28.1,92.8L28.1,92.8z M27.4,92.2"/>
	<path class="st6" d="M30.6,95.5c-0.3,0.3-0.9,0.1-1.2-0.3c-0.4-0.4-0.5-1-0.2-1.3c0.3-0.3,0.8-0.1,1.2,0.3
		C30.8,94.7,30.9,95.2,30.6,95.5L30.6,95.5z M30,94.9"/>
	<path class="st6" d="M33,99c-0.4,0.3-1,0-1.3-0.5c-0.4-0.5-0.4-1.2,0-1.4c0.4-0.3,1,0,1.3,0.5C33.3,98.1,33.3,98.7,33,99L33,99z
		 M33,99"/>
	<path class="st6" d="M36.2,102.4c-0.3,0.4-1,0.3-1.6-0.2c-0.5-0.5-0.7-1.2-0.3-1.5c0.3-0.4,1-0.3,1.6,0.2
		C36.4,101.3,36.6,102,36.2,102.4L36.2,102.4z M36.2,102.4"/>
	<path class="st6" d="M40.7,104.3c-0.1,0.5-0.8,0.7-1.5,0.5c-0.7-0.2-1.1-0.8-1-1.2c0.1-0.5,0.8-0.7,1.5-0.5
		C40.4,103.3,40.9,103.8,40.7,104.3L40.7,104.3z M40.7,104.3"/>
	<path class="st6" d="M45.7,104.7c0,0.5-0.6,0.9-1.3,0.9c-0.7,0-1.3-0.4-1.3-0.9c0-0.5,0.6-0.9,1.3-0.9
		C45.1,103.8,45.7,104.2,45.7,104.7L45.7,104.7z M45.7,104.7"/>
	<path class="st6" d="M50.3,103.9c0.1,0.5-0.4,1-1.1,1.1c-0.7,0.1-1.3-0.2-1.4-0.7c-0.1-0.5,0.4-1,1.1-1.1
		C49.5,103.1,50.2,103.4,50.3,103.9L50.3,103.9z M50.3,103.9"/>
</g>
</svg>
