<svg id="Layer_1" data-name="Layer 1" xmlns="http://www.w3.org/2000/svg" viewBox="0 0 251.67 189.47"><defs><style>.cls-1,.cls-2{fill:#fff;}.cls-2{opacity:0.8;isolation:isolate;}.cls-3{opacity:0.2;}</style></defs><title>html.svg</title><path class="cls-1" d="M72.17,3.15h8.37v8.27h7.65V3.15h8.37v25H88.19V19.8H80.53v8.38H72.17Z"/><path class="cls-1" d="M107.56,11.45h-7.37V3.15h23.1v8.3h-7.37V28.18h-8.37V11.45Z"/><path class="cls-1" d="M127,3.15h8.72l5.37,8.8,5.36-8.8h8.73v25h-8.33V15.78l-5.76,8.9h-.14l-5.76-8.9V28.18H127Z"/><path class="cls-1" d="M159.31,3.15h8.37V19.91h11.77v8.27H159.31Z"/><path class="cls-1" d="M104.09,99.93h21.74V83.07H102.59Zm-44-60.77,12,134.24,53.72,14.91,53.77-14.91,12-134.25Zm109.21,125.7-43.48,12.05V159.83h0l-33.73-9.36L89.72,124h16.53l1.22,13.71,18.34,5h0V116.39H89L84.6,66.6h41.24V50.14h53.72Z"/><path class="cls-2" d="M146.1,116.39H125.83V142.7l18.36-5ZM125.83,50.14V66.6h41.24l-1.47,16.46H125.83V99.93h38.26l-4.52,50.55-33.75,9.35v17.09l43.48-12.05L179.56,50.14H125.83Z"/><g class="cls-3"><polygon class="cls-1" points="125.83 66.6 84.6 66.6 89.04 116.39 125.83 116.39 125.83 99.93 104.09 99.93 102.59 83.07 125.83 83.07 125.83 66.6"/><polygon class="cls-1" points="125.83 142.7 125.81 142.71 107.47 137.75 106.25 124.04 89.72 124.04 92.08 150.47 125.81 159.84 125.83 159.83 125.83 142.7"/></g></svg>