<?xml version="1.0" encoding="utf-8"?>
<!-- Generator: Adobe Illustrator 20.1.0, SVG Export Plug-In . SVG Version: 6.00 Build 0)  -->
<svg version="1.1" id="Layer_1" xmlns="http://www.w3.org/2000/svg" xmlns:xlink="http://www.w3.org/1999/xlink" x="0px" y="0px"
	 viewBox="0 0 512 179" style="enable-background:new 0 0 512 179;" xml:space="preserve">
<style type="text/css">
	.st0{fill:#FFFFFF;}
</style>
<g>
	<rect x="227.7" y="66.3" class="st0" width="3.7" height="69.9"/>
	<path class="st0" d="M283.8,64.6c-21,0-36.8,15.8-36.8,36.6c0,21,15.8,36.6,36.8,36.6c21,0,36.8-15.7,36.8-36.6
		C320.6,80.4,304.8,64.6,283.8,64.6L283.8,64.6L283.8,64.6z M283.8,134.5c-18.8,0-33.1-14.2-33.1-33.2c0-19,14.2-33.2,33.1-33.2
		c18.9,0,33.1,14.2,33.1,33.2C316.9,120.2,302.7,134.5,283.8,134.5L283.8,134.5L283.8,134.5z"/>
	<path class="st0" d="M390.4,71.6c-7.9-6.5-17.4-7-22.3-7c-11.1,0-23.3,5.1-27.7,15.2h-0.3V66.3h-3.7v69.9h3.7V96
		c0-17.5,10.8-27.9,28.3-27.9c10.5,0,16.2,3.4,19.8,6.6c5.3,4.7,8.6,12.5,8.6,24.6v36.9h3.7V99.3C400.5,86.7,397.2,77.4,390.4,71.6
		L390.4,71.6L390.4,71.6z"/>
	<rect x="420.9" y="66.3" class="st0" width="3.7" height="69.9"/>
	<path class="st0" d="M477.1,134.5c-17.8,0-33.1-13.4-33.1-33.2c0-9.5,4-18.7,9.6-23.9c7.2-6.5,13.7-9.4,23.6-9.4
		c13.7,0,25.8,7.6,30.6,21h4.1c-5.5-16.5-20.6-24.4-34.8-24.4c-21.2,0-36.8,16.1-36.8,36.8c0,21.8,16.5,36.5,36.8,36.5
		c16.6,0,29.8-9.5,34.7-23.7h-4.1C504.3,124.6,492.9,134.5,477.1,134.5L477.1,134.5L477.1,134.5z"/>
	<circle class="st0" cx="229.5" cy="44.6" r="4"/>
	<circle class="st0" cx="422.8" cy="44.6" r="4"/>
	<circle class="st0" cx="89.4" cy="89.3" r="36.4"/>
	<path class="st0" d="M163.8,27.4c0-6.9-5.6-12.5-12.5-12.5c-3.1,0-6,1.2-8.2,3.1C128.1,6.7,109.5,0,89.4,0C40.1,0,0.1,40,0.1,89.3
		c0,49.2,40,89.3,89.3,89.3s89.3-40,89.3-89.3c0-20.1-6.7-38.7-18-53.6C162.6,33.4,163.8,30.6,163.8,27.4L163.8,27.4L163.8,27.4z
		 M89.4,175.5c-47.6,0-86.3-38.7-86.3-86.3S41.8,3,89.4,3c19.3,0,37.2,6.4,51.6,17.2c-1.4,2-2.3,4.5-2.3,7.2
		c0,6.9,5.6,12.5,12.5,12.5c2.7,0,5.2-0.9,7.2-2.3c10.8,14.4,17.2,32.3,17.2,51.6C175.6,136.8,136.9,175.5,89.4,175.5L89.4,175.5
		L89.4,175.5z"/>
</g>
</svg>
