<?xml version="1.0" encoding="utf-8"?>
<!-- Generator: Adobe Illustrator 20.1.0, SVG Export Plug-In . SVG Version: 6.00 Build 0)  -->
<svg version="1.1" id="Layer_1" xmlns="http://www.w3.org/2000/svg" xmlns:xlink="http://www.w3.org/1999/xlink" x="0px" y="0px"
	 viewBox="0 0 2065 2500" style="enable-background:new 0 0 2065 2500;" xml:space="preserve">
<style type="text/css">
	.st0{fill:#C1BDBC;}
	.st1{fill:#FFFFFF;}
	.st2{fill:#68615D;}
	.st3{fill:#DDDAD9;}
</style>
<path class="st0" d="M0.2,1977.9l131.6,65.8l21.6-38.3V478.5l-21.6-28.2L0.2,516.1V1977.9"/>
<path class="st1" d="M384.7,512.7l-252.9-62.3v1593.4l252.9-58.9V512.7"/>
<path class="st2" d="M1160.7,633.9l180.1-93.5l599.3,232.1l-159.3,20.8L1160.7,633.9"/>
<path class="st3" d="M1167.6,1860.1l176.7,93.5l599.3-232.1l-159.3-20.8L1167.6,1860.1"/>
<path class="st0" d="M1212.6,1603.8l315.2,41.6l18.1-32.5V887.1l-18.1-38.4l-315.2,41.6V1603.8 M287.8,370.6l194-97l21.2,40.9
	v1862.9l-21.2,43l-194-97V370.6"/>
<path class="st1" d="M876.6,2088.8l-394.9,128.2V273.7l394.9,128.2V2088.8"/>
<path class="st0" d="M724.2,2338.2l308.3,155.9l32.3-37.1V45.7L1032.5,0L724.2,155.9V2338.2 M1773.8,793.2l159.3-20.8l13.7,19.9
	v909.3l-13.7,23.4l-159.3-20.8V793.2"/>
<path class="st1" d="M1527.8,848.7v800.2l329.1-401.8L1527.8,848.7"/>
<path class="st1" d="M1933.1,450.3L1032.5,0v2494l1032.3-516.1V516.1L1933.1,450.3z M1933.1,1726.3l-592.3,176.9V590.9l592.3,176.9
	V1726.3z"/>
</svg>
