<?xml version="1.0" encoding="utf-8"?>
<!-- Generator: Adobe Illustrator 20.1.0, SVG Export Plug-In . SVG Version: 6.00 Build 0)  -->
<svg version="1.1" id="Layer_1" xmlns="http://www.w3.org/2000/svg" xmlns:xlink="http://www.w3.org/1999/xlink" x="0px" y="0px"
	 viewBox="0 0 576 153.5" style="enable-background:new 0 0 576 153.5;" xml:space="preserve">
<style type="text/css">
	.st0{fill:#FFFFFF;}
</style>
<title>MongoDB-Logo-1c-Reg-Knockout</title>
<path class="st0" d="M557.8,126.1c-4.7,0-8.5-3.8-8.5-8.5c0-4.7,3.8-8.5,8.5-8.5c4.7,0,8.5,3.7,8.5,8.4c0.1,4.7-3.6,8.5-8.2,8.6
	C558,126.1,557.9,126.1,557.8,126.1z M557.8,109.8c-4.3,0-7.8,3.4-7.8,7.7s3.4,7.8,7.7,7.8s7.8-3.4,7.8-7.7c0,0,0,0,0,0
	c0.1-4.2-3.3-7.7-7.5-7.8C558,109.8,557.9,109.8,557.8,109.8z M559.9,123l-2.2-4.7h-1.8v4.7h-1.3v-10.8h3.2c2.4,0,3.4,1.1,3.4,3
	c0,1.6-0.7,2.6-2.1,2.9l2.3,4.9L559.9,123L559.9,123z M555.9,117.1h1.9c1.5,0,2.1-0.5,2.1-1.9c0-1.4-0.5-1.8-2.3-1.8h-1.7
	L555.9,117.1L555.9,117.1z"/>
<path class="st0" d="M66.6,67.8c-7.5-32.9-25.1-43.8-27-47.9c-2.1-2.9-4.2-8.1-4.2-8.1v0.1c0-0.2-0.1-0.3-0.2-0.5
	c-0.2,2.9-0.3,4-3.1,7c-4.3,3.3-26.2,21.7-28,59.2C2.4,112.6,29.4,133.4,33,136c0,0,1,0.5,1,0.5c0.2,0.2-0.4-70.4,1.6-70.4
	c1.1,0,2.4,57.6,3,69.9c-0.1,0.2,4.2-1.6,7.6-5.1C55.2,122.7,72.4,101.9,66.6,67.8z M46.2,131L46.2,131L46.2,131
	C46.2,131,46.2,131,46.2,131z"/>
<path class="st0" d="M38.6,136.1c-1.4,0.9-3.1,1-4.6,0.5l1.3,15.9l3.3,1.1C38.6,153.5,38.8,143.6,38.6,136.1z"/>
<path class="st0" d="M430.9,118.3c2.3,1.8,6.9,2.6,11,2.6c5.3,0,10.4-1,15.5-5.5c5.2-4.7,8.7-11.8,8.7-23.2c0-11-4.2-19.9-12.7-25.1
	c-4.8-3-11.1-4.2-18.2-4.2c-2.1,0-4.2,0.1-5.4,0.6c-0.5,0.4-0.8,0.9-1,1.5c-0.2,2-0.2,16.8-0.2,25.6c0,9,0,21.6,0.2,23.1
	C428.8,115.1,429.4,117.4,430.9,118.3 M408.9,58c1.9,0,9,0.3,12.3,0.3c6.2,0,10.4-0.3,22-0.3c9.7,0,17.8,2.6,23.6,7.6
	c7,6.1,10.7,14.6,10.7,24.9c0,14.7-6.7,23.1-13.4,27.9c-6.7,5-15.4,7.8-27.8,7.8c-6.6,0-17.9-0.2-27.4-0.3h-0.1
	c-0.4-0.9,0.8-4.3,1.6-4.3c2.6-0.3,3.2-0.4,4.4-0.9c2-0.8,2.5-1.8,2.7-5.4c0.3-6.7,0.2-14.8,0.2-23.9c0-6.5,0.1-19.2-0.1-23.2
	c-0.3-3.4-1.8-4.2-4.6-4.9c-2-0.4-4.1-0.8-6.2-1C406.7,61.6,408.4,58.6,408.9,58"/>
<path class="st0" d="M504.8,63.5c-0.4,0.1-1,1.2-1,1.7c-0.1,3.9-0.2,14.1-0.2,21.2c0.1,0.3,0.3,0.5,0.5,0.5c1.4,0.1,4.9,0.2,7.9,0.2
	c4.2,0,6.6-0.5,7.9-1.2c3.5-1.7,5.2-5.5,5.2-9.7c0-9.4-6.6-13-16.4-13C507.4,63.2,506.1,63.3,504.8,63.5 M529.7,106.9
	c0-9.6-7-15-19.9-15c-0.5,0-4.6-0.1-5.6,0.1c-0.3,0-0.6,0.3-0.7,0.5c0,6.8-0.1,17.8,0.2,22.2c0.2,1.8,1.5,4.5,3.2,5.2
	c1.8,1,5.7,1.2,8.5,1.2C523,121.1,529.7,116.9,529.7,106.9 M485,58.2c1,0,3.9,0.3,11.4,0.3c7,0,12.7-0.2,19.6-0.2
	c8.5,0,20.1,3,20.1,15.6c0,6.2-4.4,11.2-10.1,13.6c-0.3,0.1-0.3,0.3,0,0.4c8.1,2.1,15.3,7.1,15.3,16.6c0,9.3-5.8,15.2-14.3,18.9
	c-5.2,2.3-11.5,3-18,3c-4.9,0-18.2-0.5-25.5-0.4c-0.8-0.3,0.7-3.8,1.4-4.3c1.7-0.1,3.4-0.3,5-0.8c2.6-0.6,2.9-1.5,3.3-5.4
	c0.2-3.4,0.2-15.4,0.2-24c0-11.7,0.1-19.7,0-23.6c-0.1-3-1.2-4-3.3-4.6c-1.6-0.3-4.4-0.6-6.6-1C482.7,61.9,484.4,58.6,485,58.2"/>
<path class="st0" d="M91,126.1c-0.3-0.7-0.4-1.4-0.3-2.2c0-0.5,0.1-1,0.3-1.5c1.4-0.2,2.8-0.5,4.2-0.9c1.9-0.5,2.7-1.5,2.8-4
	c0.3-5.9,0.3-16.8,0.2-24.6v-0.2c0-0.8,0-2-1-2.8c-1.8-1.1-3.8-2-5.8-2.6c-0.9-0.3-1.4-0.8-1.4-1.3c0-0.6,0.6-1.2,1.8-1.5
	c3.2-0.3,11.5-2.3,14.8-3.8c0.3,0.4,0.5,1,0.4,1.6c0,0.3-0.1,0.7-0.1,1.1c-0.1,1.1-0.2,2.3-0.2,3.6c0,0.4,0.4,0.7,0.8,0.7
	c0.2,0,0.4-0.1,0.6-0.2c6.2-4.9,11.8-6.6,14.7-6.6c4.7,0,8.4,2.3,11.2,6.9c0.1,0.2,0.4,0.4,0.6,0.4c0.2,0,0.5-0.1,0.6-0.3
	c5.7-4.4,11.4-6.9,15.2-6.9c9,0,14.4,6.7,14.4,18c0,3.2,0,7.3-0.1,11.2c0,3.4-0.1,6.5-0.1,8.7c0,0.5,0.7,2,1.8,2.3
	c1.3,0.6,3.2,1,5.6,1.4h0.1c0.2,0.6-0.2,3.2-0.6,3.7c-0.6,0-1.4,0-2.4-0.1c-1.9-0.1-4.4-0.2-7.4-0.2c-6,0-9.1,0.1-12.1,0.3
	c-0.2-0.7-0.3-3.2,0-3.7c1.2-0.2,2.4-0.5,3.6-0.9c1.9-0.6,2.4-1.5,2.6-4c0-1.8,0.4-17.6-0.2-21.4c-0.5-3.9-3.5-8.4-9.9-8.4
	c-2.4,0-6.2,1-9.9,3.8c-0.2,0.3-0.4,0.6-0.4,0.9v0.1c0.4,2,0.4,4.4,0.4,8c0,2,0,4.2,0,6.3c0,4.4,0,8.5,0,11.6c0,2.1,1.3,2.6,2.3,3
	c0.5,0.1,1,0.2,1.5,0.3c0.9,0.2,1.8,0.4,3.1,0.6c0.2,0.9,0.2,1.8-0.1,2.7c-0.1,0.3-0.2,0.7-0.4,0.9c-3.3-0.1-6.7-0.2-11.7-0.2
	c-1.5,0-3.9,0.1-6.1,0.1c-1.7,0-3.4,0.1-4.3,0.1c-0.2-0.6-0.3-1.2-0.3-1.9c-0.1-0.6,0.1-1.2,0.3-1.8l1.3-0.2
	c1.2-0.2,2.1-0.4,3.1-0.6c1.6-0.5,2.2-1.4,2.4-3.5c0.3-4.8,0.6-18.8-0.1-22.2c-1.2-5.6-4.4-8.4-9.5-8.4c-3,0-6.8,1.4-9.9,3.8
	c-0.6,0.6-0.9,1.4-0.9,2.2c0,1.7,0,3.6,0,5.7c0,7,0,15.7,0.1,19.5c0.1,1.2,0.5,2.5,2.7,3c0.5,0.1,1.3,0.3,2.3,0.4
	c0.5,0.1,1.1,0.2,1.8,0.3c0.2,1.2,0.1,2.5-0.3,3.7c-1,0-2.1-0.1-3.5-0.1c-2.1-0.1-4.6-0.2-7.5-0.2c-3.4,0-5.8,0.1-7.7,0.2
	C93.3,126.1,92.2,126.1,91,126.1"/>
<path class="st0" d="M201.3,85.5c-1.9,0-3.7,0.5-5.3,1.5c-3.8,2.3-5.8,7-5.8,13.8c0,12.7,6.4,21.6,15.5,21.6
	c2.5,0.1,4.9-0.8,6.7-2.4c2.8-2.3,4.3-7,4.3-13.5C216.8,93.9,210.6,85.5,201.3,85.5 M203,127.1c-16.5,0-22.4-12.1-22.4-23.4
	c0-7.9,3.2-14.1,9.6-18.4c4.5-2.8,9.6-4.3,14.8-4.4c12.6,0,21.4,9.1,21.4,22c0,8.8-3.5,15.8-10.2,20.1
	C213.2,125,207.6,127.1,203,127.1"/>
<path class="st0" d="M369.3,85.5c-1.9,0-3.7,0.5-5.3,1.5c-3.8,2.3-5.8,7-5.8,13.8c0,12.7,6.4,21.6,15.5,21.6
	c2.5,0.1,4.9-0.8,6.7-2.4c2.8-2.3,4.3-7,4.3-13.5C384.8,93.9,378.5,85.5,369.3,85.5 M371,127.1c-16.5,0-22.4-12.1-22.4-23.4
	c0-7.9,3.2-14.1,9.6-18.4c4.5-2.8,9.6-4.3,14.8-4.4c12.6,0,21.4,9.1,21.4,22c0,8.8-3.5,15.8-10.2,20.1
	C381.1,125,375.6,127.1,371,127.1"/>
<path class="st0" d="M313.7,85.1c-5.1,0-8.4,4-8.4,10.2s2.8,13.6,10.8,13.6c1.4,0,3.8-0.6,5.1-2c1.9-1.7,3.1-5.2,3.1-8.9
	C324.3,89.9,320.3,85.1,313.7,85.1 M313.1,128c-1.4,0-2.9,0.3-4.1,1c-4,2.6-5.9,5.2-5.9,8.1c0,2.8,1.1,5,3.4,7
	c2.8,2.4,6.6,3.6,11.7,3.6c9.9,0,14.3-5.3,14.3-10.6c0-3.7-1.8-6.1-5.6-7.5C323.9,128.5,319,127.9,313.1,128 M313.7,153.1
	c-5.9,0-10.2-1.3-13.8-4.1c-3.5-2.7-5.1-6.8-5.1-9.6c0-1.8,0.7-3.5,1.9-4.9c1-1.2,3.4-3.4,8.9-7.2c0.2-0.1,0.3-0.2,0.3-0.4
	c0-0.2-0.1-0.4-0.3-0.5c-4.5-1.7-5.9-4.6-6.3-6.2c0-0.1,0-0.1,0-0.2c-0.1-0.6-0.3-1.2,0.6-1.8c0.6-0.5,1.7-1.1,2.7-1.7
	c1.5-0.9,3-1.8,4.4-2.9c0.3-0.3,0.3-0.7,0-1c0,0-0.1-0.1-0.2-0.1c-6.7-2.3-10.1-7.3-10.1-14.9c0-4.8,2.3-9.4,6.2-12.2
	c2.7-2.1,9.5-4.7,13.9-4.7h0.3c4.5,0.1,7.1,1.1,10.6,2.4c2,0.7,4.1,1.1,6.3,1c3.8,0,5.4-1.2,6.8-2.6c0.2,0.6,0.4,1.3,0.4,1.9
	c0.1,1.6-0.3,3.1-1.2,4.5c-0.8,1.1-2.5,1.8-4.2,1.8c-0.2,0-0.3,0-0.5,0c-0.9-0.1-1.7-0.2-2.5-0.4l-0.4,0.1c-0.1,0.2-0.1,0.5,0.1,0.7
	c0,0.1,0,0.1,0.1,0.2c0.3,1.4,0.5,2.8,0.6,4.2c0,8-3.2,11.5-6.6,14.1c-3.3,2.5-7.2,4-11.3,4.4l0,0c-0.1,0-0.5,0-1.3,0.1
	c-0.5,0-1.2,0.1-1.3,0.1h-0.1c-0.7,0.2-2.7,1.1-2.7,2.8c0,1.4,0.9,3.2,5,3.5l2.7,0.2c5.5,0.4,12.4,0.9,15.6,2
	c4.4,1.5,7.3,5.8,7.3,10.4c0,7.2-5.1,13.9-13.6,18C322.6,152.2,318.2,153.2,313.7,153.1"/>
<path class="st0" d="M288.5,122.3c-2.4-0.3-4.2-0.6-6.3-1.6c-0.4-0.4-0.7-0.9-0.8-1.5c-0.2-3.4-0.2-13.1-0.2-19.5
	c0-5.2-0.9-9.8-3.1-13c-2.6-3.7-6.4-5.9-11.2-5.9c-4.3,0-10,2.9-14.7,7c-0.1,0.1-0.8,0.8-0.8-0.3s0.2-3.2,0.3-4.6
	c0.1-0.7-0.2-1.5-0.7-2c-3.1,1.5-11.7,3.6-14.9,3.9c-2.3,0.5-2.9,2.7-0.4,3.5l0,0h0c2,0.5,3.9,1.4,5.7,2.5c1,0.8,0.9,1.8,0.9,2.7
	c0.1,7.3,0.1,18.5-0.2,24.5c-0.1,2.4-0.8,3.3-2.5,3.7l0.2-0.1c-1.3,0.3-2.7,0.6-4.1,0.8c-0.5,0.5-0.5,3.7,0,4.3
	c1.1,0,6.7-0.3,11.3-0.3c6.4,0,9.7,0.3,11.3,0.3c0.7-0.8,0.9-3.7,0.4-4.3c-1.5-0.1-3-0.3-4.5-0.6c-1.8-0.4-2.2-1.3-2.3-3.3
	c-0.2-5.1-0.2-16-0.2-23.4c0-2.1,0.5-3,1.2-3.6c2.2-2,5.8-3.3,9-3.3c2.4-0.1,4.8,0.7,6.7,2.3c1.8,1.6,2.9,3.7,3.1,6.1
	c0.4,4.1,0.3,12.4,0.3,19.5c0,3.9-0.3,4.9-1.8,5.3c-0.7,0.3-2.4,0.6-4.5,0.9c-0.7,0.6-0.4,3.7,0,4.3c2.9,0,6.2-0.3,11-0.3
	c6,0,9.9,0.3,11.4,0.3C288.7,125.9,288.9,123.1,288.5,122.3"/>
</svg>
