<svg id="Layer_1" data-name="Layer 1" xmlns="http://www.w3.org/2000/svg" viewBox="0 0 251.67 189.47"><defs><style>.cls-1{fill:#fff;}</style></defs><title>net.svg</title><g id="_Group_" data-name="&lt;Group&gt;"><path id="_Path_" data-name="&lt;Path&gt;" class="cls-1" d="M166.54,59.9A6.31,6.31,0,0,0,168.77,55,6,6,0,0,0,167,50.5a13.87,13.87,0,0,0-4.48-2.69,13.49,13.49,0,0,1-3.65-2,3.25,3.25,0,0,1-1-2.51A3,3,0,0,1,159,40.83a4.77,4.77,0,0,1,3.09-.94,9.14,9.14,0,0,1,5.51,1.73V37.7a11.54,11.54,0,0,0-5.19-1.14,9.25,9.25,0,0,0-6.17,2,6.7,6.7,0,0,0-.85,9.42,12.79,12.79,0,0,0,4.34,2.75,16.12,16.12,0,0,1,4,2.23,3,3,0,0,1,1,2.35q0,3.39-4.62,3.39a9.78,9.78,0,0,1-6.31-2.33v4.18a12,12,0,0,0,6,1.46A9.78,9.78,0,0,0,166.54,59.9Z"/><path id="_Path_2" data-name="&lt;Path&gt;" class="cls-1" d="M203.11,61.45H207v-21h5.69V37.16H207V33.42c0-3.43,1.35-5.15,4.07-5.15a5.22,5.22,0,0,1,2.58.64V25.4a7.63,7.63,0,0,0-2.82-.42,7.45,7.45,0,0,0-5.25,2,8,8,0,0,0-2.48,6.28v3.94H199v3.29h4.13Z"/><path id="_Path_3" data-name="&lt;Path&gt;" class="cls-1" d="M79.15,31A2.46,2.46,0,0,0,81,30.26a2.53,2.53,0,0,0,0-3.59,2.61,2.61,0,0,0-3.6,0,2.58,2.58,0,0,0,0,3.62A2.51,2.51,0,0,0,79.15,31Z"/><path id="_Path_4" data-name="&lt;Path&gt;" class="cls-1" d="M98.63,62a12.48,12.48,0,0,0,6.65-1.71v-3.7a9.77,9.77,0,0,1-6,2.09,7.72,7.72,0,0,1-6-2.47,9.62,9.62,0,0,1-2.25-6.71,10,10,0,0,1,2.45-7.06,7.78,7.78,0,0,1,6-2.59,9.85,9.85,0,0,1,5.79,1.9v-4a12.41,12.41,0,0,0-5.62-1.23,12,12,0,0,0-9.21,3.68,13.55,13.55,0,0,0-3.43,9.65,12.25,12.25,0,0,0,3.13,8.68A11,11,0,0,0,98.63,62Z"/><path id="_Compound_Path_" data-name="&lt;Compound Path&gt;" class="cls-1" d="M236.89,39.1h.76c.53,0,1,.49,1.47,1.48l.9,2h1.4l-1.08-2.19c-.45-.9-.91-1.41-1.36-1.52v0a2.78,2.78,0,0,0,1.54-.81,2,2,0,0,0,.55-1.44,2,2,0,0,0-.68-1.55,3.45,3.45,0,0,0-2.34-.69h-2.32v8.23h1.16Zm0-3.79h1a2.46,2.46,0,0,1,1.52.36,1.26,1.26,0,0,1,.4,1c0,.94-.56,1.41-1.7,1.41h-1.23Z"/><path id="_Path_5" data-name="&lt;Path&gt;" class="cls-1" d="M219,54.83Q219,62,225.35,62a7.32,7.32,0,0,0,3.65-.79V57.89a4.13,4.13,0,0,1-2.51.79,3.35,3.35,0,0,1-2.78-1,5.55,5.55,0,0,1-.83-3.47V40.46H229V37.16h-6.12V30c-1.36.44-2.65.87-3.89,1.26v5.93h-4.17v3.29H219Z"/><path id="_Compound_Path_2" data-name="&lt;Compound Path&gt;" class="cls-1" d="M238.25,44.92a6.34,6.34,0,0,0,4.63-1.85,6.52,6.52,0,0,0,0-9.18,6.73,6.73,0,0,0-9.21.08,6.22,6.22,0,0,0-1.86,4.57,6.15,6.15,0,0,0,1.83,4.57A6.34,6.34,0,0,0,238.25,44.92Zm-4.06-10.46a5.76,5.76,0,0,1,8.13,8.15,5.76,5.76,0,0,1-8.13-8.15Z"/><rect id="_Path_6" data-name="&lt;Path&gt;" class="cls-1" x="77.16" y="37.16" width="3.88" height="24.29"/><path id="_Compound_Path_3" data-name="&lt;Compound Path&gt;" class="cls-1" d="M137.39,62a11.52,11.52,0,0,0,8.83-3.51,13.12,13.12,0,0,0,3.27-9.31q0-5.9-3-9.28A10.92,10.92,0,0,0,138,36.57a12.09,12.09,0,0,0-8.82,3.22q-3.56,3.47-3.56,9.8a12.65,12.65,0,0,0,3.13,8.94A11.17,11.17,0,0,0,137.39,62Zm-5.52-19.77a7.5,7.5,0,0,1,5.81-2.37,7.19,7.19,0,0,1,5.72,2.35q2.1,2.45,2.1,7.11,0,4.45-2,6.88a7.1,7.1,0,0,1-5.85,2.49,7.52,7.52,0,0,1-5.9-2.46,9.82,9.82,0,0,1-2.2-6.82Q129.57,44.79,131.87,42.26Z"/><path id="_Compound_Path_4" data-name="&lt;Compound Path&gt;" class="cls-1" d="M193.24,58.52a13.1,13.1,0,0,0,3.28-9.31c0-3.94-1-7-3.05-9.28A10.89,10.89,0,0,0,185,36.57a12.09,12.09,0,0,0-8.82,3.22q-3.55,3.47-3.56,9.8a12.65,12.65,0,0,0,3.13,8.94A11.17,11.17,0,0,0,184.42,62,11.47,11.47,0,0,0,193.24,58.52ZM176.6,49.44q0-4.65,2.29-7.18a7.54,7.54,0,0,1,5.81-2.37,7.18,7.18,0,0,1,5.72,2.35q2.11,2.45,2.11,7.11,0,4.45-2,6.88a7.09,7.09,0,0,1-5.85,2.49,7.58,7.58,0,0,1-5.91-2.46A9.88,9.88,0,0,1,176.6,49.44Z"/><polygon id="_Path_7" data-name="&lt;Path&gt;" class="cls-1" points="136.07 121.23 168.29 121.23 168.29 111.78 136.07 111.78 136.07 82.11 170.84 82.11 170.84 72.66 125.63 72.66 125.63 161.84 172.89 161.84 172.89 152.39 136.07 152.39 136.07 121.23"/><polygon id="_Path_8" data-name="&lt;Path&gt;" class="cls-1" points="182.71 82.11 208.45 82.11 208.45 161.84 218.9 161.84 218.9 82.11 244.58 82.11 244.58 72.66 182.71 72.66 182.71 82.11"/><path id="_Path_9" data-name="&lt;Path&gt;" class="cls-1" d="M11.8,149.22A6.47,6.47,0,0,0,7,151.27a7.17,7.17,0,0,0,0,9.92,6.46,6.46,0,0,0,4.85,2.09,6.73,6.73,0,0,0,5-2.09,7,7,0,0,0,0-9.89A6.7,6.7,0,0,0,11.8,149.22Z"/><path id="_Path_10" data-name="&lt;Path&gt;" class="cls-1" d="M117.78,38.07a8.49,8.49,0,0,0-2.63,4.1h-.1v-5h-3.88V61.45h3.88V49.06a10.64,10.64,0,0,1,1.83-6.61,5.21,5.21,0,0,1,7-1.35v-4a6.32,6.32,0,0,0-2.33-.33A5.81,5.81,0,0,0,117.78,38.07Z"/><polygon id="_Path_11" data-name="&lt;Path&gt;" class="cls-1" points="37.73 32.02 37.82 32.02 50.45 61.45 52.4 61.45 65.02 32.02 65.11 32.02 64.78 61.45 68.77 61.45 68.77 27.44 63.77 27.44 51.48 55.23 51.32 55.23 39.34 27.44 34.07 27.44 34.07 61.45 37.92 61.45 37.73 32.02"/><polygon id="_Path_12" data-name="&lt;Path&gt;" class="cls-1" points="95.49 147.98 47.61 72.66 34.05 72.66 34.05 161.84 44.5 161.84 44.5 85.35 93.2 161.84 105.88 161.84 105.88 72.66 95.49 72.66 95.49 147.98"/></g></svg>