<?xml version="1.0" encoding="utf-8"?>
<!-- Generator: Adobe Illustrator 20.1.0, SVG Export Plug-In . SVG Version: 6.00 Build 0)  -->
<svg version="1.1" id="Layer_1" xmlns="http://www.w3.org/2000/svg" xmlns:xlink="http://www.w3.org/1999/xlink" x="0px" y="0px"
	 viewBox="0 0 600 380.5" style="enable-background:new 0 0 600 380.5;" xml:space="preserve">
<style type="text/css">
	.st0{fill:#FFFFFF;}
	.st1{fill-rule:evenodd;clip-rule:evenodd;fill:#FFFFFF;}
	.st2{fill-rule:evenodd;clip-rule:evenodd;fill:url(#XMLID_2_);}
	.st3{clip-path:url(#XMLID_4_);}
	.st4{fill:none;}
	.st5{opacity:0.66;fill:#4B4B4B;}
	.st6{fill:url(#SVGID_1_);}
</style>
<g>
	<path class="st0" d="M300.8,364.4c-1.8,0-3.7-0.5-5.3-1.4l-16.8-9.9c-2.5-1.4-1.3-1.9-0.5-2.2c3.3-1.2,4-1.4,7.6-3.4
		c0.4-0.2,0.9-0.1,1.2,0.1l12.9,7.7c0.5,0.3,1.1,0.3,1.6,0l50.2-29c0.5-0.3,0.8-0.8,0.8-1.4v-58c0-0.6-0.3-1.1-0.8-1.4l-50.2-29
		c-0.5-0.3-1.1-0.3-1.5,0l-50.2,29c-0.5,0.3-0.8,0.8-0.8,1.4v58c0,0.6,0.3,1.1,0.8,1.3l13.8,8c7.5,3.7,12-0.7,12-5.1v-57.2
		c0-0.8,0.7-1.4,1.5-1.4h6.4c0.8,0,1.5,0.6,1.5,1.4v57.2c0,10-5.4,15.7-14.9,15.7c-2.9,0-5.2,0-11.6-3.1l-13.2-7.6
		c-3.3-1.9-5.3-5.4-5.3-9.2v-58c0-3.8,2-7.3,5.3-9.2l50.2-29c3.2-1.8,7.4-1.8,10.6,0l50.2,29c3.3,1.9,5.3,5.4,5.3,9.2v58
		c0,3.8-2,7.3-5.3,9.2L306,363C304.4,363.9,302.6,364.4,300.8,364.4z"/>
	<path class="st0" d="M316.3,324.5c-22,0-26.6-10.1-26.6-18.6c0-0.8,0.6-1.4,1.5-1.4h6.5c0.7,0,1.3,0.5,1.4,1.2
		c1,6.6,3.9,9.9,17.2,9.9c10.6,0,15.1-2.4,15.1-8c0-3.2-1.3-5.6-17.7-7.3c-13.7-1.4-22.2-4.4-22.2-15.4c0-10.1,8.5-16.2,22.9-16.2
		c16.1,0,24.1,5.6,25.1,17.6c0,0.4-0.1,0.8-0.4,1.1c-0.3,0.3-0.7,0.5-1.1,0.5h-6.5c-0.7,0-1.3-0.5-1.4-1.1c-1.6-7-5.4-9.2-15.7-9.2
		c-11.6,0-12.9,4-12.9,7c0,3.7,1.6,4.7,17.2,6.8c15.4,2,22.8,4.9,22.8,15.8C341.3,318.2,332.2,324.5,316.3,324.5z"/>
</g>
<g>
	<path class="st0" d="M388.7,263.7c0,5.3-4.4,9.7-9.7,9.7c-5.3,0-9.7-4.3-9.7-9.7c0-5.5,4.5-9.7,9.7-9.7
		C384.3,254,388.7,258.2,388.7,263.7z M370.9,263.6c0,4.5,3.6,8.1,8.1,8.1c4.5,0,8.1-3.7,8.1-8.1c0-4.5-3.7-8.1-8.1-8.1
		C374.6,255.6,370.9,259.1,370.9,263.6z M375.4,258.2h3.7c1.3,0,3.8,0,3.8,2.9c0,2-1.3,2.4-2.1,2.7c1.5,0.1,1.6,1.1,1.8,2.5
		c0.1,0.9,0.3,2.4,0.6,2.9h-2.3c-0.1-0.5-0.4-3.3-0.4-3.4c-0.1-0.6-0.4-0.9-1.1-0.9h-1.9v4.4h-2.1V258.2z M377.4,263h1.7
		c1.4,0,1.6-1,1.6-1.5c0-1.5-1-1.5-1.6-1.5h-1.7V263z"/>
</g>
<path class="st1" d="M145.2,137.6c0-2.3-1.2-4.4-3.2-5.6l-53.3-30.7c-0.9-0.5-1.9-0.8-2.9-0.8c-0.1,0-0.5,0-0.6,0
	c-1,0-2,0.3-2.9,0.8L29,132c-2,1.1-3.2,3.3-3.2,5.6l0.1,82.5c0,1.1,0.6,2.2,1.6,2.8c1,0.6,2.2,0.6,3.2,0l31.7-18.1
	c2-1.2,3.2-3.3,3.2-5.6v-38.6c0-2.3,1.2-4.4,3.2-5.6l13.5-7.8c1-0.6,2.1-0.9,3.2-0.9c1.1,0,2.2,0.3,3.2,0.9l13.5,7.8
	c2,1.1,3.2,3.3,3.2,5.6v38.6c0,2.3,1.2,4.4,3.2,5.6l31.6,18.1c1,0.6,2.2,0.6,3.2,0c1-0.6,1.6-1.6,1.6-2.8L145.2,137.6z"/>
<path class="st1" d="M401.5,24.1c-1-0.6-2.2-0.5-3.2,0c-1,0.6-1.6,1.6-1.6,2.8v81.7c0,0.8-0.4,1.5-1.1,1.9c-0.7,0.4-1.6,0.4-2.3,0
	l-13.3-7.7c-2-1.1-4.4-1.1-6.4,0l-53.3,30.7c-2,1.1-3.2,3.3-3.2,5.6v61.5c0,2.3,1.2,4.4,3.2,5.6l53.3,30.8c2,1.1,4.4,1.1,6.4,0
	l53.3-30.8c2-1.2,3.2-3.3,3.2-5.6V47.4c0-2.3-1.3-4.5-3.3-5.6L401.5,24.1z M396.5,180.6c0,0.6-0.3,1.1-0.8,1.4l-18.3,10.5
	c-0.5,0.3-1.1,0.3-1.6,0L357.5,182c-0.5-0.3-0.8-0.8-0.8-1.4v-21.1c0-0.6,0.3-1.1,0.8-1.4l18.3-10.6c0.5-0.3,1.1-0.3,1.6,0
	l18.3,10.6c0.5,0.3,0.8,0.8,0.8,1.4V180.6z"/>
<g>
	<path class="st1" d="M578.9,158.9c2-1.2,3.2-3.3,3.2-5.6v-14.9c0-2.3-1.2-4.4-3.2-5.6l-52.9-30.7c-2-1.2-4.5-1.2-6.4,0l-53.3,30.7
		c-2,1.1-3.2,3.3-3.2,5.6v61.5c0,2.3,1.2,4.4,3.2,5.6l52.9,30.2c2,1.1,4.3,1.1,6.3,0l32-17.8c1-0.6,1.6-1.6,1.7-2.8
		c0-1.2-0.6-2.2-1.6-2.8L504,181.6c-1-0.6-1.6-1.6-1.6-2.8v-19.3c0-1.1,0.6-2.2,1.6-2.8l16.7-9.6c1-0.6,2.2-0.6,3.2,0l16.7,9.6
		c1,0.6,1.6,1.6,1.6,2.8v15.2c0,1.2,0.6,2.2,1.6,2.8c1,0.6,2.2,0.6,3.2,0L578.9,158.9z"/>
	<path class="st1" d="M521.9,156c0.4-0.2,0.9-0.2,1.2,0l10.2,5.9c0.4,0.2,0.6,0.6,0.6,1.1v11.8c0,0.4-0.2,0.8-0.6,1.1l-10.2,5.9
		c-0.4,0.2-0.9,0.2-1.2,0l-10.2-5.9c-0.4-0.2-0.6-0.6-0.6-1.1V163c0-0.4,0.2-0.8,0.6-1.1L521.9,156z"/>
</g>
<g>
	<linearGradient id="XMLID_2_" gradientUnits="userSpaceOnUse" x1="171.5371" y1="169.329" x2="289.9979" y2="169.329">
		<stop  offset="5.301339e-03" style="stop-color:#FFFFFF"/>
		<stop  offset="0.1938" style="stop-color:#E8E8E8"/>
		<stop  offset="0.5423" style="stop-color:#C2C2C2"/>
		<stop  offset="0.8235" style="stop-color:#ABABAB"/>
		<stop  offset="1" style="stop-color:#A3A3A3"/>
	</linearGradient>
	<path id="XMLID_67_" class="st2" d="M227.6,102.8c2-1.1,4.4-1.1,6.4,0l52.9,30.5c2,1.1,3.2,3.2,3.2,5.5v61c0,2.3-1.2,4.4-3.2,5.5
		L234,235.9c-2,1.1-4.4,1.1-6.4,0l-52.8-30.5c-2-1.1-3.2-3.2-3.2-5.5v-61c0-2.3,1.2-4.4,3.2-5.5L227.6,102.8z"/>
	<g>
		<defs>
			<path id="XMLID_64_" d="M234,102.8c-2-1.1-4.4-1.1-6.4,0l-52.9,30.5c-2,1.1-3.2,3.2-3.2,5.5v61c0,2.3,1.2,4.4,3.2,5.5l52.9,30.5
				c2,1.1,4.4,1.1,6.4,0l52.8-30.5c2-1.1,3.2-3.2,3.2-5.5v-61c0-2.3-1.2-4.4-3.2-5.5L234,102.8z"/>
		</defs>
		<clipPath id="XMLID_4_">
			<use xlink:href="#XMLID_64_"  style="overflow:visible;"/>
		</clipPath>
		<g class="st3">
			<path class="st4" d="M227.5,102.8l-53,30.5c-2,1.1-3.5,3.2-3.5,5.5v61c0,1.5,0.7,2.9,1.6,4l59.5-101.7
				C230.6,101.7,229,101.9,227.5,102.8z"/>
			<path class="st4" d="M232.6,236.4c0.4-0.1,0.8-0.3,1.2-0.5l52.5-30.5c2-1.1,2.7-3.2,2.7-5.5v-61c0-1.5-0.2-3-1.1-4.1L232.6,236.4
				z"/>
			<path class="st5" d="M286.5,133.3l-52.6-30.5c-0.5-0.3-1.1-0.5-1.7-0.7l-59.5,101.7c0.5,0.6,1.1,1.1,1.8,1.5l52.9,30.5
				c1.6,0.9,3.4,1.1,5.1,0.5l55.6-101.7C287.7,134.1,287.2,133.6,286.5,133.3z"/>
		</g>
		<g class="st3">
			<path class="st4" d="M175.2,132.9l-0.7,0.3c-2,1.1-3.5,3.2-3.5,5.5v61c0,2.3,1.5,4.4,3.4,5.5l53,30.5c1.4,0.8,3.1,1,4.6,0.7
				L175.2,132.9z"/>
			<path class="st4" d="M289,138.8c0-2.3-0.7-4.4-2.7-5.5l-52.5-30.5c-0.5-0.3-1.1-0.5-1.7-0.6l56.9,97.4V138.8z"/>
			<linearGradient id="SVGID_1_" gradientUnits="userSpaceOnUse" x1="170.6733" y1="169.2421" x2="292.411" y2="169.2421">
				<stop  offset="0" style="stop-color:#A3A3A3"/>
				<stop  offset="0.1765" style="stop-color:#ABABAB"/>
				<stop  offset="0.4577" style="stop-color:#C2C2C2"/>
				<stop  offset="0.8062" style="stop-color:#E8E8E8"/>
				<stop  offset="0.9947" style="stop-color:#FFFFFF"/>
			</linearGradient>
			<path class="st6" d="M233.8,235.9l52.5-30.5c2-1.1,2.7-3.2,2.7-5.5v-0.2l-56.8-97.4c-1.6-0.5-3.3-0.3-4.8,0.6l-52.2,30.2
				l56.9,103.7C232.7,236.4,233.3,236.2,233.8,235.9z"/>
		</g>
	</g>
</g>
</svg>
