<svg id="Layer_1" data-name="Layer 1" xmlns="http://www.w3.org/2000/svg" viewBox="0 0 251.67 189.47"><defs><style>.cls-1,.cls-5{fill:#0f1b34;}.cls-2,.cls-4{fill:#fff;}.cls-3{fill:none;stroke-width:0.62px;}.cls-3,.cls-4,.cls-5{stroke:#0f1b34;}.cls-4,.cls-5{stroke-miterlimit:10;}.cls-5{stroke-width:0.31px;}</style></defs><title>oauth.svg</title><path class="cls-1" d="M120.26,1.91c41.25-2.86,68.6,17.33,84.24,41.92,7.84,12.33,15.53,31.06,15.57,50.3a94.56,94.56,0,0,1-15.57,52.3c-9.08,13.65-20.82,24.93-35.53,32.34-24.58,12.38-58.94,12.72-81.44.8C62.46,166.29,43.2,147.35,36,114.49c-2.87-13.15-3.2-30.14.8-44.71a102,102,0,0,1,4-10.38A91,91,0,0,1,72,19.48a108.23,108.23,0,0,1,18-10.38C97.21,5.87,109.48,2.66,120.26,1.91Z"/><path class="cls-2" d="M198.51,96.46a70.59,70.59,0,1,1-70.59-70.59A70.58,70.58,0,0,1,198.51,96.46Z"/><path class="cls-2" d="M120.26,1.91c41.25-2.86,68.6,17.33,84.24,41.92,7.84,12.33,15.53,31.06,15.57,50.3a94.56,94.56,0,0,1-15.57,52.3c-9.08,13.65-20.82,24.93-35.53,32.34-24.58,12.38-58.94,12.72-81.44.8C62.46,166.29,43.2,147.35,36,114.49c-2.87-13.15-3.2-30.14.8-44.71a102,102,0,0,1,4-10.38A91,91,0,0,1,72,19.48a108.23,108.23,0,0,1,18-10.38C97.21,5.87,109.48,2.66,120.26,1.91Zm-14,6.79C91,12.67,79.74,19.79,70,27.46,55.87,38.53,46.88,54,41.62,72.57c-5.86,20.69-2.09,45.74,6,61.48,8.38,16.33,19.64,29,35.53,37.93A90.24,90.24,0,0,0,143,182c20.14-3.8,35.44-12.58,47.91-25.55,16.68-17.36,30.08-49.33,21.16-83-2.38-9-5.5-18.4-10.38-26.35-2.64-4.29-6.5-8.52-10.38-12.78C176.7,18.19,153.06,4.34,122.66,6.3A84.37,84.37,0,0,0,106.29,8.7Z"/><line class="cls-3" x1="132.19" y1="181.11" x2="213.75" y2="99.55"/><line class="cls-3" x1="125.06" y1="174.65" x2="206.98" y2="92.73"/><line class="cls-3" x1="117.93" y1="168.19" x2="200.2" y2="85.92"/><line class="cls-3" x1="110.8" y1="161.73" x2="193.43" y2="79.1"/><line class="cls-3" x1="103.67" y1="155.27" x2="186.65" y2="72.29"/><line class="cls-3" x1="96.53" y1="148.81" x2="179.88" y2="65.47"/><line class="cls-3" x1="89.4" y1="142.36" x2="173.11" y2="58.65"/><line class="cls-3" x1="82.27" y1="135.9" x2="166.33" y2="51.84"/><line class="cls-3" x1="75.14" y1="129.44" x2="159.56" y2="45.02"/><line class="cls-3" x1="68.01" y1="122.98" x2="152.78" y2="38.21"/><line class="cls-3" x1="60.88" y1="116.52" x2="146.01" y2="31.39"/><line class="cls-3" x1="53.75" y1="110.06" x2="139.23" y2="24.58"/><line class="cls-3" x1="46.62" y1="103.6" x2="132.46" y2="17.76"/><line class="cls-3" x1="39.49" y1="97.14" x2="125.68" y2="10.95"/><line class="cls-3" x1="39.46" y1="97.96" x2="122.66" y2="181.16"/><line class="cls-3" x1="46.21" y1="91.12" x2="129.57" y2="174.48"/><line class="cls-3" x1="52.95" y1="84.28" x2="136.47" y2="167.8"/><line class="cls-3" x1="59.7" y1="77.43" x2="143.38" y2="161.12"/><line class="cls-3" x1="66.45" y1="70.59" x2="150.29" y2="154.44"/><line class="cls-3" x1="73.19" y1="63.75" x2="157.2" y2="147.76"/><line class="cls-3" x1="79.94" y1="56.91" x2="164.11" y2="141.08"/><line class="cls-3" x1="86.69" y1="50.06" x2="171.02" y2="134.39"/><line class="cls-3" x1="93.43" y1="43.22" x2="177.93" y2="127.71"/><line class="cls-3" x1="100.18" y1="36.38" x2="184.83" y2="121.03"/><line class="cls-3" x1="106.93" y1="29.53" x2="191.74" y2="114.35"/><line class="cls-3" x1="113.67" y1="22.69" x2="198.65" y2="107.67"/><line class="cls-3" x1="120.42" y1="15.85" x2="205.56" y2="100.99"/><line class="cls-3" x1="127.17" y1="9" x2="212.47" y2="94.3"/><path class="cls-2" d="M186.53,34.65a76.36,76.36,0,0,0-27.15-18c-11.17-4.16-23.82-7.66-38.72-6.39-23.75,2-40.42,12.68-53.1,25.15a82.8,82.8,0,0,0-20,31.94,86.17,86.17,0,0,0,1.2,58.69,82.47,82.47,0,0,0,30.74,38.72,84.6,84.6,0,0,0,54.69,14.77c26.53-2.24,45.95-15.85,58.69-31.54,3.26-4,6.5-8.55,8.38-14,1.84-3.91,2.75-6.57,3.59-8a72.58,72.58,0,0,0,6-25.55C212.66,72.05,201.7,49.81,186.53,34.65Zm-7.82,86.73-.15.32a32.43,32.43,0,0,1-5.86,9.7c-8.91,10.89-22.49,20.34-41,21.9A59.48,59.48,0,0,1,93.41,143a57.47,57.47,0,0,1-18.83-21c-.27-.51-2.81-6.36-2.82-6.62C68.3,104.64,68,87.34,71.56,77A61.86,61.86,0,0,1,83.13,56.6c7.24-8.2,14.48-13.45,25.95-17.17,5.24-1.7,9.92-3.42,16.37-3.59,15.72-.42,31.73,6.64,40.32,14.37,7.9,7.11,16.9,20.95,19.16,33.93A56.19,56.19,0,0,1,178.71,121.38Z"/><path class="cls-4" d="M151.39,134.2a8.85,8.85,0,0,1-8.45-6.1L138.63,115H117.06l-4,13a9,9,0,0,1-17.15-5.38l18.2-57.66a9,9,0,0,1,8.46-6.23h9.68a9,9,0,0,1,8.46,6.12l19.15,57.64a8.94,8.94,0,0,1-5.65,11.28,9.13,9.13,0,0,1-2.82.45Z"/><path class="cls-5" d="M132.26,59.64a8,8,0,0,1,7.57,5.47L159,122.76a8,8,0,0,1-5.05,10.1,8.2,8.2,0,0,1-2.53.4,7.91,7.91,0,0,1-7.56-5.45L139.3,114H116.37l-4.21,13.68a8.05,8.05,0,0,1-15.36-4.84L115,65.22a8,8,0,0,1,7.57-5.57h9.68m0-1.87h-9.68a9.82,9.82,0,0,0-9.35,6.87L95,122.31h0a9.92,9.92,0,0,0,18.92,6h0l3.8-12.36H138l4.1,12.5a9.77,9.77,0,0,0,9.34,6.74,10.06,10.06,0,0,0,3.11-.49,9.87,9.87,0,0,0,6.25-12.45L141.6,64.53a9.9,9.9,0,0,0-9.35-6.75Z"/><path class="cls-1" d="M79.9,40.33l0,0a7.23,7.23,0,0,1,11.65-8.55l0,0A7.23,7.23,0,0,1,79.9,40.33Zm8.61-6.28,0,0a3.49,3.49,0,0,0-4.92-.89A3.42,3.42,0,0,0,82.93,38l0,0a3.48,3.48,0,0,0,4.91.9A3.42,3.42,0,0,0,88.5,34.05Z"/><path class="cls-1" d="M101.79,19.94l3.41-1.09L114.76,30,111,31.18l-1.66-2-4.93,1.58-.18,2.57-3.72,1.19Zm5.61,6.83-2.59-3.17-.28,4.09Z"/><path class="cls-1" d="M120.91,23.29l0-7.53h3.77l0,7.45c0,1.94,1,2.86,2.46,2.87s2.48-.87,2.48-2.75l0-7.55h3.77l0,7.44c0,4.33-2.5,6.22-6.31,6.2S120.89,27.48,120.91,23.29Z"/><path class="cls-1" d="M147.06,22l-3.85-1.17,1-3.12,11.25,3.43-1,3.12-3.85-1.17-3,9.71-3.56-1.08Z"/><path class="cls-1" d="M165.47,25.46l3.09,2.06-2.78,4.18,4,2.64,2.78-4.18,3.09,2.06L168.2,43.39l-3.1-2.06,2.82-4.24-4-2.64-2.82,4.24L158,36.63Z"/><path class="cls-1" d="M176.66,149.14l0,0a7.23,7.23,0,0,1-11.52,8.72l0,0a7.23,7.23,0,0,1,11.52-8.72Zm-8.51,6.41,0,0a3.49,3.49,0,0,0,4.93.82,3.42,3.42,0,0,0,.55-4.9l0,0a3.48,3.48,0,0,0-4.92-.83A3.42,3.42,0,0,0,168.15,155.55Z"/><path class="cls-1" d="M155.08,169.87,151.69,171,142,160l3.78-1.28,1.69,2,4.9-1.66.14-2.58,3.7-1.25Zm-5.72-6.75,2.64,3.13.21-4.1Z"/><path class="cls-1" d="M135.91,166.81l.08,7.53-3.77,0-.08-7.45c0-1.94-1-2.84-2.5-2.83s-2.46.91-2.44,2.79l.08,7.55-3.77,0-.08-7.43c0-4.33,2.4-6.26,6.21-6.3S135.86,162.62,135.91,166.81Z"/><path class="cls-1" d="M109.78,168.53l3.87,1.12-.9,3.13-11.3-3.26.9-3.13,3.87,1.12,2.82-9.76,3.57,1Z"/><path class="cls-1" d="M91.32,165.31l-3.13-2,2.72-4.22-4-2.58-2.72,4.22-3.13-2,7.26-11.28,3.13,2-2.76,4.29,4,2.58L95.46,152l3.13,2Z"/></svg>