<?xml version="1.0" encoding="utf-8"?>
<!-- Generator: Adobe Illustrator 20.1.0, SVG Export Plug-In . SVG Version: 6.00 Build 0)  -->
<svg version="1.1" id="Layer_1" xmlns="http://www.w3.org/2000/svg" xmlns:xlink="http://www.w3.org/1999/xlink" x="0px" y="0px"
	 viewBox="0 0 598.5 599.8" style="enable-background:new 0 0 598.5 599.8;" xml:space="preserve">
<style type="text/css">
	.st0{fill:#FFFFFF;}
	.st1{fill:none;stroke:#FFFFFF;stroke-width:2;}
	.st2{fill:#FFFFFF;stroke:#000000;stroke-width:6;}
	.st3{fill:none;stroke:#FFFFFF;stroke-width:1.7316;}
	.st4{fill:none;stroke:#FFFFFF;stroke-width:1.9258;}
	.st5{fill:none;stroke:#FFFFFF;stroke-width:1.9521;}
	.st6{fill:none;stroke:#FFFFFF;stroke-width:1.932;}
	.st7{fill:none;stroke:#FFFFFF;stroke-width:1.7582;}
	.st8{fill:none;stroke:#FFFFFF;stroke-width:1.783;}
	.st9{fill:none;stroke:#FFFFFF;stroke-width:1.8954;}
	.st10{fill:none;stroke:#FFFFFF;stroke-width:1.966;}
	.st11{fill:none;stroke:#FFFFFF;stroke-width:1.9583;}
	.st12{fill:#FFFFFF;stroke:#FFFFFF;stroke-width:6;}
</style>
<g transform="translate(0,35.625)">
	<path class="st0" d="M509.9,574.8c118.5-8.2,197.1,49.8,242,120.4c22.5,35.4,44.6,89.2,44.7,144.5c0.1,60.1-19.3,112.1-44.7,150.2
		c-26.1,39.2-59.8,71.6-102.1,92.9c-70.6,35.6-169.3,36.5-234,2.3c-72-38.1-127.3-92.6-147.9-186.9c-8.2-37.8-9.2-86.6,2.3-128.4
		c2.7-9.8,7.6-20.2,11.5-29.8c18.6-46.4,50.3-86.8,89.5-114.7c15.7-11.2,34.8-22.4,51.6-29.8C443.7,586.2,478.9,576.9,509.9,574.8z"
		/>
	<path d="M734.6,846.4c0,112-90.8,202.8-202.8,202.8s-202.8-90.8-202.8-202.8c0-112,90.8-202.8,202.8-202.8
		C643.9,643.6,734.6,734.4,734.6,846.4z"/>
	<path d="M509.9,574.8c118.5-8.2,197.1,49.8,242,120.4c22.5,35.4,44.6,89.2,44.7,144.5c0.1,60.1-19.3,112.1-44.7,150.2
		c-26.1,39.2-59.8,71.6-102.1,92.9c-70.6,35.6-169.3,36.5-234,2.3c-72-38.1-127.3-92.6-147.9-186.9c-8.2-37.8-9.2-86.6,2.3-128.4
		c2.7-9.8,7.6-20.2,11.5-29.8c18.6-46.4,50.3-86.8,89.5-114.7c15.7-11.2,34.8-22.4,51.6-29.8C443.7,586.2,478.9,576.9,509.9,574.8z
		 M469.7,594.3c-44,11.4-76.3,31.9-104.4,53.9c-40.5,31.8-66.3,76.2-81.4,129.6c-16.8,59.4-6,131.4,17.2,176.6
		c24.1,46.9,56.4,83.3,102.1,108.9c44.4,24.9,106.9,41,172,28.7c57.9-10.9,101.8-36.1,137.6-73.4c47.9-49.9,86.4-141.7,60.8-238.5
		c-6.8-25.9-15.8-52.9-29.8-75.7c-7.6-12.3-18.7-24.5-29.8-36.7c-42-46.1-109.9-85.9-197.3-80.3
		C500.1,588.5,485.5,590.2,469.7,594.3z"/>
	<g id="hashpattern">
		<g>
			<line class="st1" x1="544.1" y1="1089.6" x2="778.4" y2="855.3"/>
			<line class="st1" x1="523.7" y1="1071" x2="759" y2="835.7"/>
			<line class="st1" x1="503.2" y1="1052.5" x2="739.5" y2="816.1"/>
			<line class="st1" x1="482.7" y1="1033.9" x2="720.1" y2="796.5"/>
			<line class="st1" x1="462.2" y1="1015.4" x2="700.6" y2="777"/>
			<line class="st1" x1="441.7" y1="996.8" x2="681.1" y2="757.4"/>
			<line class="st1" x1="421.2" y1="978.2" x2="661.7" y2="737.8"/>
			<line class="st1" x1="400.7" y1="959.7" x2="642.2" y2="718.2"/>
			<line class="st1" x1="380.3" y1="941.1" x2="622.7" y2="698.6"/>
			<line class="st1" x1="359.8" y1="922.6" x2="603.3" y2="679.1"/>
			<line class="st1" x1="339.3" y1="904" x2="583.8" y2="659.5"/>
			<line class="st1" x1="318.8" y1="885.5" x2="564.4" y2="639.9"/>
			<line class="st1" x1="298.3" y1="866.9" x2="544.9" y2="620.3"/>
			<line class="st1" x1="277.8" y1="848.4" x2="525.4" y2="600.8"/>
		</g>
		<g>
			<line class="st1" x1="277.8" y1="850.7" x2="516.8" y2="1089.7"/>
			<line class="st1" x1="297.1" y1="831.1" x2="536.6" y2="1070.5"/>
			<line class="st1" x1="316.5" y1="811.4" x2="556.4" y2="1051.3"/>
			<line class="st1" x1="335.9" y1="791.8" x2="576.3" y2="1032.1"/>
			<line class="st1" x1="355.3" y1="772.1" x2="596.1" y2="1013"/>
			<line class="st1" x1="374.7" y1="752.4" x2="616" y2="993.8"/>
			<line class="st1" x1="394.1" y1="732.8" x2="635.8" y2="974.6"/>
			<line class="st1" x1="413.4" y1="713.1" x2="655.7" y2="955.4"/>
			<line class="st1" x1="432.8" y1="693.5" x2="675.5" y2="936.2"/>
			<line class="st1" x1="452.2" y1="673.8" x2="695.4" y2="917"/>
			<line class="st1" x1="471.6" y1="654.1" x2="715.2" y2="897.8"/>
			<line class="st1" x1="491" y1="634.5" x2="735.1" y2="878.6"/>
			<line class="st1" x1="510.3" y1="614.8" x2="754.9" y2="859.4"/>
			<line class="st1" x1="529.7" y1="595.2" x2="774.8" y2="840.2"/>
		</g>
	</g>
	<path d="M700.2,668.8c-21.1-21.1-47-40.1-78-51.6c-32.1-11.9-68.4-22-111.2-18.3c-68.2,5.8-116.1,36.4-152.5,72.3
		c-25.5,25.1-44.7,55.8-57.3,91.7c-18.6,52.7-17.5,114.9,3.4,168.6c17.8,45.8,47,82.7,88.3,111.2c38.8,26.9,94.5,47.7,157.1,42.4
		c76.2-6.4,132-45.5,168.6-90.6c9.4-11.5,18.7-24.6,24.1-40.1c5.3-11.2,7.9-18.9,10.3-22.9c10.2-22.8,15.5-46.8,17.2-73.4
		C775.3,776.3,743.8,712.4,700.2,668.8z M677.8,918c-0.1,0.3-0.3,0.6-0.4,0.9c-3.8,10.8-10.3,19.9-16.8,27.9
		c-25.6,31.3-64.6,58.4-117.9,62.9c-43.8,3.7-82.7-10.8-109.9-29.5c-23.6-16.2-41.5-36.3-54.1-60.4c-0.8-1.5-8.1-18.3-8.1-19
		c-10-30.9-10.8-80.6-0.6-110.4c6.8-19.9,18.2-41.4,33.3-58.5c20.8-23.6,41.6-38.6,74.5-49.3c15-4.9,28.5-9.8,47-10.3
		c45.2-1.2,91.1,19.1,115.8,41.3c22.7,20.4,48.5,60.2,55,97.5C702.4,849.4,695.2,886.9,677.8,918z"/>
	<path class="st2" d="M599.3,954.8c-11.1,0-20.9-7-24.3-17.5l-12.4-37.7h-62L489.2,937c-3.5,10.7-13.3,17.8-24.5,17.8
		c-2.7,0-5.3-0.4-7.9-1.3c-13.4-4-20.9-18.4-16.9-32l52.3-165.6c3.4-10.5,13.4-17.9,24.3-17.9h27.8c11,0,21,7.2,24.3,17.6l55,165.6
		c4.4,13.5-2.9,28.1-16.2,32.4C604.8,954.4,602,954.8,599.3,954.8L599.3,954.8z"/>
	<g id="OAUTH">
		<g>
			<path class="st0" d="M393.9,685.2L393.9,685.2c-6.6-9-4.7-21.5,4.9-28.5c9.6-7,21.9-5,28.5,3.9l0.1,0.1c6.5,8.9,4.6,21.4-5,28.4
				C412.8,696.1,400.4,694.1,393.9,685.2z M418.6,667.1L418.6,667.1c-3.3-4.6-9.4-6.1-14.2-2.7c-4.7,3.4-5.1,9.6-1.8,14.1l0.1,0.1
				c3.3,4.5,9.4,6,14.1,2.6C421.6,677.7,421.9,671.6,418.6,667.1z"/>
			<path class="st0" d="M456.8,626.6l9.8-3.1l27.5,31.9l-10.9,3.5l-4.8-5.7l-14.2,4.5l-0.5,7.4l-10.7,3.4L456.8,626.6z M472.9,646.2
				l-7.4-9.1l-0.8,11.8L472.9,646.2z"/>
			<path class="st0" d="M511.7,636.2l0.1-21.6l10.8,0l-0.1,21.4c0,5.6,2.8,8.2,7.1,8.2c4.3,0,7.1-2.5,7.1-7.9l0.1-21.7l10.8,0
				l-0.1,21.4c0,12.4-7.2,17.9-18.1,17.8C518.5,653.8,511.7,648.3,511.7,636.2z"/>
			<path class="st0" d="M586.9,632.4l-11.1-3.4l2.7-8.9l32.3,9.9l-2.7,8.9l-11.1-3.4l-8.5,27.9l-10.2-3.1L586.9,632.4z"/>
			<path class="st0" d="M639.7,642.5l8.9,5.9l-8,12l11.4,7.6l8-12l8.9,5.9L647.6,694l-8.9-5.9l8.1-12.2l-11.4-7.6l-8.1,12.2
				l-8.9-5.9L639.7,642.5z"/>
		</g>
		<g>
			<path class="st0" d="M671.1,993.1L671.1,993.1c6.9,8.8,5.5,21.3-3.8,28.7c-9.3,7.4-21.7,5.9-28.6-2.8l-0.1-0.1
				c-6.9-8.7-5.4-21.3,3.9-28.6C651.9,982.9,664.3,984.4,671.1,993.1z M647.1,1012.1L647.1,1012.1c3.5,4.4,9.7,5.8,14.3,2.1
				c4.6-3.6,4.7-9.8,1.3-14.1l-0.1-0.1c-3.4-4.4-9.6-5.7-14.2-2.1C643.8,1001.6,643.7,1007.7,647.1,1012.1z"/>
			<path class="st0" d="M610.9,1054.2l-9.7,3.6l-28.9-30.7l10.7-4l5,5.5l13.9-5.2l0.2-7.4l10.5-3.9L610.9,1054.2z M593.9,1035.3
				l7.8,8.8l0.3-11.8L593.9,1035.3z"/>
			<path class="st0" d="M555.6,1046.8l1,21.6l-10.8,0.5l-0.9-21.4c-0.2-5.6-3.2-8.1-7.5-7.9c-4.3,0.2-7,2.8-6.7,8.2l1,21.7
				l-10.8,0.5l-0.9-21.3c-0.5-12.4,6.3-18.2,17.2-18.7C548,1029.5,555.1,1034.8,555.6,1046.8z"/>
			<path class="st0" d="M480.3,1053.9l11.2,3l-2.4,9l-32.6-8.8l2.4-9l11.2,3l7.6-28.2l10.3,2.8L480.3,1053.9z"/>
			<path class="st0" d="M427.6,1046.1l-9.2-5.5l7.4-12.4l-11.8-7l-7.4,12.4l-9.2-5.5l19.8-33.1l9.2,5.5l-7.5,12.6l11.8,7l7.5-12.6
				l9.2,5.5L427.6,1046.1z"/>
		</g>
	</g>
</g>
<path class="st0" d="M1790,425.8c118.5-8.2,197.1,49.8,242,120.4c22.5,35.4,44.6,89.2,44.7,144.5c0.1,60.1-19.3,112.1-44.7,150.2
	c-26.1,39.2-59.8,71.6-102.1,92.9c-70.6,35.6-169.3,36.5-234,2.3c-72-38.1-127.3-92.6-147.9-186.9c-8.2-37.8-9.2-86.6,2.3-128.4
	c2.7-9.8,7.6-20.2,11.5-29.8c18.6-46.4,50.3-86.8,89.5-114.7c15.7-11.2,34.8-22.4,51.6-29.8C1723.8,437.2,1759,427.9,1790,425.8z"/>
<path d="M1735.2,166.5c0,112-90.8,202.8-202.8,202.8s-202.8-90.8-202.8-202.8c0-112,90.8-202.8,202.8-202.8
	C1644.4-36.3,1735.2,54.5,1735.2,166.5z"/>
<path class="st0" d="M277.9,47.2C396.4,39,475,97,519.9,167.7c22.5,35.4,44.6,89.2,44.7,144.5c0.1,60.1-19.3,112.1-44.7,150.2
	c-26.1,39.2-59.8,71.6-102.1,92.9c-70.6,35.6-169.3,36.5-234,2.3c-72-38.1-127.3-92.6-147.9-186.9c-8.2-37.8-9.2-86.6,2.3-128.4
	c2.7-9.8,7.6-20.2,11.5-29.8C68.3,166,100,125.6,139.1,97.7c15.7-11.2,34.8-22.4,51.6-29.8C211.7,58.6,246.9,49.4,277.9,47.2z
	 M237.8,66.7c-44,11.4-76.3,31.9-104.4,53.9C92.9,152.4,67.1,196.8,52,250.2c-16.8,59.4-6,131.4,17.2,176.6
	c24.1,46.9,56.4,83.3,102.1,108.9c44.4,24.9,106.9,41,172,28.7c57.9-10.9,101.8-36.1,137.6-73.4c47.9-49.9,86.4-141.7,60.8-238.5
	c-6.8-25.9-15.8-52.9-29.8-75.7c-7.6-12.3-18.7-24.5-29.8-36.7C440,94,372.1,54.2,284.8,59.9C268.2,60.9,253.6,62.6,237.8,66.7z"/>
<line class="st3" x1="323" y1="507.6" x2="526.7" y2="303.8"/>
<line class="st1" x1="270.9" y1="520.6" x2="507.3" y2="284.3"/>
<line class="st4" x1="259.3" y1="493.2" x2="487.8" y2="264.7"/>
<line class="st1" x1="230" y1="483.5" x2="468.4" y2="245.1"/>
<line class="st1" x1="209.5" y1="464.9" x2="448.9" y2="225.5"/>
<line class="st1" x1="189" y1="446.4" x2="429.4" y2="206"/>
<line class="st1" x1="168.5" y1="427.8" x2="410" y2="186.4"/>
<line class="st1" x1="148" y1="409.3" x2="390.5" y2="166.8"/>
<line class="st1" x1="127.5" y1="390.7" x2="371.1" y2="147.2"/>
<line class="st5" x1="107.1" y1="372.2" x2="345.7" y2="133.5"/>
<line class="st1" x1="86.6" y1="353.6" x2="332.1" y2="108.1"/>
<path class="st1" d="M-98.3,688.2"/>
<line class="st6" x1="66.1" y1="335.1" x2="279.5" y2="121.7"/>
<line class="st7" x1="64.9" y1="299.2" x2="275.4" y2="509.7"/>
<line class="st8" x1="84.3" y1="279.6" x2="298.2" y2="493.5"/>
<line class="st9" x1="103.7" y1="259.9" x2="331.5" y2="487.7"/>
<line class="st1" x1="123.1" y1="240.2" x2="363.9" y2="481.1"/>
<line class="st1" x1="142.4" y1="220.6" x2="383.8" y2="461.9"/>
<line class="st1" x1="161.8" y1="200.9" x2="403.6" y2="442.7"/>
<line class="st1" x1="181.2" y1="181.3" x2="423.4" y2="423.5"/>
<line class="st1" x1="200.6" y1="161.6" x2="443.3" y2="404.3"/>
<line class="st1" x1="220" y1="142" x2="463.1" y2="385.1"/>
<line class="st10" x1="243.5" y1="126.4" x2="483" y2="365.9"/>
<line class="st1" x1="258.7" y1="102.6" x2="502.8" y2="346.7"/>
<line class="st11" x1="313.7" y1="118.6" x2="522.7" y2="327.6"/>
<path class="st12" d="M367.1,423c-11.1,0-20.9-7-24.3-17.5l-12.4-37.7h-62l-11.5,37.4c-3.5,10.7-13.3,17.8-24.5,17.8
	c-2.7,0-5.3-0.4-7.9-1.3c-13.4-4-20.9-18.4-16.9-32L260,224c3.4-10.5,13.4-17.9,24.3-17.9h27.8c11,0,21,7.2,24.3,17.6l55,165.6
	c4.4,13.5-2.9,28.1-16.2,32.4C372.5,422.5,369.8,423,367.1,423L367.1,423z"/>
<g>
	<polygon class="st0" points="368.5,515.2 368.8,503.4 360.7,506.4 	"/>
	<path class="st0" d="M169.5,149.8c3.3,4.5,9.4,6,14.1,2.6c4.8-3.5,5.1-9.6,1.8-14.1l-0.1-0.1c-3.3-4.5-9.4-6-14.1-2.6
		C166.5,139.1,166.1,145.2,169.5,149.8L169.5,149.8z"/>
	<path class="st0" d="M467,140c-21.1-21.1-47-40.1-78-51.6c-32.1-11.9-68.4-22-111.2-18.3c-68.2,5.8-116.1,36.4-152.5,72.3
		c-25.5,25.1-44.7,55.8-57.3,91.7C49.3,286.7,50.5,349,71.4,402.6c17.8,45.8,47,82.7,88.3,111.2c38.8,26.9,94.5,47.7,157.1,42.4
		c76.2-6.4,132-45.5,168.6-90.6c9.4-11.5,18.7-24.6,24.1-40.1c5.3-11.2,7.9-18.9,10.3-22.9c10.2-22.8,15.5-46.8,17.2-73.4
		C542.1,247.4,510.6,183.6,467,140z M406.5,113.6l8.9,5.9l-8,12l11.4,7.6l8-12l8.9,5.9l-21.3,32.1l-8.9-5.9l8.1-12.2l-11.4-7.6
		l-8.1,12.2l-8.9-5.9L406.5,113.6z M345.3,91.2l32.3,9.9l-2.7,8.9l-11.1-3.4l-8.5,27.9l-10.2-3.1l8.5-27.9l-11.1-3.4L345.3,91.2z
		 M278.6,85.7l10.8,0l-0.1,21.4c0,5.6,2.8,8.2,7.1,8.2c4.3,0,7.1-2.5,7.1-7.9l0.1-21.7l10.8,0l-0.1,21.4c0,12.4-7.2,17.9-18.1,17.8
		c-11,0-17.8-5.6-17.8-17.7L278.6,85.7z M223.6,97.7l9.8-3.1l27.5,31.9l-10.9,3.5l-4.8-5.7l-14.2,4.5l-0.5,7.4l-10.7,3.4L223.6,97.7
		z M165.6,127.8c9.6-7,21.9-5,28.5,3.9l0.1,0.1c6.5,8.9,4.6,21.4-5,28.4c-9.6,7-21.9,5-28.5-3.9l-0.1-0.1
		C154.1,147.3,156,134.8,165.6,127.8z M194.3,517.2l-9.2-5.5l7.4-12.4l-11.8-7l-7.4,12.4l-9.2-5.5l19.8-33.1l9.2,5.5l-7.5,12.6
		l11.8,7l7.5-12.6l9.2,5.5L194.3,517.2z M255.8,537.1l-32.6-8.8l2.4-9l11.2,3l7.6-28.2l10.3,2.8l-7.6,28.2l11.2,3L255.8,537.1z
		 M312.5,540.1l-0.9-21.4c-0.2-5.6-3.2-8.1-7.5-7.9c-4.3,0.2-7,2.8-6.7,8.2l1,21.7l-10.8,0.5l-0.9-21.3
		c-0.5-12.4,6.3-18.2,17.2-18.7c10.9-0.5,18.1,4.8,18.6,16.8l1,21.6L312.5,540.1z M377.6,525.3l-9.7,3.6l-28.9-30.7l10.7-4l5,5.5
		l13.9-5.2l0.2-7.4l10.5-3.9L377.6,525.3z M434.1,493c-9.3,7.4-21.7,5.9-28.6-2.8l-0.1-0.1c-6.9-8.7-5.4-21.3,3.9-28.6
		c9.3-7.4,21.7-5.9,28.6,2.8l0.1,0.1C444.8,473,443.4,485.6,434.1,493z M444.6,389.1c-0.1,0.3-0.3,0.6-0.4,0.9
		c-3.8,10.8-10.3,19.9-16.8,27.9c-25.6,31.3-64.6,58.4-117.9,62.9c-43.8,3.7-82.7-10.8-109.9-29.5c-23.6-16.2-41.5-36.3-54.1-60.4
		c-0.8-1.5-8.1-18.3-8.1-19c-10-30.9-10.8-80.6-0.6-110.4c6.8-19.9,18.2-41.4,33.3-58.5c20.8-23.6,41.6-38.6,74.5-49.3
		c15-4.9,28.5-9.8,47-10.3c45.2-1.2,91.1,19.1,115.8,41.3c22.7,20.4,48.5,60.2,55,97.5C469.1,320.6,462,358.1,444.6,389.1z"/>
	<path class="st0" d="M429.4,471.1c-3.4-4.4-9.6-5.7-14.2-2.1c-4.6,3.7-4.8,9.8-1.3,14.2l0.1,0.1c3.4,4.4,9.6,5.7,14.2,2
		C432.8,481.7,432.9,475.6,429.4,471.1L429.4,471.1z"/>
	<polygon class="st0" points="232.3,108.2 231.5,120 239.7,117.4 	"/>
</g>
</svg>
