<svg id="Layer_1" data-name="Layer 1" xmlns="http://www.w3.org/2000/svg" viewBox="0 0 251.67 189.47"><defs><style>.cls-1{fill:#fff;}</style></defs><title>sass.svg</title><path class="cls-1" d="M208.85,106.53a48,48,0,0,0-21.14,4.92c-2.17-4.32-4.36-8.12-4.72-10.95-.43-3.3-.93-5.27-.41-9.2s2.79-9.5,2.76-9.91-.51-2.42-5.21-2.45-8.73.9-9.2,2.15A46.4,46.4,0,0,0,169,88c-.82,4.26-9.39,19.47-14.25,27.43-1.59-3.11-2.94-5.84-3.22-8-.43-3.3-.93-5.27-.41-9.2s2.79-9.5,2.76-9.91-.51-2.42-5.21-2.45-8.73.9-9.2,2.15-1,4.14-1.94,7-12.35,28.18-15.33,34.75c-1.52,3.35-2.84,6-3.78,7.88h0l-.16.33c-.8,1.56-1.27,2.43-1.27,2.43v0c-.63,1.15-1.31,2.22-1.65,2.22s-.71-3.06.1-7.26c1.69-8.8,5.76-22.53,5.72-23,0-.24.76-2.63-2.66-3.88a4.24,4.24,0,0,0-4.8.82c-.29,0-.51.72-.51.72s3.7-15.43-7.05-15.43c-6.72,0-16,7.35-20.62,14-2.89,1.58-9.09,5-15.66,8.57l-7.54,4.15-.5-.55C48.76,106.86,24.66,97,25.68,78.32c.37-6.8,2.73-24.7,46.3-46.41,35.69-17.78,64.26-12.89,69.2-2,7.05,15.5-15.27,44.3-52.33,48.45-14.12,1.58-21.56-3.89-23.41-5.93s-2.24-2.24-3-1.84c-1.18.66-.43,2.55,0,3.68,1.11,2.88,5.65,8,13.39,10.53,6.81,2.23,23.39,3.46,43.44-4.29,22.46-8.69,40-32.85,34.84-53C148.91,6.88,114.85.12,82.61,11.58c-19.19,6.82-40,17.51-54.89,31.48C10,59.67,7.14,74.12,8.3,80.16,12.45,101.62,42,115.6,53.87,126l-1.63.9c-5.94,2.94-28.49,14.74-34.13,27.21-6.4,14.14,1,24.29,5.93,25.66,15.21,4.23,30.82-3.38,39.21-15.89s7.36-28.8,3.51-36.24l-.15-.27,4.65-2.74c3-1.77,6-3.43,8.56-4.83a57.59,57.59,0,0,0-3,15.51c-.64,8,2.65,18.41,7,22.49a7.62,7.62,0,0,0,5.62,1.84c5,0,7.3-4.17,9.81-9.1,3.09-6,5.83-13.08,5.83-13.08s-3.44,19,5.93,19c3.41,0,6.85-4.43,8.38-6.68v0l.26-.44c.35-.54.56-.89.56-.89l0-.1c1.37-2.38,4.41-7.81,9-16.77,5.9-11.57,11.55-26.06,11.55-26.06a77.5,77.5,0,0,0,2.25,9.4c1,3.45,3.17,7.26,4.87,10.91-1.37,1.9-2.21,3-2.21,3l0,.06c-1.09,1.45-2.32,3-3.6,4.54-4.65,5.54-10.19,11.87-10.94,13.7-.87,2.15-.67,3.74,1,5,1.23.93,3.43,1.07,5.72.92a26.09,26.09,0,0,0,8.57-1.95,28.85,28.85,0,0,0,7.37-3.88,16.4,16.4,0,0,0,7.05-14.51,29.43,29.43,0,0,0-2.68-10.26l1.25-1.81a194.81,194.81,0,0,0,12.78-22.08,77.45,77.45,0,0,0,2.25,9.4,65.6,65.6,0,0,0,4.14,9.38c-6.77,5.5-11,11.89-12.42,16.08-2.69,7.75-.58,11.26,3.37,12.06,1.79.36,4.32-.46,6.23-1.27a28.87,28.87,0,0,0,7.88-4c4.56-3.36,9-8.05,8.69-14.41a27.05,27.05,0,0,0-2-8.53c5.74-2.39,13.16-3.72,22.62-2.61,20.29,2.37,24.27,15,23.51,20.34s-5,8.22-6.44,9.1-1.86,1.19-1.74,1.84c.17,1,.83.92,2,.71,1.67-.28,10.65-4.31,11-14.1C241.84,120.07,229.94,106.42,208.85,106.53ZM52.46,159.26c-6.72,7.33-16.11,10.1-20.14,7.77-4.35-2.52-2.63-13.31,5.62-21.09a106.73,106.73,0,0,1,15.82-11.8l4.17-2.5.45-.26h0l1-.62C62.42,141.81,59.51,151.56,52.46,159.26Zm49-33.28c-2.34,5.71-7.24,20.31-10.22,19.52-2.56-.67-4.12-11.77-.51-22.69a50.6,50.6,0,0,1,8-14.62c3.67-4.1,7.71-5.45,8.69-3.78C108.6,106.53,102.88,122.4,101.42,126Zm40.45,19.3c-1,.52-1.9.85-2.32.59s.41-.87.41-.87,5.06-5.44,7.05-7.92c1.16-1.44,2.5-3.15,4-5.07,0,.19,0,.38,0,.57C151,139.1,144.68,143.5,141.87,145.28Zm31.16-7.1c-.74-.53-.62-2.23,1.82-7.53a28.44,28.44,0,0,1,6.93-8.94,12.88,12.88,0,0,1,.7,3.93C182.42,133.83,176.57,136.9,173,138.17Z"/></svg>