<?xml version="1.0" encoding="utf-8"?>
<!-- Generator: Adobe Illustrator 20.1.0, SVG Export Plug-In . SVG Version: 6.00 Build 0)  -->
<svg version="1.1" id="Layer_1" xmlns="http://www.w3.org/2000/svg" xmlns:xlink="http://www.w3.org/1999/xlink" x="0px" y="0px"
	 viewBox="0 0 2500 1992" style="enable-background:new 0 0 2500 1992;" xml:space="preserve">
<style type="text/css">
	.st0{fill:#FFFFFF;}
</style>
<path class="st0" d="M1591.1,397.1c-47.1-47.1-123.5-47.1-170.5,0l-767.5,767.5c-94.2,94.2-246.9,94.2-341.1,0
	c-94.3-94.2-94.3-246.9,0-341.1l752.7-752.7c-94.2-94.2-246.9-94.2-341.1,0L141.4,653c-188.4,188.4-188.4,493.8,0,682.2
	c188.4,188.4,493.8,188.4,682.2,0l767.5-767.5C1638.2,520.6,1638.2,444.2,1591.1,397.1L1591.1,397.1z M1846.9,141.3
	c-188.4-188.4-493.8-188.4-682.2,0L397.2,908.8c-47.1,47.1-47.1,123.5,0,170.6c47.1,47.1,123.4,47.1,170.5,0l767.5-767.4
	c94.2-94.2,246.9-94.2,341,0c47.1,47.1,123.5,47.1,170.6,0C1894,264.7,1894,188.4,1846.9,141.3L1846.9,141.3z M2102.8,908.8
	c-47.1-47-123.5-47-170.6,0l-767.5,767.5c-94.2,94.2-246.9,94.2-341.1,0c-47.1-47.1-123.4-47.1-170.5,0
	c-47.2,47.1-47.2,123.5,0,170.5c188.3,188.4,493.8,188.4,682.2,0l767.5-767.4C2149.8,1032.3,2149.8,955.8,2102.8,908.8L2102.8,908.8
	z M2358.6,653c-188.4-188.4-493.9-188.4-682.2,0l-767.5,767.5c-47.1,47-47.1,123.5,0,170.5c47.1,47.1,123.5,47.1,170.6,0
	l767.5-767.5c94.2-94.2,246.9-94.2,341.1,0c94.2,94.2,94.2,246.9,0,341.1l-752.7,752.7c94.2,94.2,246.9,94.2,341.1,0l582.2-582.2
	C2547,1146.7,2547,841.4,2358.6,653L2358.6,653z"/>
</svg>
