<?xml version="1.0" encoding="utf-8"?>
<!-- Generator: Adobe Illustrator 20.1.0, SVG Export Plug-In . SVG Version: 6.00 Build 0)  -->
<svg version="1.1" id="Layer_1" xmlns="http://www.w3.org/2000/svg" xmlns:xlink="http://www.w3.org/1999/xlink" x="0px" y="0px"
	 viewBox="0 0 1191.5 2622.3" style="enable-background:new 0 0 1191.5 2622.3;" xml:space="preserve">
<style type="text/css">
	.st0{fill:#F39237;}
	.st1{fill:#3A8695;}
	.st2{fill:none;stroke:#231F20;stroke-width:1.1329;stroke-miterlimit:10;}
	.st3{fill:none;stroke:#231F20;stroke-width:1.1345;stroke-miterlimit:10;}
	.st4{fill:#FFFFFF;}
	.st5{font-family:'RobotoCondensed-Light';}
	.st6{font-size:101.5968px;}
	.st7{fill:none;stroke:#000000;stroke-width:1.8211;stroke-miterlimit:10;}
	.st8{fill:none;stroke:#F39237;stroke-width:3.2404;stroke-miterlimit:10;}
	.st9{fill:none;stroke:#FFFFFF;stroke-width:2;stroke-miterlimit:10;}
	.st10{fill:none;stroke:#F39237;stroke-width:2;stroke-miterlimit:10;}
	.st11{fill:none;stroke:#000000;stroke-width:1.482;stroke-miterlimit:10;}
	.st12{fill:none;stroke:#000000;stroke-width:1.8789;stroke-miterlimit:10;}
	.st13{fill:none;stroke:#000000;stroke-width:1.8795;stroke-miterlimit:10;}
	.st14{fill:none;stroke:#000000;stroke-width:1.9509;stroke-miterlimit:10;}
	.st15{fill:none;stroke:#000000;stroke-width:1.956;stroke-miterlimit:10;}
	.st16{fill:none;stroke:#000000;stroke-width:1.9059;stroke-miterlimit:10;}
	.st17{fill:none;stroke:#000000;stroke-width:1.963;stroke-miterlimit:10;}
	.st18{fill:none;stroke:#000000;stroke-width:1.8431;stroke-miterlimit:10;}
	.st19{fill:none;stroke:#000000;stroke-width:2.0484;stroke-miterlimit:10;}
	.st20{fill:none;stroke:#000000;stroke-width:0.5373;stroke-miterlimit:10;}
	.st21{fill:none;stroke:#3A8695;stroke-width:4.2016;stroke-miterlimit:10;}
	.st22{fill:none;stroke:#000000;stroke-width:5.8939;stroke-miterlimit:10;}
	.st23{fill:none;stroke:#3A8695;stroke-width:5.8939;stroke-miterlimit:10;}
	.st24{fill:none;stroke:#3A8695;stroke-width:4.3073;stroke-miterlimit:10;}
	.st25{fill:none;stroke:#3A8695;stroke-width:2;stroke-miterlimit:10;}
	.st26{fill:#E5E5E5;}
	.st27{fill:none;stroke:#3A8695;stroke-width:4.3061;stroke-miterlimit:10;}
	.st28{fill:#3A8695;stroke:#3A8695;stroke-width:4.3061;stroke-miterlimit:10;}
	.st29{fill:none;stroke:#3A8695;stroke-width:5.0126;stroke-miterlimit:10;}
</style>
<symbol  id="To_Do" viewBox="-214.7 -116.3 206.7 109.6">
	<polygon points="-8,-6.8 -8,-6.8 -8,-6.7 	"/>
	<g>
		<g>
			<path class="st0" d="M-200.4-73c-4.5-4.5-9-9-13.5-13.5c-1-1-1-2.6,0-3.5c8.5-8.5,17-17,25.5-25.5c1-1,2.6-1,3.5,0
				c14.4,14.4,28.7,28.7,43.1,43.1c1,1,0.9,2.6,0,3.5c-3.3,3.3-6.6,6.7-9.8,10c-1,1-2.5,0.9-3.5,0c-11-9.1-22-18.3-33-27.4
				c1.2,0,2.4,0,3.5,0c-4.1,4.4-8.2,8.9-12.2,13.3c-2.2,2.4-5.7-1.2-3.5-3.5c4.1-4.4,8.2-8.9,12.2-13.3c1-1.1,2.5-0.8,3.5,0
				c11,9.1,22,18.3,33,27.4c-1.2,0-2.4,0-3.5,0c3.3-3.3,6.6-6.7,9.8-10c0,1.2,0,2.4,0,3.5c-14.4-14.4-28.7-28.7-43.1-43.1
				c1.2,0,2.4,0,3.5,0c-8.5,8.5-17,17-25.5,25.5c0-1.2,0-2.4,0-3.5c4.5,4.5,9,9,13.5,13.5C-194.6-74.3-198.2-70.8-200.4-73z"/>
		</g>
	</g>
</symbol>
<symbol  id="Tools" viewBox="-57.2 -44.9 86.4 134">
	<g>
		<g>
			<path class="st1" d="M17.1-5.6c-1.2,0.5,0.4-1.2-0.2-0.5c-0.3,0.4-0.4,1.1-0.6,1.5c-0.9,2.1-1.7,4.2-2.5,6.3
				c-2.6,6.4-5.2,12.8-7.8,19.2c-2.2,5.4-4.4,10.9-6.6,16.3c-1.9,4.8-4.4,8.7-10,9.5c0.3-1,0.6-2.1,0.8-3.1
				c3.7,4.2,7.8,8.2,11.3,12.6C6,62,3.2,67.5,0.8,73.5c-2.5,6.2-4.2,13.6-11.8,15c-4.4,0.8-14.5,2.2-12.2-5.4c0.7-2.5,2-5,3-7.5
				c0.5-1.3,1.4-2.9,1.3-4.4c-0.1-3.7-3.2-4.5-5.8-5.5c-2.4-1-5-2.5-7.5-3c-6.8-1.4-8,6.1-9.8,10.6c-0.8,1.9-1.6,4.3-3.9,4.8
				c-3.3,0.7-5.9-3.4-7.7-5.5c-4.9-5.4-4.2-10.3-1.6-16.6c2.7-6.6,4.5-15.8,12.7-17.2c5.7-1,11.8-0.9,17.5-1.3
				c-0.5,0.9-1.1,1.9-1.6,2.8c-5.2-6.8-0.4-14.3,2.3-21.1c3.8-9.5,7.7-19,11.5-28.5c0.8-2,2.8-5.1,2.9-7.3c0-0.2-0.2,0.8-0.4-0.1
				c-0.5-1.8-1.1-3.4-1.4-5.3c-0.4-3.4,0-6.8,1.3-10c4.9-12.5,20.9-17,31.6-8.8C33.8-31.3,30.9-12.1,17.1-5.6
				c-2.2,1-4.1-2.2-1.9-3.2c13.8-6.4,13.8-27.3-1.7-31.7C6.6-42.5-1-39.9-5-34C-6.9-31.2-8-27.8-8-24.4c0,1.6,0.2,3.3,0.7,4.8
				c0.3,1,1.3,2.3,1.2,3.4c0,1.1-0.8,2.4-1.3,3.4C-8.5-9.9-9.6-7-10.8-4.1C-13.9,3.4-16.9,11-20,18.6c-2.3,5.8-7.8,14.1-3.4,19.8
				c0.9,1.2-0.4,2.7-1.6,2.8c-5.1,0.4-10.3,0.6-15.4,1.1c-6.8,0.6-8,6.6-10.2,12c-0.9,2.3-2,4.5-2.8,6.8c-1.4,4.4,1,7.2,3.7,10.2
				c2,2.2,3,3.4,4.3,0.2c1-2.5,1.9-5,3-7.4c3.2-6.8,9.1-5.9,15-3.5c5,2,11.5,3.5,12.1,10c0.3,3.1-6,13.3-3.6,14.8
				c1.1,0.7,5.8-0.3,7.1-0.5c4-0.8,5.4-3.8,6.8-7.1c2.2-5.5,7.5-13.4,3.5-19.1c-3.2-4.4-7.5-8.3-11.1-12.4c-0.8-0.9-0.7-2.9,0.8-3.1
				c6-0.9,7.1-6.1,9-10.9c2.3-5.8,4.7-11.6,7-17.4C6.6,9.2,8.9,3.6,11.2-2c1-2.4,1.6-5.9,4-6.9C17.4-9.8,19.3-6.6,17.1-5.6z"/>
			<path class="st1" d="M6-31.9c-3.7,1.8-5.9,5.6-4.7,9.8c1.5,4.9,7.5,7,11.7,4.3c8.3-5.2,1.3-17.1-7.5-13.9c-2.3,0.8-3.2-2.8-1-3.6
				c5.8-2.1,12.4,0.3,15,6.1c2.5,5.6,0.1,12.4-5.4,15.2c-6,3-13.4,0.2-16-5.9c-2.5-5.9,0.3-12.4,6-15.2C6.2-36.1,8.1-32.9,6-31.9z"
				/>
		</g>
	</g>
</symbol>
<g>
	<g>
		<g>
			<path class="st0" d="M367.2,200.2c-0.3,21.6-13.7,41.3-34.2,48.6c-20.4,7.2-43.5,0.7-57.2-16c-13.7-16.7-15.3-40.9-4.1-59.4
				c11.1-18.3,33.2-28.1,54.3-23.8C349.9,154.6,366.9,175.9,367.2,200.2c0,3.2,5,3.2,5,0c-0.3-23.4-14.7-44.6-36.7-52.9
				c-22.2-8.4-48.2-1.5-63.3,16.8c-15.2,18.4-17.3,45-4.9,65.4c12.2,20.1,36.2,30.6,59.3,26.2c26.4-5.1,45.3-28.8,45.6-55.5
				C372.3,197,367.3,197,367.2,200.2z"/>
		</g>
	</g>
	<g>
		<g>
			<g>
				<path class="st0" d="M358.3,258.5c-17.2,10.4-37.1,15.6-57.1,11.6c-6.8-1.4-13.5-3.7-19.7-6.7c-5.5-2.7-10.7-7.3-17.1-6.8
					c-10.7,0.9-16.5,14.8-21.5,22.9c-6.7,10.7-13.1,21.7-18.9,32.9c-6.1,11.7-11.7,23.7-16,36.1c-3.4,10-6.4,21-5.6,31.8
					c0.6,8.1,3.8,15.8,11,20.2c6,3.7,13.2,4.3,20.1,4.2c37.7,0,75.4,0,113.1,0c16.5,0,32.9,0,49.4,0c13.7,0,28.2-2.8,32.3-18
					c2.5-9.5,0.6-19.9-1.8-29.2c-3.3-12.1-8.2-23.8-13.7-35c-5.8-11.9-12.2-23.5-19-34.9c-2.9-4.8-5.9-9.6-8.9-14.4
					c-2.5-3.9-4.8-8.3-7.9-11.8C372,255.9,364.5,255.1,358.3,258.5c-2.8,1.5-0.3,5.9,2.5,4.3c7.9-4.3,12.5,2.2,16.3,8.1
					c2.7,4.1,5.3,8.3,7.9,12.5c6.3,10.2,12.3,20.5,17.8,31.1c5.8,11.1,11.2,22.5,15.3,34.3c3.4,9.6,6.3,19.9,5.9,30.2
					c-0.3,7.9-3.5,15.2-11.2,18.5c-5.1,2.2-10.7,2.2-16.2,2.2c-14.2,0-28.4,0-42.6,0c-38.5,0-76.9,0-115.4,0
					c-11.4,0-25.6,0.3-30.2-12.5c-3.1-8.6-1.2-18.7,1-27.3c3-11.6,7.6-22.6,12.7-33.4c9.7-20.4,21.4-40,33.9-58.8
					c2-3.1,4.4-5.7,8.3-6c4-0.3,6.8,2.1,10.1,3.9c4.8,2.7,10,5,15.2,6.8c14.2,4.8,29.6,5.5,44.1,2c9.5-2.3,18.4-6.4,26.7-11.4
					C363.6,261.1,361.1,256.8,358.3,258.5z"/>
			</g>
		</g>
	</g>
	<g>
		<g>
			<path class="st0" d="M457.1,62.7c0.8-6.8,2.7-13.3,5.7-19.4c0.6-1.3,0.3-2.6-0.9-3.4c-20-13.6-46.5-14.6-67.1-1.7
				c-19.3,12.1-30.7,34.6-28.5,57.3c1.3,13.9,7.3,26.6,16.8,36.7c-0.2-0.8-0.4-1.6-0.6-2.4c-2.4,8.4-4.8,16.7-7.2,25.1
				c-0.6,2,1.9,4.1,3.7,2.8c6.8-4.9,13.6-9.9,20.4-14.8c-0.8,0-1.7,0-2.5,0c30.2,16.6,68.3,5.4,84.4-25.2c0.7-1.3,0.2-2.6-0.9-3.4
				C463.9,102.3,455.4,82.9,457.1,62.7c0.3-3.2-4.7-3.2-5,0c-1.9,22,7.9,42.9,25.8,55.8c-0.3-1.1-0.6-2.3-0.9-3.4
				c-14.8,28.2-49.6,38.8-77.5,23.4c-0.7-0.4-1.8-0.5-2.5,0c-6.8,4.9-13.6,9.9-20.4,14.8c1.2,0.9,2.4,1.9,3.7,2.8
				c2-6.9,4-13.9,5.9-20.8c0.7-2.3,1.9-4.5,0.6-6.7c-1.9-3.2-5.1-5.8-7.1-9.1c-2.3-3.7-4.2-7.7-5.6-11.8
				c-9.6-28.5,5.8-60.4,34.1-70.5c17.3-6.2,36.2-3.3,51.3,7c-0.3-1.1-0.6-2.3-0.9-3.4c-3.4,7-5.5,14.2-6.4,22
				C451.7,65.9,456.7,65.9,457.1,62.7z"/>
		</g>
	</g>
	<g>
		<g>
			<path class="st0" d="M580.7,124.8c-3.6-7.3-7.2-14.7-10.9-22c-0.1,1-0.3,2-0.4,3c16.8-19.3,20.5-47.2,8.2-69.9
				c-11.1-20.4-33.5-33-56.7-31.8c-23,1.2-43.9,15.8-52.9,37c-9.1,21.4-5,46.7,10.3,64.2c19.5,22.3,52.7,26.7,77.9,11.6
				c-0.8,0-1.7,0-2.5,0c7.9,3.8,15.7,7.6,23.6,11.3c2.9,1.4,5.4-2.9,2.5-4.3c-5.9-2.8-11.8-5.7-17.7-8.5c-1.8-0.9-3.9-2.3-5.9-2.8
				c-2.4-0.7-3.9,0.9-6,2c-3.7,1.9-7.6,3.5-11.6,4.5c-26.2,7-54.3-6.4-65.5-31c-10.7-23.4-3.4-52,17-67.6
				c20.2-15.4,49.4-15.1,69.2,1c24.6,20,27.4,56.9,6.6,80.7c-0.8,0.9-0.9,2-0.4,3c3.6,7.3,7.2,14.7,10.9,22
				C577.8,130.2,582.1,127.6,580.7,124.8z"/>
		</g>
	</g>
	<g>
		<g>
			<path class="st0" d="M666.1,200.2c-0.3,21.6-13.7,41.3-34.2,48.6c-20.4,7.2-43.5,0.7-57.2-16c-13.7-16.7-15.3-40.9-4.1-59.4
				c11.1-18.3,33.2-28.1,54.3-23.8C648.7,154.6,665.8,175.9,666.1,200.2c0,3.2,5,3.2,5,0c-0.3-23.4-14.7-44.6-36.7-52.9
				c-22.2-8.4-48.2-1.5-63.3,16.8c-15.2,18.4-17.3,45-4.9,65.4c12.2,20.1,36.2,30.6,59.3,26.2c26.4-5.1,45.3-28.8,45.6-55.5
				C671.1,197,666.1,197,666.1,200.2z"/>
		</g>
	</g>
	<g>
		<g>
			<g>
				<path class="st0" d="M657.1,258.5c-17.2,10.4-37.1,15.6-57.1,11.6c-6.8-1.4-13.5-3.7-19.7-6.7c-5.5-2.7-10.7-7.3-17.1-6.8
					c-10.7,0.9-16.5,14.8-21.5,22.9c-6.7,10.7-13.1,21.7-18.9,32.9c-6.1,11.7-11.7,23.7-16,36.1c-3.4,10-6.4,21-5.6,31.8
					c0.6,8.1,3.8,15.8,11,20.2c6,3.7,13.2,4.3,20.1,4.2c37.7,0,75.4,0,113.1,0c16.5,0,32.9,0,49.4,0c13.7,0,28.2-2.8,32.3-18
					c2.5-9.5,0.6-19.9-1.8-29.2c-3.3-12.1-8.2-23.8-13.7-35c-5.8-11.9-12.2-23.5-19-34.9c-2.9-4.8-5.9-9.6-8.9-14.4
					c-2.5-3.9-4.8-8.3-7.9-11.8C670.8,255.9,663.3,255.1,657.1,258.5c-2.8,1.5-0.3,5.9,2.5,4.3c7.9-4.3,12.5,2.2,16.3,8.1
					c2.7,4.1,5.3,8.3,7.9,12.5c6.3,10.2,12.3,20.5,17.8,31.1c5.8,11.1,11.2,22.5,15.3,34.3c3.4,9.6,6.3,19.9,5.9,30.2
					c-0.3,7.9-3.5,15.2-11.2,18.5c-5.1,2.2-10.7,2.2-16.2,2.2c-14.2,0-28.4,0-42.6,0c-38.5,0-76.9,0-115.4,0
					c-11.4,0-25.6,0.3-30.2-12.5c-3.1-8.6-1.2-18.7,1-27.3c3-11.6,7.6-22.6,12.7-33.4c9.7-20.4,21.4-40,33.9-58.8
					c2-3.1,4.4-5.7,8.3-6c4-0.3,6.8,2.1,10.1,3.9c4.8,2.7,10,5,15.2,6.8c14.2,4.8,29.6,5.5,44.1,2c9.5-2.3,18.4-6.4,26.7-11.4
					C662.4,261.1,659.9,256.8,657.1,258.5z"/>
			</g>
		</g>
	</g>
</g>
<g>
	<g>
		<path class="st4" d="M479,462.2c-4.6,10.2-4.8,21.1-4.7,32.1c0.1,12.5,0.3,25.1,1.9,37.6c2.7,20.4,10,39.8,20.9,57.2
			c22.9,36.2,59.1,61.1,98.9,75.4c24.3,8.7,49.9,13.6,75.5,16.1c3.2,0.3,3.2-4.7,0-5c-43.1-4.2-86.5-15.6-122.6-40.2
			c-31.7-21.7-57.3-54.3-65.8-92.2c-2.9-12.9-3.6-26.2-3.8-39.4c-0.2-12.9-1.5-26.9,3.9-39C484.6,461.8,480.3,459.2,479,462.2
			L479,462.2z"/>
	</g>
</g>
<g>
	<g>
		<path class="st4" d="M672.1,675.9c-6.5-2.3-11.4-6.8-14.2-13.1c-2.6-5.7-3.8-11.9-7.2-17.2c-1.7-2.7-6-0.2-4.3,2.5
			c4.2,6.6,5.1,14.7,9.4,21.2c3.6,5.5,8.9,9.2,15,11.4C673.8,681.8,675.1,677,672.1,675.9L672.1,675.9z"/>
	</g>
</g>
<g>
	<g>
		<path class="st4" d="M669.2,675.5c-7.4,0.9-14.2,2.2-20,7.2c-5,4.3-11.5,10.6-11.1,17.7c0.2,3.2,5.2,3.2,5,0
			c-0.3-5.3,5.8-10.9,9.7-14.2c4.8-4,10.5-5,16.5-5.7C672.4,680.2,672.4,675.2,669.2,675.5L669.2,675.5z"/>
	</g>
</g>
<use xlink:href="#To_Do"  width="206.7" height="109.6" id="XMLID_1_" x="-214.7" y="-116.3" transform="matrix(1.2011 0 0 -1.2011 981.8806 1496.7413)" style="overflow:visible;"/>
<g>
	<g>
		<path class="st4" d="M665.9,728.7c-11.3-3.5-22.8-1.9-34.3-0.3c-12.4,1.7-24.9,3.5-37,6.8c-18.8,5.2-36.1,14.4-51.2,26.6
			c-32.9,26.5-53.5,65-63,105.7c-6,25.9-7.9,52.5-7.2,79c0.1,3.2,5.1,3.2,5,0c-1.1-44.2,4.9-89.9,26.1-129.3
			c17.7-33,46.2-61.4,81.9-74.2c12.1-4.3,24.7-6.7,37.4-8.5c13.4-2,27.7-5.1,41-1C667.6,734.4,668.9,729.6,665.9,728.7L665.9,728.7z
			"/>
	</g>
</g>
<g>
	<g>
		<path class="st4" d="M477.7,947c1.6-7.4,5.9-12.9,12.4-16.6c5.2-3,10.7-5,15.4-8.9c2.5-2-1.1-5.6-3.5-3.5c-5.7,4.7-13,6.5-18.8,11
			c-5.4,4.2-8.8,10.1-10.3,16.7C472.2,948.8,477,950.1,477.7,947L477.7,947z"/>
	</g>
</g>
<g>
	<g>
		<path class="st4" d="M477.7,943.4c-1.8-7.6-4.3-14.3-10.4-19.4c-5.1-4.3-11.3-9.2-18.4-8c-3.2,0.6-1.8,5.4,1.3,4.8
			c5.1-0.9,12.4,5.3,15.8,8.8c4.1,4.2,5.5,9.6,6.9,15.2C473.7,947.9,478.5,946.6,477.7,943.4L477.7,943.4z"/>
	</g>
</g>
<g>
	<g>
		<path class="st4" d="M871.4,742.9c9.9-1.2,19.2,1.9,28.4,4.9c9.5,3,19,6.1,28,10.3c15,7,28.2,17.2,39,29.7
			c23.1,26.5,34.3,61,36.3,95.7c1.3,22.3-1.1,44.7-5.4,66.5c-0.5,2.7,3.6,3.8,4.1,1.1c7.9-39.2,9.3-81-4.5-119.1
			c-11.2-30.9-32.3-59.2-61.7-74.8c-9.9-5.3-20.5-9-31.2-12.4c-10.7-3.5-21.7-7.5-33.1-6.1C868.7,738.9,868.6,743.2,871.4,742.9
			L871.4,742.9z"/>
	</g>
</g>
<g>
	<g>
		<path class="st4" d="M1002.2,953.4c-0.3-5.8-2.1-11.1-5.9-15.5c-4.3-5-10.5-7.7-14.8-12.7c-1.8-2.1-4.8,1-3,3
			c3.2,3.7,7.2,6.1,11,9.1c5.1,4.1,8.2,9.4,8.5,16C998,956.1,1002.3,956.2,1002.2,953.4L1002.2,953.4z"/>
	</g>
</g>
<g>
	<g>
		<path class="st4" d="M1002.2,952.6c2-4.5,3.9-8.9,8-11.9c3.8-2.8,10.4-6.6,15-5c2.6,0.9,3.7-3.2,1.1-4.1
			c-5.7-1.9-12.2,1.5-16.9,4.5c-5.6,3.5-8.4,8.5-11,14.4C997.4,952.9,1001.1,955.1,1002.2,952.6L1002.2,952.6z"/>
	</g>
</g>
<g>
	<text transform="matrix(1 0 0 1 804.9709 633.2146)" class="st1 st5 st6">£</text>
	<g>
		<g>
			<path class="st1" d="M873.7,713.1c-20.2,0-40.5,0-60.7,0c-13.7,0-27.4,0-41.1,0c-6.4,0-14.1,1.2-20.5-0.2
				c-8.7-1.9-7.6-10.6-7.6-17.2c0-8.9,0-17.9,0-26.8c0-28.2,0-56.3,0-84.5c0-25.5,0-51,0-76.5c0-5.6-0.2-11.3,0-16.9
				c0.2-5.7,3.6-10,9.5-10.4c1.5-0.1,3.1,0,4.6,0c48,0,95.9,0,143.9,0c1.7,0,3.4-0.1,5.1,0c6.3,0.4,9.5,5,9.6,10.9
				c0.2,9.1,0,18.3,0,27.4c0,26,0,52.1,0,78.1c0,1.7,0,3.5,0,5.2c0,3.2,5,3.2,5,0c0-22.1,0-44.3,0-66.4c0-12.7,0-25.3,0-38
				c0-2.5,0.1-5,0-7.5c-0.3-7.5-5.5-13.8-13.2-14.6c-5.6-0.6-11.5-0.1-17.2-0.1c-12.9,0-25.9,0-38.8,0c-28.1,0-56.3,0-84.4,0
				c-5.6,0-12.3-0.9-17.8,0.4c-9.6,2.3-11.3,10.8-11.3,19c0,21.7,0,43.4,0,65.1c0,30.2,0,60.5,0,90.7c0,17.4-0.5,34.8,0,52.2
				c0.3,10.3,8.1,15,17.5,15c10.5,0,21,0,31.5,0c26.8,0,53.7,0,80.5,0c1.8,0,3.6,0,5.3,0C876.9,718.1,876.9,713.1,873.7,713.1
				L873.7,713.1z"/>
		</g>
	</g>
</g>
<g>
	<g>
		<g>
			<path class="st0" d="M398.2,1244.9c-32.7,0-65.3,0-98,0c-53.4,0-106.8,0-160.2,0c-30.4,0-60.7,0-91.1,0c-4.2,0-8.4,0-12.6,0
				c-8.6-0.1-15.2-5.8-15.6-14.6c-0.2-3.7,0-7.5,0-11.3c0-22.4,0-44.7,0-67.1c0-27.6,0-55.3,0-82.9c0-14.8-0.6-29.8,0-44.7
				c0.7-17,17.1-14.9,28.9-14.9c18,0,35.9,0,53.9,0c54.7,0,109.4,0,164.1,0c40.8,0,81.6,0,122.3,0c2.7,0,5.4-0.1,8.1,0
				c10.4,0.5,14.8,8.7,14.8,17.9c0,18.7,0,37.5,0,56.2c0,47.3,0,94.7,0,142c0,1.5,0.1,3,0,4.4
				C412.5,1238.3,406.6,1244.6,398.2,1244.9c-2.9,0.1-2.9,4.6,0,4.5c12.1-0.5,19.1-9.9,19.1-21.4c0-6.6,0-13.2,0-19.9
				c0-25.8,0-51.7,0-77.5c0-26.6,0-53.2,0-79.8c0-7.6,0-15.1,0-22.7c0-9-2.3-17.6-11.4-21.6c-4.1-1.8-8.2-1.6-12.5-1.6
				c-5.6,0-11.2,0-16.9,0c-20.7,0-41.5,0-62.2,0c-56.7,0-113.4,0-170.1,0c-35.8,0-71.5-0.2-107.3,0c-9.8,0.1-18.8,5.8-20.4,16.1
				c-0.7,4.3-0.3,9-0.3,13.4c0,22.7,0,45.4,0,68c0,28.3,0,56.6,0,85c0,14.2-0.5,28.6,0,42.8c0.3,7.8,4.6,14.8,12,17.8
				c3.9,1.6,8,1.4,12.1,1.4c13,0,26,0,39.1,0c9.9,0,19.8,0,29.7,0c48.4,0,96.9,0,145.3,0c45.4,0,90.8,0,136.3,0c2.5,0,5.1,0,7.6,0
				C401.1,1249.4,401.1,1244.9,398.2,1244.9z"/>
		</g>
	</g>
	<g>
		<g>
			<path class="st0" d="M18.4,1041.2c13.1,0,26.2,0,39.3,0c31.5,0,63,0,94.5,0c38.3,0,76.6,0,114.9,0c33,0,66,0,98.9,0
				c10.9,0,21.8,0,32.6,0c5,0,10.5,0.6,15.5,0c0.2,0,0.5,0,0.7,0c2.9,0,2.9-4.5,0-4.5c-13.1,0-26.2,0-39.3,0c-31.5,0-63,0-94.5,0
				c-38.3,0-76.6,0-114.9,0c-33,0-66,0-98.9,0c-10.9,0-21.8,0-32.6,0c-5,0-10.5-0.6-15.5,0c-0.2,0-0.5,0-0.7,0
				C15.5,1036.7,15.5,1041.2,18.4,1041.2L18.4,1041.2z"/>
		</g>
	</g>
	<g>
		<g>
			<path class="st0" d="M93.2,1040c0,23.4,0,46.8,0,70.1c0,37.1,0,74.2,0,111.3c0,8.6,0,17.1,0,25.7c0,2.9,4.5,2.9,4.5,0
				c0-23.4,0-46.8,0-70.1c0-37.1,0-74.2,0-111.3c0-8.6,0-17.1,0-25.7C97.7,1037.2,93.2,1037.1,93.2,1040L93.2,1040z"/>
		</g>
	</g>
	<g>
		<g>
			<path class="st0" d="M95.5,1111.3c35.8,0,71.5,0,107.3,0c56.9,0,113.8,0,170.7,0c12.9,0,25.8,0,38.8,0c2.9,0,2.9-4.5,0-4.5
				c-35.8,0-71.5,0-107.3,0c-56.9,0-113.8,0-170.7,0c-12.9,0-25.8,0-38.8,0C92.6,1106.8,92.6,1111.3,95.5,1111.3L95.5,1111.3z"/>
		</g>
	</g>
	<g>
		<g>
			<path class="st0" d="M329.7,1109c0,40.3,0,80.6,0,120.9c0,5.8,0,11.5,0,17.3c0,2.9,4.5,2.9,4.5,0c0-40.3,0-80.6,0-120.9
				c0-5.8,0-11.5,0-17.3C334.2,1106.1,329.7,1106.1,329.7,1109L329.7,1109z"/>
		</g>
	</g>
	<g>
		<g>
			<path class="st0" d="M95.5,1192.5c26.6,0,53.3,0,79.9,0c42.4,0,84.9,0,127.3,0c9.7,0,19.5,0,29.2,0c2.9,0,2.9-4.5,0-4.5
				c-26.6,0-53.3,0-79.9,0c-42.4,0-84.9,0-127.3,0c-9.7,0-19.5,0-29.2,0C92.6,1188,92.6,1192.5,95.5,1192.5L95.5,1192.5z"/>
		</g>
	</g>
</g>
<g>
	<g>
		<g>
			<path class="st0" d="M521.9,1295.3c-11.3,0-22.6,0-33.9,0c-7.4,0-14.8,0-22.2,0c-3.9,0-9.1,0.8-12.7-0.9
				c-7-3.3-5.7-11.4-5.7-17.8c0-9.5,0-19.1,0-28.6c0-30.2,0-60.4,0-90.6c0-31.2,0-62.3,0-93.5c0-14.8-0.7-29.8,0-44.6
				c0.4-7.6,6.5-9.8,12.9-9.8c6.2,0,12.4,0,18.5,0c13.8,0,27.6-0.2,41.4,0c6.1,0.1,11.2,3.3,11.5,10c0.1,1.5,0,3.1,0,4.6
				c0,8,0,16.1,0,24.1c0,29.1,0,58.2,0,87.2c0,31.8,0,63.7,0,95.5c0,17.8,0.4,35.6,0,53.4C531.5,1290.2,528.1,1294.9,521.9,1295.3
				c-2.9,0.2-2.9,4.7,0,4.5c8.1-0.4,14-6.3,14.2-14.4c0.1-1.5,0-3,0-4.5c0-8.6,0-17.3,0-25.9c0-30.8,0-61.7,0-92.5
				c0-32.7,0-65.4,0-98.1c0-15.1,1-30.6,0-45.7c-1.1-16.3-19.5-13.6-30.9-13.6c-15,0-30,0-45,0c-5.9,0-11.6,1.1-15.1,6.6
				c-1.9,2.9-2.3,6.1-2.3,9.4c0,6.9,0,13.8,0,20.7c0,29.3,0,58.5,0,87.8c0,33.5,0,67.1,0,100.6c0,18.2-0.3,36.5,0,54.7
				c0.1,5.3,2.4,10.2,7.1,13c4.2,2.5,9.2,2,13.9,2c15.6,0,31.2,0,46.8,0c3.8,0,7.5,0,11.3,0C524.8,1299.8,524.8,1295.3,521.9,1295.3
				z"/>
		</g>
	</g>
	<g>
		<g>
			<path class="st0" d="M447.5,1034.9c25.1,0,50.3,0,75.4,0c3.7,0,7.3,0,11,0c2.9,0,2.9-4.5,0-4.5c-25.1,0-50.3,0-75.4,0
				c-3.7,0-7.3,0-11,0C444.6,1030.4,444.6,1034.9,447.5,1034.9L447.5,1034.9z"/>
		</g>
	</g>
	<g>
		<g>
			<path class="st0" d="M445.1,1092c25.9,0,51.8,0,77.7,0c3.7,0,7.3,0,11,0c2.9,0,2.9-4.5,0-4.5c-25.9,0-51.8,0-77.7,0
				c-3.7,0-7.3,0-11,0C442.2,1087.5,442.2,1092,445.1,1092L445.1,1092z"/>
		</g>
	</g>
	<g>
		<g>
			<path class="st0" d="M445.1,1159.3c25.9,0,51.8,0,77.7,0c3.7,0,7.3,0,11,0c2.9,0,2.9-4.5,0-4.5c-25.9,0-51.8,0-77.7,0
				c-3.7,0-7.3,0-11,0C442.2,1154.8,442.2,1159.3,445.1,1159.3L445.1,1159.3z"/>
		</g>
	</g>
	<g>
		<g>
			<path class="st0" d="M445.1,1213.2c25.9,0,51.8,0,77.7,0c3.7,0,7.3,0,11,0c2.9,0,2.9-4.5,0-4.5c-25.9,0-51.8,0-77.7,0
				c-3.7,0-7.3,0-11,0C442.2,1208.7,442.2,1213.2,445.1,1213.2L445.1,1213.2z"/>
		</g>
	</g>
	<g>
		<g>
			<path class="st0" d="M445.1,1249.4c25.9,0,51.8,0,77.7,0c3.7,0,7.3,0,11,0c2.9,0,2.9-4.5,0-4.5c-25.9,0-51.8,0-77.7,0
				c-3.7,0-7.3,0-11,0C442.2,1244.9,442.2,1249.4,445.1,1249.4L445.1,1249.4z"/>
		</g>
	</g>
</g>
<g>
	<g>
		<g>
			<path class="st0" d="M676.7,1191.8c-18.3,0-36.6,0-54.9,0c-11.7,0-23.5,0-35.2,0c-6.9,0-17.9,2-21.5-5.7
				c-1.9-4.1-0.9-10.4-0.9-14.8c0-9.6,0-19.2,0-28.8c0-25.9,0-51.8,0-77.6c0-14-0.9-28.3,0-42.2c0.8-11.3,12.1-9.8,20.1-9.8
				c11.5,0,23,0,34.6,0c19.1,0,38.5-0.9,57.7,0c9.7,0.5,9.9,8.6,9.9,15.8c0,8.4,0,16.8,0,25.1c0,25.5,0,51,0,76.4
				c0,16.9,0.5,33.9,0,50.9C686.3,1186.9,682.9,1191.4,676.7,1191.8c-2.9,0.2-2.9,4.7,0,4.5c10.5-0.6,14.2-8.9,14.2-18
				c0-8.3,0-16.6,0-25c0-26.7,0-53.5,0-80.2c0-16.7,0.6-33.5,0-50.2c-0.2-6-3.5-11.4-9.3-13.5c-2.8-1-5.5-0.9-8.4-0.9
				c-10,0-19.9,0-29.9,0c-22.7,0-45.5-0.3-68.2,0c-9,0.1-15.3,6.1-15.5,15.2c-0.1,6.5,0,13.1,0,19.6c0,45.6-0.3,91.3,0,136.9
				c0.1,8.9,5.3,15.9,14.7,16.2c7.9,0.2,15.9,0,23.9,0c24.4,0,48.9,0,73.3,0c1.7,0,3.4,0,5.1,0
				C679.6,1196.3,679.6,1191.8,676.7,1191.8z"/>
		</g>
	</g>
	<g>
		<g>
			<path class="st0" d="M562,1039.5c37,0,74,0,111.1,0c5.2,0,10.5,0,15.7,0c2.9,0,2.9-4.5,0-4.5c-37,0-74,0-111.1,0
				c-5.2,0-10.5,0-15.7,0C559.1,1035,559.1,1039.5,562,1039.5L562,1039.5z"/>
		</g>
	</g>
	<g>
		<g>
			<path class="st0" d="M623.1,1140.2c0,17,0,33.9,0,50.9c0,2.9,4.5,2.9,4.5,0c0-17,0-33.9,0-50.9
				C627.6,1137.3,623.1,1137.3,623.1,1140.2L623.1,1140.2z"/>
		</g>
	</g>
	<g>
		<g>
			<path class="st0" d="M623.1,1037.2c0,15,0,30.1,0,45.1c0,2.9,4.5,2.9,4.5,0c0-15,0-30.1,0-45.1
				C627.6,1034.3,623.1,1034.3,623.1,1037.2L623.1,1037.2z"/>
		</g>
	</g>
	<g>
		<g>
			<path class="st0" d="M562,1086.3c37,0,74,0,111.1,0c5.2,0,10.5,0,15.7,0c2.9,0,2.9-4.5,0-4.5c-37,0-74,0-111.1,0
				c-5.2,0-10.5,0-15.7,0C559.1,1081.8,559.1,1086.3,562,1086.3L562,1086.3z"/>
		</g>
	</g>
	<g>
		<g>
			<path class="st0" d="M562,1142.4c37,0,74,0,111.1,0c5.2,0,10.5,0,15.7,0c2.9,0,2.9-4.5,0-4.5c-37,0-74,0-111.1,0
				c-5.2,0-10.5,0-15.7,0C559.1,1137.9,559.1,1142.4,562,1142.4L562,1142.4z"/>
		</g>
	</g>
</g>
<path class="st0" d="M631.6,1024.1c0,4-3.3,7.3-7.3,7.3s-7.3-3.3-7.3-7.3c0-4,3.3-7.3,7.3-7.3S631.6,1020.1,631.6,1024.1z
	 M625.2,1019.6h-0.1l-2.8,1.2v0.7l2.2-1v8.6h0.7V1019.6z"/>
<path class="st0" d="M601.3,1060.7c0,4-3.3,7.3-7.3,7.3s-7.3-3.3-7.3-7.3s3.3-7.3,7.3-7.3S601.3,1056.6,601.3,1060.7z M597.1,1064.7
	h-4.2l2.2-3c0.2-0.3,0.4-0.6,0.6-0.8s0.4-0.6,0.5-0.9c0.1-0.3,0.3-0.6,0.3-0.9s0.1-0.6,0.1-0.9c0-0.4-0.1-0.8-0.2-1.1
	c-0.1-0.3-0.3-0.6-0.5-0.8c-0.2-0.2-0.5-0.4-0.8-0.5s-0.6-0.2-1-0.2c-0.4,0-0.8,0.1-1.1,0.2s-0.6,0.4-0.8,0.6
	c-0.2,0.3-0.4,0.6-0.5,0.9s-0.2,0.7-0.2,1.1h0.7c0-0.3,0-0.6,0.1-0.9c0.1-0.3,0.2-0.5,0.4-0.7c0.2-0.2,0.3-0.4,0.6-0.5
	c0.2-0.1,0.5-0.2,0.7-0.2c0.3,0,0.5,0,0.7,0.1c0.2,0.1,0.4,0.2,0.5,0.4s0.2,0.4,0.3,0.6s0.1,0.5,0.1,0.8c0,0.2,0,0.4-0.1,0.6
	c0,0.2-0.1,0.4-0.2,0.7s-0.2,0.5-0.4,0.8c-0.2,0.3-0.4,0.6-0.6,0.9l-2.6,3.6v0.6h5.1V1064.7z"/>
<path class="st0" d="M665.8,1060.7c0,3.8-3.1,6.9-6.9,6.9s-6.9-3.1-6.9-6.9c0-3.8,3.1-6.9,6.9-6.9S665.8,1056.8,665.8,1060.7z
	 M658,1061h0.7c0.3,0,0.5,0,0.8,0.1s0.4,0.2,0.6,0.3c0.2,0.2,0.3,0.3,0.4,0.6s0.1,0.5,0.1,0.8c0,0.6-0.1,1.1-0.4,1.4
	c-0.3,0.3-0.7,0.5-1.2,0.5c-0.3,0-0.5,0-0.7-0.1c-0.2-0.1-0.4-0.2-0.6-0.4c-0.2-0.2-0.3-0.4-0.4-0.6s-0.1-0.5-0.1-0.8h-0.7
	c0,0.4,0.1,0.8,0.2,1.1c0.1,0.3,0.3,0.6,0.5,0.8s0.5,0.4,0.8,0.5c0.3,0.1,0.6,0.2,0.9,0.2c0.3,0,0.7-0.1,0.9-0.2s0.5-0.3,0.8-0.5
	c0.2-0.2,0.4-0.5,0.5-0.8c0.1-0.3,0.2-0.7,0.2-1.1c0-0.3,0-0.5-0.1-0.7s-0.1-0.4-0.3-0.6s-0.3-0.4-0.4-0.5c-0.2-0.1-0.4-0.3-0.7-0.3
	c0.2-0.1,0.4-0.2,0.6-0.4s0.3-0.3,0.4-0.5s0.2-0.4,0.2-0.6c0.1-0.2,0.1-0.4,0.1-0.6c0-0.4-0.1-0.8-0.2-1.1c-0.1-0.3-0.3-0.6-0.5-0.8
	s-0.4-0.4-0.7-0.5s-0.6-0.2-0.9-0.2c-0.3,0-0.6,0.1-0.9,0.2c-0.3,0.1-0.5,0.3-0.7,0.5s-0.4,0.5-0.5,0.8c-0.1,0.3-0.2,0.6-0.2,1h0.7
	c0-0.3,0-0.5,0.1-0.8s0.2-0.4,0.3-0.6c0.1-0.2,0.3-0.3,0.5-0.4c0.2-0.1,0.4-0.1,0.7-0.1c0.3,0,0.5,0,0.7,0.1
	c0.2,0.1,0.4,0.2,0.5,0.4c0.1,0.2,0.2,0.4,0.3,0.6c0.1,0.2,0.1,0.5,0.1,0.8c0,0.2,0,0.5-0.1,0.7c-0.1,0.2-0.2,0.4-0.3,0.6
	s-0.3,0.3-0.5,0.4c-0.2,0.1-0.5,0.1-0.8,0.1H658V1061z"/>
<path class="st0" d="M632.6,1114.2c0,4-3.2,7.2-7.2,7.2c-4,0-7.2-3.2-7.2-7.2c0-4,3.2-7.2,7.2-7.2
	C629.3,1106.9,632.6,1110.2,632.6,1114.2z M627,1109.3h-0.8l-3.7,6.7v0.5h3.7v2.4h0.7v-2.4h1.2v-0.7H627V1109.3z M626.1,1111
	l0.3-0.5v5.4h-2.9L626.1,1111z"/>
<path class="st0" d="M601.2,1167.6c0,4-3.2,7.2-7.2,7.2c-4,0-7.2-3.2-7.2-7.2c0-4,3.2-7.2,7.2-7.2
	C598,1160.3,601.2,1163.6,601.2,1167.6z M592.6,1168c0.1-0.1,0.2-0.2,0.3-0.3c0.1-0.1,0.2-0.2,0.3-0.2c0.1-0.1,0.2-0.1,0.4-0.1
	c0.1,0,0.3,0,0.5,0c0.3,0,0.5,0.1,0.8,0.2c0.2,0.1,0.4,0.3,0.6,0.5c0.2,0.2,0.3,0.5,0.3,0.7c0.1,0.3,0.1,0.6,0.1,0.9
	c0,0.8-0.1,1.4-0.4,1.8c-0.3,0.4-0.7,0.6-1.3,0.6c-0.5,0-0.9-0.2-1.2-0.5c-0.3-0.3-0.5-0.8-0.5-1.5h-0.7c0,0.4,0.1,0.8,0.3,1.2
	c0.1,0.3,0.3,0.6,0.5,0.8c0.2,0.2,0.5,0.4,0.7,0.5s0.6,0.2,0.9,0.2c0.4,0,0.8-0.1,1.1-0.2c0.3-0.2,0.6-0.4,0.7-0.7s0.3-0.6,0.4-1
	c0.1-0.4,0.1-0.8,0.1-1.3c0-0.5-0.1-0.9-0.2-1.3c-0.1-0.4-0.3-0.7-0.5-1c-0.2-0.3-0.5-0.5-0.7-0.6c-0.3-0.1-0.6-0.2-1-0.2
	c-0.2,0-0.3,0-0.5,0c-0.1,0-0.3,0.1-0.4,0.1c-0.1,0.1-0.2,0.1-0.3,0.2c-0.1,0.1-0.2,0.1-0.3,0.2l0.3-3.2h3.4v-0.7h-4l-0.4,4.6
	L592.6,1168z"/>
<path class="st0" d="M666.2,1168c0,4-3.3,7.3-7.3,7.3s-7.3-3.3-7.3-7.3s3.3-7.3,7.3-7.3S666.2,1164,666.2,1168z M660.4,1163.6
	c-0.7,0-1.3,0.1-1.7,0.4s-0.9,0.6-1.2,1.1c-0.3,0.5-0.5,1-0.7,1.7c-0.1,0.7-0.2,1.4-0.2,2.2v0.8c0,0.5,0.1,0.9,0.2,1.4
	c0.1,0.4,0.3,0.8,0.5,1.1c0.2,0.3,0.5,0.6,0.8,0.8c0.3,0.2,0.7,0.3,1.1,0.3c0.4,0,0.7-0.1,1-0.3c0.3-0.2,0.5-0.4,0.8-0.7
	c0.2-0.3,0.4-0.6,0.5-1c0.1-0.4,0.2-0.8,0.2-1.3c0-0.4,0-0.8-0.1-1.2c-0.1-0.4-0.2-0.7-0.4-1s-0.4-0.5-0.7-0.7
	c-0.3-0.2-0.6-0.3-1-0.3c-0.4,0-0.8,0.1-1.1,0.3c-0.3,0.2-0.6,0.5-0.8,0.8c0-0.6,0.1-1.1,0.3-1.6c0.1-0.5,0.3-0.9,0.6-1.2
	c0.3-0.3,0.6-0.6,0.9-0.7c0.4-0.2,0.8-0.3,1.3-0.3h0.1L660.4,1163.6L660.4,1163.6z M659.9,1167.8c0.2,0.1,0.4,0.3,0.5,0.5
	c0.1,0.2,0.2,0.5,0.3,0.8c0.1,0.3,0.1,0.6,0.1,1c0,0.4,0,0.7-0.1,1c-0.1,0.3-0.2,0.6-0.3,0.8c-0.1,0.2-0.3,0.4-0.5,0.5
	c-0.2,0.1-0.4,0.2-0.7,0.2c-0.3,0-0.5-0.1-0.7-0.2c-0.2-0.1-0.4-0.3-0.6-0.6c-0.2-0.2-0.3-0.5-0.4-0.9s-0.1-0.7-0.1-1.2v-0.7
	c0.1-0.2,0.1-0.4,0.3-0.6c0.1-0.2,0.3-0.4,0.4-0.5c0.2-0.1,0.3-0.2,0.5-0.3c0.2-0.1,0.4-0.1,0.6-0.1
	C659.5,1167.6,659.7,1167.7,659.9,1167.8z"/>
<g>
	<g>
		<path class="st1" d="M1015.7,1056.8c-1.6,9.7-1.3,19.6,2,28.9c2.1,5.9,5.6,10.4,8.7,15.7c4.6,8,3.5,15.6,0.9,23.9
			c-2.3,7.3-4.6,15.7,1.4,22c3.8,3.9,9.4,4.1,14.4,5.1c4.5,0.8,9.2,2.3,13.5,0c7.6-4,7.7-13,8.1-20.5c0.5-7.8,1.8-14.4,7.7-20.1
			c4.6-4.4,10.2-7.2,14.6-12.1c6.8-7.6,11-17,13-26.9c0.5-2.5-3.4-3.6-3.9-1.1c-1.8,8.8-5.2,17.1-11,24c-3.6,4.3-7.9,7.3-12.4,10.5
			c-4.2,3-7.5,7.2-9.6,11.9c-2.5,5.7-2.2,11.6-2.7,17.7c-0.7,8.2-3.6,14.9-12.7,13.2c-3.8-0.7-7.9-1.1-11.6-2.2
			c-11.6-3.2-6.3-16.9-3.7-24.7c2-6,1.8-12.4-0.4-18.3c-1.9-5-5.4-8.8-7.8-13.5c-5.2-10-6.4-21.6-4.5-32.6
			C1020,1055.3,1016.1,1054.2,1015.7,1056.8L1015.7,1056.8z"/>
	</g>
</g>
<g>
	<g>
		<path class="st1" d="M1019.5,1057.8c4.2-20.7,24-35.2,45.2-31.3c21,3.9,34.8,24.2,31.3,45.2c-0.4,2.5,3.4,3.6,3.9,1.1
			c3.9-23-10.8-45.8-34.1-50.1c-23.2-4.3-45.4,11.2-50.1,34.1C1015.1,1059.3,1019,1060.4,1019.5,1057.8L1019.5,1057.8z"/>
	</g>
</g>
<g>
	<g>
		<path class="st1" d="M1045.3,1157c-2.7-0.5-5.3-1-8-1.5c-0.3,0-1.4-0.4-1.6-0.3c-0.3,0.2,0.4,0.7,0.2,0.9c0.1-0.1,0.1-0.8,0.2-0.8
			c0.2-0.8,0.3-1.7,0.5-2.5c0-0.2,0.3-1.1,0.2-1.3c0.1,0.2-0.2-1.6-0.4-0.3c-0.1,0.4-0.6,0,0.4,0.3c0.7,0.2,1.5,0.3,2.2,0.4
			c1.7,0.3,3.3,0.6,5,0.9c0.2,0,1.3,0.4,1.5,0.3c-0.2,0.1,0.1-1.5-0.4,0c-0.2,0.8-0.3,1.7-0.5,2.5c-0.1,0.4-0.1,0.9-0.2,1.3
			c-0.2,0.7-0.1,0.1,0.3,0.1c-2.6,0.2-2.6,4.2,0,4c3.3-0.3,3.5-2.7,4-5.4c0.4-2.3,1.2-5-1.5-6.1c-1.5-0.7-3.5-0.8-5.1-1.1
			c-1.8-0.3-3.6-0.9-5.4-1c-3.2-0.2-3.7,2.4-4.2,4.8c-0.4,2.1-1.4,4.9,0.8,6.4c1.4,1,3.7,1,5.2,1.3c1.9,0.4,3.8,0.7,5.7,1.1
			C1046.7,1161.3,1047.8,1157.4,1045.3,1157z"/>
	</g>
</g>
<g>
	<line class="st4" x1="1028.7" y1="1127.5" x2="1062.5" y2="1134.2"/>
	<g>
		<path class="st1" d="M1028.2,1129.5c11.2,2.2,22.5,4.4,33.7,6.7c2.5,0.5,3.6-3.4,1.1-3.9c-11.2-2.2-22.5-4.4-33.7-6.7
			C1026.7,1125.1,1025.7,1129,1028.2,1129.5L1028.2,1129.5z"/>
	</g>
</g>
<g>
	<line class="st4" x1="1050.7" y1="1096.1" x2="1047.5" y2="1112.5"/>
	<g>
		<path class="st1" d="M1048.8,1095.6c-1.1,5.5-2.1,11-3.2,16.4c-0.5,2.5,3.4,3.6,3.9,1.1c1.1-5.5,2.1-11,3.2-16.4
			C1053.1,1094.1,1049.3,1093,1048.8,1095.6L1048.8,1095.6z"/>
	</g>
</g>
<g>
	<g>
		<path class="st1" d="M1051.8,1098c1.6-1.5,3.2-3,4.8-4.5c1.9-1.8-1-4.6-2.8-2.8c-1.6,1.5-3.2,3-4.8,4.5
			C1047.1,1097,1049.9,1099.8,1051.8,1098L1051.8,1098z"/>
	</g>
</g>
<g>
	<g>
		<path class="st1" d="M1046.1,1091.3c0.9,2,1.8,4,2.6,6.1c0.4,1,1.9,1.2,2.7,0.7c1-0.6,1.2-1.8,0.7-2.7c-0.9-2-1.8-4-2.6-6.1
			c-0.4-1-1.9-1.2-2.7-0.7C1045.8,1089.2,1045.7,1090.3,1046.1,1091.3L1046.1,1091.3z"/>
	</g>
</g>
<g>
	<g>
		<path class="st1" d="M1050,1031.5c-8.1-0.1-15.1,5.2-17.9,12.6c-0.9,2.4,2.9,3.5,3.9,1.1c2.2-5.7,7.8-9.8,14.1-9.7
			C1052.6,1035.6,1052.6,1031.6,1050,1031.5L1050,1031.5z"/>
	</g>
</g>
<use xlink:href="#Tools"  width="86.4" height="134" id="XMLID_3_" x="-57.2" y="-44.9" transform="matrix(1.2089 -9.889950e-03 -9.889950e-03 -1.2089 985.0864 1190.8519)" style="overflow:visible;"/>
<g>
	<g>
		<path class="st1" d="M1043.7,990.4c1.1,6.9,2.1,13.8,3.2,20.7c0.4,2.5,4.3,1.5,3.9-1.1c-1.1-6.9-2.1-13.8-3.2-20.7
			C1047.1,986.8,1043.3,987.9,1043.7,990.4L1043.7,990.4z"/>
	</g>
</g>
<g>
	<g>
		<path class="st1" d="M1071.7,985.3c-1.3,8.2-2.5,16.4-3.8,24.6c-0.4,2.5,3.5,3.6,3.9,1.1c1.3-8.2,2.5-16.4,3.8-24.6
			C1076,983.8,1072.1,982.7,1071.7,985.3L1071.7,985.3z"/>
	</g>
</g>
<g>
	<g>
		<path class="st1" d="M1088.4,1017.6c3.4-4.7,6.8-9.4,10.2-14.1c1.5-2.1-2-4.1-3.5-2c-3.4,4.7-6.8,9.4-10.2,14.1
			C1083.4,1017.7,1086.9,1019.7,1088.4,1017.6L1088.4,1017.6z"/>
	</g>
</g>
<g>
	<g>
		<path class="st4" d="M398.8,1305.4c-6.9,8-10.3,17.8-13.2,27.8c-3.5,12-7,24-9.1,36.3c-3.7,21.5-2.3,43.3,3.8,64.2
			c12.2,41.9,40.8,76.4,75.9,101.4c20,14.2,41.9,25.4,64.5,34.7c3,1.2,4.3-3.6,1.3-4.8c-38.2-15.6-74.6-37.5-101.9-69
			c-26.8-30.9-43.8-72-40.4-113.3c1.1-13.4,4.4-26.5,8.1-39.4c3.4-11.9,6.2-24.8,14.5-34.4C404.5,1306.5,400.9,1302.9,398.8,1305.4
			L398.8,1305.4z"/>
	</g>
</g>
<g>
	<g>
		<path class="st4" d="M522.4,1565.5c-5.6-4.1-8.9-10-9.8-16.9c-0.8-6.2-0.3-12.3-2-18.4c-0.9-3.1-5.7-1.8-4.8,1.3
			c2.2,7.8,0.5,16.2,3.2,23.9c2,5.9,5.8,10.7,10.9,14.3C522.4,1571.7,524.9,1567.4,522.4,1565.5L522.4,1565.5z"/>
	</g>
</g>
<g>
	<g>
		<path class="st4" d="M519.8,1564.3c-8-1.4-15.2-1.9-22.6,1.8c-5.6,2.8-12.8,6.6-14.3,13.1c-0.7,3.1,4.1,4.5,4.8,1.3
			c1.1-4.9,7.8-8,12-10.1c6.1-3,12.2-2.5,18.8-1.3C521.6,1569.7,522.9,1564.8,519.8,1564.3L519.8,1564.3z"/>
	</g>
</g>
<g>
	<g>
		<path class="st4" d="M980.4,1368.7c4,9.2,3.4,19.4,3.1,29.2c-0.2,10.4-0.6,20.9-2.4,31.3c-2.8,16.4-9.4,31.9-18.6,45.7
			c-19.6,29.3-50,49.2-83.1,60.4c-20.1,6.8-41.1,10.6-62.3,12.5c-2.7,0.2-2.8,4.5,0,4.3c38.9-3.4,78.4-13.4,110.7-36.1
			c27.9-19.7,50.2-48.8,56.9-82.7c2.3-11.6,2.8-23.5,3-35.2c0.2-10.7,0.6-21.4-3.7-31.4C983,1364,979.3,1366.1,980.4,1368.7
			L980.4,1368.7z"/>
	</g>
</g>
<g>
	<g>
		<path class="st4" d="M815.1,1553.1c5.2-1.8,9.7-4.9,12.8-9.5c3.8-5.6,4.7-12.6,8.4-18.3c1.5-2.3-2.2-4.5-3.7-2.2
			c-2.7,4.2-3.9,8.8-5.8,13.4c-2.5,6-6.7,10.3-12.9,12.4C811.3,1549.8,812.5,1554,815.1,1553.1L815.1,1553.1z"/>
	</g>
</g>
<g>
	<g>
		<path class="st4" d="M816.4,1552.9c5.1,0.6,9.9,1.5,13.9,4.9c3.4,2.9,8.5,7.6,8.3,12.3c-0.1,2.8,4.2,2.8,4.3,0
			c0.3-6.1-5.2-11.6-9.5-15.4c-4.9-4.3-10.7-5.4-17-6.2C813.7,1548.3,813.7,1552.6,816.4,1552.9L816.4,1552.9z"/>
	</g>
</g>
<g>
	<text transform="matrix(1 0 0 1 646.9731 1573.9626)" class="st0 st5 st6">£</text>
	<g>
		<g>
			<path class="st0" d="M763.6,1576.1c0-20.6,0-41.3,0-61.9c0-27.5,0.6-55.1,0-82.7c-0.2-7.4-4.9-13.9-12.5-15
				c-2.2-0.3-4.6-0.2-6.8-0.2c-11.8,0-23.6,0-35.5,0c-32.1,0-64.2,0-96.3,0c-6.7,0-16.3-1.6-22.8,1.2c-9.3,4-8.9,12.9-8.9,21.2
				c0,27.2,0,54.3,0,81.5c0,32.1,0,64.2,0,96.3c0,8.5,0,17,0,25.5c0,9.8,6,16.7,16.1,16.8c28.5,0.2,57.1,0,85.6,0
				c21.3,0,42.7,0,64,0c4.8,0,9.6,0,14.5,0c1.4,0,2.5-1.1,2.5-2.5c0-3.6,0-7.2,0-10.9c0-3.2-5-3.2-5,0c0,3.6,0,7.2,0,10.9
				c0.8-0.8,1.7-1.7,2.5-2.5c-18.7,0-37.5,0-56.2,0c-30.2,0-60.4,0-90.5,0c-5,0-9.9,0-14.9,0c-4.7,0-9.5,0.1-12.3-4.7
				c-2.7-4.5-1.3-12.7-1.3-17.7c0-27.8,0-55.6,0-83.4c0-30.7,0-61.4,0-92.1c0-7.7-0.1-15.4,0-23.2c0.1-5,2-9.9,7.6-11.1
				c2.2-0.5,4.7-0.2,6.9-0.2c27.8,0,55.5,0,83.3,0c15,0,29.9,0,44.9,0c6.8,0,13.8-0.4,20.5,0c12.5,0.8,9.5,17.1,9.5,25.7
				c0,15.6,0,31.2,0,46.8c0,21.9,0,43.8,0,65.7c0,5.5,0,11.1,0,16.6C758.6,1579.4,763.6,1579.4,763.6,1576.1L763.6,1576.1z"/>
		</g>
	</g>
</g>
<g>
	<g>
		<path class="st4" d="M626.7,1699.5c10.8,0.1,19.7,6.2,28.5,11.7c9.3,5.8,18.5,11.9,26.4,19.6c13.1,12.9,21.5,29.6,26.6,47.1
			c11.7,40.5,6.1,84.1-5.8,123.9c-7.4,24.9-17.5,48.8-29.1,72c-1.4,2.8,2.8,5.3,4.2,2.5c21-42.1,37.8-87.4,41.3-134.6
			c2.9-38.8-4-83-31.8-112.3c-8.3-8.7-18.4-15.5-28.6-21.9c-9.8-6.1-19.7-12.8-31.7-12.8C623.5,1694.6,623.5,1699.5,626.7,1699.5
			L626.7,1699.5z"/>
	</g>
</g>
<g>
	<g>
		<path class="st4" d="M677.1,1978.4c1.1-5.7,0.6-11.3-2-16.5c-3-5.8-8.3-10-11.3-15.8c-1.3-2.5-5-0.3-3.7,2.2
			c2.2,4.3,5.5,7.7,8.5,11.5c4,5.2,5.7,11,4.5,17.5C672.5,1980,676.6,1981.1,677.1,1978.4L677.1,1978.4z"/>
	</g>
</g>
<g>
	<g>
		<path class="st4" d="M677.6,1977.2c3.3-4.3,6.6-8.1,11.9-9.8c4.1-1.3,10.4-3.3,14.2-0.7c2.3,1.5,4.5-2.2,2.2-3.7
			c-5-3.3-12.2-1.4-17.5,0.3c-6.4,2.1-10.4,6.5-14.5,11.8C672.2,1977.2,676,1979.4,677.6,1977.2L677.6,1977.2z"/>
	</g>
</g>
<path class="st23" d="M884.7,2316H449.1c-6.6,0-12-5.4-12-12v-244.5c0-6.6,5.4-12,12-12h435.6c6.6,0,12,5.4,12,12V2304
	C896.7,2310.6,891.3,2316,884.7,2316z"/>
<path class="st23" d="M749.8,2414.2c0.6-2.8,0.9-5.7,0.9-8.6v-65.7c0-1.5,0.5-2.2,5.5-2.2h21"/>
<path class="st23" d="M773.3,2337.7c32.8,0,107.3,0,107.3,0c22.1,0,40.2-18.1,40.2-40.2v-228.9c0-22.1-18.1-40.2-40.2-40.2
	c0,0-31.8,0-77.9,0c-93.9,0-247.3,0-313.5,0c-20.1,0-32.2,0-32.2,0c-22.1,0-40.2,18.1-40.2,40.2v228.9c0,22.1,18.1,40.2,40.2,40.2
	c0,0,66.4,0,101,0c0.4,0,39.9,0,39.9,0s0,0,0.1,0c0.3,0-0.1,1.5-0.1,2.2v65.7c0,2.4,0.2,4.8,0.6,7.1"/>
<g>
	<g>
		<path class="st1" d="M866.8,2103.6c0.8-6.7-0.2-14.2-2.7-20.4c-5.3-13.1-17.7-18.4-31.3-17.7c-4.7,0.2-4.7,7.6,0,7.4
			c11.5-0.5,21.6,3.6,25.2,15.1c1.6,5,2.1,10.5,1.5,15.7C858.9,2108.3,866.2,2108.2,866.8,2103.6L866.8,2103.6z"/>
	</g>
</g>
<path class="st24" d="M769.1,2437.3H577.9c-6.6,0-12-5.4-12-12l0,0c0-6.6,5.4-12,12-12h191.2c6.6,0,12,5.4,12,12l0,0
	C781.1,2431.9,775.7,2437.3,769.1,2437.3z"/>
<line class="st23" x1="597.9" y1="2337.7" x2="777.3" y2="2337.7"/>
<path class="st0" d="M495.8,1019.6c0,4-3.3,7.3-7.3,7.3s-7.3-3.3-7.3-7.3c0-4,3.3-7.3,7.3-7.3S495.8,1015.6,495.8,1019.6z
	 M489.4,1015h-0.1l-2.8,1.2v0.7l2.2-1v8.6h0.7V1015z"/>
<path class="st0" d="M496.3,1060.8c0,4-3.3,7.3-7.3,7.3c-4,0-7.3-3.3-7.3-7.3s3.3-7.3,7.3-7.3C493,1053.4,496.3,1056.7,496.3,1060.8
	z M492.1,1064.8h-4.2l2.2-3c0.2-0.3,0.4-0.6,0.6-0.8s0.4-0.6,0.5-0.9c0.1-0.3,0.3-0.6,0.3-0.9s0.1-0.6,0.1-0.9
	c0-0.4-0.1-0.8-0.2-1.1c-0.1-0.3-0.3-0.6-0.5-0.8c-0.2-0.2-0.5-0.4-0.8-0.5s-0.6-0.2-1-0.2c-0.4,0-0.8,0.1-1.1,0.2s-0.6,0.4-0.8,0.6
	c-0.2,0.3-0.4,0.6-0.5,0.9s-0.2,0.7-0.2,1.1h0.7c0-0.3,0-0.6,0.1-0.9c0.1-0.3,0.2-0.5,0.4-0.7c0.2-0.2,0.3-0.4,0.6-0.5
	c0.2-0.1,0.5-0.2,0.7-0.2c0.3,0,0.5,0,0.7,0.1c0.2,0.1,0.4,0.2,0.5,0.4s0.2,0.4,0.3,0.6s0.1,0.5,0.1,0.8c0,0.2,0,0.4-0.1,0.6
	c0,0.2-0.1,0.4-0.2,0.7s-0.2,0.5-0.4,0.8c-0.2,0.3-0.4,0.6-0.6,0.9l-2.6,3.6v0.6h5.1V1064.8z"/>
<path class="st0" d="M494.7,1122.5c0,3.8-3.1,6.9-6.9,6.9s-6.9-3.1-6.9-6.9c0-3.8,3.1-6.9,6.9-6.9S494.7,1118.6,494.7,1122.5z
	 M486.8,1122.8h0.7c0.3,0,0.5,0,0.8,0.1s0.4,0.2,0.6,0.3c0.2,0.2,0.3,0.3,0.4,0.6s0.1,0.5,0.1,0.8c0,0.6-0.1,1.1-0.4,1.4
	c-0.3,0.3-0.7,0.5-1.2,0.5c-0.3,0-0.5,0-0.7-0.1c-0.2-0.1-0.4-0.2-0.6-0.4c-0.2-0.2-0.3-0.4-0.4-0.6s-0.1-0.5-0.1-0.8h-0.7
	c0,0.4,0.1,0.8,0.2,1.1c0.1,0.3,0.3,0.6,0.5,0.8s0.5,0.4,0.8,0.5c0.3,0.1,0.6,0.2,0.9,0.2c0.3,0,0.7-0.1,0.9-0.2s0.5-0.3,0.8-0.5
	c0.2-0.2,0.4-0.5,0.5-0.8c0.1-0.3,0.2-0.7,0.2-1.1c0-0.3,0-0.5-0.1-0.7s-0.1-0.4-0.3-0.6s-0.3-0.4-0.4-0.5c-0.2-0.1-0.4-0.3-0.7-0.3
	c0.2-0.1,0.4-0.2,0.6-0.4s0.3-0.3,0.4-0.5s0.2-0.4,0.2-0.6c0.1-0.2,0.1-0.4,0.1-0.6c0-0.4-0.1-0.8-0.2-1.1c-0.1-0.3-0.3-0.6-0.5-0.8
	s-0.4-0.4-0.7-0.5s-0.6-0.2-0.9-0.2c-0.3,0-0.6,0.1-0.9,0.2c-0.3,0.1-0.5,0.3-0.7,0.5s-0.4,0.5-0.5,0.8c-0.1,0.3-0.2,0.6-0.2,1h0.7
	c0-0.3,0-0.5,0.1-0.8s0.2-0.4,0.3-0.6c0.1-0.2,0.3-0.3,0.5-0.4c0.2-0.1,0.4-0.1,0.7-0.1c0.3,0,0.5,0,0.7,0.1
	c0.2,0.1,0.4,0.2,0.5,0.4c0.1,0.2,0.2,0.4,0.3,0.6c0.1,0.2,0.1,0.5,0.1,0.8c0,0.2,0,0.5-0.1,0.7c-0.1,0.2-0.2,0.4-0.3,0.6
	s-0.3,0.3-0.5,0.4c-0.2,0.1-0.5,0.1-0.8,0.1h-0.7V1122.8z"/>
<path class="st0" d="M495.2,1183.9c0,4-3.2,7.2-7.2,7.2c-4,0-7.2-3.2-7.2-7.2c0-4,3.2-7.2,7.2-7.2
	C492,1176.6,495.2,1179.9,495.2,1183.9z M489.7,1179h-0.8l-3.7,6.7v0.5h3.7v2.4h0.7v-2.4h1.2v-0.7h-1.2V1179z M488.7,1180.7l0.3-0.5
	v5.4h-2.9L488.7,1180.7z"/>
<path class="st0" d="M496.2,1229.3c0,4-3.2,7.2-7.2,7.2s-7.2-3.2-7.2-7.2c0-4,3.2-7.2,7.2-7.2S496.2,1225.3,496.2,1229.3z
	 M487.6,1229.7c0.1-0.1,0.2-0.2,0.3-0.3c0.1-0.1,0.2-0.2,0.3-0.2c0.1-0.1,0.2-0.1,0.4-0.1c0.1,0,0.3,0,0.5,0c0.3,0,0.5,0.1,0.8,0.2
	c0.2,0.1,0.4,0.3,0.6,0.5c0.2,0.2,0.3,0.5,0.3,0.7c0.1,0.3,0.1,0.6,0.1,0.9c0,0.8-0.1,1.4-0.4,1.8c-0.3,0.4-0.7,0.6-1.3,0.6
	c-0.5,0-0.9-0.2-1.2-0.5c-0.3-0.3-0.5-0.8-0.5-1.5h-0.7c0,0.4,0.1,0.8,0.3,1.2c0.1,0.3,0.3,0.6,0.5,0.8c0.2,0.2,0.5,0.4,0.7,0.5
	s0.6,0.2,0.9,0.2c0.4,0,0.8-0.1,1.1-0.2c0.3-0.2,0.6-0.4,0.7-0.7s0.3-0.6,0.4-1c0.1-0.4,0.1-0.8,0.1-1.3c0-0.5-0.1-0.9-0.2-1.3
	c-0.1-0.4-0.3-0.7-0.5-1c-0.2-0.3-0.5-0.5-0.7-0.6c-0.3-0.1-0.6-0.2-1-0.2c-0.2,0-0.3,0-0.5,0c-0.1,0-0.3,0.1-0.4,0.1
	c-0.1,0.1-0.2,0.1-0.3,0.2c-0.1,0.1-0.2,0.1-0.3,0.2l0.3-3.2h3.4v-0.7h-4l-0.4,4.6L487.6,1229.7z"/>
<path class="st0" d="M496.7,1273.7c0,4-3.3,7.3-7.3,7.3s-7.3-3.3-7.3-7.3s3.3-7.3,7.3-7.3S496.7,1269.7,496.7,1273.7z M491,1269.3
	c-0.7,0-1.3,0.1-1.7,0.4s-0.9,0.6-1.2,1.1c-0.3,0.5-0.5,1-0.7,1.7c-0.1,0.7-0.2,1.4-0.2,2.2v0.8c0,0.5,0.1,0.9,0.2,1.4
	c0.1,0.4,0.3,0.8,0.5,1.1c0.2,0.3,0.5,0.6,0.8,0.8c0.3,0.2,0.7,0.3,1.1,0.3c0.4,0,0.7-0.1,1-0.3c0.3-0.2,0.5-0.4,0.8-0.7
	c0.2-0.3,0.4-0.6,0.5-1c0.1-0.4,0.2-0.8,0.2-1.3c0-0.4,0-0.8-0.1-1.2c-0.1-0.4-0.2-0.7-0.4-1s-0.4-0.5-0.7-0.7
	c-0.3-0.2-0.6-0.3-1-0.3c-0.4,0-0.8,0.1-1.1,0.3c-0.3,0.2-0.6,0.5-0.8,0.8c0-0.6,0.1-1.1,0.3-1.6c0.1-0.5,0.3-0.9,0.6-1.2
	c0.3-0.3,0.6-0.6,0.9-0.7c0.4-0.2,0.8-0.3,1.3-0.3h0.1L491,1269.3L491,1269.3z M490.4,1273.6c0.2,0.1,0.4,0.3,0.5,0.5
	c0.1,0.2,0.2,0.5,0.3,0.8c0.1,0.3,0.1,0.6,0.1,1c0,0.4,0,0.7-0.1,1c-0.1,0.3-0.2,0.6-0.3,0.8c-0.1,0.2-0.3,0.4-0.5,0.5
	c-0.2,0.1-0.4,0.2-0.7,0.2c-0.3,0-0.5-0.1-0.7-0.2c-0.2-0.1-0.4-0.3-0.6-0.6c-0.2-0.2-0.3-0.5-0.4-0.9s-0.1-0.7-0.1-1.2v-0.7
	c0.1-0.2,0.1-0.4,0.3-0.6c0.1-0.2,0.3-0.4,0.4-0.5c0.2-0.1,0.3-0.2,0.5-0.3c0.2-0.1,0.4-0.1,0.6-0.1
	C490,1273.4,490.2,1273.4,490.4,1273.6z"/>
<path class="st0" d="M214.8,1022c0,5.3-4.3,9.7-9.7,9.7s-9.7-4.3-9.7-9.7c0-5.3,4.3-9.7,9.7-9.7S214.8,1016.7,214.8,1022z
	 M206.3,1015.9h-0.2l-3.7,1.6v1l2.9-1.3v11.4h1V1015.9z"/>
<path class="st0" d="M60.4,1142.6c0,5.4-4.4,9.8-9.8,9.8s-9.8-4.4-9.8-9.8s4.4-9.8,9.8-9.8S60.4,1137.2,60.4,1142.6z M54.7,1148.1
	h-5.7l3-4.1c0.3-0.4,0.5-0.8,0.8-1.1c0.3-0.4,0.5-0.8,0.7-1.2c0.2-0.4,0.4-0.8,0.5-1.2c0.1-0.4,0.2-0.8,0.2-1.2c0-0.5-0.1-1-0.2-1.5
	c-0.1-0.4-0.4-0.8-0.6-1.1c-0.3-0.3-0.6-0.5-1-0.7c-0.4-0.2-0.8-0.2-1.3-0.2c-0.5,0-1,0.1-1.4,0.3c-0.4,0.2-0.8,0.5-1.1,0.8
	c-0.3,0.4-0.5,0.8-0.7,1.2c-0.2,0.5-0.2,1-0.2,1.5h1c0-0.4,0.1-0.8,0.2-1.2c0.1-0.4,0.3-0.7,0.5-0.9c0.2-0.3,0.5-0.5,0.8-0.6
	c0.3-0.1,0.6-0.2,1-0.2c0.4,0,0.7,0.1,0.9,0.2c0.3,0.1,0.5,0.3,0.7,0.5s0.3,0.5,0.4,0.8c0.1,0.3,0.1,0.7,0.1,1.1
	c0,0.3,0,0.5-0.1,0.8c-0.1,0.3-0.2,0.6-0.3,0.9c-0.1,0.3-0.3,0.6-0.6,1c-0.2,0.4-0.5,0.8-0.8,1.2l-3.6,4.8v0.8h6.9V1148.1z"/>
<path class="st0" d="M216.7,1075c0,5.3-4.3,9.6-9.6,9.6c-5.3,0-9.6-4.3-9.6-9.6c0-5.3,4.3-9.6,9.6-9.6
	C212.4,1065.4,216.7,1069.7,216.7,1075z M205.9,1075.5h0.9c0.4,0,0.7,0,1.1,0.1c0.3,0.1,0.6,0.3,0.8,0.5c0.2,0.2,0.4,0.5,0.5,0.8
	c0.1,0.3,0.2,0.7,0.2,1.2c0,0.9-0.2,1.5-0.6,2c-0.4,0.5-1,0.7-1.7,0.7c-0.4,0-0.7-0.1-1-0.2c-0.3-0.1-0.6-0.3-0.8-0.6
	c-0.2-0.2-0.4-0.5-0.5-0.9c-0.1-0.3-0.2-0.7-0.2-1.1h-1c0,0.6,0.1,1.1,0.3,1.6c0.2,0.4,0.4,0.8,0.8,1.1c0.3,0.3,0.7,0.5,1.1,0.7
	c0.4,0.2,0.8,0.2,1.3,0.2c0.5,0,0.9-0.1,1.3-0.2c0.4-0.2,0.8-0.4,1-0.7c0.3-0.3,0.5-0.7,0.7-1.1c0.2-0.4,0.2-1,0.2-1.5
	c0-0.3,0-0.7-0.1-1c-0.1-0.3-0.2-0.6-0.4-0.9s-0.4-0.5-0.6-0.7c-0.3-0.2-0.6-0.4-0.9-0.5c0.3-0.1,0.6-0.3,0.8-0.5
	c0.2-0.2,0.4-0.4,0.6-0.7s0.3-0.5,0.3-0.8c0.1-0.3,0.1-0.6,0.1-0.8c0-0.6-0.1-1.1-0.2-1.5c-0.1-0.4-0.4-0.8-0.6-1.1s-0.6-0.5-1-0.7
	c-0.4-0.2-0.8-0.2-1.3-0.2c-0.5,0-0.9,0.1-1.3,0.3c-0.4,0.2-0.7,0.4-1,0.7s-0.5,0.7-0.7,1.1c-0.2,0.4-0.2,0.9-0.2,1.4h1
	c0-0.4,0.1-0.8,0.2-1.1s0.3-0.6,0.5-0.8c0.2-0.2,0.4-0.4,0.7-0.5c0.3-0.1,0.6-0.2,0.9-0.2c0.4,0,0.7,0.1,1,0.2
	c0.3,0.1,0.5,0.3,0.7,0.5c0.2,0.2,0.3,0.5,0.4,0.8c0.1,0.3,0.1,0.7,0.1,1c0,0.3-0.1,0.7-0.2,1c-0.1,0.3-0.3,0.6-0.5,0.8
	c-0.2,0.2-0.5,0.4-0.8,0.5c-0.3,0.1-0.6,0.2-1,0.2h-0.9V1075.5z"/>
<path class="st0" d="M216.1,1142.5c0,5.4-4.4,9.8-9.8,9.8c-5.4,0-9.8-4.4-9.8-9.8s4.4-9.8,9.8-9.8
	C211.7,1132.7,216.1,1137,216.1,1142.5z M208.7,1135.9h-1.1l-5,9v0.6h5.1v3.2h1v-3.2h1.7v-0.9h-1.7V1135.9z M207.3,1138.1l0.4-0.7
	v7.2h-3.9L207.3,1138.1z"/>
<path class="st0" d="M218.2,1220.2c0,5.1-4.1,9.2-9.2,9.2c-5.1,0-9.2-4.1-9.2-9.2s4.1-9.2,9.2-9.2
	C214.1,1211,218.2,1215.1,218.2,1220.2z M207.3,1220.7c0.1-0.1,0.2-0.3,0.4-0.4c0.1-0.1,0.3-0.2,0.4-0.3c0.1-0.1,0.3-0.1,0.5-0.2
	c0.2,0,0.4-0.1,0.6-0.1c0.4,0,0.7,0.1,1,0.2c0.3,0.2,0.5,0.4,0.7,0.6c0.2,0.3,0.3,0.6,0.4,0.9c0.1,0.4,0.1,0.8,0.1,1.2
	c0,1-0.2,1.8-0.5,2.3c-0.4,0.5-0.9,0.8-1.6,0.8c-0.6,0-1.2-0.2-1.5-0.6c-0.4-0.4-0.6-1-0.7-1.9h-0.9c0,0.6,0.1,1.1,0.3,1.5
	c0.2,0.4,0.4,0.8,0.7,1c0.3,0.3,0.6,0.5,0.9,0.6s0.7,0.2,1.1,0.2c0.5,0,1-0.1,1.4-0.3c0.4-0.2,0.7-0.5,0.9-0.8
	c0.2-0.4,0.4-0.8,0.6-1.3c0.1-0.5,0.2-1,0.2-1.6c0-0.6-0.1-1.1-0.2-1.6c-0.1-0.5-0.3-0.9-0.6-1.2c-0.3-0.3-0.6-0.6-0.9-0.8
	c-0.4-0.2-0.8-0.3-1.2-0.3c-0.2,0-0.4,0-0.6,0.1c-0.2,0-0.4,0.1-0.5,0.2c-0.2,0.1-0.3,0.1-0.4,0.2c-0.1,0.1-0.2,0.2-0.3,0.2l0.3-4
	h4.3v-0.9h-5.1l-0.5,5.9L207.3,1220.7z"/>
<path class="st0" d="M382.3,1142.6c0,5.2-4.2,9.4-9.4,9.4c-5.2,0-9.4-4.2-9.4-9.4s4.2-9.4,9.4-9.4
	C378,1133.2,382.3,1137.4,382.3,1142.6z M374.8,1136.9c-0.9,0-1.6,0.2-2.3,0.5s-1.1,0.8-1.6,1.4c-0.4,0.6-0.7,1.4-0.9,2.2
	c-0.2,0.9-0.3,1.8-0.3,2.9v1.1c0,0.6,0.1,1.2,0.2,1.8c0.2,0.6,0.4,1,0.7,1.4c0.3,0.4,0.6,0.7,1.1,1c0.4,0.2,0.9,0.4,1.4,0.4
	c0.5,0,0.9-0.1,1.3-0.3c0.4-0.2,0.7-0.5,1-0.9c0.3-0.4,0.5-0.8,0.6-1.3c0.1-0.5,0.2-1.1,0.2-1.7c0-0.5-0.1-1.1-0.2-1.6
	c-0.1-0.5-0.3-0.9-0.6-1.3s-0.6-0.7-0.9-0.9c-0.4-0.2-0.8-0.3-1.3-0.3c-0.5,0-1,0.1-1.4,0.4c-0.4,0.2-0.8,0.6-1.1,1.1
	c0-0.7,0.2-1.4,0.3-2c0.2-0.6,0.5-1.1,0.8-1.5c0.3-0.4,0.7-0.7,1.2-1c0.5-0.2,1-0.3,1.7-0.3h0.1v-0.9H374.8z M374.2,1142.4
	c0.3,0.2,0.5,0.4,0.7,0.7c0.2,0.3,0.3,0.6,0.4,1c0.1,0.4,0.1,0.8,0.1,1.2c0,0.5,0,0.9-0.1,1.3c-0.1,0.4-0.2,0.8-0.4,1.1
	c-0.2,0.3-0.4,0.5-0.7,0.7c-0.3,0.2-0.6,0.3-0.9,0.3c-0.3,0-0.7-0.1-0.9-0.3c-0.3-0.2-0.6-0.4-0.8-0.7c-0.2-0.3-0.4-0.7-0.5-1.1
	c-0.1-0.5-0.2-1-0.2-1.5v-0.9c0.1-0.3,0.2-0.6,0.3-0.8c0.2-0.2,0.3-0.5,0.5-0.6c0.2-0.2,0.4-0.3,0.7-0.4c0.3-0.1,0.5-0.2,0.8-0.2
	C373.6,1142.2,373.9,1142.3,374.2,1142.4z"/>
<rect x="495" y="2082.7" class="st26" width="35.1" height="4"/>
<rect x="512.6" y="2089.6" class="st26" width="35.1" height="4"/>
<rect x="512.6" y="2145.1" class="st26" width="35.1" height="4"/>
<rect x="512.6" y="2097" class="st26" width="81.6" height="4"/>
<rect x="512.6" y="2104.7" class="st26" width="64.2" height="4"/>
<rect x="495" y="2116.1" class="st26" width="69.1" height="4"/>
<rect x="512.6" y="2123" class="st26" width="126.8" height="4"/>
<rect x="512.6" y="2130.3" class="st26" width="81.6" height="4"/>
<rect x="495" y="2154.9" class="st26" width="69.1" height="4"/>
<rect x="512.6" y="2161.8" class="st26" width="126.8" height="4"/>
<rect x="512.6" y="2169.2" class="st26" width="81.6" height="4"/>
<rect x="512.6" y="2138.1" class="st26" width="109.3" height="4"/>
<rect x="495" y="2180" class="st26" width="35.1" height="4"/>
<rect x="512.6" y="2186.8" class="st26" width="35.1" height="4"/>
<rect x="512.6" y="2242.3" class="st26" width="35.1" height="4"/>
<rect x="512.6" y="2194.2" class="st26" width="81.6" height="4"/>
<rect x="512.6" y="2201.9" class="st26" width="64.2" height="4"/>
<rect x="495" y="2213.3" class="st26" width="69.1" height="4"/>
<rect x="512.6" y="2220.2" class="st26" width="126.8" height="4"/>
<rect x="512.6" y="2227.5" class="st26" width="81.6" height="4"/>
<rect x="495" y="2252.1" class="st26" width="69.1" height="4"/>
<rect x="512.6" y="2259" class="st26" width="126.8" height="4"/>
<rect x="512.6" y="2266.4" class="st26" width="81.6" height="4"/>
<rect x="512.6" y="2235.3" class="st26" width="109.3" height="4"/>
<path class="st27" d="M906.6,683.9l24.8-45.5c3.2-5.8,1-13.1-4.8-16.3l-6.4-3.5c-5.8-3.2-13.1-1-16.3,4.8l-25.8,47.3v32.9
	L906.6,683.9z"/>
<polygon class="st28" points="879.6,688.5 890.2,694.3 878.8,701.2 "/>
<path class="st29" d="M894.5,673.4L894.5,673.4c2,1.1,4.5,0.3,5.5-1.7l18.6-35.1c1.1-2,0.3-4.5-1.7-5.5h0c-2-1.1-4.5-0.3-5.5,1.7
	l-18.6,35.1C891.8,669.8,892.5,672.3,894.5,673.4z"/>
</svg>
