<svg id="Layer_1" xmlns="http://www.w3.org/2000/svg" viewBox="0 0 281.8 162.1" enable-background="new 0 0 281.8 162.1">
  <style>
    .st0{fill:#C4C5C6;} .st1{fill:#4F4D4D;} .st2{fill:#EF833A;} .st3{fill:#FFFFFF;} .st4{fill:none;stroke:#231F20;stroke-miterlimit:10;} .st5{fill:none;} .st6{fill:#E0DCDC;} .st7{fill:#008190;} .st8{fill:#09295B;} .st9{fill:#AAA7A7;} .st10{fill:#EAEDEF;} .st11{fill:#E28837;} .st12{fill:#E0581B;} .st13{opacity:0.1;fill:#4F4D4D;} .st14{opacity:0.1;fill:#EF833A;} .st15{opacity:0.1;fill:#FFFFFF;} .st16{fill:none;stroke:#FFFFFF;stroke-miterlimit:10;} .st17{opacity:0.29;} .st18{opacity:0.4;fill:none;stroke:#FFFFFF;stroke-miterlimit:10;} .st19{fill:#ACAFAF;} .st20{opacity:0.8;fill:#C4C5C6;} .st21{opacity:0.9;fill:#E0DCDC;} .st22{opacity:0.9;fill:#AAA7A7;} .st23{fill:#0E1A35;stroke:#008190;stroke-miterlimit:10;} .st24{fill:#0E1A35;stroke:#F39237;stroke-miterlimit:10;}
  </style>
  <path class="st24" d="M266.4 59.8l4.9-.9c1.3-.2 2.5.6 2.5 1.6v13.6c0 1.1-1.3 1.9-2.6 1.6l-1.5-.3M266.5 101l5.1.9c1.2.2 2.3-.5 2.3-1.5v-14c0-1-1.2-1.8-2.4-1.5l-1.7.4M249.7 103.4l.5 50.5c0 1.4-1.4 2.6-3.2 2.5l-14.5-.4c-.9 0-1.7-.3-2.3-.9l-38-36.3c-.5-.4-1.1-.7-1.8-.8l-95.7-15.7"/>
  <path class="st24" d="M91.6 57.7c14.5-1 30.3-1.5 46.7-1.5l124.5-.8c1.3 0 2.4.7 2.7 1.7 2.9 8.8 4.1 16.3 4.5 22.5.6 12-2.1 19.5-3.6 22.5-.4.9-1.5 1.5-2.8 1.5H138.3c-41 0-77.6-3.3-101.9-8.6-19.1-4-30.6-9.3-30.6-15.1v-.1c.1-5 8.8-9.6 23.5-13.4.1 0 .3-.1.4-.1 15.2-3.8 36.8-6.9 61.9-8.6l1.7-.3L189 41.7c.7-.1 1.4-.4 1.9-.9l37.9-36.2c.6-.6 1.5-.9 2.5-1l14.1-.4c1.9-.1 3.5 1.2 3.5 2.7l-.5 49.6v.3"/>
</svg>
