<svg xmlns="http://www.w3.org/2000/svg" viewBox="0 0 251.7 189.5" enable-background="new 0 0 251.7 189.5"><style type="text/css">.st0{fill:#FFFFFF;} .st1{fill:#FFFFFF;stroke:#FFFFFF;stroke-width:0.97;stroke-miterlimit:10;} .st2{fill:#FFFFFF;stroke:#FFFFFF;stroke-width:0.97;}</style><title>aws.svg</title><path class="st0" d="M34.5 146.2L19.9 141v-21.3l14.6 5v21.5M37.2 146.2l14.6-5.2v-21.3l-14.6 5v21.5M21.4 118.1l14.8-4.2 13.7 4.4-13.7 4.7-14.8-4.9M17.1 116.4l-14.6-5.2V89.8l14.6 5v21.6M19.8 116.4l14.6-5.2V89.8l-14.6 5v21.6M4.1 88.2L18.9 84l13.7 4.4L18.9 93 4.1 88.2M51.2 116.4l-14.6-5.2V89.8l14.6 5v21.6M53.8 116.4l14.6-5.2V89.8l-14.6 5v21.6M38.1 88.2L52.9 84l13.7 4.4L52.9 93l-14.8-4.8M68.5 86.6l-14.6-5.2V60l14.6 5v21.6M71.2 86.6l14.6-5.2V60l-14.6 5v21.6M55.4 58.4l14.8-4.2 13.7 4.4-13.7 4.6-14.8-4.8M102.5 86.6l-14.6-5.2V60l14.6 5v21.6M105.2 86.6l14.6-5.2V60l-14.6 5v21.6M89.4 58.4l14.8-4.2 13.7 4.4-13.7 4.6-14.8-4.8"/><path class="st1" d="M95.1 132.3l-4.9 17h-2.1l-3.8-12.6-3.5 12.6h-2.2l-5.1-17h2.6l3.7 12.7 3.5-12.7h1.9L89 145l3.8-12.7h2.3z"/><path class="st2" d="M95.1 132.3l-4.9 17h-2.1l-3.8-12.6-3.5 12.6h-2.2l-5.1-17h2.6l3.7 12.7 3.5-12.7h1.9L89 145l3.8-12.7h2.3z"/><path class="st1" d="M108.7 144.3l2.5.5c-.5 1.5-1.4 2.7-2.6 3.6-1.3 1-2.9 1.5-4.6 1.4-2.2.1-4.2-.8-5.6-2.4-2.9-3.9-2.9-9.2.1-13 1.4-1.6 3.5-2.5 5.6-2.5 2-.1 4 .8 5.4 2.3 1.3 1.5 2 3.8 2.1 6.9H99.1c0 2.6.5 4.3 1.6 5.2.9.8 2.1 1.3 3.4 1.4 2.1 0 4-1.4 4.6-3.4zm-.2-5.2c0-.9-.2-1.7-.5-2.5s-.8-1.4-1.5-1.9-1.6-.8-2.5-.8c-1.3 0-2.5.5-3.3 1.4-1 1-1.5 2.4-1.5 3.8h9.3z"/><path class="st2" d="M108.7 144.3l2.5.5c-.5 1.5-1.4 2.7-2.6 3.6-1.3 1-2.9 1.5-4.6 1.4-2.2.1-4.2-.8-5.6-2.4-2.9-3.9-2.9-9.2.1-13 1.4-1.6 3.5-2.5 5.6-2.5 2-.1 4 .8 5.4 2.3 1.3 1.5 2 3.8 2.1 6.9H99.1c0 2.6.5 4.3 1.6 5.2.9.8 2.1 1.3 3.4 1.4 2.1 0 4-1.4 4.6-3.4zm-.2-5.2c0-.9-.2-1.7-.5-2.5s-.8-1.4-1.5-1.9-1.6-.8-2.5-.8c-1.3 0-2.5.5-3.3 1.4-1 1-1.5 2.4-1.5 3.8h9.3z"/><path class="st1" d="M116.2 149.3h-1.3v-23h2.7v8.8c1.2-2.2 2.9-3.3 5-3.3 1.9 0 3.7.8 4.9 2.3 1.3 1.5 2 3.8 2 6.7.1 2.3-.6 4.5-1.9 6.4-1.1 1.6-3 2.6-5.1 2.6-2.3 0-4.3-1.3-5.3-3.3l-1 2.8zm1.3-6.6c0 1.4.6 2.8 1.6 3.8.8.7 1.9 1.2 3 1.2 1.3 0 2.5-.6 3.3-1.8.9-1.4 1.3-3.1 1.2-4.8.1-1.8-.3-3.6-1.2-5.2-.7-1.2-1.9-1.9-3.3-1.9-1.1 0-2.2.5-3 1.3-.9.9-1.5 2.2-1.6 3.5v3.9z"/><path class="st2" d="M116.2 149.3h-1.3v-23h2.7v8.8c1.2-2.2 2.9-3.3 5-3.3 1.9 0 3.7.8 4.9 2.3 1.3 1.5 2 3.8 2 6.7.1 2.3-.6 4.5-1.9 6.4-1.1 1.6-3 2.6-5.1 2.6-2.3 0-4.3-1.3-5.3-3.3l-1 2.8zm1.3-6.6c0 1.4.6 2.8 1.6 3.8.8.7 1.9 1.2 3 1.2 1.3 0 2.5-.6 3.3-1.8.9-1.4 1.3-3.1 1.2-4.8.1-1.8-.3-3.6-1.2-5.2-.7-1.2-1.9-1.9-3.3-1.9-1.1 0-2.2.5-3 1.3-.9.9-1.5 2.2-1.6 3.5v3.9z"/><path class="st1" d="M136.2 144.9l2.5-.5c.6 2.1 2.3 3.2 5.3 3.2 1 0 2-.2 2.8-.7.7-.4 1.2-1.2 1.1-2.1 0-1.3-1-2.2-2.9-2.5l-3.6-.7c-1.2-.2-2.4-.7-3.4-1.6-.8-.8-1.3-2-1.2-3.1 0-1.4.6-2.7 1.7-3.6 1.3-1 2.9-1.5 4.6-1.4 3.7 0 6 1.4 6.8 4.3l-2.4.5c-.7-1.8-2.4-2.8-4.3-2.6-.9 0-1.8.2-2.6.7-.6.4-1 1.1-1 1.9 0 1.2.9 2 2.6 2.4l3.3.6c3.5.6 5.2 2.3 5.2 5 0 1.5-.7 2.9-1.9 3.8-1.5 1-3.3 1.5-5.1 1.4-4-.1-6.5-1.8-7.5-5z"/><path class="st2" d="M136.2 144.9l2.5-.5c.6 2.1 2.3 3.2 5.3 3.2 1 0 2-.2 2.8-.7.7-.4 1.2-1.2 1.1-2.1 0-1.3-1-2.2-2.9-2.5l-3.6-.7c-1.2-.2-2.4-.7-3.4-1.6-.8-.8-1.3-2-1.2-3.1 0-1.4.6-2.7 1.7-3.6 1.3-1 2.9-1.5 4.6-1.4 3.7 0 6 1.4 6.8 4.3l-2.4.5c-.7-1.8-2.4-2.8-4.3-2.6-.9 0-1.8.2-2.6.7-.6.4-1 1.1-1 1.9 0 1.2.9 2 2.6 2.4l3.3.6c3.5.6 5.2 2.3 5.2 5 0 1.5-.7 2.9-1.9 3.8-1.5 1-3.3 1.5-5.1 1.4-4-.1-6.5-1.8-7.5-5z"/><path class="st1" d="M164.8 144.3l2.5.5c-.5 1.5-1.4 2.7-2.6 3.6-1.3 1-2.9 1.5-4.6 1.4-2.2.1-4.2-.8-5.6-2.4-2.9-3.9-2.9-9.2.1-13 1.4-1.6 3.5-2.5 5.6-2.5 2-.1 4 .8 5.4 2.3 1.3 1.5 2 3.8 2.1 6.9h-12.4c0 2.6.5 4.3 1.6 5.2.9.8 2.1 1.3 3.4 1.4 2.1 0 3.9-1.4 4.5-3.4zm-.1-5.2c0-.9-.2-1.7-.5-2.5s-.8-1.4-1.5-1.9-1.6-.8-2.5-.8c-1.3 0-2.5.5-3.3 1.4-1 1-1.5 2.4-1.5 3.8h9.3z"/><path class="st2" d="M164.8 144.3l2.5.5c-.5 1.5-1.4 2.7-2.6 3.6-1.3 1-2.9 1.5-4.6 1.4-2.2.1-4.2-.8-5.6-2.4-2.9-3.9-2.9-9.2.1-13 1.4-1.6 3.5-2.5 5.6-2.5 2-.1 4 .8 5.4 2.3 1.3 1.5 2 3.8 2.1 6.9h-12.4c0 2.6.5 4.3 1.6 5.2.9.8 2.1 1.3 3.4 1.4 2.1 0 3.9-1.4 4.5-3.4zm-.1-5.2c0-.9-.2-1.7-.5-2.5s-.8-1.4-1.5-1.9-1.6-.8-2.5-.8c-1.3 0-2.5.5-3.3 1.4-1 1-1.5 2.4-1.5 3.8h9.3z"/><path class="st1" d="M173.1 149.3h-2.6v-17h2.3v4c.5-1.4 1.3-2.6 2.5-3.6.7-.5 1.6-.8 2.5-.8.3 0 .6 0 1 .1v2.5h-.5c-1.4 0-2.7.6-3.6 1.6-1 1.2-1.6 2.7-1.6 4.3v8.9z"/><path class="st2" d="M173.1 149.3h-2.6v-17h2.3v4c.5-1.4 1.3-2.6 2.5-3.6.7-.5 1.6-.8 2.5-.8.3 0 .6 0 1 .1v2.5h-.5c-1.4 0-2.7.6-3.6 1.6-1 1.2-1.6 2.7-1.6 4.3v8.9z"/><path class="st1" d="M195.2 132.3l-5.9 17h-2.8l-6.1-17h2.9l4.7 13.8 4.7-13.8h2.5z"/><path class="st2" d="M195.2 132.3l-5.9 17h-2.8l-6.1-17h2.9l4.7 13.8 4.7-13.8h2.5z"/><path class="st1" d="M197.4 126.4h2.8v2.9h-2.8v-2.9zm.1 6h2.6v17h-2.6v-17z"/><path class="st2" d="M197.4 126.4h2.8v2.9h-2.8v-2.9zm.1 6h2.6v17h-2.6v-17z"/><path class="st1" d="M214 143.4l2.4.4c-.2 1.7-1 3.2-2.2 4.4-2.8 2.4-7.1 2.1-9.5-.8l-.2-.2c-1.3-1.9-1.9-4.1-1.8-6.3-.1-2.3.6-4.6 1.9-6.4 1.2-1.7 3.2-2.6 5.3-2.6 1.6-.1 3.3.5 4.4 1.7 1.1 1.2 1.9 2.7 2.1 4.3l-2.4.4c-.4-2.8-1.8-4.2-4.1-4.2-1.4 0-2.7.7-3.4 1.9-.8 1.5-1.3 3.1-1.2 4.8-.1 1.8.3 3.5 1.2 5.1.7 1.2 1.9 1.8 3.3 1.8 2.2-.1 3.6-1.5 4.2-4.3z"/><path class="st2" d="M214 143.4l2.4.4c-.2 1.7-1 3.2-2.2 4.4-2.8 2.4-7.1 2.1-9.5-.8l-.2-.2c-1.3-1.9-1.9-4.1-1.8-6.3-.1-2.3.6-4.6 1.9-6.4 1.2-1.7 3.2-2.6 5.3-2.6 1.6-.1 3.3.5 4.4 1.7 1.1 1.2 1.9 2.7 2.1 4.3l-2.4.4c-.4-2.8-1.8-4.2-4.1-4.2-1.4 0-2.7.7-3.4 1.9-.8 1.5-1.3 3.1-1.2 4.8-.1 1.8.3 3.5 1.2 5.1.7 1.2 1.9 1.8 3.3 1.8 2.2-.1 3.6-1.5 4.2-4.3z"/><path class="st1" d="M231.3 144.3l2.5.5c-.5 1.5-1.4 2.7-2.6 3.6-1.3 1-2.9 1.5-4.6 1.4-2.2.1-4.2-.8-5.6-2.4-2.9-3.9-2.9-9.2.1-13 1.4-1.6 3.5-2.5 5.6-2.5 2-.1 4 .8 5.4 2.3 1.3 1.5 2 3.8 2.1 6.9h-12.4c0 2.6.5 4.3 1.6 5.2.9.8 2.1 1.3 3.4 1.4 2 0 3.9-1.4 4.5-3.4zm-.1-5.2c0-.9-.2-1.7-.5-2.5s-.8-1.4-1.5-1.9-1.6-.8-2.5-.8c-1.3 0-2.5.5-3.3 1.4-1 1-1.5 2.4-1.5 3.8h9.3z"/><path class="st2" d="M231.3 144.3l2.5.5c-.5 1.5-1.4 2.7-2.6 3.6-1.3 1-2.9 1.5-4.6 1.4-2.2.1-4.2-.8-5.6-2.4-2.9-3.9-2.9-9.2.1-13 1.4-1.6 3.5-2.5 5.6-2.5 2-.1 4 .8 5.4 2.3 1.3 1.5 2 3.8 2.1 6.9h-12.4c0 2.6.5 4.3 1.6 5.2.9.8 2.1 1.3 3.4 1.4 2 0 3.9-1.4 4.5-3.4zm-.1-5.2c0-.9-.2-1.7-.5-2.5s-.8-1.4-1.5-1.9-1.6-.8-2.5-.8c-1.3 0-2.5.5-3.3 1.4-1 1-1.5 2.4-1.5 3.8h9.3z"/><path class="st1" d="M235.6 144.9l2.5-.5c.6 2.1 2.3 3.2 5.3 3.2 1 0 2-.2 2.8-.7.7-.4 1.2-1.2 1.1-2.1 0-1.3-1-2.2-2.9-2.5l-3.6-.7c-1.2-.2-2.4-.7-3.4-1.6-.8-.8-1.3-2-1.2-3.1 0-1.4.6-2.7 1.7-3.6 1.3-1 2.9-1.5 4.6-1.4 3.7 0 6 1.4 6.8 4.3l-2.4.5c-.7-1.8-2.4-2.8-4.3-2.6-.9 0-1.8.2-2.6.7-.6.4-1 1.1-1 1.9 0 1.2.9 2 2.6 2.4l3.3.6c3.5.6 5.2 2.3 5.2 5 0 1.5-.7 2.9-1.9 3.8-1.5 1-3.3 1.5-5.1 1.4-4-.1-6.5-1.8-7.5-5z"/><path class="st2" d="M235.6 144.9l2.5-.5c.6 2.1 2.3 3.2 5.3 3.2 1 0 2-.2 2.8-.7.7-.4 1.2-1.2 1.1-2.1 0-1.3-1-2.2-2.9-2.5l-3.6-.7c-1.2-.2-2.4-.7-3.4-1.6-.8-.8-1.3-2-1.2-3.1 0-1.4.6-2.7 1.7-3.6 1.3-1 2.9-1.5 4.6-1.4 3.7 0 6 1.4 6.8 4.3l-2.4.5c-.7-1.8-2.4-2.8-4.3-2.6-.9 0-1.8.2-2.6.7-.6.4-1 1.1-1 1.9 0 1.2.9 2 2.6 2.4l3.3.6c3.5.6 5.2 2.3 5.2 5 0 1.5-.7 2.9-1.9 3.8-1.5 1-3.3 1.5-5.1 1.4-4-.1-6.5-1.8-7.5-5z"/><path class="st0" d="M175.8 96v-4.1c0-.6.4-1 1-1h18.3c.6 0 1 .4 1.1.9v3.6c0 .6-.5 1.3-1.4 2.6l-9.5 13.5c3.6-.2 7.2.6 10.4 2.2.6.3 1 .9 1 1.6v4.4c0 .6-.7 1.3-1.4.9-6.1-3.1-13.3-3.1-19.4 0-.6.3-1.3-.3-1.3-.9v-4.1c-.1-1 .2-2 .7-2.8l11-15.8h-9.6c-.4 0-.8-.4-.9-1M110.3 121.5h-5.6c-.5 0-.9-.4-1-.9V92c0-.6.5-1 1.1-1h5.2c.6 0 1 .4 1 1v3.7h.1c1.3-3.6 3.9-5.3 7.3-5.3s5.7 1.7 7.2 5.3c1.6-4.2 6.4-6.4 10.6-4.7 1.4.5 2.6 1.4 3.5 2.6 1.8 2.4 1.4 5.9 1.4 9v18c0 .6-.5 1-1.1 1h-5.6c-.6 0-1-.4-1-1v-15.3c.1-1.8 0-3.6-.2-5.4-.4-1.9-1.7-2.5-3.3-2.5-1.5 0-2.8 1-3.3 2.3-.6 1.4-.5 3.8-.5 5.5v15.2c0 .6-.5 1-1.1 1h-5.6c-.6 0-1-.4-1-1v-15.2c0-3.2.5-7.9-3.4-7.9s-3.8 4.6-3.8 7.9v15.2c.1.6-.3 1.1-.9 1.1"/><path class="st0" d="M209.7 90.3c8.2 0 12.6 7.1 12.6 16.1 0 8.7-4.9 15.6-12.6 15.6-8 0-12.4-7.1-12.4-15.9s4.4-15.8 12.4-15.8zm0 6.6c-4.1 0-4.3 5.6-4.3 9.1s-.1 10.2 4.3 10.2 4.5-5.3 4.5-9c.1-2.6-.2-5.1-.8-7.6-.4-1.7-1.9-2.8-3.7-2.7zM234.2 121.5h-5.6c-.6 0-1-.4-1-1V91.9c.1-.5.5-.9 1.1-.9h5.2c.5 0 .9.3 1 .8v4.4h.1c1.6-3.9 3.7-5.8 7.6-5.8 2.6-.1 5.1 1.2 6.5 3.4 1.5 2.3 1.5 6.1 1.5 8.9v18c-.1.5-.5.9-1.1.9h-5.6c-.5 0-.9-.4-1-.9v-15.5c0-3.1.4-7.7-3.5-7.7-1.4.1-2.7 1-3.2 2.3-.7 1.7-1 3.6-.9 5.4v15.4c0 .5-.5.9-1.1.9"/><path class="st0" d="M171.7 116.3c-1-1.4-2.1-2.5-2.1-5.2v-8.7c0-3.7.3-7.1-2.5-9.6-2.1-2-5.7-2.8-8.4-2.8-5.3 0-11.2 2-12.5 8.5-.1.5.3 1.1.8 1.1l5.4.6c.5-.1.9-.5 1-1 .4-2.1 2.4-3.5 4.5-3.4 1.2-.1 2.4.5 3.1 1.4.8 1.1.7 2.7.7 4v.7c-3.2.4-7.5.6-10.5 1.9-3.7 1.5-6.1 5.1-5.9 9.1 0 5.8 3.6 8.7 8.3 8.7 4 0 6.1-.9 9.2-4 .8 1.4 1.9 2.7 3.2 3.7.4.2 1 .2 1.3-.1 1.1-1 3.1-2.7 4.3-3.7l.1-.1c.5-.1.4-.7 0-1.1zm-9.8-8.4c0 2.1 0 4-1 5.9-.7 1.5-2.2 2.5-3.9 2.5-2.1 0-3.4-1.6-3.4-4 0-4.7 4.3-5.6 8.3-5.6v1.2zM99.4 116.2c-1-1.4-2.1-2.5-2.1-5.2v-8.7c0-3.7.3-7.1-2.5-9.6-2.1-2-5.7-2.8-8.4-2.8-5.3 0-11.2 2-12.5 8.5-.1.5.2 1.1.8 1.2l5.4.6c.5-.1.9-.5 1-1 .4-2.1 2.4-3.5 4.5-3.4 1.2-.1 2.4.5 3.1 1.5.8 1.1.7 2.7.7 4v.7c-3.2.4-7.5.6-10.5 1.9-3.7 1.5-6.1 5.1-6 9.1 0 5.8 3.7 8.7 8.3 8.7 4 0 6.1-.9 9.2-4 .8 1.4 1.9 2.7 3.2 3.7.4.2 1 .2 1.3-.1 1.1-1 3.1-2.7 4.3-3.7l.1-.1c.5-.2.5-.9.1-1.3zm-9.9-8.3c0 2.1 0 4-1 5.9-.7 1.5-2.2 2.5-3.9 2.5-2.1 0-3.4-1.6-3.4-4 0-4.7 4.3-5.6 8.3-5.6v1.2zM-103.6 69c-1-1.4-2.1-2.5-2.1-5.2v-8.7c0-3.7.3-7.1-2.5-9.6-2.1-2-5.7-2.8-8.4-2.8-5.3 0-11.2 2-12.5 8.5-.1.5.2 1.1.8 1.2l5.4.6c.5-.1.9-.5 1-1 .4-2.1 2.4-3.5 4.5-3.3 1.2-.1 2.4.5 3.1 1.5.8 1.1.7 2.7.7 4v.8c-3.2.4-7.5.6-10.5 1.9-3.7 1.5-6.1 5.1-6 9.1 0 5.8 3.6 8.7 8.3 8.7 4 0 6.1-.9 9.2-4 .8 1.4 1.9 2.7 3.2 3.7.4.2 1 .2 1.3-.1 1.1-1 3.1-2.7 4.3-3.7l.1-.1c.5-.5.5-1.1.1-1.5zm-9.9-8.3c0 2.1 0 4-1 5.9-.7 1.5-2.2 2.5-3.9 2.5-2.1 0-3.4-1.6-3.4-4 0-4.7 4.3-5.6 8.3-5.6v1.2z"/></svg>