<svg xmlns="http://www.w3.org/2000/svg" viewBox="0 0 2500 2393" enable-background="new 0 0 2500 2393"><style type="text/css">.st0{fill:#FFFFFF;}</style><path class="st0" d="M2272.7 2386.6h-404.8l28.4-340.9h-198.9l-28.4 340.9H831l-28.4-340.9H603.7l28.4 340.9H227.3L0 909.3 568.2.2h1363.6L2500 909.3l-227.3 1477.3zM1818.2 454.8h-365.3l24.4 170.5h-454.6l24.4-170.5H681.8L454.5 909.3l113.6 909.1h1363.6l113.6-909.1-227.1-454.5zm-198.9 1061.9c-31.4 0-56.8-94.6-56.8-211.4 0-116.7 25.4-211.4 56.8-211.4s56.8 94.6 56.8 211.4c0 116.8-25.4 211.4-56.8 211.4zM902 1534.3c-31.4 0-56.8-94.6-56.8-211.4 0-116.7 25.4-211.4 56.8-211.4s56.8 94.6 56.8 211.4c0 116.8-25.4 211.4-56.8 211.4z"/></svg>