<svg xmlns="http://www.w3.org/2000/svg" viewBox="0 0 650 580" enable-background="new 0 0 650 580"><style type="text/css">.st0{display:none;fill-rule:evenodd;clip-rule:evenodd;fill:#E7E7E7;} .st1{fill-rule:evenodd;clip-rule:evenodd;fill:#E7E7E7;} .st2{fill-rule:evenodd;clip-rule:evenodd;fill:#253237;} .st3{display:none;} .st4{display:inline;fill-rule:evenodd;clip-rule:evenodd;fill:#394D54;} .st5{display:inline;fill-rule:evenodd;clip-rule:evenodd;fill:#00AADA;} .st6{display:inline;fill-rule:evenodd;clip-rule:evenodd;fill:#24B8EB;} .st7{display:inline;fill-rule:evenodd;clip-rule:evenodd;fill:#008BB8;} .st8{display:inline;fill-rule:evenodd;clip-rule:evenodd;fill:#039BC6;} .st9{display:inline;fill-rule:evenodd;clip-rule:evenodd;fill:#BFDBE0;} .st10{display:inline;fill-rule:evenodd;clip-rule:evenodd;fill:#D4EDF1;} .st11{display:inline;fill-rule:evenodd;clip-rule:evenodd;fill:#00ACD3;} .st12{display:inline;fill-rule:evenodd;clip-rule:evenodd;fill:#20C2EF;} .st13{display:inline;fill:none;stroke:#394D54;stroke-width:6.5739;stroke-linecap:round;stroke-linejoin:round;stroke-miterlimit:2.6131;} .st14{fill-rule:evenodd;clip-rule:evenodd;fill:#394D54;} .st15{fill:#00AADA;} .st16{fill:#24B8EB;} .st17{fill:#008BB8;} .st18{fill:#039BC6;} .st19{display:inline;fill:#394D54;} .st20{fill-rule:evenodd;clip-rule:evenodd;fill:#00ACD3;} .st21{fill-rule:evenodd;clip-rule:evenodd;fill:#20C2EF;} .st22{fill-rule:evenodd;clip-rule:evenodd;fill:#D4EDF1;} .st23{fill:#BFDBE0;} .st24{fill:#D4EDF1;} .st25{fill-rule:evenodd;clip-rule:evenodd;fill:#F9F9F9;} .st26{fill-rule:evenodd;clip-rule:evenodd;fill:#D1D1D1;} .st27{fill:#DEDEDE;} .st28{fill:#E3E3E3;} .st29{fill:#D9D9D9;} .st30{fill:#DCDCDC;} .st31{display:inline;fill:#D1D1D1;} .st32{fill-rule:evenodd;clip-rule:evenodd;fill:#DEDEDE;} .st33{fill-rule:evenodd;clip-rule:evenodd;fill:#E5E5E5;} .st34{fill:#F4F4F4;} .st35{fill:#F9F9F9;} .st36{display:none;fill-rule:evenodd;clip-rule:evenodd;fill:#394D54;} .st37{display:none;fill-rule:evenodd;clip-rule:evenodd;fill:#E7E7E8;} .st38{fill:#253237;}</style><path class="st0" d="M-1000 14.6h792v612h-792z"/><path class="st1" d="M-1000-700h650v580h-650z"/><path class="st2" d="M0-700h650v580H0z"/><g id="A" class="st3"><path class="st4" d="M-488.9-219.6c10.7-9.2 21.5-18.4 32.2-27.7 3.7-3.2 7.7-6.4 11.3-9.8-2.9-3.7-7.8-6.3-11.9-7.9-8.3-3.2-16.6-2.1-24.2 2.3-10 5.8-14.3 15-13.9 26.5.1 4.5 1.4 8.9 3.8 12.7.8 1.4 1.7 2.7 2.7 3.9m12.5 8.7c5.3 1.8 11.3 1.6 16.7.6 2.8-1.2 9.8-4.3 12.4-3.8l.4.1.4.2c1.6.8 3.1 1.9 3.9 3.5 1.9 3.8 1 7.6-2.7 9.7l-1.2.7c-13.7 7.9-28.3 6.8-42-.6-6.5-3.5-11.5-8.8-15.2-15.2l-.9-1.5c-8.8-15.3-7.6-31.3 2.3-45.8 3.4-5 7.9-8.9 13.2-11.9l2-1.1c12.9-7.5 26.8-7 40.1-.4 7.1 3.5 12.9 8.8 16.9 15.7l.7 1.2c2.9 5-.9 9.4-4.7 12.4-4.5 3.5-9 7.6-13.3 11.4-9.9 8.2-19.4 16.5-29 24.8zm102.8-69.4h1.4c4.3 0 7.2 2.9 7.2 7.2 0 6-5.7 7.5-10.7 7.5-6.5 0-12.7 3.9-17.2 8.3-5.6 5.5-8 12.6-8 20.3v35c0 4-2.5 7.2-6.7 7.2h-1.1c-4.2 0-6.7-3.2-6.7-7.2v-37c0-14.2 6.9-25.8 18.5-34 7-4.7 14.9-7.3 23.3-7.3zm-180.3 24.9c5.6-5.6 11.3-11.2 17-16.8 1.6-1.5 7.6-8.1 10-8.1h2.6l.3.1c3.3.7 5.8 2.8 5.8 6.3v1.4c0 2.4-2.8 5.2-4.4 6.9-3.3 3.5-6.8 6.9-10.2 10.4l-17.5 17.7c7.5 7.5 15 15.1 22.5 22.7 2.1 2.1 4.1 4.2 6.2 6.3.7.8 1.8 1.7 2.4 2.7.6 1 1 2.1 1 3.3v1.5l-.1.3c-.8 3.3-2.9 6-6.6 6h-1.2c-2.4 0-5.1-2.7-6.7-4.3-3.4-3.2-6.6-6.5-10-9.8l-11.1-10.9v17.4c0 4-2.5 7.2-6.7 7.2h-1.1c-4.2 0-6.7-3.2-6.7-7.2v-98.2c0-4 2.5-7.2 6.7-7.2h1.1c4.2 0 6.7 3.2 6.7 7.2v45.1zm-47-9.8c-2.2-1-6.3-1.4-8.6-1.5-12.1-.5-20.8 6.4-26 17-1.8 3.7-2.6 7.6-2.6 11.6 0 12.4 6.5 21.1 17.6 26.4 4 1.9 9.3 2.3 13.7 2.3 3.9 0 9.4-2.4 12.8-4l.6-.3h2.7l.3.1c3.3.7 5.8 2.8 5.8 6.3v1.4c0 8.8-16.1 10.8-22.2 11.3-21.7 1.5-37.9-10.4-44.1-31.1-1.1-3.6-1.6-7.2-1.6-10.9v-2.9c0-15.7 7.8-28.1 21.2-36.1 6.3-3.7 13.2-5.6 20.4-5.6h2.9c7.7 0 14.8 2.2 21.2 6.5l.5.4.3.5c.7 1.1 1.3 2.5 1.3 3.8v1.4c0 3.7-2.8 5.7-6.1 6.3h-1.2c-2 .2-6.9-2-8.9-2.9zm-131.9 27.5c0 11 5.4 19.1 14.7 24.8 4.4 2.7 9.2 3.9 14.3 3.9 10.9 0 18.9-5.5 24.5-14.7 2.7-4.4 3.9-9.2 3.9-14.3 0-10.2-4.9-18-13.3-23.7-4.6-3.1-9.8-4.7-15.3-4.7-12.1 0-20.8 6.1-26.1 17-1.9 3.7-2.7 7.6-2.7 11.7zm27.2-43.2h2c16.8 0 29.5 8.1 37.6 22.8 3.2 5.9 5 12.2 5 18.9v2.9c0 15.7-7.7 28.2-21.3 36.1-6.3 3.7-13.2 5.6-20.4 5.6h-2.9c-15.7 0-28.2-7.8-36.1-21.3-3.7-6.3-5.6-13.2-5.6-20.4v-2.9c0-15.7 7.8-28.1 21.2-36.1 6.3-3.7 13.3-5.6 20.5-5.6zm-121.9 43.2c0 11.3 5.5 19.8 15.4 25.3 4 2.2 8.4 3.4 13 3.4 11.1 0 19.4-5.2 25.1-14.7 2.6-4.4 3.9-9.2 3.9-14.3 0-9.8-4.7-17.5-12.6-23.2-4.8-3.5-10.2-5.2-16.1-5.2-12.1 0-20.8 6.1-26.1 17-1.8 3.7-2.6 7.6-2.6 11.7zm57.3-32.4v-30.6c0-4 2.5-7.2 6.7-7.2h1.2c4.2 0 6.7 3.2 6.7 7.2v64.3c0 15.7-7.7 28.2-21.3 36.1-6.3 3.7-13.2 5.6-20.4 5.6h-2.9c-15.7 0-28.2-7.8-36.1-21.3-3.7-6.3-5.6-13.2-5.6-20.4v-2.9c0-15.7 7.8-28.2 21.2-36.1 6.3-3.7 13.2-5.6 20.4-5.6h2.9c10.6.1 19.6 4.2 27.2 10.9zM-567-509.5h42.7v43.6h21.6c10 0 20.2-1.8 29.7-5 4.6-1.6 9.8-3.8 14.4-6.5-6-7.9-9.1-17.8-10-27.6-1.2-13.3 1.5-30.7 10.5-41.1l4.5-5.2 5.3 4.3c13.5 10.8 24.8 25.9 26.8 43.2 16.2-4.8 35.2-3.6 49.5 4.6l5.9 3.4-3.1 6c-12.1 23.6-37.4 30.9-62.1 29.6-37 92.1-117.4 135.7-215 135.7-50.4 0-96.7-18.8-123-63.6l-.4-.7-3.8-7.8c-8.9-19.7-11.9-41.3-9.9-62.8l.6-6.5h36.5v-43.6h42.7v-42.7h85.4v-42.7h51.2v85.4z"/><path class="st5" d="M-646.3-331.6c-53.7 0-94.8-22.6-115.6-57.9l-3.1-5.7c-9.4-18.5-13.5-40.1-11.3-63.6h273.6c22.5 0 44.4-8.4 54.8-17.6-18.7-15.2-16.8-51.2-4.9-65 10.3 8.3 27 25.8 24.1 48 13-6.5 35.6-9.8 53.1.4-11 21.5-35.2 27.9-60.4 25.3-35.5 94.1-115.7 136.1-210.3 136.1"/><path class="st6" d="M-760.1-458.8h257.4c22.5 0 44.4-8.4 54.8-17.6-18.7-15.2-16.8-51.2-4.9-65 10.3 8.3 27 25.8 24.1 48 .6-.3 1.1-.5 1.7-.8-39 50.2-94.8 94.1-154.8 117.2-103.1 39.6-180.9 3-178.3-81.8"/><path class="st7" d="M-646.3-331.6c-53.7 0-94.8-22.6-115.6-57.9l-3.1-5.7c-5.5-10.7-9.1-22.5-10.8-35.1H-454c-40.9 67.9-111.3 98.7-192.3 98.7"/><path class="st8" d="M-757.6-430.3h267.4c-27.9 22.3-59.1 40.8-91.5 53.2-90.8 34.9-161.9 10.8-175.9-53.2"/><path class="st9" d="M-646.3-331.6c-52.9 0-81.3-17.9-104.2-40.5l42.5-1.2 26-5.7c7.6 18.2 21.6 35 47.3 47.2-3.8.1-7.7.2-11.6.2"/><path class="st10" d="M-708.4-370.3h.3l26.2-8.8c2.5 6 5.7 11.9 9.9 17.5-13.5-1.1-25.7-4-36.4-8.7"/><path class="st11" d="M-708.2-499.3h2.9v30.8h-2.9v-30.8zm-5.6 0h3v30.8h-3v-30.8zm-5.6 0h3v30.8h-3v-30.8zm-5.6 0h3v30.8h-3v-30.8zm-5.6 0h3v30.8h-3v-30.8zm-5.5 0h2.9v30.8h-2.9v-30.8zm-3.1-3.1h37v37h-37v-37zM-665.5-542h2.9v30.8h-2.9V-542zm-5.6 0h3v30.8h-3V-542zm-5.6 0h3v30.8h-3V-542zm-5.6 0h3v30.8h-3V-542zm-5.6 0h3v30.8h-3V-542zm-5.5 0h2.9v30.8h-2.9V-542zm-3.1-3.1h37v37h-37v-37z"/><path class="st12" d="M-665.5-499.3h2.9v30.8h-2.9v-30.8zm-5.6 0h3v30.8h-3v-30.8zm-5.6 0h3v30.8h-3v-30.8zm-5.6 0h3v30.8h-3v-30.8zm-5.6 0h3v30.8h-3v-30.8zm-5.5 0h2.9v30.8h-2.9v-30.8zm-3.1-3.1h37v37h-37v-37z"/><path class="st11" d="M-622.8-499.3h2.9v30.8h-2.9v-30.8zm-5.6 0h3v30.8h-3v-30.8zm-5.6 0h3v30.8h-3v-30.8zm-5.6 0h3v30.8h-3v-30.8zm-5.6 0h3v30.8h-3v-30.8zm-5.5 0h2.9v30.8h-2.9v-30.8zm-3.1-3.1h37v37h-37v-37z"/><path class="st12" d="M-622.8-542h2.9v30.8h-2.9V-542zm-5.6 0h3v30.8h-3V-542zm-5.6 0h3v30.8h-3V-542zm-5.6 0h3v30.8h-3V-542zm-5.6 0h3v30.8h-3V-542zm-5.5 0h2.9v30.8h-2.9V-542zm-3.1-3.1h37v37h-37v-37zM-580.1-499.3h2.9v30.8h-2.9v-30.8zm-5.6 0h3v30.8h-3v-30.8zm-5.6 0h3v30.8h-3v-30.8zm-5.6 0h3v30.8h-3v-30.8zm-5.6 0h3v30.8h-3v-30.8zm-5.5 0h2.9v30.8h-2.9v-30.8zm-3.1-3.1h37v37h-37v-37z"/><path class="st11" d="M-580.1-542h2.9v30.8h-2.9V-542zm-5.6 0h3v30.8h-3V-542zm-5.6 0h3v30.8h-3V-542zm-5.6 0h3v30.8h-3V-542zm-5.6 0h3v30.8h-3V-542zm-5.5 0h2.9v30.8h-2.9V-542zm-3.1-3.1h37v37h-37v-37z"/><path class="st12" d="M-580.1-584.7h2.9v30.8h-2.9v-30.8zm-5.6 0h3v30.8h-3v-30.8zm-5.6 0h3v30.8h-3v-30.8zm-5.6 0h3v30.8h-3v-30.8zm-5.6 0h3v30.8h-3v-30.8zm-5.5 0h2.9v30.8h-2.9v-30.8zm-3.1-3.1h37v37h-37v-37z"/><path class="st11" d="M-537.4-499.3h2.9v30.8h-2.9v-30.8zm-5.6 0h3v30.8h-3v-30.8zm-5.6 0h3v30.8h-3v-30.8zm-5.6 0h3v30.8h-3v-30.8zm-5.6 0h3v30.8h-3v-30.8zm-5.5 0h2.9v30.8h-2.9v-30.8zm-3.1-3.1h37v37h-37v-37z"/><path class="st10" d="M-661.8-405.4c5.6 0 10.2 4.6 10.2 10.2s-4.6 10.2-10.2 10.2-10.2-4.6-10.2-10.2c0-5.7 4.6-10.2 10.2-10.2"/><path class="st4" d="M-661.8-402.5c.9 0 1.8.2 2.6.5-.9.5-1.5 1.5-1.5 2.6 0 1.6 1.3 3 3 3 1.1 0 2.1-.6 2.6-1.6.4.9.6 1.8.6 2.8 0 4-3.3 7.3-7.3 7.3s-7.3-3.3-7.3-7.3c0-4.1 3.3-7.3 7.3-7.3M-842.3-426.6h474.9c-10.3-2.6-32.7-6.2-29-19.7-18.8 21.8-64.1 15.3-75.6 4.5-12.7 18.5-86.9 11.5-92.1-2.9-16 18.7-65.5 18.7-81.5 0-5.2 14.4-79.4 21.4-92.1 2.9-11.4 10.7-56.8 17.2-75.6-4.5 3.7 13.6-18.7 17.1-29 19.7"/><path class="st13" d="M-756.6-375.1c26.8 1.8 62.4 1.7 80.8-7.4"/></g><path id="docker" class="st14" d="M-558.5-236.7c10.7-9.2 21.5-18.4 32.2-27.7 3.7-3.2 7.7-6.4 11.3-9.8-2.9-3.7-7.8-6.3-11.9-7.9-8.3-3.2-16.6-2.1-24.2 2.3-10 5.8-14.3 15-13.9 26.5.1 4.5 1.4 8.9 3.8 12.7.7 1.4 1.7 2.7 2.7 3.9m12.4 8.7c5.3 1.8 11.3 1.6 16.7.6 2.8-1.2 9.8-4.3 12.4-3.8l.4.1.4.2c1.6.8 3.1 1.9 3.9 3.5 1.9 3.8 1 7.6-2.7 9.7l-1.2.7c-13.7 7.9-28.3 6.8-42-.6-6.5-3.5-11.5-8.8-15.2-15.2l-.9-1.5c-8.8-15.3-7.6-31.3 2.3-45.8 3.4-5 7.9-8.9 13.2-11.9l2-1.1c12.9-7.5 26.8-7 40.1-.4 7.1 3.5 12.9 8.8 16.9 15.7l.7 1.2c2.9 5-.9 9.4-4.7 12.4-4.5 3.5-9 7.6-13.3 11.4-9.8 8.2-19.4 16.6-29 24.8zm102.8-69.4h1.4c4.3 0 7.2 2.9 7.2 7.2 0 6-5.7 7.5-10.7 7.5-6.5 0-12.7 3.9-17.2 8.3-5.6 5.5-8 12.6-8 20.3v35c0 4-2.5 7.2-6.7 7.2h-1.1c-4.2 0-6.7-3.2-6.7-7.2v-37c0-14.2 6.9-25.8 18.5-34 7-4.7 14.9-7.3 23.3-7.3zm-180.3 24.9c5.6-5.6 11.3-11.2 17-16.8 1.6-1.5 7.6-8.1 10-8.1h2.6l.3.1c3.3.7 5.8 2.8 5.8 6.3v1.4c0 2.4-2.8 5.2-4.4 6.9-3.3 3.5-6.8 6.9-10.2 10.4l-17.5 17.7c7.5 7.5 15 15.1 22.5 22.7 2.1 2.1 4.1 4.2 6.2 6.3.7.8 1.8 1.7 2.4 2.7.6 1 1 2.1 1 3.3v1.5l-.1.3c-.8 3.3-2.9 6-6.6 6h-1.2c-2.4 0-5.1-2.7-6.7-4.3-3.4-3.2-6.6-6.5-10-9.8l-11.1-10.9v17.4c0 4-2.5 7.2-6.7 7.2h-1.1c-4.2 0-6.7-3.2-6.7-7.2v-98.2c0-4 2.5-7.2 6.7-7.2h1.1c4.2 0 6.7 3.2 6.7 7.2v45.1zm-46.9-9.8c-2.2-1-6.3-1.4-8.6-1.5-12.1-.5-20.8 6.4-26 17-1.8 3.7-2.6 7.6-2.6 11.6 0 12.4 6.5 21.1 17.6 26.4 4 1.9 9.3 2.3 13.7 2.3 3.9 0 9.4-2.4 12.8-4l.6-.3h2.7l.3.1c3.3.7 5.8 2.8 5.8 6.3v1.4c0 8.8-16.1 10.8-22.2 11.3-21.7 1.5-37.9-10.4-44.1-31.1-1.1-3.6-1.6-7.2-1.6-10.9v-2.9c0-15.7 7.8-28.1 21.2-36.1 6.3-3.7 13.2-5.6 20.4-5.6h2.9c7.7 0 14.8 2.2 21.2 6.5l.5.4.3.5c.7 1.1 1.3 2.5 1.3 3.8v1.4c0 3.7-2.8 5.7-6.1 6.3h-1.2c-2.1.2-7-2-8.9-2.9zm-132 27.5c0 11 5.4 19.1 14.7 24.8 4.4 2.7 9.2 3.9 14.3 3.9 10.9 0 18.9-5.5 24.5-14.7 2.7-4.4 3.9-9.2 3.9-14.3 0-10.2-4.9-18-13.3-23.7-4.6-3.1-9.8-4.7-15.3-4.7-12.1 0-20.8 6.1-26.1 17-1.9 3.7-2.7 7.6-2.7 11.7zm27.3-43.1h2c16.8 0 29.5 8.1 37.6 22.8 3.2 5.9 5 12.2 5 18.9v2.9c0 15.7-7.7 28.2-21.3 36.1-6.3 3.7-13.2 5.6-20.4 5.6h-2.9c-15.7 0-28.2-7.8-36.1-21.2-3.7-6.3-5.6-13.2-5.6-20.4v-2.9c0-15.7 7.8-28.1 21.2-36.1 6.3-3.9 13.2-5.7 20.5-5.7zm-122 43.1c0 11.3 5.5 19.8 15.4 25.3 4 2.2 8.4 3.4 13 3.4 11.1 0 19.4-5.2 25.1-14.7 2.6-4.4 3.9-9.2 3.9-14.3 0-9.8-4.7-17.5-12.6-23.2-4.8-3.5-10.2-5.2-16.1-5.2-12.1 0-20.8 6.1-26.1 17-1.8 3.7-2.6 7.6-2.6 11.7zm57.3-32.3v-30.6c0-4 2.5-7.2 6.7-7.2h1.2c4.2 0 6.7 3.2 6.7 7.2v64.3c0 15.7-7.8 28.2-21.3 36.1-6.3 3.7-13.2 5.6-20.4 5.6h-2.9c-15.7 0-28.2-7.8-36.1-21.2-3.7-6.3-5.6-13.2-5.6-20.4v-2.9c0-15.7 7.8-28.2 21.2-36.1 6.3-3.7 13.2-5.6 20.4-5.6h2.9c10.6 0 19.6 4.1 27.2 10.8z"/><path id="outline" class="st14" d="M-636.6-526.6h42.7v43.6h21.6c10 0 20.2-1.8 29.7-5 4.6-1.6 9.8-3.8 14.4-6.5-6-7.9-9.1-17.8-10-27.6-1.2-13.3 1.5-30.7 10.5-41.1l4.5-5.2 5.3 4.3c13.5 10.8 24.8 25.9 26.8 43.2 16.2-4.8 35.2-3.6 49.5 4.6l5.9 3.4-3.1 6c-12.1 23.6-37.4 30.9-62.1 29.6-37 92.1-117.4 135.7-215 135.7-50.4 0-96.7-18.8-123-63.6l-.4-.7-3.8-7.8c-8.9-19.7-11.9-41.3-9.9-62.8l.6-6.5h36.5v-43.6h42.7v-42.7h85.4V-612h51.2v85.4z"/><g id="body_colors"><path class="st15" d="M-498.3-510.5c2.9-22.2-13.8-39.7-24.1-48-11.9 13.8-13.7 49.8 4.9 65-10.4 9.3-32.4 17.6-54.8 17.6H-846c-2.2 23.5 1.9 45.1 11.3 63.6l3.1 5.7c2 3.3 4.1 6.6 6.5 9.7 11.2.7 21.6 1 31.1.8 18.6-.4 33.9-2.6 45.4-6.6 1.7-.6 3.6.3 4.2 2 .6 1.7-.3 3.6-2 4.2-1.5.5-3.1 1-4.8 1.5-9.1 2.6-18.8 4.3-31.4 5.1.7 0-.8.1-.8.1-.4 0-1 .1-1.4.1-4.9.3-10.3.3-15.7.3-6 0-11.8-.1-18.4-.4l-.2.1c22.8 25.6 58.4 41 103.1 41 94.6 0 174.8-41.9 210.3-136 25.2 2.6 49.4-3.8 60.4-25.3-17.4-10.2-40-7-53-.5z"/><path class="st16" d="M-498.3-510.5c2.9-22.2-13.8-39.7-24.1-48-11.9 13.8-13.7 49.8 4.9 65-10.4 9.3-32.4 17.6-54.8 17.6h-257.4c-1.1 35.9 12.2 63.2 35.8 79.7 18.6-.4 33.9-2.6 45.4-6.6 1.7-.6 3.6.3 4.2 2 .6 1.7-.3 3.6-2 4.2-1.5.5-3.1 1-4.8 1.5-9.1 2.6-19.7 4.6-32.2 5.3l-.3-.3c32.2 16.5 78.9 16.5 132.4-4.1 60-23 115.8-67 154.8-117.2-.8.4-1.3.7-1.9.9z"/><path class="st17" d="M-845.4-447.3c1.7 12.6 5.4 24.3 10.8 35.1l3.1 5.7c2 3.3 4.1 6.6 6.5 9.7 11.3.7 21.6 1 31.1.8 18.6-.4 33.9-2.6 45.4-6.6 1.7-.6 3.6.3 4.2 2 .6 1.7-.3 3.6-2 4.2-1.5.5-3.1 1-4.8 1.5-9.1 2.6-19.6 4.4-32.2 5.2-.4 0-1.2 0-1.6.1-4.9.3-10.2.4-15.7.4-6 0-12.1-.1-18.6-.4 22.8 25.6 58.7 41 103.4 41 81 0 151.4-30.7 192.3-98.6h-321.9z"/><path class="st18" d="M-827.3-447.3c4.8 22.1 16.5 39.4 33.4 51.2 18.6-.4 33.9-2.6 45.4-6.6 1.7-.6 3.6.3 4.2 2 .6 1.7-.3 3.6-2 4.2-1.5.5-3.1 1-4.8 1.5-9.1 2.6-19.8 4.4-32.4 5.2 32.2 16.5 78.7 16.3 132.2-4.3 32.4-12.4 63.5-30.9 91.5-53.2h-267.5z"/></g><path class="st19" d="M-800.6-389.5c5.5 0 10.7-.1 15.6-.4.4 0 .8-.1 1.3-.1 12.6-.8 23.4-2.5 32.5-5 1.7-.5 3.2-1 4.8-1.5 1.7-.6 2.6-2.5 2-4.2-.6-1.7-2.5-2.6-4.2-2-11.5 4-26.7 6.2-45.4 6.6-9.5.2-19.9 0-31.1-.8-.6 0-1.1-.1-1.7-.1-1.8-.1-3.4 1.2-3.5 3.1-.1 1.8 1.2 3.4 3.1 3.5 2.3.2 4.6.3 6.8.4h1c6.6.3 12.9.5 18.8.5z"/><g id="Containers"><path class="st20" d="M-777.8-516.4h2.9v30.8h-2.9v-30.8zm-5.6 0h3v30.8h-3v-30.8zm-5.6 0h3v30.8h-3v-30.8zm-5.6 0h3v30.8h-3v-30.8zm-5.6 0h3v30.8h-3v-30.8zm-5.5 0h2.9v30.8h-2.9v-30.8zm-3.1-3.1h37v37h-37v-37zM-735.1-559.1h2.9v30.8h-2.9v-30.8zm-5.6 0h3v30.8h-3v-30.8zm-5.6 0h3v30.8h-3v-30.8zm-5.6 0h3v30.8h-3v-30.8zm-5.6 0h3v30.8h-3v-30.8zm-5.5 0h2.9v30.8h-2.9v-30.8zm-3.1-3.1h37v37h-37v-37z"/><path class="st21" d="M-735.1-516.4h2.9v30.8h-2.9v-30.8zm-5.6 0h3v30.8h-3v-30.8zm-5.6 0h3v30.8h-3v-30.8zm-5.6 0h3v30.8h-3v-30.8zm-5.6 0h3v30.8h-3v-30.8zm-5.5 0h2.9v30.8h-2.9v-30.8zm-3.1-3.1h37v37h-37v-37z"/><path class="st20" d="M-692.4-516.4h2.9v30.8h-2.9v-30.8zm-5.6 0h3v30.8h-3v-30.8zm-5.6 0h3v30.8h-3v-30.8zm-5.6 0h3v30.8h-3v-30.8zm-5.7 0h3v30.8h-3v-30.8zm-5.4 0h2.9v30.8h-2.9v-30.8zm-3.1-3.1h37v37h-37v-37z"/><path class="st21" d="M-692.4-559.1h2.9v30.8h-2.9v-30.8zm-5.6 0h3v30.8h-3v-30.8zm-5.6 0h3v30.8h-3v-30.8zm-5.6 0h3v30.8h-3v-30.8zm-5.7 0h3v30.8h-3v-30.8zm-5.4 0h2.9v30.8h-2.9v-30.8zm-3.1-3.1h37v37h-37v-37zM-649.7-516.4h2.9v30.8h-2.9v-30.8zm-5.6 0h3v30.8h-3v-30.8zm-5.6 0h3v30.8h-3v-30.8zm-5.7 0h3v30.8h-3v-30.8zm-5.6 0h3v30.8h-3v-30.8zm-5.4 0h2.9v30.8h-2.9v-30.8zm-3.1-3.1h37v37h-37v-37z"/><path class="st20" d="M-649.7-559.1h2.9v30.8h-2.9v-30.8zm-5.6 0h3v30.8h-3v-30.8zm-5.6 0h3v30.8h-3v-30.8zm-5.7 0h3v30.8h-3v-30.8zm-5.6 0h3v30.8h-3v-30.8zm-5.4 0h2.9v30.8h-2.9v-30.8zm-3.1-3.1h37v37h-37v-37z"/><path class="st21" d="M-649.7-601.8h2.9v30.8h-2.9v-30.8zm-5.6 0h3v30.8h-3v-30.8zm-5.6 0h3v30.8h-3v-30.8zm-5.7 0h3v30.8h-3v-30.8zm-5.6 0h3v30.8h-3v-30.8zm-5.4 0h2.9v30.8h-2.9v-30.8zm-3.1-3.1h37v37h-37v-37z"/><path class="st20" d="M-607-516.4h2.9v30.8h-2.9v-30.8zm-5.6 0h3v30.8h-3v-30.8zm-5.7 0h3v30.8h-3v-30.8zm-5.6 0h3v30.8h-3v-30.8zm-5.6 0h3v30.8h-3v-30.8zm-5.5 0h2.9v30.8h-2.9v-30.8zm-3-3.1h37v37h-37v-37z"/></g><path class="st22" d="M-731.4-422.5c5.6 0 10.2 4.6 10.2 10.2s-4.6 10.2-10.2 10.2-10.2-4.6-10.2-10.2 4.5-10.2 10.2-10.2"/><path class="st14" d="M-731.4-419.6c.9 0 1.8.2 2.6.5-.9.5-1.5 1.5-1.5 2.6 0 1.6 1.3 3 3 3 1.1 0 2.1-.6 2.6-1.6.4.9.6 1.8.6 2.8 0 4-3.3 7.3-7.3 7.3s-7.3-3.3-7.3-7.3 3.2-7.3 7.3-7.3M-912-443.7h474.9c-10.3-2.6-32.7-6.2-29-19.7-18.8 21.8-64.1 15.3-75.6 4.5-12.7 18.5-86.9 11.5-92.1-2.9-16 18.7-65.5 18.7-81.5 0-5.2 14.4-79.4 21.4-92.1 2.9-11.4 10.7-56.8 17.2-75.6-4.5 3.7 13.6-18.7 17.1-29 19.7"/><path class="st23" d="M-704.3-348.9c-25.3-12-39.2-28.3-46.9-46.1-9.4 2.7-20.7 4.4-33.8 5.1-4.9.3-10.1.4-15.6.4-6.3 0-12.9-.2-19.9-.6 23.2 23.2 51.7 41 104.5 41.3 4 .1 7.8 0 11.7-.1z"/><path class="st24" d="M-741.8-378.6c-3.5-4.7-6.9-10.7-9.4-16.4-9.4 2.7-20.7 4.4-33.8 5.1 9 4.9 21.9 9.4 43.2 11.3z"/><path id="docker_1_" class="st1" d="M441.5-236.7c10.7-9.2 21.5-18.4 32.2-27.7 3.7-3.2 7.7-6.4 11.3-9.8-2.9-3.7-7.8-6.3-11.9-7.9-8.3-3.2-16.6-2.1-24.2 2.3-10 5.8-14.3 15-13.9 26.5.1 4.5 1.4 8.9 3.8 12.7.7 1.4 1.7 2.7 2.7 3.9m12.4 8.7c5.3 1.8 11.3 1.6 16.7.6 2.8-1.2 9.8-4.3 12.4-3.8l.4.1.4.2c1.6.8 3.1 1.9 3.9 3.5 1.9 3.8 1 7.6-2.7 9.7l-1.2.7c-13.7 7.9-28.3 6.8-42-.6-6.5-3.5-11.5-8.8-15.2-15.2l-.9-1.5c-8.8-15.3-7.6-31.3 2.3-45.8 3.4-5 7.9-8.9 13.2-11.9l2-1.1c12.9-7.5 26.8-7 40.1-.4 7.1 3.5 12.9 8.8 16.9 15.7l.7 1.2c2.9 5-.9 9.4-4.7 12.4-4.5 3.5-9 7.6-13.3 11.4-9.8 8.2-19.4 16.6-29 24.8zm102.8-69.4h1.4c4.3 0 7.2 2.9 7.2 7.2 0 6-5.7 7.5-10.7 7.5-6.5 0-12.7 3.9-17.2 8.3-5.6 5.5-8 12.6-8 20.3v35c0 4-2.5 7.2-6.7 7.2h-1.1c-4.2 0-6.7-3.2-6.7-7.2v-37c0-14.2 6.9-25.8 18.5-34 7-4.7 14.9-7.3 23.3-7.3zm-180.3 24.9c5.6-5.6 11.3-11.2 17-16.8 1.6-1.5 7.6-8.1 10-8.1h2.6l.3.1c3.3.7 5.8 2.8 5.8 6.3v1.4c0 2.4-2.8 5.2-4.4 6.9-3.3 3.5-6.8 6.9-10.2 10.4L380-254.6c7.5 7.5 15 15.1 22.5 22.7 2.1 2.1 4.1 4.2 6.2 6.3.7.8 1.8 1.7 2.4 2.7.6 1 1 2.1 1 3.3v1.5l-.1.3c-.8 3.3-2.9 6-6.6 6h-1.2c-2.4 0-5.1-2.7-6.7-4.3-3.4-3.2-6.6-6.5-10-9.8l-11.1-10.9v17.4c0 4-2.5 7.2-6.7 7.2h-1.1c-4.2 0-6.7-3.2-6.7-7.2v-98.2c0-4 2.5-7.2 6.7-7.2h1.1c4.2 0 6.7 3.2 6.7 7.2v45.1zm-46.9-9.8c-2.2-1-6.3-1.4-8.6-1.5-12.1-.5-20.8 6.4-26 17-1.8 3.7-2.6 7.6-2.6 11.6 0 12.4 6.5 21.1 17.6 26.4 4 1.9 9.3 2.3 13.7 2.3 3.9 0 9.4-2.4 12.8-4l.6-.3h2.7l.3.1c3.3.7 5.8 2.8 5.8 6.3v1.4c0 8.8-16.1 10.8-22.2 11.3-21.7 1.5-37.9-10.4-44.1-31.1-1.1-3.6-1.6-7.2-1.6-10.9v-2.9c0-15.7 7.8-28.1 21.2-36.1 6.3-3.7 13.2-5.6 20.4-5.6h2.9c7.7 0 14.8 2.2 21.2 6.5l.5.4.3.5c.7 1.1 1.3 2.5 1.3 3.8v1.4c0 3.7-2.8 5.7-6.1 6.3h-1.2c-2.1.2-7-2-8.9-2.9zm-132 27.5c0 11 5.4 19.1 14.7 24.8 4.4 2.7 9.2 3.9 14.3 3.9 10.9 0 18.9-5.5 24.5-14.7 2.7-4.4 3.9-9.2 3.9-14.3 0-10.2-4.9-18-13.3-23.7-4.6-3.1-9.8-4.7-15.3-4.7-12.1 0-20.8 6.1-26.1 17-1.9 3.7-2.7 7.6-2.7 11.7zm27.3-43.1h2c16.8 0 29.5 8.1 37.6 22.8 3.2 5.9 5 12.2 5 18.9v2.9c0 15.7-7.7 28.2-21.3 36.1-6.3 3.7-13.2 5.6-20.4 5.6h-2.9c-15.7 0-28.2-7.8-36.1-21.2-3.7-6.3-5.6-13.2-5.6-20.4v-2.9c0-15.7 7.8-28.1 21.2-36.1 6.3-3.9 13.2-5.7 20.5-5.7zm-122 43.1c0 11.3 5.5 19.8 15.4 25.3 4 2.2 8.4 3.4 13 3.4 11.1 0 19.4-5.2 25.1-14.7 2.6-4.4 3.9-9.2 3.9-14.3 0-9.8-4.7-17.5-12.6-23.2-4.8-3.5-10.2-5.2-16.1-5.2-12.1 0-20.8 6.1-26.1 17-1.8 3.7-2.6 7.6-2.6 11.7zm57.3-32.3v-30.6c0-4 2.5-7.2 6.7-7.2h1.2c4.2 0 6.7 3.2 6.7 7.2v64.3c0 15.7-7.8 28.2-21.3 36.1-6.3 3.7-13.2 5.6-20.4 5.6h-3c-15.7 0-28.2-7.8-36.1-21.2-3.7-6.3-5.6-13.2-5.6-20.4v-2.9c0-15.7 7.8-28.2 21.2-36.1 6.3-3.7 13.2-5.6 20.4-5.6h2.9c10.7 0 19.7 4.1 27.3 10.8z"/><path id="outline_1_" class="st14" d="M363.4-526.6h42.7v43.6h21.6c10 0 20.2-1.8 29.7-5 4.6-1.6 9.8-3.8 14.4-6.5-6-7.9-9.1-17.8-10-27.6-1.2-13.3 1.5-30.7 10.5-41.1l4.5-5.2 5.3 4.3c13.5 10.8 24.8 25.9 26.8 43.2 16.2-4.8 35.2-3.6 49.5 4.6l5.9 3.4-3.1 6c-12.1 23.6-37.4 30.9-62.1 29.6-37 92.1-117.4 135.7-215 135.7-50.4 0-96.7-18.8-123-63.6l-.4-.7-3.8-7.8C148-433.4 145-455 147-476.5l.6-6.5h36.5v-43.6h42.7v-42.7h85.4V-612h51.2v85.4z"/><g id="body_colors_1_"><path class="st15" d="M501.7-510.5c2.9-22.2-13.8-39.7-24.1-48-11.9 13.8-13.7 49.8 4.9 65-10.4 9.3-32.4 17.6-54.8 17.6H154c-2.2 23.5 1.9 45.1 11.3 63.6l3.1 5.7c2 3.3 4.1 6.6 6.5 9.7 11.2.7 21.6 1 31.1.8 18.6-.4 33.9-2.6 45.4-6.6 1.7-.6 3.6.3 4.2 2 .6 1.7-.3 3.6-2 4.2-1.5.5-3.1 1-4.8 1.5-9.1 2.6-18.8 4.3-31.4 5.1.7 0-.8.1-.8.1-.4 0-1 .1-1.4.1-4.9.3-10.3.3-15.7.3-6 0-11.8-.1-18.4-.4l-.2.1c22.8 25.6 58.4 41 103.1 41 94.6 0 174.8-41.9 210.3-136 25.2 2.6 49.4-3.8 60.4-25.3-17.4-10.2-40-7-53-.5z"/><path class="st16" d="M501.7-510.5c2.9-22.2-13.8-39.7-24.1-48-11.9 13.8-13.7 49.8 4.9 65-10.4 9.3-32.4 17.6-54.8 17.6H170.2c-1.1 35.9 12.2 63.2 35.8 79.7 18.6-.4 33.9-2.6 45.4-6.6 1.7-.6 3.6.3 4.2 2 .6 1.7-.3 3.6-2 4.2-1.5.5-3.1 1-4.8 1.5-9.1 2.6-19.7 4.6-32.2 5.3l-.3-.3c32.2 16.5 78.9 16.4 132.4-4.1 60-23 115.8-67 154.8-117.2-.7.4-1.2.7-1.8.9z"/><path class="st17" d="M154.6-447.3c1.7 12.6 5.4 24.3 10.8 35.1l3.1 5.7c2 3.3 4.1 6.6 6.5 9.7 11.3.7 21.6 1 31.1.8 18.6-.4 33.9-2.6 45.4-6.6 1.7-.6 3.6.3 4.2 2 .6 1.7-.3 3.6-2 4.2-1.5.5-3.1 1-4.8 1.5-9.1 2.6-19.6 4.4-32.2 5.2-.4 0-1.2 0-1.6.1-4.9.3-10.2.4-15.7.4-6 0-12.1-.1-18.6-.4 22.8 25.6 58.7 41 103.4 41 81 0 151.4-30.7 192.3-98.6H154.6z"/><path class="st18" d="M172.7-447.3c4.8 22.1 16.5 39.4 33.4 51.2 18.6-.4 33.9-2.6 45.4-6.6 1.7-.6 3.6.3 4.2 2 .6 1.7-.3 3.6-2 4.2-1.5.5-3.1 1-4.8 1.5-9.1 2.6-19.8 4.4-32.4 5.2 32.2 16.5 78.7 16.3 132.2-4.3 32.4-12.4 63.5-30.9 91.5-53.2H172.7z"/></g><path class="st19" d="M199.4-389.5c5.5 0 10.7-.1 15.6-.4.4 0 .8-.1 1.3-.1 12.6-.8 23.4-2.5 32.5-5 1.7-.5 3.2-1 4.8-1.5 1.7-.6 2.6-2.5 2-4.2-.6-1.7-2.5-2.6-4.2-2-11.5 4-26.7 6.2-45.4 6.6-9.5.2-19.9 0-31.1-.8-.6 0-1.1-.1-1.7-.1-1.8-.1-3.4 1.2-3.5 3.1-.1 1.8 1.2 3.4 3.1 3.5 2.3.2 4.6.3 6.8.4h1c6.6.3 12.9.5 18.8.5z"/><g id="Containers_1_"><path class="st20" d="M222.2-516.4h2.9v30.8h-2.9v-30.8zm-5.6 0h3v30.8h-3v-30.8zm-5.6 0h3v30.8h-3v-30.8zm-5.6 0h3v30.8h-3v-30.8zm-5.6 0h3v30.8h-3v-30.8zm-5.5 0h2.9v30.8h-2.9v-30.8zm-3.1-3.1h37v37h-37v-37zM264.9-559.1h2.9v30.8h-2.9v-30.8zm-5.6 0h3v30.8h-3v-30.8zm-5.6 0h3v30.8h-3v-30.8zm-5.6 0h3v30.8h-3v-30.8zm-5.6 0h3v30.8h-3v-30.8zm-5.5 0h2.9v30.8H237v-30.8zm-3.1-3.1h37v37h-37v-37z"/><path class="st21" d="M264.9-516.4h2.9v30.8h-2.9v-30.8zm-5.6 0h3v30.8h-3v-30.8zm-5.6 0h3v30.8h-3v-30.8zm-5.6 0h3v30.8h-3v-30.8zm-5.6 0h3v30.8h-3v-30.8zm-5.5 0h2.9v30.8H237v-30.8zm-3.1-3.1h37v37h-37v-37z"/><path class="st20" d="M307.6-516.4h2.9v30.8h-2.9v-30.8zm-5.6 0h3v30.8h-3v-30.8zm-5.6 0h3v30.8h-3v-30.8zm-5.6 0h3v30.8h-3v-30.8zm-5.7 0h3v30.8h-3v-30.8zm-5.4 0h2.9v30.8h-2.9v-30.8zm-3.1-3.1h37v37h-37v-37z"/><path class="st21" d="M307.6-559.1h2.9v30.8h-2.9v-30.8zm-5.6 0h3v30.8h-3v-30.8zm-5.6 0h3v30.8h-3v-30.8zm-5.6 0h3v30.8h-3v-30.8zm-5.7 0h3v30.8h-3v-30.8zm-5.4 0h2.9v30.8h-2.9v-30.8zm-3.1-3.1h37v37h-37v-37zM350.3-516.4h2.9v30.8h-2.9v-30.8zm-5.6 0h3v30.8h-3v-30.8zm-5.6 0h3v30.8h-3v-30.8zm-5.7 0h3v30.8h-3v-30.8zm-5.6 0h3v30.8h-3v-30.8zm-5.4 0h2.9v30.8h-2.9v-30.8zm-3.1-3.1h37v37h-37v-37z"/><path class="st20" d="M350.3-559.1h2.9v30.8h-2.9v-30.8zm-5.6 0h3v30.8h-3v-30.8zm-5.6 0h3v30.8h-3v-30.8zm-5.7 0h3v30.8h-3v-30.8zm-5.6 0h3v30.8h-3v-30.8zm-5.4 0h2.9v30.8h-2.9v-30.8zm-3.1-3.1h37v37h-37v-37z"/><path class="st21" d="M350.3-601.8h2.9v30.8h-2.9v-30.8zm-5.6 0h3v30.8h-3v-30.8zm-5.6 0h3v30.8h-3v-30.8zm-5.7 0h3v30.8h-3v-30.8zm-5.6 0h3v30.8h-3v-30.8zm-5.4 0h2.9v30.8h-2.9v-30.8zm-3.1-3.1h37v37h-37v-37z"/><path class="st20" d="M393-516.4h2.9v30.8H393v-30.8zm-5.6 0h3v30.8h-3v-30.8zm-5.7 0h3v30.8h-3v-30.8zm-5.6 0h3v30.8h-3v-30.8zm-5.6 0h3v30.8h-3v-30.8zm-5.5 0h2.9v30.8H365v-30.8zm-3-3.1h37v37h-37v-37z"/></g><path class="st22" d="M268.6-422.5c5.6 0 10.2 4.6 10.2 10.2s-4.6 10.2-10.2 10.2-10.2-4.6-10.2-10.2 4.5-10.2 10.2-10.2"/><path class="st14" d="M268.6-419.6c.9 0 1.8.2 2.6.5-.9.5-1.5 1.5-1.5 2.6 0 1.6 1.3 3 3 3 1.1 0 2.1-.6 2.6-1.6.4.9.6 1.8.6 2.8 0 4-3.3 7.3-7.3 7.3s-7.3-3.3-7.3-7.3 3.2-7.3 7.3-7.3M88-443.7h474.9c-10.3-2.6-32.7-6.2-29-19.7-18.8 21.8-64.1 15.3-75.6 4.5-12.7 18.5-86.9 11.5-92.1-2.9-16 18.7-65.5 18.7-81.5 0-5.2 14.4-79.4 21.4-92.1 2.9-11.4 10.7-56.8 17.2-75.6-4.5 3.7 13.6-18.7 17.1-29 19.7"/><path class="st23" d="M295.7-348.9c-25.3-12-39.2-28.3-46.9-46.1-9.4 2.7-20.7 4.4-33.8 5.1-4.9.3-10.1.4-15.6.4-6.3 0-12.9-.2-19.9-.6 23.2 23.2 51.7 41 104.5 41.3 4 .1 7.8 0 11.7-.1z"/><path class="st24" d="M258.2-378.6c-3.5-4.7-6.9-10.7-9.4-16.4-9.4 2.7-20.7 4.4-33.8 5.1 9 4.9 21.9 9.4 43.2 11.3z"/><path id="docker_2_" class="st25" d="M441.5 463.3c10.7-9.2 21.5-18.4 32.2-27.7 3.7-3.2 7.7-6.4 11.3-9.8-2.9-3.7-7.8-6.3-11.9-7.9-8.3-3.2-16.6-2.1-24.2 2.3-10 5.8-14.3 15-13.9 26.5.1 4.5 1.4 8.9 3.8 12.7.7 1.4 1.7 2.7 2.7 3.9m12.4 8.7c5.3 1.8 11.3 1.6 16.7.6 2.8-1.2 9.8-4.3 12.4-3.8l.4.1.4.2c1.6.8 3.1 1.9 3.9 3.5 1.9 3.8 1 7.6-2.7 9.7l-1.2.7c-13.7 7.9-28.3 6.8-42-.6-6.5-3.5-11.5-8.8-15.2-15.2l-.9-1.5c-8.8-15.3-7.6-31.3 2.3-45.8 3.4-5 7.9-8.9 13.2-11.9l2-1.1c12.9-7.5 26.8-7 40.1-.4 7.1 3.5 12.9 8.8 16.9 15.7l.7 1.2c2.9 5-.9 9.4-4.7 12.4-4.5 3.5-9 7.6-13.3 11.4-9.8 8.2-19.4 16.6-29 24.8zm102.8-69.4h1.4c4.3 0 7.2 2.9 7.2 7.2 0 6-5.7 7.5-10.7 7.5-6.5 0-12.7 3.9-17.2 8.3-5.6 5.5-8 12.6-8 20.3v35c0 4-2.5 7.2-6.7 7.2h-1.1c-4.2 0-6.7-3.2-6.7-7.2v-37c0-14.2 6.9-25.8 18.5-34 7-4.7 14.9-7.3 23.3-7.3zm-180.3 24.9c5.6-5.6 11.3-11.2 17-16.8 1.6-1.5 7.6-8.1 10-8.1h2.6l.3.1c3.3.7 5.8 2.8 5.8 6.3v1.4c0 2.4-2.8 5.2-4.4 6.9-3.3 3.5-6.8 6.9-10.2 10.4L380 445.4c7.5 7.5 15 15.1 22.5 22.7 2.1 2.1 4.1 4.2 6.2 6.3.7.8 1.8 1.7 2.4 2.7.6 1 1 2.1 1 3.3v1.5l-.1.3c-.8 3.3-2.9 6-6.6 6h-1.2c-2.4 0-5.1-2.7-6.7-4.3-3.4-3.2-6.6-6.5-10-9.8l-11.1-10.9v17.4c0 4-2.5 7.2-6.7 7.2h-1.1c-4.2 0-6.7-3.2-6.7-7.2v-98.2c0-4 2.5-7.2 6.7-7.2h1.1c4.2 0 6.7 3.2 6.7 7.2v45.1zm-46.9-9.8c-2.2-1-6.3-1.4-8.6-1.5-12.1-.5-20.8 6.4-26 17-1.8 3.7-2.6 7.6-2.6 11.6 0 12.4 6.5 21.1 17.6 26.4 4 1.9 9.3 2.3 13.7 2.3 3.9 0 9.4-2.4 12.8-4l.6-.3h2.7l.3.1c3.3.7 5.8 2.8 5.8 6.3v1.4c0 8.8-16.1 10.8-22.2 11.3-21.7 1.5-37.9-10.4-44.1-31.1-1.1-3.6-1.6-7.2-1.6-10.9v-2.9c0-15.7 7.8-28.1 21.2-36.1 6.3-3.7 13.2-5.6 20.4-5.6h2.9c7.7 0 14.8 2.2 21.2 6.5l.5.4.3.5c.7 1.1 1.3 2.5 1.3 3.8v1.4c0 3.7-2.8 5.7-6.1 6.3h-1.2c-2.1.2-7-2-8.9-2.9zm-132 27.5c0 11 5.4 19.1 14.7 24.8 4.4 2.7 9.2 3.9 14.3 3.9 10.9 0 18.9-5.5 24.5-14.7 2.7-4.4 3.9-9.2 3.9-14.3 0-10.2-4.9-18-13.3-23.7-4.6-3.1-9.8-4.7-15.3-4.7-12.1 0-20.8 6.1-26.1 17-1.9 3.7-2.7 7.6-2.7 11.7zm27.3-43.1h2c16.8 0 29.5 8.1 37.6 22.8 3.2 5.9 5 12.2 5 18.9v2.9c0 15.7-7.7 28.2-21.3 36.1-6.3 3.7-13.2 5.6-20.4 5.6h-2.9c-15.7 0-28.2-7.8-36.1-21.2-3.7-6.3-5.6-13.2-5.6-20.4v-2.9c0-15.7 7.8-28.1 21.2-36.1 6.3-3.9 13.2-5.7 20.5-5.7zm-122 43.1c0 11.3 5.5 19.8 15.4 25.3 4 2.2 8.4 3.4 13 3.4 11.1 0 19.4-5.2 25.1-14.7 2.6-4.4 3.9-9.2 3.9-14.3 0-9.8-4.7-17.5-12.6-23.2-4.8-3.5-10.2-5.2-16.1-5.2-12.1 0-20.8 6.1-26.1 17-1.8 3.7-2.6 7.6-2.6 11.7zm57.3-32.3v-30.6c0-4 2.5-7.2 6.7-7.2h1.2c4.2 0 6.7 3.2 6.7 7.2v64.3c0 15.7-7.8 28.2-21.3 36.1-6.3 3.7-13.2 5.6-20.4 5.6h-3c-15.7 0-28.2-7.8-36.1-21.2-3.7-6.3-5.6-13.2-5.6-20.4v-2.9c0-15.7 7.8-28.2 21.2-36.1 6.3-3.7 13.2-5.6 20.4-5.6h2.9c10.7 0 19.7 4.1 27.3 10.8z"/><path id="outline_4_" class="st26" d="M363.4 173.4h42.7V217h21.6c10 0 20.2-1.8 29.7-5 4.6-1.6 9.8-3.8 14.4-6.5-6-7.9-9.1-17.8-10-27.6-1.2-13.3 1.5-30.7 10.5-41.1l4.5-5.2 5.3 4.3c13.5 10.8 24.8 25.9 26.8 43.2 16.2-4.8 35.2-3.6 49.5 4.6l5.9 3.4-3.1 6c-12.1 23.6-37.4 30.9-62.1 29.6-37 92.1-117.4 135.7-215 135.7-50.4 0-96.7-18.8-123-63.6l-.4-.7-3.8-7.8C148 266.6 145 245 147 223.5l.6-6.5h36.5v-43.6h42.7v-42.7h85.4V88h51.2v85.4z"/><g id="body_colors_4_"><path class="st27" d="M501.7 189.5c2.9-22.2-13.8-39.7-24.1-48-11.9 13.8-13.7 49.8 4.9 65-10.4 9.3-32.4 17.6-54.8 17.6H154c-2.2 23.5 1.9 45.1 11.3 63.6l3.1 5.7c2 3.3 4.1 6.6 6.5 9.7 11.2.7 21.6 1 31.1.8 18.6-.4 33.9-2.6 45.4-6.6 1.7-.6 3.6.3 4.2 2 .6 1.7-.3 3.6-2 4.2-1.5.5-3.1 1-4.8 1.5-9.1 2.6-18.8 4.3-31.4 5.1.7 0-.8.1-.8.1-.4 0-1 .1-1.4.1-4.9.3-10.3.3-15.7.3-6 0-11.8-.1-18.4-.4l-.2.1c22.8 25.6 58.4 41 103.1 41 94.6 0 174.8-41.9 210.3-136 25.2 2.6 49.4-3.8 60.4-25.3-17.4-10.2-40-7-53-.5z"/><path class="st28" d="M501.7 189.5c2.9-22.2-13.8-39.7-24.1-48-11.9 13.8-13.7 49.8 4.9 65-10.4 9.3-32.4 17.6-54.8 17.6H170.2c-1.1 35.9 12.2 63.2 35.8 79.7 18.6-.4 33.9-2.6 45.4-6.6 1.7-.6 3.6.3 4.2 2 .6 1.7-.3 3.6-2 4.2-1.5.5-3.1 1-4.8 1.5-9.1 2.6-19.7 4.6-32.2 5.3l-.3-.3c32.2 16.5 78.9 16.4 132.4-4.1 60-23 115.8-67 154.8-117.2-.7.4-1.2.7-1.8.9z"/><path class="st29" d="M154.6 252.7c1.7 12.6 5.4 24.3 10.8 35.1l3.1 5.7c2 3.3 4.1 6.6 6.5 9.7 11.3.7 21.6 1 31.1.8 18.6-.4 33.9-2.6 45.4-6.6 1.7-.6 3.6.3 4.2 2 .6 1.7-.3 3.6-2 4.2-1.5.5-3.1 1-4.8 1.5-9.1 2.6-19.6 4.4-32.2 5.2-.4 0-1.2 0-1.6.1-4.9.3-10.2.4-15.7.4-6 0-12.1-.1-18.6-.4 22.8 25.6 58.7 41 103.4 41 81 0 151.4-30.7 192.3-98.6H154.6z"/><path class="st30" d="M172.7 252.7c4.8 22.1 16.5 39.4 33.4 51.2 18.6-.4 33.9-2.6 45.4-6.6 1.7-.6 3.6.3 4.2 2 .6 1.7-.3 3.6-2 4.2-1.5.5-3.1 1-4.8 1.5-9.1 2.6-19.8 4.4-32.4 5.2 32.2 16.5 78.7 16.3 132.2-4.3 32.4-12.4 63.5-30.9 91.5-53.2H172.7z"/></g><path class="st31" d="M199.4 310.5c5.5 0 10.7-.1 15.6-.4.4 0 .8-.1 1.3-.1 12.6-.8 23.4-2.5 32.5-5 1.7-.5 3.2-1 4.8-1.5 1.7-.6 2.6-2.5 2-4.2-.6-1.7-2.5-2.6-4.2-2-11.5 4-26.7 6.2-45.4 6.6-9.5.2-19.9 0-31.1-.8-.6 0-1.1-.1-1.7-.1-1.8-.1-3.4 1.2-3.5 3.1-.1 1.8 1.2 3.4 3.1 3.5 2.3.2 4.6.3 6.8.4h1c6.6.3 12.9.5 18.8.5z"/><g id="Containers_4_"><path class="st32" d="M222.2 183.6h2.9v30.8h-2.9v-30.8zm-5.6 0h3v30.8h-3v-30.8zm-5.6 0h3v30.8h-3v-30.8zm-5.6 0h3v30.8h-3v-30.8zm-5.6 0h3v30.8h-3v-30.8zm-5.5 0h2.9v30.8h-2.9v-30.8zm-3.1-3.1h37v37h-37v-37zM264.9 140.9h2.9v30.8h-2.9v-30.8zm-5.6 0h3v30.8h-3v-30.8zm-5.6 0h3v30.8h-3v-30.8zm-5.6 0h3v30.8h-3v-30.8zm-5.6 0h3v30.8h-3v-30.8zm-5.5 0h2.9v30.8H237v-30.8zm-3.1-3.1h37v37h-37v-37z"/><path class="st33" d="M264.9 183.6h2.9v30.8h-2.9v-30.8zm-5.6 0h3v30.8h-3v-30.8zm-5.6 0h3v30.8h-3v-30.8zm-5.6 0h3v30.8h-3v-30.8zm-5.6 0h3v30.8h-3v-30.8zm-5.5 0h2.9v30.8H237v-30.8zm-3.1-3.1h37v37h-37v-37z"/><path class="st32" d="M307.6 183.6h2.9v30.8h-2.9v-30.8zm-5.6 0h3v30.8h-3v-30.8zm-5.6 0h3v30.8h-3v-30.8zm-5.6 0h3v30.8h-3v-30.8zm-5.7 0h3v30.8h-3v-30.8zm-5.4 0h2.9v30.8h-2.9v-30.8zm-3.1-3.1h37v37h-37v-37z"/><path class="st33" d="M307.6 140.9h2.9v30.8h-2.9v-30.8zm-5.6 0h3v30.8h-3v-30.8zm-5.6 0h3v30.8h-3v-30.8zm-5.6 0h3v30.8h-3v-30.8zm-5.7 0h3v30.8h-3v-30.8zm-5.4 0h2.9v30.8h-2.9v-30.8zm-3.1-3.1h37v37h-37v-37zM350.3 183.6h2.9v30.8h-2.9v-30.8zm-5.6 0h3v30.8h-3v-30.8zm-5.6 0h3v30.8h-3v-30.8zm-5.7 0h3v30.8h-3v-30.8zm-5.6 0h3v30.8h-3v-30.8zm-5.4 0h2.9v30.8h-2.9v-30.8zm-3.1-3.1h37v37h-37v-37z"/><path class="st32" d="M350.3 140.9h2.9v30.8h-2.9v-30.8zm-5.6 0h3v30.8h-3v-30.8zm-5.6 0h3v30.8h-3v-30.8zm-5.7 0h3v30.8h-3v-30.8zm-5.6 0h3v30.8h-3v-30.8zm-5.4 0h2.9v30.8h-2.9v-30.8zm-3.1-3.1h37v37h-37v-37z"/><path class="st33" d="M350.3 98.2h2.9V129h-2.9V98.2zm-5.6 0h3V129h-3V98.2zm-5.6 0h3V129h-3V98.2zm-5.7 0h3V129h-3V98.2zm-5.6 0h3V129h-3V98.2zm-5.4 0h2.9V129h-2.9V98.2zm-3.1-3.1h37v37h-37v-37z"/><path class="st32" d="M393 183.6h2.9v30.8H393v-30.8zm-5.6 0h3v30.8h-3v-30.8zm-5.7 0h3v30.8h-3v-30.8zm-5.6 0h3v30.8h-3v-30.8zm-5.6 0h3v30.8h-3v-30.8zm-5.5 0h2.9v30.8H365v-30.8zm-3-3.1h37v37h-37v-37z"/></g><path class="st25" d="M268.6 277.5c5.6 0 10.2 4.6 10.2 10.2s-4.6 10.2-10.2 10.2-10.2-4.6-10.2-10.2 4.5-10.2 10.2-10.2"/><path class="st26" d="M268.6 280.4c.9 0 1.8.2 2.6.5-.9.5-1.5 1.5-1.5 2.6 0 1.6 1.3 3 3 3 1.1 0 2.1-.6 2.6-1.6.4.9.6 1.8.6 2.8 0 4-3.3 7.3-7.3 7.3s-7.3-3.3-7.3-7.3 3.2-7.3 7.3-7.3M88 256.3h474.9c-10.3-2.6-32.7-6.2-29-19.7-18.8 21.8-64.1 15.3-75.6 4.5-12.7 18.5-86.9 11.5-92.1-2.9-16 18.7-65.5 18.7-81.5 0-5.2 14.4-79.4 21.4-92.1 2.9-11.4 10.7-56.8 17.2-75.6-4.5 3.7 13.6-18.7 17.1-29 19.7"/><path class="st34" d="M295.7 351.1c-25.3-12-39.2-28.3-46.9-46.1-9.4 2.7-20.7 4.4-33.8 5.1-4.9.3-10.1.4-15.6.4-6.3 0-12.9-.2-19.9-.6 23.2 23.2 51.7 41 104.5 41.3 4 .1 7.8 0 11.7-.1z"/><path class="st35" d="M258.2 321.4c-3.5-4.7-6.9-10.7-9.4-16.4-9.4 2.7-20.7 4.4-33.8 5.1 9 4.9 21.9 9.4 43.2 11.3z"/><path id="outline_5_" class="st36" d="M234.1 1688.1h42.7v43.6h21.6c10 0 20.2-1.8 29.7-5 4.6-1.6 9.8-3.8 14.4-6.5-6-7.9-9.1-17.8-10-27.6-1.2-13.3 1.5-30.7 10.5-41.1l4.5-5.2 5.3 4.3c13.5 10.8 24.8 25.9 26.8 43.2 16.2-4.8 35.2-3.6 49.5 4.6l5.9 3.4-3.1 6c-12.1 23.6-37.4 30.9-62.1 29.6-37 92.1-117.4 135.7-215 135.7-50.4 0-96.7-18.8-123-63.6l-.4-.7-3.8-7.8c-8.9-19.7-11.9-41.3-9.9-62.8l.6-6.5h36.5v-43.6h42.7v-42.7h85.4v-42.7h51.2v85.4z"/><path class="st19" d="M70.1 1825.2c5.5 0 10.7-.1 15.6-.4.4 0 .8-.1 1.3-.1 12.6-.8 23.4-2.5 32.5-5 1.7-.5 3.2-1 4.8-1.5 1.7-.6 2.6-2.5 2-4.2-.6-1.7-2.5-2.6-4.2-2-11.5 4-26.7 6.2-45.4 6.6-9.5.2-19.9 0-31.1-.8-.6 0-1.1-.1-1.7-.1-1.8-.1-3.4 1.2-3.5 3.1-.1 1.8 1.2 3.4 3.1 3.5 2.3.2 4.6.3 6.8.4h1c6.6.3 12.8.5 18.8.5z"/><path class="st37" d="M-43 14.6h792v612H-43z"/><text transform="translate(-983.666 -720.332)" class="st38" font-family="MyriadPro-Regular" font-size="12">Final logo. The source for everything else</text><text transform="translate(-983.666 -16.868)" class="st38" font-family="MyriadPro-Regular" font-size="12">Logo with transparent background</text><text transform="translate(-981.666 785.027)" class="st38" font-family="MyriadPro-Regular" font-size="12">Horizontal, grey bg</text><text transform="translate(-981.666 1181.519)" class="st38" font-family="MyriadPro-Regular" font-size="12">Horizontal, transparent bg</text><text transform="translate(8.433 775.46)" class="st38" font-family="MyriadPro-Regular" font-size="12">Horizontal, dark bg, light text</text><text transform="translate(8.433 1182.097)" class="st38" font-family="MyriadPro-Regular" font-size="12">Horizontal, transparent bg, for a dark background</text><text transform="translate(17.286 -718.332)" class="st38" font-family="MyriadPro-Regular" font-size="12">Final logo, on a dark background</text><text transform="translate(17.286 -19.529)" class="st38" font-family="MyriadPro-Regular" font-size="12">Final logo, transparent, for use on a dark background</text><path class="st19" d="M-218.8 859c2.3 0 4.6-.1 6.7-.2h.5c5.4-.3 10.1-1.1 14-2.2l2.1-.6c.7-.3 1.1-1.1.9-1.8-.3-.7-1.1-1.1-1.8-.9-5 1.7-11.5 2.7-19.6 2.8-4.1.1-8.6 0-13.4-.3h-.7c-.8 0-1.5.5-1.5 1.3-.1.8.5 1.5 1.3 1.5 1 .1 2 .1 2.9.2h.5c2.8.1 5.5.2 8.1.2z"/><path class="st2" d="M0 793.4h800v275H0z"/><path id="outline_2_" class="st14" d="M217.5 901.4H243v26h12.9c5.9 0 12.1-1.1 17.7-3 2.8-.9 5.9-2.2 8.6-3.9-3.6-4.7-5.4-10.6-6-16.5-.7-8 .9-18.3 6.2-24.5l2.7-3.1 3.2 2.6c8 6.5 14.8 15.5 16 25.8 9.7-2.8 21-2.2 29.6 2.8l3.5 2-1.8 3.6c-7.2 14.1-22.3 18.4-37 17.7-22.1 54.9-70.1 81-128.3 81-30.1 0-57.7-11.2-73.4-37.9l-.3-.4-2.3-4.7c-5.3-11.8-7.1-24.6-5.9-37.5l.4-3.9h21.8v-26h25.5V876h51v-25.5h30.6v50.9z"/><g id="body_colors_2_"><path class="st15" d="M300 911c1.7-13.3-8.2-23.7-14.4-28.7-7.1 8.2-8.2 29.7 2.9 38.8-6.2 5.5-19.3 10.5-32.7 10.5H92.5c-1.3 14 1.2 26.9 6.8 37.9l1.9 3.4c1.2 2 2.5 3.9 3.9 5.8 6.7.4 12.9.6 18.6.5 11.1-.2 20.2-1.6 27.1-3.9 1-.4 2.1.2 2.5 1.2.4 1-.2 2.1-1.2 2.5-.9.3-1.9.6-2.9.9-5.4 1.5-11.2 2.6-18.7 3 .4 0-.5.1-.5.1-.3 0-.6.1-.8.1-3 .2-6.1.2-9.4.2-3.6 0-7.1-.1-11-.3l-.1.1c13.6 15.3 34.9 24.5 61.6 24.5 56.4 0 104.3-25 125.5-81.2 15 1.5 29.5-2.3 36.1-15.1-10.6-6.1-24.1-4.2-31.9-.3z"/><path class="st16" d="M300 911c1.7-13.3-8.2-23.7-14.4-28.7-7.1 8.2-8.2 29.7 2.9 38.8-6.2 5.5-19.3 10.5-32.7 10.5H102.2c-.7 21.4 7.3 37.7 21.4 47.6 11.1-.2 20.2-1.6 27.1-3.9 1-.4 2.1.2 2.5 1.2.4 1-.2 2.1-1.2 2.5-.9.3-1.9.6-2.9.9-5.4 1.5-11.7 2.7-19.2 3.2l-.2-.2c19.2 9.9 47.1 9.8 79-2.4 35.8-13.8 69.1-40 92.4-69.9-.4.1-.7.3-1.1.4z"/><path class="st17" d="M92.9 948.7c1 7.5 3.2 14.5 6.5 20.9l1.9 3.4c1.2 2 2.5 3.9 3.9 5.8 6.7.4 12.9.6 18.6.5 11.1-.2 20.2-1.6 27.1-3.9 1-.4 2.1.2 2.5 1.2.4 1-.2 2.1-1.2 2.5-.9.3-1.9.6-2.9.9-5.4 1.5-11.7 2.7-19.2 3.1h-1c-2.9.2-6.1.3-9.4.3-3.6 0-7.2-.1-11.1-.3 13.6 15.3 35 24.5 61.7 24.5 48.3 0 90.4-18.3 114.8-58.9H92.9z"/><path class="st18" d="M103.7 948.7c2.9 13.2 9.8 23.5 19.9 30.6 11.1-.2 20.2-1.6 27.1-3.9 1-.4 2.1.2 2.5 1.2.4 1-.2 2.1-1.2 2.5-.9.3-1.9.6-2.9.9-5.4 1.5-11.8 2.7-19.3 3.1 19.2 9.9 47 9.7 78.9-2.6 19.3-7.4 37.9-18.5 54.6-31.8H103.7z"/></g><g id="Containers_2_"><path class="st20" d="M133.2 907.5h1.7v18.4h-1.7v-18.4zm-3.3 0h1.8v18.4h-1.8v-18.4zm-3.4 0h1.8v18.4h-1.8v-18.4zm-3.3 0h1.8v18.4h-1.8v-18.4zm-3.4 0h1.8v18.4h-1.8v-18.4zm-3.2 0h1.7v18.4h-1.7v-18.4zm-1.9-1.8h22.1v22.1h-22.1v-22.1zM158.7 882h1.7v18.4h-1.7V882zm-3.4 0h1.8v18.4h-1.8V882zm-3.3 0h1.8v18.4H152V882zm-3.3 0h1.8v18.4h-1.8V882zm-3.4 0h1.8v18.4h-1.8V882zm-3.3 0h1.7v18.4H142V882zm-1.8-1.8h22.1v22.1h-22.1v-22.1z"/><path class="st21" d="M158.7 907.5h1.7v18.4h-1.7v-18.4zm-3.4 0h1.8v18.4h-1.8v-18.4zm-3.3 0h1.8v18.4H152v-18.4zm-3.3 0h1.8v18.4h-1.8v-18.4zm-3.4 0h1.8v18.4h-1.8v-18.4zm-3.3 0h1.7v18.4H142v-18.4zm-1.8-1.8h22.1v22.1h-22.1v-22.1z"/><path class="st20" d="M184.2 907.5h1.7v18.4h-1.7v-18.4zm-3.4 0h1.8v18.4h-1.8v-18.4zm-3.3 0h1.8v18.4h-1.8v-18.4zm-3.4 0h1.8v18.4h-1.8v-18.4zm-3.3 0h1.8v18.4h-1.8v-18.4zm-3.3 0h1.7v18.4h-1.7v-18.4zm-1.8-1.8h22.1v22.1h-22.1v-22.1z"/><path class="st21" d="M184.2 882h1.7v18.4h-1.7V882zm-3.4 0h1.8v18.4h-1.8V882zm-3.3 0h1.8v18.4h-1.8V882zm-3.4 0h1.8v18.4h-1.8V882zm-3.3 0h1.8v18.4h-1.8V882zm-3.3 0h1.7v18.4h-1.7V882zm-1.8-1.8h22.1v22.1h-22.1v-22.1zM209.7 907.5h1.7v18.4h-1.7v-18.4zm-3.4 0h1.8v18.4h-1.8v-18.4zm-3.3 0h1.8v18.4H203v-18.4zm-3.4 0h1.8v18.4h-1.8v-18.4zm-3.3 0h1.8v18.4h-1.8v-18.4zm-3.3 0h1.7v18.4H193v-18.4zm-1.8-1.8h22.1v22.1h-22.1v-22.1z"/><path class="st20" d="M209.7 882h1.7v18.4h-1.7V882zm-3.4 0h1.8v18.4h-1.8V882zm-3.3 0h1.8v18.4H203V882zm-3.4 0h1.8v18.4h-1.8V882zm-3.3 0h1.8v18.4h-1.8V882zm-3.3 0h1.7v18.4H193V882zm-1.8-1.8h22.1v22.1h-22.1v-22.1z"/><path class="st21" d="M209.7 856.5h1.7v18.4h-1.7v-18.4zm-3.4 0h1.8v18.4h-1.8v-18.4zm-3.3 0h1.8v18.4H203v-18.4zm-3.4 0h1.8v18.4h-1.8v-18.4zm-3.3 0h1.8v18.4h-1.8v-18.4zm-3.3 0h1.7v18.4H193v-18.4zm-1.8-1.8h22.1v22.1h-22.1v-22.1z"/><path class="st20" d="M235.1 907.5h1.7v18.4h-1.7v-18.4zm-3.3 0h1.8v18.4h-1.8v-18.4zm-3.4 0h1.8v18.4h-1.8v-18.4zm-3.3 0h1.8v18.4h-1.8v-18.4zm-3.3 0h1.8v18.4h-1.8v-18.4zm-3.3 0h1.7v18.4h-1.7v-18.4zm-1.9-1.8h22.1v22.1h-22.1v-22.1z"/></g><path class="st22" d="M160.9 963.5c3.4 0 6.1 2.7 6.1 6.1 0 3.4-2.7 6.1-6.1 6.1-3.4 0-6.1-2.7-6.1-6.1 0-3.3 2.7-6.1 6.1-6.1"/><path class="st14" d="M160.9 965.3c.6 0 1.1.1 1.6.3-.5.3-.9.9-.9 1.5 0 1 .8 1.8 1.8 1.8.7 0 1.3-.4 1.6-.9.2.5.3 1.1.3 1.7 0 2.4-2 4.4-4.4 4.4-2.4 0-4.4-2-4.4-4.4 0-2.5 2-4.4 4.4-4.4M53.1 950.9h283.5c-6.2-1.6-19.5-3.7-17.3-11.8-11.2 13-38.3 9.1-45.1 2.7-7.6 11-51.9 6.8-55-1.8-9.5 11.2-39.1 11.2-48.6 0-3.1 8.6-47.4 12.8-55 1.8-6.8 6.4-33.9 10.3-45.1-2.7 2.2 8.1-11.2 10.3-17.4 11.8"/><path class="st23" d="M177.1 1007.4c-15.1-7.2-23.4-16.9-28-27.5-5.6 1.6-12.3 2.6-20.2 3.1-3 .2-6.1.2-9.3.2-3.8 0-7.7-.1-11.9-.3 13.8 13.8 30.9 24.5 62.4 24.7 2.4 0 4.7-.1 7-.2z"/><path class="st24" d="M154.7 989.7c-2.1-2.8-4.1-6.4-5.6-9.8-5.6 1.6-12.3 2.6-20.2 3.1 5.4 2.9 13.1 5.6 25.8 6.7z"/><path class="st1" d="M634.3 962.7l26.1-22.5c3-2.6 6.2-5.2 9.2-7.9-2.4-3-6.3-5.1-9.7-6.4-6.8-2.6-13.5-1.7-19.7 1.9-8.1 4.7-11.6 12.2-11.3 21.5.1 3.7 1.1 7.2 3.1 10.3.7 1 1.5 2.1 2.3 3.1m10.1 7c4.3 1.5 9.1 1.3 13.5.5 2.2-1 8-3.5 10.1-3.1l.3.1.3.1c1.3.6 2.5 1.5 3.2 2.8 1.5 3.1.8 6.2-2.2 7.9l-1 .6c-11.1 6.4-23 5.5-34.1-.5-5.3-2.9-9.4-7.1-12.4-12.3l-.7-1.2c-7.2-12.4-6.2-25.4 1.9-37.2 2.8-4.1 6.4-7.2 10.7-9.7l1.6-.9c10.5-6.1 21.7-5.6 32.5-.3 5.8 2.9 10.5 7.1 13.7 12.7l.6 1c2.3 4.1-.7 7.6-3.8 10.1-3.6 2.8-7.3 6.2-10.8 9.2-7.8 6.8-15.6 13.5-23.4 20.2zm83.5-56.3h1.2c3.5 0 5.9 2.4 5.9 5.9 0 4.9-4.6 6.1-8.7 6.1-5.3 0-10.3 3.2-14 6.8-4.5 4.5-6.5 10.2-6.5 16.5v28.4c0 3.3-2 5.9-5.4 5.9h-.9c-3.4 0-5.4-2.6-5.4-5.9V947c0-11.5 5.6-21 15-27.6 5.6-3.9 12-6 18.8-6zm-146.4 20.2c4.6-4.6 9.1-9.1 13.8-13.6 1.3-1.3 6.2-6.6 8.1-6.6h2.1l.2.1c2.7.6 4.7 2.3 4.7 5.1v1.2c0 2-2.3 4.2-3.6 5.6-2.7 2.9-5.5 5.6-8.3 8.4l-14.2 14.4c6.1 6.1 12.2 12.3 18.3 18.4 1.7 1.7 3.4 3.4 5 5.1.6.6 1.4 1.4 1.9 2.2.5.8.8 1.7.8 2.7v1.2l-.1.3c-.7 2.7-2.4 4.8-5.3 4.8h-.9c-1.9 0-4.1-2.2-5.5-3.5-2.7-2.6-5.4-5.3-8.1-7.9l-9-8.9v14.2c0 3.3-2 5.9-5.4 5.9h-.9c-3.4 0-5.4-2.6-5.4-5.9v-79.7c0-3.3 2-5.9 5.4-5.9h.9c3.4 0 5.4 2.6 5.4 5.9v36.5zm-38.1-8c-1.8-.8-5.1-1.1-7-1.2-9.8-.4-16.9 5.2-21.1 13.8-1.4 3-2.1 6.1-2.1 9.5 0 10.1 5.3 17.1 14.3 21.4 3.3 1.6 7.5 1.9 11.1 1.9 3.2 0 7.6-1.9 10.4-3.3l.5-.2H551.9c2.7.6 4.7 2.2 4.7 5.1v1.2c0 7.1-13.1 8.8-18.1 9.1-17.6 1.2-30.8-8.4-35.8-25.2-.9-2.9-1.3-5.8-1.3-8.8v-2.3c0-12.7 6.3-22.8 17.2-29.3 5.1-3 10.7-4.5 16.6-4.5h2.3c6.3 0 12 1.8 17.2 5.3l.4.3.3.4c.6.9 1 2 1 3.1v1.2c0 3-2.2 4.6-5 5.1H550.5c-1.5 0-5.5-1.9-7.1-2.6zm-107.1 22.3c0 8.9 4.4 15.5 11.9 20.1 3.5 2.2 7.4 3.2 11.6 3.2 8.8 0 15.3-4.5 19.9-11.9 2.2-3.5 3.1-7.4 3.1-11.6 0-8.3-4-14.6-10.8-19.2-3.7-2.5-7.9-3.8-12.4-3.8-9.8 0-16.9 5-21.2 13.8-1.5 3-2.1 6.1-2.1 9.4zm22.1-35h1.6c13.6 0 24 6.6 30.5 18.5 2.6 4.8 4 9.9 4 15.4v2.3c0 12.7-6.3 22.9-17.3 29.3-5.1 3-10.7 4.5-16.6 4.5h-2.3c-12.7 0-22.9-6.3-29.3-17.3-3-5.1-4.5-10.7-4.5-16.6v-2.3c0-12.7 6.3-22.8 17.2-29.3 5.2-3 10.8-4.5 16.7-4.5zm-99 35c0 9.2 4.5 16.1 12.5 20.5 3.3 1.8 6.8 2.7 10.5 2.7 9 0 15.7-4.3 20.3-11.9 2.1-3.6 3.2-7.5 3.2-11.6 0-8-3.8-14.2-10.2-18.8-3.9-2.8-8.3-4.2-13.1-4.2-9.8 0-16.9 5-21.2 13.8-1.4 3.1-2 6.2-2 9.5zm46.5-26.2v-24.8c0-3.3 2-5.9 5.4-5.9h.9c3.4 0 5.4 2.6 5.4 5.9v52.2c0 12.7-6.3 22.9-17.3 29.3-5.1 3-10.7 4.5-16.6 4.5h-2.3c-12.7 0-22.9-6.3-29.3-17.3-3-5.1-4.5-10.7-4.5-16.6v-2.3c0-12.7 6.3-22.9 17.2-29.3 5.1-3 10.7-4.5 16.6-4.5h2.3c8.7 0 16 3.4 22.2 8.8z"/><path id="outline_6_" class="st14" d="M217.5 1308H243v26h12.9c5.9 0 12.1-1.1 17.7-3 2.8-.9 5.9-2.2 8.6-3.9-3.6-4.7-5.4-10.6-6-16.5-.7-8 .9-18.3 6.2-24.5l2.7-3.1 3.2 2.6c8 6.5 14.8 15.5 16 25.8 9.7-2.8 21-2.2 29.6 2.8l3.5 2-1.8 3.6c-7.2 14.1-22.3 18.4-37 17.7-22.1 54.9-70.1 81-128.3 81-30.1 0-57.7-11.2-73.4-37.9l-.3-.4-2.3-4.7c-5.3-11.8-7.1-24.6-5.9-37.5l.4-3.9h21.8v-26h25.5v-25.5h51V1257h30.6v51z"/><g id="body_colors_5_"><path class="st15" d="M300 1317.6c1.7-13.3-8.2-23.7-14.4-28.7-7.1 8.2-8.2 29.7 2.9 38.8-6.2 5.5-19.3 10.5-32.7 10.5H92.5c-1.3 14 1.2 26.9 6.8 37.9l1.9 3.4c1.2 2 2.5 3.9 3.9 5.8 6.7.4 12.9.6 18.6.5 11.1-.2 20.2-1.6 27.1-3.9 1-.4 2.1.2 2.5 1.2.4 1-.2 2.1-1.2 2.5-.9.3-1.9.6-2.9.9-5.4 1.5-11.2 2.6-18.7 3 .4 0-.5.1-.5.1-.3 0-.6.1-.8.1-3 .2-6.1.2-9.4.2-3.6 0-7.1-.1-11-.3l-.1.1c13.6 15.3 34.9 24.5 61.6 24.5 56.4 0 104.3-25 125.5-81.2 15 1.5 29.5-2.3 36.1-15.1-10.6-6.1-24.1-4.2-31.9-.3z"/><path class="st16" d="M300 1317.6c1.7-13.3-8.2-23.7-14.4-28.7-7.1 8.2-8.2 29.7 2.9 38.8-6.2 5.5-19.3 10.5-32.7 10.5H102.2c-.7 21.4 7.3 37.7 21.4 47.6 11.1-.2 20.2-1.6 27.1-3.9 1-.4 2.1.2 2.5 1.2.4 1-.2 2.1-1.2 2.5-.9.3-1.9.6-2.9.9-5.4 1.5-11.7 2.7-19.2 3.2l-.2-.2c19.2 9.9 47.1 9.8 79-2.4 35.8-13.8 69.1-40 92.4-69.9-.4.1-.7.2-1.1.4z"/><path class="st17" d="M92.9 1355.3c1 7.5 3.2 14.5 6.5 20.9l1.9 3.4c1.2 2 2.5 3.9 3.9 5.8 6.7.4 12.9.6 18.6.5 11.1-.2 20.2-1.6 27.1-3.9 1-.4 2.1.2 2.5 1.2.4 1-.2 2.1-1.2 2.5-.9.3-1.9.6-2.9.9-5.4 1.5-11.7 2.7-19.2 3.1h-1c-2.9.2-6.1.3-9.4.3-3.6 0-7.2-.1-11.1-.3 13.6 15.3 35 24.5 61.7 24.5 48.3 0 90.4-18.3 114.8-58.9H92.9z"/><path class="st18" d="M103.7 1355.3c2.9 13.2 9.8 23.5 19.9 30.6 11.1-.2 20.2-1.6 27.1-3.9 1-.4 2.1.2 2.5 1.2.4 1-.2 2.1-1.2 2.5-.9.3-1.9.6-2.9.9-5.4 1.5-11.8 2.7-19.3 3.1 19.2 9.9 47 9.7 78.9-2.6 19.3-7.4 37.9-18.5 54.6-31.8H103.7z"/></g><g id="Containers_5_"><path class="st20" d="M133.2 1314.1h1.7v18.4h-1.7v-18.4zm-3.3 0h1.8v18.4h-1.8v-18.4zm-3.4 0h1.8v18.4h-1.8v-18.4zm-3.3 0h1.8v18.4h-1.8v-18.4zm-3.4 0h1.8v18.4h-1.8v-18.4zm-3.2 0h1.7v18.4h-1.7v-18.4zm-1.9-1.9h22.1v22.1h-22.1v-22.1zM158.7 1288.6h1.7v18.4h-1.7v-18.4zm-3.4 0h1.8v18.4h-1.8v-18.4zm-3.3 0h1.8v18.4H152v-18.4zm-3.3 0h1.8v18.4h-1.8v-18.4zm-3.4 0h1.8v18.4h-1.8v-18.4zm-3.3 0h1.7v18.4H142v-18.4zm-1.8-1.9h22.1v22.1h-22.1v-22.1z"/><path class="st21" d="M158.7 1314.1h1.7v18.4h-1.7v-18.4zm-3.4 0h1.8v18.4h-1.8v-18.4zm-3.3 0h1.8v18.4H152v-18.4zm-3.3 0h1.8v18.4h-1.8v-18.4zm-3.4 0h1.8v18.4h-1.8v-18.4zm-3.3 0h1.7v18.4H142v-18.4zm-1.8-1.9h22.1v22.1h-22.1v-22.1z"/><path class="st20" d="M184.2 1314.1h1.7v18.4h-1.7v-18.4zm-3.4 0h1.8v18.4h-1.8v-18.4zm-3.3 0h1.8v18.4h-1.8v-18.4zm-3.4 0h1.8v18.4h-1.8v-18.4zm-3.3 0h1.8v18.4h-1.8v-18.4zm-3.3 0h1.7v18.4h-1.7v-18.4zm-1.8-1.9h22.1v22.1h-22.1v-22.1z"/><path class="st21" d="M184.2 1288.6h1.7v18.4h-1.7v-18.4zm-3.4 0h1.8v18.4h-1.8v-18.4zm-3.3 0h1.8v18.4h-1.8v-18.4zm-3.4 0h1.8v18.4h-1.8v-18.4zm-3.3 0h1.8v18.4h-1.8v-18.4zm-3.3 0h1.7v18.4h-1.7v-18.4zm-1.8-1.9h22.1v22.1h-22.1v-22.1zM209.7 1314.1h1.7v18.4h-1.7v-18.4zm-3.4 0h1.8v18.4h-1.8v-18.4zm-3.3 0h1.8v18.4H203v-18.4zm-3.4 0h1.8v18.4h-1.8v-18.4zm-3.3 0h1.8v18.4h-1.8v-18.4zm-3.3 0h1.7v18.4H193v-18.4zm-1.8-1.9h22.1v22.1h-22.1v-22.1z"/><path class="st20" d="M209.7 1288.6h1.7v18.4h-1.7v-18.4zm-3.4 0h1.8v18.4h-1.8v-18.4zm-3.3 0h1.8v18.4H203v-18.4zm-3.4 0h1.8v18.4h-1.8v-18.4zm-3.3 0h1.8v18.4h-1.8v-18.4zm-3.3 0h1.7v18.4H193v-18.4zm-1.8-1.9h22.1v22.1h-22.1v-22.1z"/><path class="st21" d="M209.7 1263.1h1.7v18.4h-1.7v-18.4zm-3.4 0h1.8v18.4h-1.8v-18.4zm-3.3 0h1.8v18.4H203v-18.4zm-3.4 0h1.8v18.4h-1.8v-18.4zm-3.3 0h1.8v18.4h-1.8v-18.4zm-3.3 0h1.7v18.4H193v-18.4zm-1.8-1.9h22.1v22.1h-22.1v-22.1z"/><path class="st20" d="M235.1 1314.1h1.7v18.4h-1.7v-18.4zm-3.3 0h1.8v18.4h-1.8v-18.4zm-3.4 0h1.8v18.4h-1.8v-18.4zm-3.3 0h1.8v18.4h-1.8v-18.4zm-3.3 0h1.8v18.4h-1.8v-18.4zm-3.3 0h1.7v18.4h-1.7v-18.4zm-1.9-1.9h22.1v22.1h-22.1v-22.1z"/></g><path class="st22" d="M160.9 1370.1c3.4 0 6.1 2.7 6.1 6.1 0 3.4-2.7 6.1-6.1 6.1-3.4 0-6.1-2.7-6.1-6.1 0-3.4 2.7-6.1 6.1-6.1"/><path class="st14" d="M160.9 1371.8c.6 0 1.1.1 1.6.3-.5.3-.9.9-.9 1.5 0 1 .8 1.8 1.8 1.8.7 0 1.3-.4 1.6-.9.2.5.3 1.1.3 1.7 0 2.4-2 4.4-4.4 4.4-2.4 0-4.4-2-4.4-4.4 0-2.4 2-4.4 4.4-4.4M53.1 1357.5h283.5c-6.2-1.6-19.5-3.7-17.3-11.8-11.2 13-38.3 9.1-45.1 2.7-7.6 11-51.9 6.8-55-1.8-9.5 11.2-39.1 11.2-48.6 0-3.1 8.6-47.4 12.8-55 1.8-6.8 6.4-33.9 10.3-45.1-2.7 2.2 8.1-11.2 10.2-17.4 11.8"/><path class="st23" d="M177.1 1414c-15.1-7.2-23.4-16.9-28-27.5-5.6 1.6-12.3 2.6-20.2 3.1-3 .2-6.1.2-9.3.2-3.8 0-7.7-.1-11.9-.3 13.8 13.8 30.9 24.5 62.4 24.7 2.4-.1 4.7-.1 7-.2z"/><path class="st24" d="M154.7 1396.3c-2.1-2.8-4.1-6.4-5.6-9.8-5.6 1.6-12.3 2.6-20.2 3.1 5.4 2.9 13.1 5.6 25.8 6.7z"/><path class="st1" d="M634.3 1369.2l26.1-22.5c3-2.6 6.2-5.2 9.2-7.9-2.4-3-6.3-5.1-9.7-6.4-6.8-2.6-13.5-1.7-19.7 1.9-8.1 4.7-11.6 12.2-11.3 21.5.1 3.7 1.1 7.2 3.1 10.3.7 1.1 1.5 2.1 2.3 3.1m10.1 7.1c4.3 1.5 9.1 1.3 13.5.5 2.2-1 8-3.5 10.1-3.1l.3.1.3.1c1.3.6 2.5 1.5 3.2 2.8 1.5 3.1.8 6.2-2.2 7.9l-1 .6c-11.1 6.4-23 5.5-34.1-.5-5.3-2.9-9.4-7.1-12.4-12.3l-.7-1.2c-7.2-12.4-6.2-25.4 1.9-37.2 2.8-4.1 6.4-7.2 10.7-9.7l1.6-.9c10.5-6.1 21.7-5.6 32.5-.3 5.8 2.9 10.5 7.1 13.7 12.7l.6 1c2.3 4.1-.7 7.6-3.8 10.1-3.6 2.8-7.3 6.2-10.8 9.2-7.8 6.7-15.6 13.5-23.4 20.2zm83.5-56.4h1.2c3.5 0 5.9 2.4 5.9 5.9 0 4.9-4.6 6.1-8.7 6.1-5.3 0-10.3 3.2-14 6.8-4.5 4.5-6.5 10.2-6.5 16.5v28.4c0 3.3-2 5.9-5.4 5.9h-.9c-3.4 0-5.4-2.6-5.4-5.9v-30.1c0-11.5 5.6-21 15-27.6 5.6-3.9 12-6 18.8-6zm-146.4 20.2c4.6-4.6 9.1-9.1 13.8-13.6 1.3-1.3 6.2-6.6 8.1-6.6h2.1l.2.1c2.7.6 4.7 2.3 4.7 5.1v1.2c0 2-2.3 4.2-3.6 5.6-2.7 2.9-5.5 5.6-8.3 8.4l-14.2 14.4c6.1 6.1 12.2 12.3 18.3 18.4 1.7 1.7 3.4 3.4 5 5.1.6.6 1.4 1.4 1.9 2.2.5.8.8 1.7.8 2.7v1.2l-.1.3c-.7 2.7-2.4 4.8-5.3 4.8h-.9c-1.9 0-4.1-2.2-5.5-3.5-2.7-2.6-5.4-5.3-8.1-7.9l-9-8.9v14.2c0 3.3-2 5.9-5.4 5.9h-.9c-3.4 0-5.4-2.6-5.4-5.9v-79.7c0-3.3 2-5.9 5.4-5.9h.9c3.4 0 5.4 2.6 5.4 5.9v36.5zm-38.1-7.9c-1.8-.8-5.1-1.1-7-1.2-9.8-.4-16.9 5.2-21.1 13.8-1.4 3-2.1 6.1-2.1 9.5 0 10.1 5.3 17.1 14.3 21.4 3.3 1.6 7.5 1.9 11.1 1.9 3.2 0 7.6-1.9 10.4-3.3l.5-.2H551.9c2.7.6 4.7 2.2 4.7 5.1v1.2c0 7.1-13.1 8.8-18.1 9.1-17.6 1.2-30.8-8.4-35.8-25.2-.9-2.9-1.3-5.8-1.3-8.8v-2.3c0-12.7 6.3-22.8 17.2-29.3 5.1-3 10.7-4.5 16.6-4.5h2.3c6.3 0 12 1.8 17.2 5.3l.4.3.3.4c.6.9 1 2 1 3.1v1.2c0 3-2.2 4.6-5 5.1H550.5c-1.5-.1-5.5-1.9-7.1-2.6zm-107.1 22.3c0 8.9 4.4 15.5 11.9 20.1 3.5 2.2 7.4 3.2 11.6 3.2 8.8 0 15.3-4.5 19.9-11.9 2.2-3.5 3.1-7.4 3.1-11.6 0-8.3-4-14.6-10.8-19.2-3.7-2.5-7.9-3.8-12.4-3.8-9.8 0-16.9 5-21.2 13.8-1.5 2.9-2.1 6.1-2.1 9.4zm22.1-35h1.6c13.6 0 24 6.6 30.5 18.5 2.6 4.8 4 9.9 4 15.4v2.3c0 12.7-6.3 22.9-17.3 29.3-5.1 3-10.7 4.5-16.6 4.5h-2.3c-12.7 0-22.9-6.3-29.3-17.3-3-5.1-4.5-10.7-4.5-16.6v-2.3c0-12.7 6.3-22.8 17.2-29.3 5.2-3 10.8-4.5 16.7-4.5zm-99 35c0 9.2 4.5 16.1 12.5 20.5 3.3 1.8 6.8 2.7 10.5 2.7 9 0 15.7-4.3 20.3-11.9 2.1-3.6 3.2-7.5 3.2-11.6 0-8-3.8-14.2-10.2-18.8-3.9-2.8-8.3-4.2-13.1-4.2-9.8 0-16.9 5-21.2 13.8-1.4 3-2 6.2-2 9.5zm46.5-26.3v-24.8c0-3.3 2-5.9 5.4-5.9h.9c3.4 0 5.4 2.6 5.4 5.9v52.2c0 12.7-6.3 22.9-17.3 29.3-5.1 3-10.7 4.5-16.6 4.5h-2.3c-12.7 0-22.9-6.3-29.3-17.3-3-5.1-4.5-10.7-4.5-16.6v-2.3c0-12.7 6.3-22.9 17.2-29.3 5.1-3 10.7-4.5 16.6-4.5h2.3c8.7.1 16 3.4 22.2 8.8z"/><path id="docker_4_" class="st14" d="M-558.5 463.3c10.7-9.2 21.5-18.4 32.2-27.7 3.7-3.2 7.7-6.4 11.3-9.8-2.9-3.7-7.8-6.3-11.9-7.9-8.3-3.2-16.6-2.1-24.2 2.3-10 5.8-14.3 15-13.9 26.5.1 4.5 1.4 8.9 3.8 12.7.7 1.4 1.7 2.7 2.7 3.9m12.4 8.7c5.3 1.8 11.3 1.6 16.7.6 2.8-1.2 9.8-4.3 12.4-3.8l.4.1.4.2c1.6.8 3.1 1.9 3.9 3.5 1.9 3.8 1 7.6-2.7 9.7l-1.2.7c-13.7 7.9-28.3 6.8-42-.6-6.5-3.5-11.5-8.8-15.2-15.2l-.9-1.5c-8.8-15.3-7.6-31.3 2.3-45.8 3.4-5 7.9-8.9 13.2-11.9l2-1.1c12.9-7.5 26.8-7 40.1-.4 7.1 3.5 12.9 8.8 16.9 15.7l.7 1.2c2.9 5-.9 9.4-4.7 12.4-4.5 3.5-9 7.6-13.3 11.4-9.8 8.2-19.4 16.6-29 24.8zm102.8-69.4h1.4c4.3 0 7.2 2.9 7.2 7.2 0 6-5.7 7.5-10.7 7.5-6.5 0-12.7 3.9-17.2 8.3-5.6 5.5-8 12.6-8 20.3v35c0 4-2.5 7.2-6.7 7.2h-1.1c-4.2 0-6.7-3.2-6.7-7.2v-37c0-14.2 6.9-25.8 18.5-34 7-4.7 14.9-7.3 23.3-7.3zm-180.3 24.9c5.6-5.6 11.3-11.2 17-16.8 1.6-1.5 7.6-8.1 10-8.1h2.6l.3.1c3.3.7 5.8 2.8 5.8 6.3v1.4c0 2.4-2.8 5.2-4.4 6.9-3.3 3.5-6.8 6.9-10.2 10.4l-17.5 17.7c7.5 7.5 15 15.1 22.5 22.7 2.1 2.1 4.1 4.2 6.2 6.3.7.8 1.8 1.7 2.4 2.7.6 1 1 2.1 1 3.3v1.5l-.1.3c-.8 3.3-2.9 6-6.6 6h-1.2c-2.4 0-5.1-2.7-6.7-4.3-3.4-3.2-6.6-6.5-10-9.8l-11.1-10.9v17.4c0 4-2.5 7.2-6.7 7.2h-1.1c-4.2 0-6.7-3.2-6.7-7.2v-98.2c0-4 2.5-7.2 6.7-7.2h1.1c4.2 0 6.7 3.2 6.7 7.2v45.1zm-46.9-9.8c-2.2-1-6.3-1.4-8.6-1.5-12.1-.5-20.8 6.4-26 17-1.8 3.7-2.6 7.6-2.6 11.6 0 12.4 6.5 21.1 17.6 26.4 4 1.9 9.3 2.3 13.7 2.3 3.9 0 9.4-2.4 12.8-4l.6-.3h2.7l.3.1c3.3.7 5.8 2.8 5.8 6.3v1.4c0 8.8-16.1 10.8-22.2 11.3-21.7 1.5-37.9-10.4-44.1-31.1-1.1-3.6-1.6-7.2-1.6-10.9v-2.9c0-15.7 7.8-28.1 21.2-36.1 6.3-3.7 13.2-5.6 20.4-5.6h2.9c7.7 0 14.8 2.2 21.2 6.5l.5.4.3.5c.7 1.1 1.3 2.5 1.3 3.8v1.4c0 3.7-2.8 5.7-6.1 6.3h-1.2c-2.1.2-7-2-8.9-2.9zm-132 27.5c0 11 5.4 19.1 14.7 24.8 4.4 2.7 9.2 3.9 14.3 3.9 10.9 0 18.9-5.5 24.5-14.7 2.7-4.4 3.9-9.2 3.9-14.3 0-10.2-4.9-18-13.3-23.7-4.6-3.1-9.8-4.7-15.3-4.7-12.1 0-20.8 6.1-26.1 17-1.9 3.7-2.7 7.6-2.7 11.7zm27.3-43.1h2c16.8 0 29.5 8.1 37.6 22.8 3.2 5.9 5 12.2 5 18.9v2.9c0 15.7-7.7 28.2-21.3 36.1-6.3 3.7-13.2 5.6-20.4 5.6h-2.9c-15.7 0-28.2-7.8-36.1-21.2-3.7-6.3-5.6-13.2-5.6-20.4v-2.9c0-15.7 7.8-28.1 21.2-36.1 6.3-3.9 13.2-5.7 20.5-5.7zm-122 43.1c0 11.3 5.5 19.8 15.4 25.3 4 2.2 8.4 3.4 13 3.4 11.1 0 19.4-5.2 25.1-14.7 2.6-4.4 3.9-9.2 3.9-14.3 0-9.8-4.7-17.5-12.6-23.2-4.8-3.5-10.2-5.2-16.1-5.2-12.1 0-20.8 6.1-26.1 17-1.8 3.7-2.6 7.6-2.6 11.7zm57.3-32.3v-30.6c0-4 2.5-7.2 6.7-7.2h1.2c4.2 0 6.7 3.2 6.7 7.2v64.3c0 15.7-7.8 28.2-21.3 36.1-6.3 3.7-13.2 5.6-20.4 5.6h-2.9c-15.7 0-28.2-7.8-36.1-21.2-3.7-6.3-5.6-13.2-5.6-20.4v-2.9c0-15.7 7.8-28.2 21.2-36.1 6.3-3.7 13.2-5.6 20.4-5.6h2.9c10.6 0 19.6 4.1 27.2 10.8z"/><path id="outline_7_" class="st14" d="M-636.6 173.4h42.7V217h21.6c10 0 20.2-1.8 29.7-5 4.6-1.6 9.8-3.8 14.4-6.5-6-7.9-9.1-17.8-10-27.6-1.2-13.3 1.5-30.7 10.5-41.1l4.5-5.2 5.3 4.3c13.5 10.8 24.8 25.9 26.8 43.2 16.2-4.8 35.2-3.6 49.5 4.6l5.9 3.4-3.1 6c-12.1 23.6-37.4 30.9-62.1 29.6-37 92.1-117.4 135.7-215 135.7-50.4 0-96.7-18.8-123-63.6l-.4-.7-3.8-7.8c-8.9-19.7-11.9-41.3-9.9-62.8l.6-6.5h36.5v-43.6h42.7v-42.7h85.4V88h51.2v85.4z"/><g id="body_colors_8_"><path class="st15" d="M-498.3 189.5c2.9-22.2-13.8-39.7-24.1-48-11.9 13.8-13.7 49.8 4.9 65-10.4 9.3-32.4 17.6-54.8 17.6H-846c-2.2 23.5 1.9 45.1 11.3 63.6l3.1 5.7c2 3.3 4.1 6.6 6.5 9.7 11.2.7 21.6 1 31.1.8 18.6-.4 33.9-2.6 45.4-6.6 1.7-.6 3.6.3 4.2 2 .6 1.7-.3 3.6-2 4.2-1.5.5-3.1 1-4.8 1.5-9.1 2.6-18.8 4.3-31.4 5.1.7 0-.8.1-.8.1-.4 0-1 .1-1.4.1-4.9.3-10.3.3-15.7.3-6 0-11.8-.1-18.4-.4l-.2.1c22.8 25.6 58.4 41 103.1 41 94.6 0 174.8-41.9 210.3-136 25.2 2.6 49.4-3.8 60.4-25.3-17.4-10.2-40-7-53-.5z"/><path class="st16" d="M-498.3 189.5c2.9-22.2-13.8-39.7-24.1-48-11.9 13.8-13.7 49.8 4.9 65-10.4 9.3-32.4 17.6-54.8 17.6h-257.4c-1.1 35.9 12.2 63.2 35.8 79.7 18.6-.4 33.9-2.6 45.4-6.6 1.7-.6 3.6.3 4.2 2 .6 1.7-.3 3.6-2 4.2-1.5.5-3.1 1-4.8 1.5-9.1 2.6-19.7 4.6-32.2 5.3l-.3-.3c32.2 16.5 78.9 16.5 132.4-4.1 60-23 115.8-67 154.8-117.2-.8.4-1.3.7-1.9.9z"/><path class="st17" d="M-845.4 252.7c1.7 12.6 5.4 24.3 10.8 35.1l3.1 5.7c2 3.3 4.1 6.6 6.5 9.7 11.3.7 21.6 1 31.1.8 18.6-.4 33.9-2.6 45.4-6.6 1.7-.6 3.6.3 4.2 2 .6 1.7-.3 3.6-2 4.2-1.5.5-3.1 1-4.8 1.5-9.1 2.6-19.6 4.4-32.2 5.2-.4 0-1.2 0-1.6.1-4.9.3-10.2.4-15.7.4-6 0-12.1-.1-18.6-.4 22.8 25.6 58.7 41 103.4 41 81 0 151.4-30.7 192.3-98.6h-321.9z"/><path class="st18" d="M-827.3 252.7c4.8 22.1 16.5 39.4 33.4 51.2 18.6-.4 33.9-2.6 45.4-6.6 1.7-.6 3.6.3 4.2 2 .6 1.7-.3 3.6-2 4.2-1.5.5-3.1 1-4.8 1.5-9.1 2.6-19.8 4.4-32.4 5.2 32.2 16.5 78.7 16.3 132.2-4.3 32.4-12.4 63.5-30.9 91.5-53.2h-267.5z"/></g><path class="st19" d="M-800.6 310.5c5.5 0 10.7-.1 15.6-.4.4 0 .8-.1 1.3-.1 12.6-.8 23.4-2.5 32.5-5 1.7-.5 3.2-1 4.8-1.5 1.7-.6 2.6-2.5 2-4.2-.6-1.7-2.5-2.6-4.2-2-11.5 4-26.7 6.2-45.4 6.6-9.5.2-19.9 0-31.1-.8-.6 0-1.1-.1-1.7-.1-1.8-.1-3.4 1.2-3.5 3.1-.1 1.8 1.2 3.4 3.1 3.5 2.3.2 4.6.3 6.8.4h1c6.6.3 12.9.5 18.8.5z"/><g id="Containers_8_"><path class="st20" d="M-777.8 183.6h2.9v30.8h-2.9v-30.8zm-5.6 0h3v30.8h-3v-30.8zm-5.6 0h3v30.8h-3v-30.8zm-5.6 0h3v30.8h-3v-30.8zm-5.6 0h3v30.8h-3v-30.8zm-5.5 0h2.9v30.8h-2.9v-30.8zm-3.1-3.1h37v37h-37v-37zM-735.1 140.9h2.9v30.8h-2.9v-30.8zm-5.6 0h3v30.8h-3v-30.8zm-5.6 0h3v30.8h-3v-30.8zm-5.6 0h3v30.8h-3v-30.8zm-5.6 0h3v30.8h-3v-30.8zm-5.5 0h2.9v30.8h-2.9v-30.8zm-3.1-3.1h37v37h-37v-37z"/><path class="st21" d="M-735.1 183.6h2.9v30.8h-2.9v-30.8zm-5.6 0h3v30.8h-3v-30.8zm-5.6 0h3v30.8h-3v-30.8zm-5.6 0h3v30.8h-3v-30.8zm-5.6 0h3v30.8h-3v-30.8zm-5.5 0h2.9v30.8h-2.9v-30.8zm-3.1-3.1h37v37h-37v-37z"/><path class="st20" d="M-692.4 183.6h2.9v30.8h-2.9v-30.8zm-5.6 0h3v30.8h-3v-30.8zm-5.6 0h3v30.8h-3v-30.8zm-5.6 0h3v30.8h-3v-30.8zm-5.7 0h3v30.8h-3v-30.8zm-5.4 0h2.9v30.8h-2.9v-30.8zm-3.1-3.1h37v37h-37v-37z"/><path class="st21" d="M-692.4 140.9h2.9v30.8h-2.9v-30.8zm-5.6 0h3v30.8h-3v-30.8zm-5.6 0h3v30.8h-3v-30.8zm-5.6 0h3v30.8h-3v-30.8zm-5.7 0h3v30.8h-3v-30.8zm-5.4 0h2.9v30.8h-2.9v-30.8zm-3.1-3.1h37v37h-37v-37zM-649.7 183.6h2.9v30.8h-2.9v-30.8zm-5.6 0h3v30.8h-3v-30.8zm-5.6 0h3v30.8h-3v-30.8zm-5.7 0h3v30.8h-3v-30.8zm-5.6 0h3v30.8h-3v-30.8zm-5.4 0h2.9v30.8h-2.9v-30.8zm-3.1-3.1h37v37h-37v-37z"/><path class="st20" d="M-649.7 140.9h2.9v30.8h-2.9v-30.8zm-5.6 0h3v30.8h-3v-30.8zm-5.6 0h3v30.8h-3v-30.8zm-5.7 0h3v30.8h-3v-30.8zm-5.6 0h3v30.8h-3v-30.8zm-5.4 0h2.9v30.8h-2.9v-30.8zm-3.1-3.1h37v37h-37v-37z"/><path class="st21" d="M-649.7 98.2h2.9V129h-2.9V98.2zm-5.6 0h3V129h-3V98.2zm-5.6 0h3V129h-3V98.2zm-5.7 0h3V129h-3V98.2zm-5.6 0h3V129h-3V98.2zm-5.4 0h2.9V129h-2.9V98.2zm-3.1-3.1h37v37h-37v-37z"/><path class="st20" d="M-607 183.6h2.9v30.8h-2.9v-30.8zm-5.6 0h3v30.8h-3v-30.8zm-5.7 0h3v30.8h-3v-30.8zm-5.6 0h3v30.8h-3v-30.8zm-5.6 0h3v30.8h-3v-30.8zm-5.5 0h2.9v30.8h-2.9v-30.8zm-3-3.1h37v37h-37v-37z"/></g><path class="st22" d="M-731.4 277.5c5.6 0 10.2 4.6 10.2 10.2s-4.6 10.2-10.2 10.2-10.2-4.6-10.2-10.2 4.5-10.2 10.2-10.2"/><path class="st14" d="M-731.4 280.4c.9 0 1.8.2 2.6.5-.9.5-1.5 1.5-1.5 2.6 0 1.6 1.3 3 3 3 1.1 0 2.1-.6 2.6-1.6.4.9.6 1.8.6 2.8 0 4-3.3 7.3-7.3 7.3s-7.3-3.3-7.3-7.3 3.2-7.3 7.3-7.3M-912 256.3h474.9c-10.3-2.6-32.7-6.2-29-19.7-18.8 21.8-64.1 15.3-75.6 4.5-12.7 18.5-86.9 11.5-92.1-2.9-16 18.7-65.5 18.7-81.5 0-5.2 14.4-79.4 21.4-92.1 2.9-11.4 10.7-56.8 17.2-75.6-4.5 3.7 13.6-18.7 17.1-29 19.7"/><path class="st23" d="M-704.3 351.1c-25.3-12-39.2-28.3-46.9-46.1-9.4 2.7-20.7 4.4-33.8 5.1-4.9.3-10.1.4-15.6.4-6.3 0-12.9-.2-19.9-.6 23.2 23.2 51.7 41 104.5 41.3 4 .1 7.8 0 11.7-.1z"/><path class="st24" d="M-741.8 321.4c-3.5-4.7-6.9-10.7-9.4-16.4-9.4 2.7-20.7 4.4-33.8 5.1 9 4.9 21.9 9.4 43.2 11.3z"/><path class="st1" d="M-1000 800h800v275h-800z"/><path id="outline_3_" class="st14" d="M-777.2 907.8h25.6v26h12.9c6 0 12.1-1.1 17.8-3 2.8-.9 5.9-2.2 8.6-3.9-3.6-4.7-5.5-10.6-6-16.4-.7-7.9.9-18.2 6.3-24.4l2.7-3.1 3.2 2.6c8.1 6.4 14.9 15.4 16.1 25.7 9.7-2.8 21.1-2.2 29.7 2.7l3.5 2-1.9 3.6c-7.2 14-22.4 18.4-37.2 17.6-22.2 54.7-70.4 80.7-128.9 80.7-30.2 0-58-11.2-73.7-37.8l-.3-.4-2.3-4.6c-5.3-11.7-7.1-24.5-5.9-37.3l.4-3.8h21.9v-26h25.6v-25.4h51.2V857h30.7v50.8z"/><g id="body_colors_3_"><path class="st15" d="M-694.3 917.4c1.7-13.2-8.3-23.6-14.5-28.6-7.1 8.2-8.2 29.6 2.9 38.6-6.2 5.5-19.4 10.5-32.9 10.5h-164.1c-1.3 13.9 1.2 26.8 6.8 37.8l1.9 3.4c1.2 2 2.5 3.9 3.9 5.8 6.7.4 13 .6 18.6.5 11.2-.2 20.3-1.6 27.2-3.9 1-.4 2.1.2 2.5 1.2.4 1-.2 2.1-1.2 2.5-.9.3-1.9.6-2.9.9-5.4 1.5-11.3 2.6-18.8 3 .4 0-.5.1-.5.1-.3 0-.6.1-.8.1-3 .2-6.2.2-9.4.2-3.6 0-7.1-.1-11-.3l-.1.1c13.7 15.2 35 24.4 61.8 24.4 56.7 0 104.8-24.9 126.1-80.9 15.1 1.5 29.6-2.3 36.2-15.1-10.3-6.1-23.9-4.2-31.7-.3z"/><path class="st16" d="M-694.3 917.4c1.7-13.2-8.3-23.6-14.5-28.6-7.1 8.2-8.2 29.6 2.9 38.6-6.2 5.5-19.4 10.5-32.9 10.5H-893c-.7 21.4 7.3 37.6 21.5 47.4 11.2-.2 20.3-1.6 27.2-3.9 1-.4 2.1.2 2.5 1.2.4 1-.2 2.1-1.2 2.5-.9.3-1.9.6-2.9.9-5.4 1.5-11.8 2.7-19.3 3.2l-.2-.2c19.3 9.8 47.3 9.8 79.4-2.4 36-13.7 69.4-39.8 92.8-69.7-.4.1-.7.3-1.1.5z"/><path class="st17" d="M-902.4 954.9c1 7.5 3.2 14.5 6.5 20.8l1.9 3.4c1.2 2 2.5 3.9 3.9 5.8 6.7.4 13 .6 18.7.5 11.2-.2 20.3-1.6 27.2-3.9 1-.4 2.1.2 2.5 1.2.4 1-.2 2.1-1.2 2.5-.9.3-1.9.6-2.9.9-5.4 1.5-11.7 2.6-19.3 3.1h-1c-3 .2-6.1.3-9.4.3-3.6 0-7.2-.1-11.2-.3 13.7 15.2 35.2 24.4 62 24.4 48.5 0 90.8-18.3 115.3-58.6h-193z"/><path class="st18" d="M-891.5 954.9c2.9 13.1 9.9 23.4 20 30.4 11.2-.2 20.3-1.6 27.2-3.9 1-.4 2.1.2 2.5 1.2.4 1-.2 2.1-1.2 2.5-.9.3-1.9.6-2.9.9-5.4 1.5-11.9 2.6-19.4 3.1 19.3 9.8 47.2 9.7 79.3-2.5 19.4-7.4 38.1-18.4 54.8-31.7h-160.3z"/></g><g id="Containers_3_"><path class="st20" d="M-861.8 913.8h1.8v18.3h-1.8v-18.3zm-3.4 0h1.8v18.3h-1.8v-18.3zm-3.4 0h1.8v18.3h-1.8v-18.3zm-3.3 0h1.8v18.3h-1.8v-18.3zm-3.4 0h1.8v18.3h-1.8v-18.3zm-3.3 0h1.8v18.3h-1.8v-18.3zm-1.8-1.8h22.2v22h-22.2v-22zM-836.2 888.4h1.8v18.3h-1.8v-18.3zm-3.4 0h1.8v18.3h-1.8v-18.3zm-3.4 0h1.8v18.3h-1.8v-18.3zm-3.3 0h1.8v18.3h-1.8v-18.3zm-3.4 0h1.8v18.3h-1.8v-18.3zm-3.3 0h1.8v18.3h-1.8v-18.3zm-1.8-1.8h22.2v22h-22.2v-22z"/><path class="st21" d="M-836.2 913.8h1.8v18.3h-1.8v-18.3zm-3.4 0h1.8v18.3h-1.8v-18.3zm-3.4 0h1.8v18.3h-1.8v-18.3zm-3.3 0h1.8v18.3h-1.8v-18.3zm-3.4 0h1.8v18.3h-1.8v-18.3zm-3.3 0h1.8v18.3h-1.8v-18.3zm-1.8-1.8h22.2v22h-22.2v-22z"/><path class="st20" d="M-810.6 913.8h1.8v18.3h-1.8v-18.3zm-3.4 0h1.8v18.3h-1.8v-18.3zm-3.4 0h1.8v18.3h-1.8v-18.3zm-3.3 0h1.8v18.3h-1.8v-18.3zm-3.4 0h1.8v18.3h-1.8v-18.3zm-3.3 0h1.8v18.3h-1.8v-18.3zm-1.8-1.8h22.2v22h-22.2v-22z"/><path class="st21" d="M-810.6 888.4h1.8v18.3h-1.8v-18.3zm-3.4 0h1.8v18.3h-1.8v-18.3zm-3.4 0h1.8v18.3h-1.8v-18.3zm-3.3 0h1.8v18.3h-1.8v-18.3zm-3.4 0h1.8v18.3h-1.8v-18.3zm-3.3 0h1.8v18.3h-1.8v-18.3zm-1.8-1.8h22.2v22h-22.2v-22zM-785.1 913.8h1.8v18.3h-1.8v-18.3zm-3.3 0h1.8v18.3h-1.8v-18.3zm-3.4 0h1.8v18.3h-1.8v-18.3zm-3.3 0h1.8v18.3h-1.8v-18.3zm-3.4 0h1.8v18.3h-1.8v-18.3zm-3.3 0h1.8v18.3h-1.8v-18.3zm-1.8-1.8h22.2v22h-22.2v-22z"/><path class="st20" d="M-785.1 888.4h1.8v18.3h-1.8v-18.3zm-3.3 0h1.8v18.3h-1.8v-18.3zm-3.4 0h1.8v18.3h-1.8v-18.3zm-3.3 0h1.8v18.3h-1.8v-18.3zm-3.4 0h1.8v18.3h-1.8v-18.3zm-3.3 0h1.8v18.3h-1.8v-18.3zm-1.8-1.8h22.2v22h-22.2v-22z"/><path class="st21" d="M-785.1 863.1h1.8v18.3h-1.8v-18.3zm-3.3 0h1.8v18.3h-1.8v-18.3zm-3.4 0h1.8v18.3h-1.8v-18.3zm-3.3 0h1.8v18.3h-1.8v-18.3zm-3.4 0h1.8v18.3h-1.8v-18.3zm-3.3 0h1.8v18.3h-1.8v-18.3zm-1.8-1.9h22.2v22h-22.2v-22z"/><path class="st20" d="M-759.5 913.8h1.8v18.3h-1.8v-18.3zm-3.3 0h1.8v18.3h-1.8v-18.3zm-3.4 0h1.8v18.3h-1.8v-18.3zm-3.3 0h1.8v18.3h-1.8v-18.3zm-3.4 0h1.8v18.3h-1.8v-18.3zm-3.3 0h1.7v18.3h-1.7v-18.3zm-1.8-1.8h22.2v22H-778v-22z"/></g><path class="st22" d="M-834 969.7c3.4 0 6.1 2.7 6.1 6.1 0 3.4-2.7 6.1-6.1 6.1-3.4 0-6.1-2.7-6.1-6.1-.1-3.4 2.7-6.1 6.1-6.1"/><path class="st14" d="M-834 971.4c.6 0 1.1.1 1.6.3-.5.3-.9.9-.9 1.5 0 1 .8 1.8 1.8 1.8.7 0 1.3-.4 1.6-.9.2.5.3 1.1.3 1.7 0 2.4-2 4.3-4.4 4.3-2.4 0-4.4-1.9-4.4-4.3 0-2.5 1.9-4.4 4.4-4.4M-942.3 957.1H-657.5c-6.2-1.6-19.6-3.7-17.4-11.7-11.3 12.9-38.5 9.1-45.3 2.7-7.6 11-52.1 6.8-55.2-1.8-9.6 11.1-39.3 11.1-48.8 0-3.1 8.6-47.6 12.7-55.2 1.8-6.9 6.4-34 10.2-45.3-2.7 2 8-11.4 10.1-17.6 11.7"/><path class="st23" d="M-817.8 1013.4c-15.2-7.1-23.5-16.8-28.1-27.4-5.6 1.6-12.4 2.6-20.3 3-3 .2-6.1.2-9.3.2-3.8 0-7.7-.1-11.9-.3 13.9 13.8 31 24.4 62.7 24.6 2.3 0 4.6 0 6.9-.1z"/><path class="st24" d="M-840.2 995.8c-2.1-2.8-4.1-6.4-5.6-9.8-5.6 1.6-12.4 2.6-20.3 3 5.4 3 13.1 5.6 25.9 6.8z"/><path class="st14" d="M-358.4 968.8c8.8-7.4 17.5-14.9 26.3-22.4 3-2.6 6.3-5.2 9.2-7.9-2.4-3-6.3-5.1-9.7-6.4-6.8-2.6-13.5-1.7-19.8 1.9-8.2 4.7-11.7 12.1-11.3 21.4.1 3.6 1.1 7.2 3.1 10.3.6 1.1 1.3 2.1 2.2 3.1m10.1 7c4.3 1.5 9.2 1.3 13.6.5 2.3-1 8-3.4 10.1-3.1l.3.1.3.1c1.3.6 2.5 1.5 3.2 2.8 1.5 3.1.8 6.1-2.2 7.9l-1 .6c-11.2 6.4-23.1 5.5-34.3-.5-5.3-2.9-9.4-7.1-12.4-12.3l-.7-1.2c-7.2-12.3-6.2-25.3 1.9-37.1 2.8-4.1 6.5-7.2 10.7-9.6l1.6-.9c10.5-6 21.8-5.6 32.7-.3 5.8 2.8 10.5 7.1 13.8 12.7l.6 1c2.4 4.1-.7 7.6-3.9 10-3.7 2.8-7.4 6.2-10.9 9.2l-23.4 20.1zm83.9-56.1h1.2c3.5 0 5.9 2.4 5.9 5.9 0 4.8-4.7 6.1-8.7 6.1-5.3 0-10.4 3.2-14 6.7-4.6 4.5-6.5 10.2-6.5 16.4v28.3c0 3.3-2 5.9-5.4 5.9h-.9c-3.4 0-5.4-2.6-5.4-5.9v-30c0-11.5 5.6-20.9 15.1-27.5 5.3-3.8 11.8-5.9 18.7-5.9zm-147.1 20.1c4.6-4.6 9.2-9.1 13.8-13.6 1.3-1.2 6.2-6.5 8.1-6.5h2.1l.2.1c2.7.6 4.7 2.2 4.7 5.1v1.2c0 2-2.3 4.2-3.6 5.6-2.7 2.8-5.6 5.6-8.3 8.4l-14.3 14.4c6.1 6.1 12.3 12.2 18.4 18.4 1.7 1.7 3.4 3.4 5 5.1.6.6 1.5 1.4 1.9 2.2.5.8.9 1.7.9 2.7v1.2l-.1.3c-.7 2.7-2.4 4.8-5.4 4.8h-.9c-2 0-4.2-2.2-5.5-3.4-2.8-2.6-5.4-5.3-8.1-7.9l-9.1-8.8v14.1c0 3.2-2.1 5.9-5.4 5.9h-.9c-3.4 0-5.4-2.6-5.4-5.9v-79.4c0-3.2 2-5.8 5.4-5.8h.9c3.4 0 5.4 2.6 5.4 5.8v36zm-38.3-7.9c-1.8-.8-5.1-1.1-7-1.2-9.9-.4-17 5.1-21.2 13.8-1.4 3-2.1 6.1-2.1 9.4 0 10 5.3 17 14.3 21.3 3.3 1.6 7.5 1.9 11.1 1.9 3.2 0 7.6-1.9 10.5-3.2l.5-.2H-441.3c2.7.6 4.7 2.2 4.7 5.1v1.2c0 7.1-13.1 8.8-18.1 9.1-17.7 1.2-30.9-8.4-35.9-25.1-.9-2.9-1.3-5.8-1.3-8.8v-2.3c0-12.7 6.3-22.7 17.3-29.2 5.1-3 10.8-4.5 16.7-4.5h2.3c6.3 0 12.1 1.8 17.3 5.3l.4.3.3.4c.6.9 1 2 1 3.1v1.2c0 3-2.3 4.6-5 5.1H-442.5c-1.7-.2-5.7-2-7.3-2.7zm-107.6 22.2c0 8.9 4.4 15.4 12 20 3.6 2.2 7.5 3.1 11.6 3.1 8.9 0 15.4-4.5 20-11.9 2.2-3.5 3.2-7.4 3.2-11.5 0-8.3-4-14.6-10.9-19.2-3.8-2.5-8-3.8-12.5-3.8-9.9 0-17 5-21.3 13.8-1.4 3.1-2.1 6.2-2.1 9.5zm22.2-34.9h1.6c13.7 0 24.1 6.6 30.7 18.4 2.6 4.7 4 9.9 4 15.3v2.3c0 12.7-6.3 22.8-17.3 29.2-5.1 3-10.8 4.5-16.7 4.5h-2.3c-12.8 0-23-6.3-29.5-17.2-3-5.1-4.5-10.7-4.5-16.5V953c0-12.7 6.3-22.7 17.3-29.2 5.1-3.1 10.8-4.6 16.7-4.6zm-99.5 34.9c0 9.2 4.5 16.1 12.6 20.4 3.3 1.8 6.8 2.7 10.6 2.7 9.1 0 15.8-4.2 20.4-11.9 2.2-3.5 3.2-7.4 3.2-11.5 0-7.9-3.8-14.1-10.2-18.7-3.9-2.8-8.3-4.2-13.1-4.2-9.9 0-17 5-21.3 13.8-1.5 3-2.2 6.1-2.2 9.4zm46.8-26.1v-24.7c0-3.2 2-5.9 5.4-5.9h.9c3.4 0 5.4 2.6 5.4 5.9v52c0 12.7-6.3 22.8-17.3 29.2-5.1 3-10.8 4.5-16.7 4.5h-2.3c-12.8 0-23-6.3-29.5-17.2-3-5.1-4.5-10.7-4.5-16.5V953c0-12.7 6.3-22.8 17.3-29.2 5.1-3 10.7-4.5 16.7-4.5h2.3c8.7-.1 16.1 3.3 22.3 8.7z"/><path id="outline_8_" class="st14" d="M-777.2 1307.8h25.6v26h12.9c6 0 12.1-1.1 17.8-3 2.8-.9 5.9-2.2 8.6-3.9-3.6-4.7-5.5-10.6-6-16.4-.7-7.9.9-18.2 6.3-24.4l2.7-3.1 3.2 2.6c8.1 6.4 14.9 15.4 16.1 25.7 9.7-2.8 21.1-2.2 29.7 2.7l3.5 2-1.9 3.6c-7.2 14-22.4 18.4-37.2 17.6-22.2 54.7-70.4 80.7-128.9 80.7-30.2 0-58-11.2-73.7-37.8l-.3-.4-2.3-4.6c-5.3-11.7-7.1-24.5-5.9-37.3l.4-3.8h21.9v-26h25.6v-25.4h51.2V1257h30.7v50.8z"/><g id="body_colors_9_"><path class="st15" d="M-694.3 1317.4c1.7-13.2-8.3-23.6-14.5-28.6-7.1 8.2-8.2 29.6 2.9 38.6-6.2 5.5-19.4 10.5-32.9 10.5h-164.1c-1.3 13.9 1.2 26.8 6.8 37.8l1.9 3.4c1.2 2 2.5 3.9 3.9 5.8 6.7.4 13 .6 18.6.5 11.2-.2 20.3-1.6 27.2-3.9 1-.4 2.1.2 2.5 1.2.4 1-.2 2.1-1.2 2.5-.9.3-1.9.6-2.9.9-5.4 1.5-11.3 2.6-18.8 3 .4 0-.5.1-.5.1-.3 0-.6.1-.8.1-3 .2-6.2.2-9.4.2-3.6 0-7.1-.1-11-.3l-.1.1c13.7 15.2 35 24.4 61.8 24.4 56.7 0 104.8-24.9 126.1-80.9 15.1 1.5 29.6-2.3 36.2-15.1-10.3-6.1-23.9-4.2-31.7-.3z"/><path class="st16" d="M-694.3 1317.4c1.7-13.2-8.3-23.6-14.5-28.6-7.1 8.2-8.2 29.6 2.9 38.6-6.2 5.5-19.4 10.5-32.9 10.5H-893c-.7 21.4 7.3 37.6 21.5 47.4 11.2-.2 20.3-1.6 27.2-3.9 1-.4 2.1.2 2.5 1.2.4 1-.2 2.1-1.2 2.5-.9.3-1.9.6-2.9.9-5.4 1.5-11.8 2.7-19.3 3.2l-.2-.2c19.3 9.8 47.3 9.8 79.4-2.4 36-13.7 69.4-39.8 92.8-69.7-.4.1-.7.3-1.1.5z"/><path class="st17" d="M-902.4 1354.9c1 7.5 3.2 14.5 6.5 20.8l1.9 3.4c1.2 2 2.5 3.9 3.9 5.8 6.7.4 13 .6 18.7.5 11.2-.2 20.3-1.6 27.2-3.9 1-.4 2.1.2 2.5 1.2.4 1-.2 2.1-1.2 2.5-.9.3-1.9.6-2.9.9-5.4 1.5-11.7 2.6-19.3 3.1h-1c-3 .2-6.1.3-9.4.3-3.6 0-7.2-.1-11.2-.3 13.7 15.2 35.2 24.4 62 24.4 48.5 0 90.8-18.3 115.3-58.6h-193z"/><path class="st18" d="M-891.5 1354.9c2.9 13.1 9.9 23.4 20 30.4 11.2-.2 20.3-1.6 27.2-3.9 1-.4 2.1.2 2.5 1.2.4 1-.2 2.1-1.2 2.5-.9.3-1.9.6-2.9.9-5.4 1.5-11.9 2.6-19.4 3.1 19.3 9.8 47.2 9.7 79.3-2.5 19.4-7.4 38.1-18.4 54.8-31.7h-160.3z"/></g><g id="Containers_9_"><path class="st20" d="M-861.8 1313.8h1.8v18.3h-1.8v-18.3zm-3.4 0h1.8v18.3h-1.8v-18.3zm-3.4 0h1.8v18.3h-1.8v-18.3zm-3.3 0h1.8v18.3h-1.8v-18.3zm-3.4 0h1.8v18.3h-1.8v-18.3zm-3.3 0h1.8v18.3h-1.8v-18.3zm-1.8-1.8h22.2v22h-22.2v-22zM-836.2 1288.4h1.8v18.3h-1.8v-18.3zm-3.4 0h1.8v18.3h-1.8v-18.3zm-3.4 0h1.8v18.3h-1.8v-18.3zm-3.3 0h1.8v18.3h-1.8v-18.3zm-3.4 0h1.8v18.3h-1.8v-18.3zm-3.3 0h1.8v18.3h-1.8v-18.3zm-1.8-1.8h22.2v22h-22.2v-22z"/><path class="st21" d="M-836.2 1313.8h1.8v18.3h-1.8v-18.3zm-3.4 0h1.8v18.3h-1.8v-18.3zm-3.4 0h1.8v18.3h-1.8v-18.3zm-3.3 0h1.8v18.3h-1.8v-18.3zm-3.4 0h1.8v18.3h-1.8v-18.3zm-3.3 0h1.8v18.3h-1.8v-18.3zm-1.8-1.8h22.2v22h-22.2v-22z"/><path class="st20" d="M-810.6 1313.8h1.8v18.3h-1.8v-18.3zm-3.4 0h1.8v18.3h-1.8v-18.3zm-3.4 0h1.8v18.3h-1.8v-18.3zm-3.3 0h1.8v18.3h-1.8v-18.3zm-3.4 0h1.8v18.3h-1.8v-18.3zm-3.3 0h1.8v18.3h-1.8v-18.3zm-1.8-1.8h22.2v22h-22.2v-22z"/><path class="st21" d="M-810.6 1288.4h1.8v18.3h-1.8v-18.3zm-3.4 0h1.8v18.3h-1.8v-18.3zm-3.4 0h1.8v18.3h-1.8v-18.3zm-3.3 0h1.8v18.3h-1.8v-18.3zm-3.4 0h1.8v18.3h-1.8v-18.3zm-3.3 0h1.8v18.3h-1.8v-18.3zm-1.8-1.8h22.2v22h-22.2v-22zM-785.1 1313.8h1.8v18.3h-1.8v-18.3zm-3.3 0h1.8v18.3h-1.8v-18.3zm-3.4 0h1.8v18.3h-1.8v-18.3zm-3.3 0h1.8v18.3h-1.8v-18.3zm-3.4 0h1.8v18.3h-1.8v-18.3zm-3.3 0h1.8v18.3h-1.8v-18.3zm-1.8-1.8h22.2v22h-22.2v-22z"/><path class="st20" d="M-785.1 1288.4h1.8v18.3h-1.8v-18.3zm-3.3 0h1.8v18.3h-1.8v-18.3zm-3.4 0h1.8v18.3h-1.8v-18.3zm-3.3 0h1.8v18.3h-1.8v-18.3zm-3.4 0h1.8v18.3h-1.8v-18.3zm-3.3 0h1.8v18.3h-1.8v-18.3zm-1.8-1.8h22.2v22h-22.2v-22z"/><path class="st21" d="M-785.1 1263.1h1.8v18.3h-1.8v-18.3zm-3.3 0h1.8v18.3h-1.8v-18.3zm-3.4 0h1.8v18.3h-1.8v-18.3zm-3.3 0h1.8v18.3h-1.8v-18.3zm-3.4 0h1.8v18.3h-1.8v-18.3zm-3.3 0h1.8v18.3h-1.8v-18.3zm-1.8-1.9h22.2v22h-22.2v-22z"/><path class="st20" d="M-759.5 1313.8h1.8v18.3h-1.8v-18.3zm-3.3 0h1.8v18.3h-1.8v-18.3zm-3.4 0h1.8v18.3h-1.8v-18.3zm-3.3 0h1.8v18.3h-1.8v-18.3zm-3.4 0h1.8v18.3h-1.8v-18.3zm-3.3 0h1.7v18.3h-1.7v-18.3zm-1.8-1.8h22.2v22H-778v-22z"/></g><path class="st22" d="M-834 1369.7c3.4 0 6.1 2.7 6.1 6.1 0 3.4-2.7 6.1-6.1 6.1-3.4 0-6.1-2.7-6.1-6.1-.1-3.4 2.7-6.1 6.1-6.1"/><path class="st14" d="M-834 1371.4c.6 0 1.1.1 1.6.3-.5.3-.9.9-.9 1.5 0 1 .8 1.8 1.8 1.8.7 0 1.3-.4 1.6-.9.2.5.3 1.1.3 1.7 0 2.4-2 4.3-4.4 4.3-2.4 0-4.4-1.9-4.4-4.3 0-2.5 1.9-4.4 4.4-4.4M-942.3 1357.1H-657.5c-6.2-1.6-19.6-3.7-17.4-11.7-11.3 12.9-38.5 9.1-45.3 2.7-7.6 11-52.1 6.8-55.2-1.8-9.6 11.1-39.3 11.1-48.8 0-3.1 8.6-47.6 12.7-55.2 1.8-6.9 6.4-34 10.2-45.3-2.7 2 8-11.4 10.1-17.6 11.7"/><path class="st23" d="M-817.8 1413.4c-15.2-7.1-23.5-16.8-28.1-27.4-5.6 1.6-12.4 2.6-20.3 3-3 .2-6.1.2-9.3.2-3.8 0-7.7-.1-11.9-.3 13.9 13.8 31 24.4 62.7 24.6 2.3 0 4.6 0 6.9-.1z"/><path class="st24" d="M-840.2 1395.8c-2.1-2.8-4.1-6.4-5.6-9.8-5.6 1.6-12.4 2.6-20.3 3 5.4 3 13.1 5.6 25.9 6.8z"/><path class="st14" d="M-358.4 1368.8c8.8-7.4 17.5-14.9 26.3-22.4 3-2.6 6.3-5.2 9.2-7.9-2.4-3-6.3-5.1-9.7-6.4-6.8-2.6-13.5-1.7-19.8 1.9-8.2 4.7-11.7 12.1-11.3 21.4.1 3.6 1.1 7.2 3.1 10.3.6 1.1 1.3 2.1 2.2 3.1m10.1 7c4.3 1.5 9.2 1.3 13.6.5 2.3-1 8-3.4 10.1-3.1l.3.1.3.1c1.3.6 2.5 1.5 3.2 2.8 1.5 3.1.8 6.1-2.2 7.9l-1 .6c-11.2 6.4-23.1 5.5-34.3-.5-5.3-2.9-9.4-7.1-12.4-12.3l-.7-1.2c-7.2-12.3-6.2-25.3 1.9-37.1 2.8-4.1 6.5-7.2 10.7-9.6l1.6-.9c10.5-6 21.8-5.6 32.7-.3 5.8 2.8 10.5 7.1 13.8 12.7l.6 1c2.4 4.1-.7 7.6-3.9 10-3.7 2.8-7.4 6.2-10.9 9.2l-23.4 20.1zm83.9-56.1h1.2c3.5 0 5.9 2.4 5.9 5.9 0 4.8-4.7 6.1-8.7 6.1-5.3 0-10.4 3.2-14 6.7-4.6 4.5-6.5 10.2-6.5 16.4v28.3c0 3.3-2 5.9-5.4 5.9h-.9c-3.4 0-5.4-2.6-5.4-5.9v-30c0-11.5 5.6-20.9 15.1-27.5 5.3-3.8 11.8-5.9 18.7-5.9zm-147.1 20.1c4.6-4.6 9.2-9.1 13.8-13.6 1.3-1.2 6.2-6.5 8.1-6.5h2.1l.2.1c2.7.6 4.7 2.2 4.7 5.1v1.2c0 2-2.3 4.2-3.6 5.6-2.7 2.8-5.6 5.6-8.3 8.4l-14.3 14.4c6.1 6.1 12.3 12.2 18.4 18.4 1.7 1.7 3.4 3.4 5 5.1.6.6 1.5 1.4 1.9 2.2.5.8.9 1.7.9 2.7v1.2l-.1.3c-.7 2.7-2.4 4.8-5.4 4.8h-.9c-2 0-4.2-2.2-5.5-3.4-2.8-2.6-5.4-5.3-8.1-7.9l-9.1-8.8v14.1c0 3.2-2.1 5.9-5.4 5.9h-.9c-3.4 0-5.4-2.6-5.4-5.9v-79.4c0-3.2 2-5.8 5.4-5.8h.9c3.4 0 5.4 2.6 5.4 5.8v36zm-38.3-7.9c-1.8-.8-5.1-1.1-7-1.2-9.9-.4-17 5.1-21.2 13.8-1.4 3-2.1 6.1-2.1 9.4 0 10 5.3 17 14.3 21.3 3.3 1.6 7.5 1.9 11.1 1.9 3.2 0 7.6-1.9 10.5-3.2l.5-.2H-441.3c2.7.6 4.7 2.2 4.7 5.1v1.2c0 7.1-13.1 8.8-18.1 9.1-17.7 1.2-30.9-8.4-35.9-25.1-.9-2.9-1.3-5.8-1.3-8.8v-2.3c0-12.7 6.3-22.7 17.3-29.2 5.1-3 10.8-4.5 16.7-4.5h2.3c6.3 0 12.1 1.8 17.3 5.3l.4.3.3.4c.6.9 1 2 1 3.1v1.2c0 3-2.3 4.6-5 5.1H-442.5c-1.7-.2-5.7-2-7.3-2.7zm-107.6 22.2c0 8.9 4.4 15.4 12 20 3.6 2.2 7.5 3.1 11.6 3.1 8.9 0 15.4-4.5 20-11.9 2.2-3.5 3.2-7.4 3.2-11.5 0-8.3-4-14.6-10.9-19.2-3.8-2.5-8-3.8-12.5-3.8-9.9 0-17 5-21.3 13.8-1.4 3.1-2.1 6.2-2.1 9.5zm22.2-34.9h1.6c13.7 0 24.1 6.6 30.7 18.4 2.6 4.7 4 9.9 4 15.3v2.3c0 12.7-6.3 22.8-17.3 29.2-5.1 3-10.8 4.5-16.7 4.5h-2.3c-12.8 0-23-6.3-29.5-17.2-3-5.1-4.5-10.7-4.5-16.5v-2.3c0-12.7 6.3-22.7 17.3-29.2 5.1-3 10.8-4.5 16.7-4.5zm-99.5 34.9c0 9.2 4.5 16.1 12.6 20.4 3.3 1.8 6.8 2.7 10.6 2.7 9.1 0 15.8-4.2 20.4-11.9 2.2-3.5 3.2-7.4 3.2-11.5 0-7.9-3.8-14.1-10.2-18.7-3.9-2.8-8.3-4.2-13.1-4.2-9.9 0-17 5-21.3 13.8-1.5 3-2.2 6.1-2.2 9.4zm46.8-26.1v-24.7c0-3.2 2-5.9 5.4-5.9h.9c3.4 0 5.4 2.6 5.4 5.9v52c0 12.7-6.3 22.8-17.3 29.2-5.1 3-10.8 4.5-16.7 4.5h-2.3c-12.8 0-23-6.3-29.5-17.2-3-5.1-4.5-10.7-4.5-16.5v-2.3c0-12.7 6.3-22.8 17.3-29.2 5.1-3 10.7-4.5 16.7-4.5h2.3c8.7-.1 16.1 3.3 22.3 8.7z"/></svg>