<svg xmlns="http://www.w3.org/2000/svg" viewBox="0 0 256 289" enable-background="new 0 0 256 289"><path fill="#ADADAD" d="M165.3 288.5h3.5l57.3-28.6 1-1.3V30l-1-1.4L168.8 0h-3.6l.1 288.5"/><path fill="#8B8B8B" d="M90.7 288.5h-3.6L30 259.9l-1.2-2-.6-226.8 1.8-2.5L87.2 0h3.6l-.1 288.5"/><path fill="#9F9F9F" d="M87.3 0h81.4v288.5H87.3V0z"/><path fill="#C3C3C3" d="M256 137.8l-1.9-.4-27.6-2.6-.5.2-57.3-2.3H87.3L30 135V91.3h-.1l.1-.1 57.3-13.3h81.4L226 91.2l21.1 11.2v-7.2l8.9-1-.9-1.8-28.2-20.2-.9.3-57.3-17.8H87.3L30 72.5V28.6L0 63.7v30.7l.2-.2 8.7.9v7.3L0 107.3v30.5h.2l8.7.1v12.8l-7.5.1-1.4-.1v30.5l8.9 4.8v7.4l-8.5.9-.4-.2v30.7l30 35.1V216l57.3 17.8h81.4l57.5-17.8.8.3 27.8-19.9 1.2-2-8.9-1v-7.3l-1.2-.5-19 10.3-.7 1.4-57.5 13.2H87.3L30 197.3v-43.9l57.3 2.3v.1h81.4l57.3-2.3 1.3.6 26.8-2.3 1.9-.9-8.9-.1V138l8.9-.2"/><path fill="#919191" d="M226 216v43.9l30-35.1v-30.5l-29.8 21.6-.2.1M226 197.4h.2l29.8-16v-30.6l-30 2.8v43.8M226.2 91.2h-.2V135l30 2.8v-30.6l-29.8-16M226.2 72.7L256 94.2V63.7l-30-35.1v43.9l.2.1v.1"/></svg>