<svg xmlns="http://www.w3.org/2000/svg" viewBox="0 0 133.9 131.6" enable-background="new 0 0 133.9 131.6"><style type="text/css">.st0{fill-rule:evenodd;clip-rule:evenodd;fill:#191717;} .st1{fill:#191717;} .st2{fill:none;stroke:#1981BC;stroke-linecap:round;stroke-miterlimit:10;} .st3{fill:none;stroke:#1981BC;stroke-linecap:round;stroke-miterlimit:10;stroke-dasharray:0.9999,1.9999;} .st4{fill:#0072BC;} .st5{fill-rule:evenodd;clip-rule:evenodd;fill:#FFFFFF;} .st6{fill:#FFFFFF;}</style><path class="st5" d="M65.7 6.1c-33.3 0-60.4 27-60.4 60.4 0 26.7 17.3 49.3 41.3 57.3 3 .6 4.1-1.3 4.1-2.9 0-1.4-.1-6.2-.1-11.2-16.8 3.7-20.3-7.1-20.3-7.1-2.7-7-6.7-8.8-6.7-8.8-5.5-3.9.4-3.8.4-3.8 6.1.4 9.3 6.2 9.3 6.2 5.4 9.2 14.1 6.6 17.6 5 .5-3.9 2.1-6.6 3.8-8.1-13.4-1.5-27.5-6.7-27.5-29.8 0-6.6 2.4-12 6.2-16.2-.6-1.5-2.7-7.7.6-16 0 0 5.1-1.6 16.6 6.2 4.8-1.3 10-2 15.1-2s10.3.7 15.1 2c11.5-7.8 16.6-6.2 16.6-6.2 3.3 8.3 1.2 14.5.6 16 3.9 4.2 6.2 9.6 6.2 16.2 0 23.2-14.1 28.3-27.6 29.8 2.2 1.9 4.1 5.5 4.1 11.2 0 8.1-.1 14.6-.1 16.6 0 1.6 1.1 3.5 4.1 2.9 24-8 41.3-30.6 41.3-57.3 0-33.4-27-60.4-60.3-60.4z"/><path class="st6" d="M28.1 92.8c-.1.3-.6.4-1 .2s-.7-.6-.5-.9c.1-.3.6-.4 1-.2s.7.6.5.9zm-.7-.6M30.6 95.5c-.3.3-.9.1-1.2-.3-.4-.4-.5-1-.2-1.3.3-.3.8-.1 1.2.3.4.5.5 1 .2 1.3zm-.6-.6M33 99c-.4.3-1 0-1.3-.5-.4-.5-.4-1.2 0-1.4.4-.3 1 0 1.3.5.3.5.3 1.1 0 1.4zm0 0M36.2 102.4c-.3.4-1 .3-1.6-.2-.5-.5-.7-1.2-.3-1.5.3-.4 1-.3 1.6.2.5.4.7 1.1.3 1.5zm0 0M40.7 104.3c-.1.5-.8.7-1.5.5-.7-.2-1.1-.8-1-1.2.1-.5.8-.7 1.5-.5.7.2 1.2.7 1 1.2zm0 0M45.7 104.7c0 .5-.6.9-1.3.9-.7 0-1.3-.4-1.3-.9s.6-.9 1.3-.9c.7 0 1.3.4 1.3.9zm0 0M50.3 103.9c.1.5-.4 1-1.1 1.1-.7.1-1.3-.2-1.4-.7-.1-.5.4-1 1.1-1.1.6-.1 1.3.2 1.4.7zm0 0"/></svg>