<svg xmlns="http://www.w3.org/2000/svg" viewBox="0 0 251.67 189.47"><defs><style>.cls-1,.cls-2{fill:#fff;}.cls-2{opacity:0.8;isolation:isolate;}.cls-3{opacity:0.2;}</style></defs><title>html.svg</title><path class="cls-1" d="M72.17 3.15h8.37v8.27h7.65V3.15h8.37v25h-8.37V19.8h-7.66v8.38h-8.36zM107.56 11.45h-7.37v-8.3h23.1v8.3h-7.37v16.73h-8.37V11.45zM127 3.15h8.72l5.37 8.8 5.36-8.8h8.73v25h-8.33V15.78l-5.76 8.9h-.14l-5.76-8.9v12.4H127zM159.31 3.15h8.37v16.76h11.77v8.27h-20.14zM104.09 99.93h21.74V83.07h-23.24zm-44-60.77l12 134.24 53.72 14.91 53.77-14.91 12-134.25zm109.21 125.7l-43.48 12.05v-17.08l-33.73-9.36L89.72 124h16.53l1.22 13.71 18.34 5v-26.32H89L84.6 66.6h41.24V50.14h53.72z"/><path class="cls-2" d="M146.1 116.39h-20.27v26.31l18.36-5zm-20.27-66.25V66.6h41.24l-1.47 16.46h-39.77v16.87h38.26l-4.52 50.55-33.75 9.35v17.09l43.48-12.05 10.26-114.73h-53.73z"/><g class="cls-3"><path class="cls-1" d="M125.83 66.6H84.6l4.44 49.79h36.79V99.93h-21.74l-1.5-16.86h23.24V66.6zM125.83 142.7l-.02.01-18.34-4.96-1.22-13.71H89.72l2.36 26.43 33.73 9.37.02-.01V142.7z"/></g></svg>