<svg xmlns="http://www.w3.org/2000/svg" viewBox="0 0 512 179" enable-background="new 0 0 512 179"><style type="text/css">.st0{fill:#FFFFFF;}</style><path class="st0" d="M227.7 66.3h3.7v69.9h-3.7zM283.8 64.6c-21 0-36.8 15.8-36.8 36.6 0 21 15.8 36.6 36.8 36.6 21 0 36.8-15.7 36.8-36.6 0-20.8-15.8-36.6-36.8-36.6zm0 69.9c-18.8 0-33.1-14.2-33.1-33.2 0-19 14.2-33.2 33.1-33.2 18.9 0 33.1 14.2 33.1 33.2 0 18.9-14.2 33.2-33.1 33.2zM390.4 71.6c-7.9-6.5-17.4-7-22.3-7-11.1 0-23.3 5.1-27.7 15.2h-.3V66.3h-3.7v69.9h3.7V96c0-17.5 10.8-27.9 28.3-27.9 10.5 0 16.2 3.4 19.8 6.6 5.3 4.7 8.6 12.5 8.6 24.6v36.9h3.7V99.3c0-12.6-3.3-21.9-10.1-27.7zM420.9 66.3h3.7v69.9h-3.7zM477.1 134.5c-17.8 0-33.1-13.4-33.1-33.2 0-9.5 4-18.7 9.6-23.9 7.2-6.5 13.7-9.4 23.6-9.4 13.7 0 25.8 7.6 30.6 21h4.1c-5.5-16.5-20.6-24.4-34.8-24.4-21.2 0-36.8 16.1-36.8 36.8 0 21.8 16.5 36.5 36.8 36.5 16.6 0 29.8-9.5 34.7-23.7h-4.1c-3.4 10.4-14.8 20.3-30.6 20.3z"/><circle class="st0" cx="229.5" cy="44.6" r="4"/><circle class="st0" cx="422.8" cy="44.6" r="4"/><circle class="st0" cx="89.4" cy="89.3" r="36.4"/><path class="st0" d="M163.8 27.4c0-6.9-5.6-12.5-12.5-12.5-3.1 0-6 1.2-8.2 3.1-15-11.3-33.6-18-53.7-18C40.1 0 .1 40 .1 89.3c0 49.2 40 89.3 89.3 89.3s89.3-40 89.3-89.3c0-20.1-6.7-38.7-18-53.6 1.9-2.3 3.1-5.1 3.1-8.3zM89.4 175.5c-47.6 0-86.3-38.7-86.3-86.3S41.8 3 89.4 3c19.3 0 37.2 6.4 51.6 17.2-1.4 2-2.3 4.5-2.3 7.2 0 6.9 5.6 12.5 12.5 12.5 2.7 0 5.2-.9 7.2-2.3 10.8 14.4 17.2 32.3 17.2 51.6 0 47.6-38.7 86.3-86.2 86.3z"/></svg>