<svg xmlns="http://www.w3.org/2000/svg" viewBox="0 0 2065 2500" enable-background="new 0 0 2065 2500"><style type="text/css">.st0{fill:#C1BDBC;} .st1{fill:#FFFFFF;} .st2{fill:#68615D;} .st3{fill:#DDDAD9;}</style><path class="st0" d="M.2 1977.9l131.6 65.8 21.6-38.3V478.5l-21.6-28.2L.2 516.1v1461.8"/><path class="st1" d="M384.7 512.7l-252.9-62.3v1593.4l252.9-58.9V512.7"/><path class="st2" d="M1160.7 633.9l180.1-93.5 599.3 232.1-159.3 20.8-620.1-159.4"/><path class="st3" d="M1167.6 1860.1l176.7 93.5 599.3-232.1-159.3-20.8-616.7 159.4"/><path class="st0" d="M1212.6 1603.8l315.2 41.6 18.1-32.5V887.1l-18.1-38.4-315.2 41.6v713.5M287.8 370.6l194-97 21.2 40.9v1862.9l-21.2 43-194-97V370.6"/><path class="st1" d="M876.6 2088.8L481.7 2217V273.7l394.9 128.2v1686.9"/><path class="st0" d="M724.2 2338.2l308.3 155.9 32.3-37.1V45.7L1032.5 0 724.2 155.9v2182.3m1049.6-1545l159.3-20.8 13.7 19.9v909.3l-13.7 23.4-159.3-20.8v-911"/><path class="st1" d="M1527.8 848.7v800.2l329.1-401.8-329.1-398.4"/><path class="st1" d="M1933.1 450.3L1032.5 0v2494l1032.3-516.1V516.1l-131.7-65.8zm0 1276l-592.3 176.9V590.9l592.3 176.9v958.5z"/></svg>