<svg xmlns="http://www.w3.org/2000/svg" viewBox="0 0 256 251" enable-background="new 0 0 256 251"><style type="text/css">.st0{fill:#FFFFFF;}</style><path class="st0" d="M.4.4l218.9 231.8s7.5 5.3 13.2-.9c5.7-6.1 1.3-12.3 1.3-12.3L.4.4zM69.7 22.4L236.4 202s7.5 5.3 13.2-.9c5.7-6.1 1.3-12.3 1.3-12.3L69.7 22.4zM21.1 69.2l166.7 179.7s7.5 5.3 13.2-.9c5.7-6.1 1.3-12.3 1.3-12.3L21.1 69.2zM128.3 41.2l116.4 125.5s5.2 3.7 9.2-.6c4-4.3.9-8.6.9-8.6L128.3 41.2zM37.1 123.6l116.4 125.5s5.2 3.7 9.2-.6c4-4.3.9-8.6.9-8.6L37.1 123.6zM188.2 68.4l52.8 57.1s2.6 1.7 4.5-.3.5-4 .5-4l-57.8-52.8zM66.2 181.4l52.8 57.1s2.6 1.7 4.5-.3c2-2 .5-4 .5-4l-57.8-52.8z"/></svg>