<svg xmlns="http://www.w3.org/2000/svg" viewBox="0 0 251.67 189.47"><defs><style>.cls-1{fill:#fff;}</style></defs><title>net.svg</title><g id="_Group_"><path id="_Path_" class="cls-1" d="M166.54 59.9a6.31 6.31 0 0 0 2.23-4.9 6 6 0 0 0-1.77-4.5 13.87 13.87 0 0 0-4.48-2.69 13.49 13.49 0 0 1-3.65-2 3.25 3.25 0 0 1-1-2.51 3 3 0 0 1 1.13-2.47 4.77 4.77 0 0 1 3.09-.94 9.14 9.14 0 0 1 5.51 1.73V37.7a11.54 11.54 0 0 0-5.19-1.14 9.25 9.25 0 0 0-6.17 2 6.7 6.7 0 0 0-.85 9.42 12.79 12.79 0 0 0 4.34 2.75 16.12 16.12 0 0 1 4 2.23 3 3 0 0 1 1 2.35q0 3.39-4.62 3.39a9.78 9.78 0 0 1-6.31-2.33v4.18a12 12 0 0 0 6 1.46 9.78 9.78 0 0 0 6.74-2.11z"/><path id="_Path_2" class="cls-1" d="M203.11 61.45H207v-21h5.69v-3.29H207v-3.74c0-3.43 1.35-5.15 4.07-5.15a5.22 5.22 0 0 1 2.58.64V25.4a7.63 7.63 0 0 0-2.82-.42 7.45 7.45 0 0 0-5.25 2 8 8 0 0 0-2.48 6.28v3.94H199v3.29h4.13z"/><path id="_Path_3" class="cls-1" d="M79.15 31a2.46 2.46 0 0 0 1.85-.74 2.53 2.53 0 0 0 0-3.59 2.61 2.61 0 0 0-3.6 0 2.58 2.58 0 0 0 0 3.62 2.51 2.51 0 0 0 1.75.71z"/><path id="_Path_4" class="cls-1" d="M98.63 62a12.48 12.48 0 0 0 6.65-1.71v-3.7a9.77 9.77 0 0 1-6 2.09 7.72 7.72 0 0 1-6-2.47 9.62 9.62 0 0 1-2.25-6.71 10 10 0 0 1 2.45-7.06 7.78 7.78 0 0 1 6-2.59 9.85 9.85 0 0 1 5.79 1.9v-4a12.41 12.41 0 0 0-5.62-1.23 12 12 0 0 0-9.21 3.68 13.55 13.55 0 0 0-3.43 9.65 12.25 12.25 0 0 0 3.13 8.68A11 11 0 0 0 98.63 62z"/><path id="_Compound_Path_" class="cls-1" d="M236.89 39.1h.76c.53 0 1 .49 1.47 1.48l.9 2h1.4l-1.08-2.19c-.45-.9-.91-1.41-1.36-1.52a2.78 2.78 0 0 0 1.54-.81 2 2 0 0 0 .55-1.44 2 2 0 0 0-.68-1.55 3.45 3.45 0 0 0-2.34-.69h-2.32v8.23h1.16zm0-3.79h1a2.46 2.46 0 0 1 1.52.36 1.26 1.26 0 0 1 .4 1c0 .94-.56 1.41-1.7 1.41h-1.23z"/><path id="_Path_5" class="cls-1" d="M219 54.83q0 7.17 6.35 7.17a7.32 7.32 0 0 0 3.65-.79v-3.32a4.13 4.13 0 0 1-2.51.79 3.35 3.35 0 0 1-2.78-1 5.55 5.55 0 0 1-.83-3.47V40.46H229v-3.3h-6.12V30c-1.36.44-2.65.87-3.89 1.26v5.93h-4.17v3.29H219z"/><path id="_Compound_Path_2" class="cls-1" d="M238.25 44.92a6.34 6.34 0 0 0 4.63-1.85 6.52 6.52 0 0 0 0-9.18 6.73 6.73 0 0 0-9.21.08 6.22 6.22 0 0 0-1.86 4.57 6.15 6.15 0 0 0 1.83 4.57 6.34 6.34 0 0 0 4.61 1.81zm-4.06-10.46a5.76 5.76 0 0 1 8.13 8.15 5.76 5.76 0 0 1-8.13-8.15z"/><path id="_Path_6" class="cls-1" d="M77.16 37.16h3.88v24.29h-3.88z"/><path id="_Compound_Path_3" class="cls-1" d="M137.39 62a11.52 11.52 0 0 0 8.83-3.51 13.12 13.12 0 0 0 3.27-9.31q0-5.9-3-9.28a10.92 10.92 0 0 0-8.49-3.33 12.09 12.09 0 0 0-8.82 3.22q-3.56 3.47-3.56 9.8a12.65 12.65 0 0 0 3.13 8.94 11.17 11.17 0 0 0 8.64 3.47zm-5.52-19.77a7.5 7.5 0 0 1 5.81-2.37 7.19 7.19 0 0 1 5.72 2.35q2.1 2.45 2.1 7.11 0 4.45-2 6.88a7.1 7.1 0 0 1-5.85 2.49 7.52 7.52 0 0 1-5.9-2.46 9.82 9.82 0 0 1-2.2-6.82q.02-4.62 2.32-7.15z"/><path id="_Compound_Path_4" class="cls-1" d="M193.24 58.52a13.1 13.1 0 0 0 3.28-9.31c0-3.94-1-7-3.05-9.28a10.89 10.89 0 0 0-8.47-3.36 12.09 12.09 0 0 0-8.82 3.22q-3.55 3.47-3.56 9.8a12.65 12.65 0 0 0 3.13 8.94 11.17 11.17 0 0 0 8.67 3.47 11.47 11.47 0 0 0 8.82-3.48zm-16.64-9.08q0-4.65 2.29-7.18a7.54 7.54 0 0 1 5.81-2.37 7.18 7.18 0 0 1 5.72 2.35q2.11 2.45 2.11 7.11 0 4.45-2 6.88a7.09 7.09 0 0 1-5.85 2.49 7.58 7.58 0 0 1-5.91-2.46 9.88 9.88 0 0 1-2.17-6.82z"/><path id="_Path_7" class="cls-1" d="M136.07 121.23h32.22v-9.45h-32.22V82.11h34.77v-9.45h-45.21v89.18h47.26v-9.45h-36.82v-31.16z"/><path id="_Path_8" class="cls-1" d="M182.71 82.11h25.74v79.73h10.45V82.11h25.68v-9.45h-61.87v9.45z"/><path id="_Path_9" class="cls-1" d="M11.8 149.22a6.47 6.47 0 0 0-4.8 2.05 7.17 7.17 0 0 0 0 9.92 6.46 6.46 0 0 0 4.85 2.09 6.73 6.73 0 0 0 5-2.09 7 7 0 0 0 0-9.89 6.7 6.7 0 0 0-5.05-2.08z"/><path id="_Path_10" class="cls-1" d="M117.78 38.07a8.49 8.49 0 0 0-2.63 4.1h-.1v-5h-3.88v24.28h3.88V49.06a10.64 10.64 0 0 1 1.83-6.61 5.21 5.21 0 0 1 7-1.35v-4a6.32 6.32 0 0 0-2.33-.33 5.81 5.81 0 0 0-3.77 1.3z"/><path id="_Path_11" class="cls-1" d="M37.73 32.02h.09l12.63 29.43h1.95l12.62-29.43h.09l-.33 29.43h3.99V27.44h-5L51.48 55.23h-.16L39.34 27.44h-5.27v34.01h3.85l-.19-29.43z"/><path id="_Path_12" class="cls-1" d="M95.49 147.98L47.61 72.66H34.05v89.18H44.5V85.35l48.7 76.49h12.68V72.66H95.49v75.32z"/></g></svg>