<svg xmlns="http://www.w3.org/2000/svg" xmlns:xlink="http://www.w3.org/1999/xlink" viewBox="0 0 600 380.5" enable-background="new 0 0 600 380.5"><style type="text/css">.st0{fill:#FFFFFF;} .st1{fill-rule:evenodd;clip-rule:evenodd;fill:#FFFFFF;} .st2{fill-rule:evenodd;clip-rule:evenodd;fill:url(#XMLID_2_);} .st3{clip-path:url(#XMLID_4_);} .st4{fill:none;} .st5{opacity:0.66;fill:#4B4B4B;} .st6{fill:url(#SVGID_1_);}</style><path class="st0" d="M300.8 364.4c-1.8 0-3.7-.5-5.3-1.4l-16.8-9.9c-2.5-1.4-1.3-1.9-.5-2.2 3.3-1.2 4-1.4 7.6-3.4.4-.2.9-.1 1.2.1l12.9 7.7c.5.3 1.1.3 1.6 0l50.2-29c.5-.3.8-.8.8-1.4v-58c0-.6-.3-1.1-.8-1.4l-50.2-29c-.5-.3-1.1-.3-1.5 0l-50.2 29c-.5.3-.8.8-.8 1.4v58c0 .6.3 1.1.8 1.3l13.8 8c7.5 3.7 12-.7 12-5.1v-57.2c0-.8.7-1.4 1.5-1.4h6.4c.8 0 1.5.6 1.5 1.4v57.2c0 10-5.4 15.7-14.9 15.7-2.9 0-5.2 0-11.6-3.1l-13.2-7.6c-3.3-1.9-5.3-5.4-5.3-9.2v-58c0-3.8 2-7.3 5.3-9.2l50.2-29c3.2-1.8 7.4-1.8 10.6 0l50.2 29c3.3 1.9 5.3 5.4 5.3 9.2v58c0 3.8-2 7.3-5.3 9.2L306 363c-1.6.9-3.4 1.4-5.2 1.4zM316.3 324.5c-22 0-26.6-10.1-26.6-18.6 0-.8.6-1.4 1.5-1.4h6.5c.7 0 1.3.5 1.4 1.2 1 6.6 3.9 9.9 17.2 9.9 10.6 0 15.1-2.4 15.1-8 0-3.2-1.3-5.6-17.7-7.3-13.7-1.4-22.2-4.4-22.2-15.4 0-10.1 8.5-16.2 22.9-16.2 16.1 0 24.1 5.6 25.1 17.6 0 .4-.1.8-.4 1.1-.3.3-.7.5-1.1.5h-6.5c-.7 0-1.3-.5-1.4-1.1-1.6-7-5.4-9.2-15.7-9.2-11.6 0-12.9 4-12.9 7 0 3.7 1.6 4.7 17.2 6.8 15.4 2 22.8 4.9 22.8 15.8-.2 11-9.3 17.3-25.2 17.3zM388.7 263.7c0 5.3-4.4 9.7-9.7 9.7-5.3 0-9.7-4.3-9.7-9.7 0-5.5 4.5-9.7 9.7-9.7 5.3 0 9.7 4.2 9.7 9.7zm-17.8-.1c0 4.5 3.6 8.1 8.1 8.1s8.1-3.7 8.1-8.1c0-4.5-3.7-8.1-8.1-8.1-4.4.1-8.1 3.6-8.1 8.1zm4.5-5.4h3.7c1.3 0 3.8 0 3.8 2.9 0 2-1.3 2.4-2.1 2.7 1.5.1 1.6 1.1 1.8 2.5.1.9.3 2.4.6 2.9h-2.3c-.1-.5-.4-3.3-.4-3.4-.1-.6-.4-.9-1.1-.9h-1.9v4.4h-2.1v-11.1zm2 4.8h1.7c1.4 0 1.6-1 1.6-1.5 0-1.5-1-1.5-1.6-1.5h-1.7v3z"/><path class="st1" d="M145.2 137.6c0-2.3-1.2-4.4-3.2-5.6l-53.3-30.7c-.9-.5-1.9-.8-2.9-.8h-.6c-1 0-2 .3-2.9.8L29 132c-2 1.1-3.2 3.3-3.2 5.6l.1 82.5c0 1.1.6 2.2 1.6 2.8 1 .6 2.2.6 3.2 0l31.7-18.1c2-1.2 3.2-3.3 3.2-5.6v-38.6c0-2.3 1.2-4.4 3.2-5.6l13.5-7.8c1-.6 2.1-.9 3.2-.9s2.2.3 3.2.9l13.5 7.8c2 1.1 3.2 3.3 3.2 5.6v38.6c0 2.3 1.2 4.4 3.2 5.6l31.6 18.1c1 .6 2.2.6 3.2 0s1.6-1.6 1.6-2.8l.2-82.5zM401.5 24.1c-1-.6-2.2-.5-3.2 0-1 .6-1.6 1.6-1.6 2.8v81.7c0 .8-.4 1.5-1.1 1.9-.7.4-1.6.4-2.3 0l-13.3-7.7c-2-1.1-4.4-1.1-6.4 0l-53.3 30.7c-2 1.1-3.2 3.3-3.2 5.6v61.5c0 2.3 1.2 4.4 3.2 5.6l53.3 30.8c2 1.1 4.4 1.1 6.4 0l53.3-30.8c2-1.2 3.2-3.3 3.2-5.6V47.4c0-2.3-1.3-4.5-3.3-5.6l-31.7-17.7zm-5 156.5c0 .6-.3 1.1-.8 1.4l-18.3 10.5c-.5.3-1.1.3-1.6 0L357.5 182c-.5-.3-.8-.8-.8-1.4v-21.1c0-.6.3-1.1.8-1.4l18.3-10.6c.5-.3 1.1-.3 1.6 0l18.3 10.6c.5.3.8.8.8 1.4v21.1zM578.9 158.9c2-1.2 3.2-3.3 3.2-5.6v-14.9c0-2.3-1.2-4.4-3.2-5.6L526 102.1c-2-1.2-4.5-1.2-6.4 0l-53.3 30.7c-2 1.1-3.2 3.3-3.2 5.6v61.5c0 2.3 1.2 4.4 3.2 5.6l52.9 30.2c2 1.1 4.3 1.1 6.3 0l32-17.8c1-.6 1.6-1.6 1.7-2.8 0-1.2-.6-2.2-1.6-2.8L504 181.6c-1-.6-1.6-1.6-1.6-2.8v-19.3c0-1.1.6-2.2 1.6-2.8l16.7-9.6c1-.6 2.2-.6 3.2 0l16.7 9.6c1 .6 1.6 1.6 1.6 2.8v15.2c0 1.2.6 2.2 1.6 2.8 1 .6 2.2.6 3.2 0l31.9-18.6zM521.9 156c.4-.2.9-.2 1.2 0l10.2 5.9c.4.2.6.6.6 1.1v11.8c0 .4-.2.8-.6 1.1l-10.2 5.9c-.4.2-.9.2-1.2 0l-10.2-5.9c-.4-.2-.6-.6-.6-1.1V163c0-.4.2-.8.6-1.1l10.2-5.9z"/><linearGradient id="XMLID_2_" gradientUnits="userSpaceOnUse" x1="171.537" y1="169.329" x2="289.998" y2="169.329"><stop offset=".005" stop-color="#fff"/><stop offset=".194" stop-color="#E8E8E8"/><stop offset=".542" stop-color="#C2C2C2"/><stop offset=".824" stop-color="#ABABAB"/><stop offset="1" stop-color="#A3A3A3"/></linearGradient><path id="XMLID_67_" class="st2" d="M227.6 102.8c2-1.1 4.4-1.1 6.4 0l52.9 30.5c2 1.1 3.2 3.2 3.2 5.5v61c0 2.3-1.2 4.4-3.2 5.5L234 235.9c-2 1.1-4.4 1.1-6.4 0l-52.8-30.5c-2-1.1-3.2-3.2-3.2-5.5v-61c0-2.3 1.2-4.4 3.2-5.5l52.8-30.6z"/><defs><path id="XMLID_64_" d="M234 102.8c-2-1.1-4.4-1.1-6.4 0l-52.9 30.5c-2 1.1-3.2 3.2-3.2 5.5v61c0 2.3 1.2 4.4 3.2 5.5l52.9 30.5c2 1.1 4.4 1.1 6.4 0l52.8-30.5c2-1.1 3.2-3.2 3.2-5.5v-61c0-2.3-1.2-4.4-3.2-5.5L234 102.8z"/></defs><clipPath id="XMLID_4_"><use xlink:href="#XMLID_64_" overflow="visible"/></clipPath><g class="st3"><path class="st4" d="M227.5 102.8l-53 30.5c-2 1.1-3.5 3.2-3.5 5.5v61c0 1.5.7 2.9 1.6 4l59.5-101.7c-1.5-.4-3.1-.2-4.6.7zM232.6 236.4c.4-.1.8-.3 1.2-.5l52.5-30.5c2-1.1 2.7-3.2 2.7-5.5v-61c0-1.5-.2-3-1.1-4.1l-55.3 101.6z"/><path class="st5" d="M286.5 133.3l-52.6-30.5c-.5-.3-1.1-.5-1.7-.7l-59.5 101.7c.5.6 1.1 1.1 1.8 1.5l52.9 30.5c1.6.9 3.4 1.1 5.1.5l55.6-101.7c-.4-.5-.9-1-1.6-1.3z"/></g><g class="st3"><path class="st4" d="M175.2 132.9l-.7.3c-2 1.1-3.5 3.2-3.5 5.5v61c0 2.3 1.5 4.4 3.4 5.5l53 30.5c1.4.8 3.1 1 4.6.7l-56.8-103.5zM289 138.8c0-2.3-.7-4.4-2.7-5.5l-52.5-30.5c-.5-.3-1.1-.5-1.7-.6l56.9 97.4v-60.8z"/><linearGradient id="SVGID_1_" gradientUnits="userSpaceOnUse" x1="170.673" y1="169.242" x2="292.411" y2="169.242"><stop offset="0" stop-color="#A3A3A3"/><stop offset=".176" stop-color="#ABABAB"/><stop offset=".458" stop-color="#C2C2C2"/><stop offset=".806" stop-color="#E8E8E8"/><stop offset=".995" stop-color="#fff"/></linearGradient><path class="st6" d="M233.8 235.9l52.5-30.5c2-1.1 2.7-3.2 2.7-5.5v-.2l-56.8-97.4c-1.6-.5-3.3-.3-4.8.6l-52.2 30.2 56.9 103.7c.6-.4 1.2-.6 1.7-.9z"/></g></svg>