<svg xmlns="http://www.w3.org/2000/svg" viewBox="0 0 598.5 599.8" enable-background="new 0 0 598.5 599.8"><style type="text/css">.st0{fill:#FFFFFF;} .st1{fill:none;stroke:#FFFFFF;stroke-width:2;} .st2{fill:#FFFFFF;stroke:#000000;stroke-width:6;} .st3{fill:none;stroke:#FFFFFF;stroke-width:1.7316;} .st4{fill:none;stroke:#FFFFFF;stroke-width:1.9258;} .st5{fill:none;stroke:#FFFFFF;stroke-width:1.9521;} .st6{fill:none;stroke:#FFFFFF;stroke-width:1.932;} .st7{fill:none;stroke:#FFFFFF;stroke-width:1.7582;} .st8{fill:none;stroke:#FFFFFF;stroke-width:1.783;} .st9{fill:none;stroke:#FFFFFF;stroke-width:1.8954;} .st10{fill:none;stroke:#FFFFFF;stroke-width:1.966;} .st11{fill:none;stroke:#FFFFFF;stroke-width:1.9583;} .st12{fill:#FFFFFF;stroke:#FFFFFF;stroke-width:6;}</style><path class="st0" d="M509.9 610.425c118.5-8.2 197.1 49.8 242 120.4 22.5 35.4 44.6 89.2 44.7 144.5.1 60.1-19.3 112.1-44.7 150.2-26.1 39.2-59.8 71.6-102.1 92.9-70.6 35.6-169.3 36.5-234 2.3-72-38.1-127.3-92.6-147.9-186.9-8.2-37.8-9.2-86.6 2.3-128.4 2.7-9.8 7.6-20.2 11.5-29.8 18.6-46.4 50.3-86.8 89.5-114.7 15.7-11.2 34.8-22.4 51.6-29.8 20.9-9.3 56.1-18.6 87.1-20.7z"/><path d="M734.6 882.025c0 112-90.8 202.8-202.8 202.8s-202.8-90.8-202.8-202.8c0-112 90.8-202.8 202.8-202.8 112.1 0 202.8 90.8 202.8 202.8zM509.9 610.425c118.5-8.2 197.1 49.8 242 120.4 22.5 35.4 44.6 89.2 44.7 144.5.1 60.1-19.3 112.1-44.7 150.2-26.1 39.2-59.8 71.6-102.1 92.9-70.6 35.6-169.3 36.5-234 2.3-72-38.1-127.3-92.6-147.9-186.9-8.2-37.8-9.2-86.6 2.3-128.4 2.7-9.8 7.6-20.2 11.5-29.8 18.6-46.4 50.3-86.8 89.5-114.7 15.7-11.2 34.8-22.4 51.6-29.8 20.9-9.3 56.1-18.6 87.1-20.7zm-40.2-16.125c-44 11.4-76.3 31.9-104.4 53.9-40.5 31.8-66.3 76.2-81.4 129.6-16.8 59.4-6 131.4 17.2 176.6 24.1 46.9 56.4 83.3 102.1 108.9 44.4 24.9 106.9 41 172 28.7 57.9-10.9 101.8-36.1 137.6-73.4 47.9-49.9 86.4-141.7 60.8-238.5-6.8-25.9-15.8-52.9-29.8-75.7-7.6-12.3-18.7-24.5-29.8-36.7-42-46.1-109.9-85.9-197.3-80.3-16.6 1.1-31.2 2.8-47 6.9z"/><g id="hashpattern"><path class="st1" d="M544.1 1125.225l234.3-234.3M523.7 1106.625l235.3-235.3M503.2 1088.125l236.3-236.4M482.7 1069.525l237.4-237.4M462.2 1051.025l238.4-238.4M441.7 1032.425l239.4-239.4M421.2 1013.825l240.5-240.4M400.7 995.325l241.5-241.5M380.3 976.725l242.4-242.5M359.8 958.225l243.5-243.5M339.3 939.625l244.5-244.5M318.8 921.125l245.6-245.6M298.3 902.525l246.6-246.6M277.8 884.025l247.6-247.6M277.8 886.325l239 239M297.1 866.725l239.5 239.4M316.5 847.025l239.9 239.9M335.9 827.425l240.4 240.3M355.3 807.725l240.8 240.9M374.7 788.025l241.3 241.4M394.1 768.425l241.7 241.8M413.4 748.725l242.3 242.3M432.8 729.125l242.7 242.7M452.2 709.425l243.2 243.2M471.6 689.725l243.6 243.7M491 670.125l244.1 244.1M510.3 650.425l244.6 244.6M529.7 630.825l245.1 245"/></g><path d="M700.2 704.425c-21.1-21.1-47-40.1-78-51.6-32.1-11.9-68.4-22-111.2-18.3-68.2 5.8-116.1 36.4-152.5 72.3-25.5 25.1-44.7 55.8-57.3 91.7-18.6 52.7-17.5 114.9 3.4 168.6 17.8 45.8 47 82.7 88.3 111.2 38.8 26.9 94.5 47.7 157.1 42.4 76.2-6.4 132-45.5 168.6-90.6 9.4-11.5 18.7-24.6 24.1-40.1 5.3-11.2 7.9-18.9 10.3-22.9 10.2-22.8 15.5-46.8 17.2-73.4 5.1-81.8-26.4-145.7-70-189.3zm-22.4 213.575c-.1.3-.3.6-.4.9-3.8 10.8-10.3 19.9-16.8 27.9-25.6 31.3-64.6 58.4-117.9 62.9-43.8 3.7-82.7-10.8-109.9-29.5-23.6-16.2-41.5-36.3-54.1-60.4-.8-1.5-8.1-18.3-8.1-19-10-30.9-10.8-80.6-.6-110.4 6.8-19.9 18.2-41.4 33.3-58.5 20.8-23.6 41.6-38.6 74.5-49.3 15-4.9 28.5-9.8 47-10.3 45.2-1.2 91.1 19.1 115.8 41.3 22.7 20.4 48.5 60.2 55 97.5 6.8 38.3-.4 75.8-17.8 106.9z"/><path class="st2" d="M599.3 990.425c-11.1 0-20.9-7-24.3-17.5l-12.4-37.7h-62l-11.4 37.4c-3.5 10.7-13.3 17.8-24.5 17.8-2.7 0-5.3-.4-7.9-1.3-13.4-4-20.9-18.4-16.9-32l52.3-165.6c3.4-10.5 13.4-17.9 24.3-17.9h27.8c11 0 21 7.2 24.3 17.6l55 165.6c4.4 13.5-2.9 28.1-16.2 32.4-2.6.8-5.4 1.2-8.1 1.2z"/><g id="OAUTH"><path class="st0" d="M393.9 720.825c-6.6-9-4.7-21.5 4.9-28.5 9.6-7 21.9-5 28.5 3.9l.1.1c6.5 8.9 4.6 21.4-5 28.4s-22 5-28.5-3.9zm24.7-53.725c-3.3-4.6-9.4-6.1-14.2-2.7-4.7 3.4-5.1 9.6-1.8 14.1l.1.1c3.3 4.5 9.4 6 14.1 2.6 4.8-3.5 5.1-9.6 1.8-14.1zM456.8 662.225l9.8-3.1 27.5 31.9-10.9 3.5-4.8-5.7-14.2 4.5-.5 7.4-10.7 3.4 3.8-41.9zm16.1-16.025l-7.4-9.1-.8 11.8 8.2-2.7zM511.7 671.825l.1-21.6h10.8l-.1 21.4c0 5.6 2.8 8.2 7.1 8.2s7.1-2.5 7.1-7.9l.1-21.7h10.8l-.1 21.4c0 12.4-7.2 17.9-18.1 17.8-10.9 0-17.7-5.5-17.7-17.6zM586.9 668.025l-11.1-3.4 2.7-8.9 32.3 9.9-2.7 8.9-11.1-3.4-8.5 27.9-10.2-3.1 8.6-27.9zM639.7 678.125l8.9 5.9-8 12 11.4 7.6 8-12 8.9 5.9-21.3 32.1-8.9-5.9 8.1-12.2-11.4-7.6-8.1 12.2-8.9-5.9 21.3-32.1zM671.1 1028.725c6.9 8.8 5.5 21.3-3.8 28.7-9.3 7.4-21.7 5.9-28.6-2.8l-.1-.1c-6.9-8.7-5.4-21.3 3.9-28.6 9.4-7.4 21.8-5.9 28.6 2.8zm-24-16.625c3.5 4.4 9.7 5.8 14.3 2.1 4.6-3.6 4.7-9.8 1.3-14.1l-.1-.1c-3.4-4.4-9.6-5.7-14.2-2.1-4.6 3.7-4.7 9.8-1.3 14.2zM610.9 1089.825l-9.7 3.6-28.9-30.7 10.7-4 5 5.5 13.9-5.2.2-7.4 10.5-3.9-1.7 42.1zm-17-54.525l7.8 8.8.3-11.8-8.1 3zM555.6 1082.425l1 21.6-10.8.5-.9-21.4c-.2-5.6-3.2-8.1-7.5-7.9-4.3.2-7 2.8-6.7 8.2l1 21.7-10.8.5-.9-21.3c-.5-12.4 6.3-18.2 17.2-18.7 10.8-.5 17.9 4.8 18.4 16.8zM480.3 1089.525l11.2 3-2.4 9-32.6-8.8 2.4-9 11.2 3 7.6-28.2 10.3 2.8-7.7 28.2zM427.6 1081.725l-9.2-5.5 7.4-12.4-11.8-7-7.4 12.4-9.2-5.5 19.8-33.1 9.2 5.5-7.5 12.6 11.8 7 7.5-12.6 9.2 5.5-19.8 33.1z"/></g><path class="st0" d="M1790 425.8c118.5-8.2 197.1 49.8 242 120.4 22.5 35.4 44.6 89.2 44.7 144.5.1 60.1-19.3 112.1-44.7 150.2-26.1 39.2-59.8 71.6-102.1 92.9-70.6 35.6-169.3 36.5-234 2.3-72-38.1-127.3-92.6-147.9-186.9-8.2-37.8-9.2-86.6 2.3-128.4 2.7-9.8 7.6-20.2 11.5-29.8 18.6-46.4 50.3-86.8 89.5-114.7 15.7-11.2 34.8-22.4 51.6-29.8 20.9-9.3 56.1-18.6 87.1-20.7z"/><path d="M1735.2 166.5c0 112-90.8 202.8-202.8 202.8s-202.8-90.8-202.8-202.8c0-112 90.8-202.8 202.8-202.8 112 0 202.8 90.8 202.8 202.8z"/><path class="st0" d="M277.9 47.2C396.4 39 475 97 519.9 167.7c22.5 35.4 44.6 89.2 44.7 144.5.1 60.1-19.3 112.1-44.7 150.2-26.1 39.2-59.8 71.6-102.1 92.9-70.6 35.6-169.3 36.5-234 2.3-72-38.1-127.3-92.6-147.9-186.9-8.2-37.8-9.2-86.6 2.3-128.4 2.7-9.8 7.6-20.2 11.5-29.8C68.3 166 100 125.6 139.1 97.7c15.7-11.2 34.8-22.4 51.6-29.8 21-9.3 56.2-18.5 87.2-20.7zm-40.1 19.5c-44 11.4-76.3 31.9-104.4 53.9-40.5 31.8-66.3 76.2-81.4 129.6-16.8 59.4-6 131.4 17.2 176.6 24.1 46.9 56.4 83.3 102.1 108.9 44.4 24.9 106.9 41 172 28.7 57.9-10.9 101.8-36.1 137.6-73.4 47.9-49.9 86.4-141.7 60.8-238.5-6.8-25.9-15.8-52.9-29.8-75.7-7.6-12.3-18.7-24.5-29.8-36.7C440 94 372.1 54.2 284.8 59.9c-16.6 1-31.2 2.7-47 6.8z"/><path class="st3" d="M323 507.6l203.7-203.8"/><path class="st1" d="M270.9 520.6l236.4-236.3"/><path class="st4" d="M259.3 493.2l228.5-228.5"/><path class="st1" d="M230 483.5l238.4-238.4M209.5 464.9l239.4-239.4M189 446.4L429.4 206M168.5 427.8L410 186.4M148 409.3l242.5-242.5M127.5 390.7l243.6-243.5"/><path class="st5" d="M107.1 372.2l238.6-238.7"/><path class="st1" d="M86.6 353.6l245.5-245.5M-98.3 688.2"/><path class="st6" d="M66.1 335.1l213.4-213.4"/><path class="st7" d="M64.9 299.2l210.5 210.5"/><path class="st8" d="M84.3 279.6l213.9 213.9"/><path class="st9" d="M103.7 259.9l227.8 227.8"/><path class="st1" d="M123.1 240.2l240.8 240.9M142.4 220.6l241.4 241.3M161.8 200.9l241.8 241.8M181.2 181.3l242.2 242.2M200.6 161.6l242.7 242.7M220 142l243.1 243.1"/><path class="st10" d="M243.5 126.4L483 365.9"/><path class="st1" d="M258.7 102.6l244.1 244.1"/><path class="st11" d="M313.7 118.6l209 209"/><path class="st12" d="M367.1 423c-11.1 0-20.9-7-24.3-17.5l-12.4-37.7h-62l-11.5 37.4c-3.5 10.7-13.3 17.8-24.5 17.8-2.7 0-5.3-.4-7.9-1.3-13.4-4-20.9-18.4-16.9-32L260 224c3.4-10.5 13.4-17.9 24.3-17.9h27.8c11 0 21 7.2 24.3 17.6l55 165.6c4.4 13.5-2.9 28.1-16.2 32.4-2.7.8-5.4 1.3-8.1 1.3z"/><path class="st0" d="M368.5 515.2l.3-11.8-8.1 3zM169.5 149.8c3.3 4.5 9.4 6 14.1 2.6 4.8-3.5 5.1-9.6 1.8-14.1l-.1-.1c-3.3-4.5-9.4-6-14.1-2.6-4.7 3.5-5.1 9.6-1.7 14.2zM467 140c-21.1-21.1-47-40.1-78-51.6-32.1-11.9-68.4-22-111.2-18.3-68.2 5.8-116.1 36.4-152.5 72.3-25.5 25.1-44.7 55.8-57.3 91.7-18.7 52.6-17.5 114.9 3.4 168.5 17.8 45.8 47 82.7 88.3 111.2 38.8 26.9 94.5 47.7 157.1 42.4 76.2-6.4 132-45.5 168.6-90.6 9.4-11.5 18.7-24.6 24.1-40.1 5.3-11.2 7.9-18.9 10.3-22.9 10.2-22.8 15.5-46.8 17.2-73.4 5.1-81.8-26.4-145.6-70-189.2zm-60.5-26.4l8.9 5.9-8 12 11.4 7.6 8-12 8.9 5.9-21.3 32.1-8.9-5.9 8.1-12.2-11.4-7.6-8.1 12.2-8.9-5.9 21.3-32.1zm-61.2-22.4l32.3 9.9-2.7 8.9-11.1-3.4-8.5 27.9-10.2-3.1 8.5-27.9-11.1-3.4 2.8-8.9zm-66.7-5.5h10.8l-.1 21.4c0 5.6 2.8 8.2 7.1 8.2s7.1-2.5 7.1-7.9l.1-21.7h10.8l-.1 21.4c0 12.4-7.2 17.9-18.1 17.8-11 0-17.8-5.6-17.8-17.7l.2-21.5zm-55 12l9.8-3.1 27.5 31.9L250 130l-4.8-5.7-14.2 4.5-.5 7.4-10.7 3.4 3.8-41.9zm-58 30.1c9.6-7 21.9-5 28.5 3.9l.1.1c6.5 8.9 4.6 21.4-5 28.4s-21.9 5-28.5-3.9l-.1-.1c-6.5-8.9-4.6-21.4 5-28.4zm28.7 389.4l-9.2-5.5 7.4-12.4-11.8-7-7.4 12.4-9.2-5.5 19.8-33.1 9.2 5.5-7.5 12.6 11.8 7 7.5-12.6 9.2 5.5-19.8 33.1zm61.5 19.9l-32.6-8.8 2.4-9 11.2 3 7.6-28.2 10.3 2.8-7.6 28.2 11.2 3-2.5 9zm56.7 3l-.9-21.4c-.2-5.6-3.2-8.1-7.5-7.9-4.3.2-7 2.8-6.7 8.2l1 21.7-10.8.5-.9-21.3c-.5-12.4 6.3-18.2 17.2-18.7 10.9-.5 18.1 4.8 18.6 16.8l1 21.6-11 .5zm65.1-14.8l-9.7 3.6-28.9-30.7 10.7-4 5 5.5 13.9-5.2.2-7.4 10.5-3.9-1.7 42.1zm56.5-32.3c-9.3 7.4-21.7 5.9-28.6-2.8l-.1-.1c-6.9-8.7-5.4-21.3 3.9-28.6 9.3-7.4 21.7-5.9 28.6 2.8l.1.1c6.8 8.6 5.4 21.2-3.9 28.6zm10.5-103.9c-.1.3-.3.6-.4.9-3.8 10.8-10.3 19.9-16.8 27.9-25.6 31.3-64.6 58.4-117.9 62.9-43.8 3.7-82.7-10.8-109.9-29.5-23.6-16.2-41.5-36.3-54.1-60.4-.8-1.5-8.1-18.3-8.1-19-10-30.9-10.8-80.6-.6-110.4 6.8-19.9 18.2-41.4 33.3-58.5 20.8-23.6 41.6-38.6 74.5-49.3 15-4.9 28.5-9.8 47-10.3 45.2-1.2 91.1 19.1 115.8 41.3 22.7 20.4 48.5 60.2 55 97.5 6.7 38.4-.4 75.9-17.8 106.9zM429.4 471.1c-3.4-4.4-9.6-5.7-14.2-2.1-4.6 3.7-4.8 9.8-1.3 14.2l.1.1c3.4 4.4 9.6 5.7 14.2 2 4.6-3.6 4.7-9.7 1.2-14.2zM232.3 108.2l-.8 11.8 8.2-2.6z"/></svg>