<svg xmlns="http://www.w3.org/2000/svg" viewBox="0 0 256 230" enable-background="new 0 0 256 230"><style type="text/css">.st0{fill:#FFFFFF;} .st1{fill:#C6CBCC;}</style><path class="st0" d="M.8 114.8c0 19.2 18.8 37.2 48.3 47.3-5.9 29.7-1.1 53.7 15.1 63 16.6 9.6 41.4 3 65-17.6 22.9 19.7 46.1 27.5 62.3 18.1 16.6-9.6 21.7-35.2 15.6-65.9 30.8-10.2 48-25.5 48-44.9 0-18.8-18.8-35-48-45.1 6.5-31.9 1-55.3-15.9-65-16.3-9.4-39.7-1.2-63 19.1C104.1 2.2 80.9-4.4 64 5.4c-16.2 9.4-20.9 33.8-15 64.1C20.5 79.5.8 96.1.8 114.8z"/><path class="st1" d="M201 79.7c-2.3-.8-4.8-1.6-7.3-2.3.4-1.7.8-3.3 1.1-5 5.5-26.7 1.9-48.3-10.4-55.3-11.8-6.8-31.1.3-50.5 17.2-1.9 1.6-3.7 3.4-5.6 5.2-1.3-1.2-2.5-2.4-3.7-3.5-20.4-18.1-40.9-25.8-53.1-18.6-11.8 6.8-15.3 27.1-10.3 52.4.5 2.4 1 4.9 1.7 7.5-2.9.8-5.7 1.7-8.4 2.6-23.9 8.3-39.2 21.4-39.2 35 0 14 16.4 28 41.3 36.6 2 .7 4 1.3 6.1 1.9-.7 2.7-1.3 5.4-1.8 8.1-4.7 24.9-1 44.7 10.7 51.4 12.1 7 32.5-.2 52.3-17.5 1.6-1.4 3.1-2.8 4.7-4.3 2 2 4.1 3.8 6.1 5.6 19.2 16.5 38.2 23.2 49.9 16.4 12.1-7 16.1-28.2 10.9-54.1-.4-2-.8-4-1.4-6 1.4-.4 2.8-.9 4.2-1.3 25.9-8.6 42.8-22.5 42.8-36.6.1-13.9-15.7-27-40.1-35.4z"/><path class="st0" d="M195.4 142.3c-1.2.4-2.5.8-3.8 1.2-2.9-9.1-6.7-18.7-11.4-28.6 4.5-9.7 8.2-19.2 11-28.2 2.3.7 4.6 1.4 6.7 2.1 20.9 7.2 33.7 17.8 33.7 26-.1 8.8-13.8 20.1-36.2 27.5zm-9.3 18.4c2.3 11.4 2.6 21.7 1.1 29.8-1.3 7.3-4.1 12.1-7.4 14-7.1 4.1-22.3-1.2-38.8-15.4-1.9-1.6-3.8-3.3-5.7-5.2 6.4-7 12.7-15.1 18.9-24 10.9-1 21.2-2.6 30.6-4.7.6 1.9 1 3.7 1.3 5.5zm-93.8 43.2c-7 2.5-12.5 2.5-15.8.6-7.1-4.1-10.1-20-6-41.3.5-2.4 1-4.9 1.6-7.5 9.3 2 19.5 3.5 30.5 4.4 6.3 8.8 12.8 16.9 19.4 24-1.4 1.4-2.9 2.7-4.3 4-8.9 7.6-17.7 13-25.4 15.8zm-32.6-61.6c-11-3.8-20.1-8.7-26.4-14-5.6-4.8-8.4-9.6-8.4-13.4 0-8.2 12.3-18.7 32.7-25.9 2.5-.9 5.1-1.7 7.8-2.4 2.8 9.2 6.5 18.8 11 28.5-4.5 9.9-8.3 19.6-11.2 28.9-1.9-.5-3.7-1.1-5.5-1.7zm10.9-74.4c-4.2-21.7-1.4-38.1 5.7-42.2 7.6-4.4 24.3 1.9 41.9 17.5 1.1 1 2.3 2 3.4 3.1-6.6 7-13.1 15.1-19.2 23.8-10.6 1-20.8 2.6-30.2 4.7-.6-2.3-1.1-4.6-1.6-6.9zM168.1 92c-2.2-3.9-4.5-7.6-6.9-11.3 7.2.9 14.1 2.1 20.6 3.6-1.9 6.2-4.4 12.8-7.2 19.5-2.1-4-4.2-7.9-6.5-11.8zm-39.8-38.7c4.5 4.8 8.9 10.2 13.3 16.1-4.4-.2-8.9-.3-13.4-.3s-8.9.1-13.3.3c4.4-5.9 8.9-11.3 13.4-16.1zM88.3 92c-2.2 3.9-4.4 7.8-6.4 11.7-2.8-6.7-5.2-13.2-7.2-19.6 6.4-1.4 13.3-2.6 20.5-3.5L88.3 92zm7.2 57.7c-7.4-.8-14.4-1.9-20.8-3.3 2-6.4 4.5-13.1 7.3-19.9 2 3.9 4.2 7.8 6.4 11.7 2.3 3.9 4.6 7.7 7.1 11.5zm33.1 27.4c-4.6-4.9-9.1-10.4-13.6-16.3 4.3.2 8.7.3 13.2.3 4.6 0 9.2-.1 13.6-.3-4.3 6-8.8 11.4-13.2 16.3zm46.1-51c3 6.9 5.6 13.5 7.6 19.9-6.6 1.5-13.6 2.7-21.1 3.6 2.3-3.7 4.7-7.6 6.9-11.5 2.3-4 4.5-8 6.6-12zm-14.9 7.1c-3.5 6.1-7.2 12-10.8 17.5-6.7.5-13.6.7-20.7.7-7 0-13.9-.2-20.5-.6-3.8-5.6-7.5-11.5-11-17.5s-6.7-12.1-9.6-18.2c2.9-6.1 6.1-12.2 9.6-18.2 3.5-6.1 7.2-11.9 11-17.4 6.7-.5 13.6-.8 20.6-.8 7 0 13.9.3 20.6.8 3.7 5.5 7.4 11.3 10.9 17.4 3.5 6.1 6.8 12.2 9.7 18.1-3.1 6-6.3 12.1-9.8 18.2zm19.9-107.8c7.6 4.4 10.5 22 5.8 45-.3 1.5-.6 3-1 4.5-9.4-2.2-19.6-3.8-30.2-4.8-6.2-8.8-12.6-16.9-19.1-23.8 1.7-1.7 3.5-3.3 5.2-4.8 16.6-14.4 32.2-20.2 39.3-16.1z"/><path class="st1" d="M128.2 94.7c11.1 0 20.2 9 20.2 20.2 0 11.1-9 20.2-20.2 20.2s-20.2-9-20.2-20.2 9.1-20.2 20.2-20.2"/></svg>