<svg xmlns="http://www.w3.org/2000/svg" viewBox="0 0 2500 1992" enable-background="new 0 0 2500 1992"><style type="text/css">.st0{fill:#FFFFFF;}</style><path class="st0" d="M1591.1 397.1c-47.1-47.1-123.5-47.1-170.5 0l-767.5 767.5c-94.2 94.2-246.9 94.2-341.1 0-94.3-94.2-94.3-246.9 0-341.1l752.7-752.7c-94.2-94.2-246.9-94.2-341.1 0L141.4 653c-188.4 188.4-188.4 493.8 0 682.2 188.4 188.4 493.8 188.4 682.2 0l767.5-767.5c47.1-47.1 47.1-123.5 0-170.6zm255.8-255.8c-188.4-188.4-493.8-188.4-682.2 0L397.2 908.8c-47.1 47.1-47.1 123.5 0 170.6 47.1 47.1 123.4 47.1 170.5 0L1335.2 312c94.2-94.2 246.9-94.2 341 0 47.1 47.1 123.5 47.1 170.6 0 47.2-47.3 47.2-123.6.1-170.7zm255.9 767.5c-47.1-47-123.5-47-170.6 0l-767.5 767.5c-94.2 94.2-246.9 94.2-341.1 0-47.1-47.1-123.4-47.1-170.5 0-47.2 47.1-47.2 123.5 0 170.5 188.3 188.4 493.8 188.4 682.2 0l767.5-767.4c47-47.1 47-123.6 0-170.6zM2358.6 653c-188.4-188.4-493.9-188.4-682.2 0l-767.5 767.5c-47.1 47-47.1 123.5 0 170.5 47.1 47.1 123.5 47.1 170.6 0L1847 823.5c94.2-94.2 246.9-94.2 341.1 0 94.2 94.2 94.2 246.9 0 341.1l-752.7 752.7c94.2 94.2 246.9 94.2 341.1 0l582.2-582.2c188.3-188.4 188.3-493.7-.1-682.1z"/></svg>