<?xml version="1.0" standalone="no"?>
<!DOCTYPE svg PUBLIC "-//W3C//DTD SVG 20010904//EN"
 "http://www.w3.org/TR/2001/REC-SVG-20010904/DTD/svg10.dtd">
<svg version="1.0" xmlns="http://www.w3.org/2000/svg"
 width="1024.000000pt" height="1024.000000pt" viewBox="0 0 1024.000000 1024.000000"
 preserveAspectRatio="xMidYMid meet">
<metadata>
Created by potrace 1.11, written by Peter Selinger 2001-2013
</metadata>
<g transform="translate(0.000000,1024.000000) scale(0.100000,-0.100000)"
fill="#000000" stroke="none">
<path d="M3636 8200 c-96 -31 -144 -166 -112 -320 30 -143 95 -246 302 -475
197 -219 216 -261 147 -326 -43 -41 -224 -166 -328 -227 -87 -50 -173 -76
-223 -67 -21 4 -113 40 -207 80 -224 96 -353 137 -419 133 l-51 -3 2 -35 c2
-19 4 -98 5 -175 3 -114 0 -150 -15 -192 -28 -79 -68 -127 -134 -159 -179 -89
-529 21 -1041 326 -293 175 -578 373 -1096 762 -182 137 -337 248 -346 248
-70 0 -51 -116 54 -335 254 -527 1040 -1710 2311 -3475 161 -223 298 -416 305
-430 7 -14 30 -49 52 -78 48 -65 100 -91 179 -92 50 0 74 9 239 90 378 185
656 283 950 336 131 24 377 24 485 0 358 -79 596 -343 691 -766 38 -170 46
-268 42 -530 -3 -239 -2 -246 21 -297 45 -101 154 -164 257 -148 97 14 140 61
304 330 104 170 214 311 344 441 181 180 326 279 527 361 167 68 293 93 494
100 331 10 638 -61 1038 -242 326 -147 614 -328 1238 -777 214 -154 322 -218
365 -218 35 0 81 46 103 103 117 315 47 1184 -166 2032 -402 1608 -1156 2837
-2099 3421 -909 563 -2010 533 -3224 -87 -121 -62 -157 -76 -166 -66 -7 6 -31
57 -54 112 -101 240 -185 352 -369 491 -164 124 -317 182 -405 154z"/>
</g>
</svg>
